<?xml version="1.0" encoding="UTF-8" standalone="no"?>
<!-- Created with Inkscape (http://www.inkscape.org/) -->

<svg
   width="192.58191mm"
   height="128.58766mm"
   viewBox="0 0 192.58191 128.58766"
   version="1.1"
   id="svg1"
   xml:space="preserve"
   sodipodi:docname="MOCO_geometry.svg"
   inkscape:version="1.3.2 (091e20e, 2023-11-25, custom)"
   inkscape:export-filename="SAR_geometry.png"
   inkscape:export-xdpi="600"
   inkscape:export-ydpi="600"
   xmlns:inkscape="http://www.inkscape.org/namespaces/inkscape"
   xmlns:sodipodi="http://sodipodi.sourceforge.net/DTD/sodipodi-0.dtd"
   xmlns="http://www.w3.org/2000/svg"
   xmlns:svg="http://www.w3.org/2000/svg"><sodipodi:namedview
     id="namedview1"
     pagecolor="#ffffff"
     bordercolor="#000000"
     borderopacity="0.25"
     inkscape:showpageshadow="2"
     inkscape:pageopacity="0.0"
     inkscape:pagecheckerboard="0"
     inkscape:deskcolor="#d1d1d1"
     inkscape:document-units="mm"
     inkscape:zoom="0.8656486"
     inkscape:cx="242.59266"
     inkscape:cy="203.89336"
     inkscape:window-width="1920"
     inkscape:window-height="991"
     inkscape:window-x="-9"
     inkscape:window-y="1341"
     inkscape:window-maximized="1"
     inkscape:current-layer="layer1"
     inkscape:export-bgcolor="#ffffffff" /><defs
     id="defs1"><inkscape:path-effect
       effect="bend_path"
       id="path-effect8"
       is_visible="true"
       lpeversion="1"
       bendpath="#path8"
       prop_scale="1"
       scale_y_rel="false"
       vertical="false"
       hide_knot="false" /><rect
       x="41.895844"
       y="122.07582"
       width="160.35995"
       height="64.288452"
       id="rect13" /><rect
       x="73.678902"
       y="150.24718"
       width="112.68537"
       height="27.449001"
       id="rect12" /><marker
       style="overflow:visible"
       id="marker11"
       refX="0"
       refY="0"
       orient="auto-start-reverse"
       markerWidth="1"
       markerHeight="1"
       viewBox="0 0 1 1"
       preserveAspectRatio="xMidYMid"><path
         transform="scale(0.7)"
         d="M -2,-4 9,0 -2,4 c 2,-2.33 2,-5.66 0,-8 z"
         style="fill:context-stroke;fill-rule:evenodd;stroke:none"
         id="path11" /></marker><marker
       style="overflow:visible"
       id="marker10"
       refX="0"
       refY="0"
       orient="auto-start-reverse"
       markerWidth="1"
       markerHeight="1"
       viewBox="0 0 1 1"
       preserveAspectRatio="xMidYMid"><path
         transform="scale(0.7)"
         d="M -2,-4 9,0 -2,4 c 2,-2.33 2,-5.66 0,-8 z"
         style="fill:context-stroke;fill-rule:evenodd;stroke:none"
         id="path10" /></marker><marker
       style="overflow:visible"
       id="ConcaveTriangle"
       refX="0"
       refY="0"
       orient="auto-start-reverse"
       markerWidth="1"
       markerHeight="1"
       viewBox="0 0 1 1"
       preserveAspectRatio="xMidYMid"><path
         transform="scale(0.7)"
         d="M -2,-4 9,0 -2,4 c 2,-2.33 2,-5.66 0,-8 z"
         style="fill:context-stroke;fill-rule:evenodd;stroke:none"
         id="path9" /></marker><rect
       x="41.895844"
       y="122.07582"
       width="160.35995"
       height="64.288452"
       id="rect13-8" /><rect
       x="41.895844"
       y="122.07582"
       width="160.35995"
       height="64.288452"
       id="rect13-8-9" /><rect
       x="41.895844"
       y="122.07582"
       width="160.35995"
       height="64.288452"
       id="rect13-8-9-1" /><rect
       x="41.895844"
       y="122.07582"
       width="160.35995"
       height="64.288452"
       id="rect13-4" /><rect
       x="41.895844"
       y="122.07582"
       width="160.35995"
       height="64.288452"
       id="rect13-4-3" /><rect
       x="41.895844"
       y="122.07582"
       width="160.35995"
       height="64.288452"
       id="rect13-4-3-1" /><rect
       x="41.895844"
       y="122.07582"
       width="160.35995"
       height="64.288452"
       id="rect13-4-3-4" /><rect
       x="41.895844"
       y="122.07582"
       width="160.35995"
       height="64.288452"
       id="rect13-2" /><rect
       x="41.895844"
       y="122.07582"
       width="160.35995"
       height="64.288452"
       id="rect13-4-3-1-2" /><rect
       x="41.895844"
       y="122.07582"
       width="160.35995"
       height="64.288452"
       id="rect13-4-3-4-2" /><rect
       x="41.895844"
       y="122.07582"
       width="160.35995"
       height="64.288452"
       id="rect13-8-6" /><rect
       x="41.895844"
       y="122.07582"
       width="160.35995"
       height="64.288452"
       id="rect13-4-3-4-2-9" /><rect
       x="41.895844"
       y="122.07582"
       width="160.35995"
       height="64.288452"
       id="rect13-4-3-4-2-6" /><marker
       style="overflow:visible"
       id="marker11-3"
       refX="0"
       refY="0"
       orient="auto-start-reverse"
       markerWidth="1"
       markerHeight="1"
       viewBox="0 0 1 1"
       preserveAspectRatio="xMidYMid"><path
         transform="scale(0.7)"
         d="M -2,-4 9,0 -2,4 c 2,-2.33 2,-5.66 0,-8 z"
         style="fill:context-stroke;fill-rule:evenodd;stroke:none"
         id="path11-3" /></marker><marker
       style="overflow:visible"
       id="marker11-4"
       refX="0"
       refY="0"
       orient="auto-start-reverse"
       markerWidth="1"
       markerHeight="1"
       viewBox="0 0 1 1"
       preserveAspectRatio="xMidYMid"><path
         transform="scale(0.7)"
         d="M -2,-4 9,0 -2,4 c 2,-2.33 2,-5.66 0,-8 z"
         style="fill:context-stroke;fill-rule:evenodd;stroke:none"
         id="path11-6" /></marker><rect
       x="41.895844"
       y="122.07582"
       width="160.35995"
       height="64.288452"
       id="rect13-4-3-4-0" /><rect
       x="41.895844"
       y="122.07582"
       width="160.35995"
       height="64.288452"
       id="rect13-4-3-4-0-9" /><rect
       x="41.895844"
       y="122.07582"
       width="160.35995"
       height="64.288452"
       id="rect13-8-5" /><rect
       x="41.895844"
       y="122.07582"
       width="160.35995"
       height="64.288452"
       id="rect13-8-5-9" /><rect
       x="41.895844"
       y="122.07582"
       width="160.35995"
       height="64.288452"
       id="rect13-8-9-1-3" /></defs><g
     id="layer1"
     transform="translate(-9.7816865,-18.037752)"><path
       style="fill:#000000;fill-opacity:1;stroke:#000000;stroke-width:1;stroke-dasharray:none;stroke-opacity:1;marker-end:url(#ConcaveTriangle)"
       d="M 9.9382236,77.212345 182.71042,20.258688"
       id="path1" /><path
       style="fill:#000000;fill-opacity:1;stroke:#000000;stroke-width:1;stroke-dasharray:none;stroke-opacity:1;marker-end:url(#marker10)"
       d="M 9.9505977,136.44137 196.3803,74.985669"
       id="path2" /><path
       style="fill:#000000;fill-opacity:1;stroke:#000000;stroke-width:1;stroke-dasharray:none;stroke-dashoffset:0;stroke-opacity:1;marker-end:url(#marker11)"
       d="m 164.17334,72.880381 22.67092,45.917609"
       id="path3"
       sodipodi:nodetypes="cc" /><path
       style="fill:#000000;fill-opacity:1;stroke:#000000;stroke-width:0.5;stroke-dasharray:1.5, 0.5;stroke-dashoffset:0;stroke-opacity:1"
       d="m 100.58516,49.475359 23.07897,88.774851"
       id="path5-3"
       sodipodi:nodetypes="cc" /><path
       d="m 167.53483,91.888804 1.1724,-0.577758 0.0866,0.175623 q 0.12755,0.04332 0.37848,0.02589 0.25571,-0.01989 0.64252,-0.204554 l 1.21973,-0.577491 0.90991,1.846424 -2.10274,1.036236 0.15673,0.318014 -1.17241,0.577758 -0.269,-0.545853 0.66453,-0.32748 -0.75319,-1.52839 -0.66452,0.327461 z m 1.54897,0.186711 0.47952,0.973025 1.5901,-0.783584 -0.36022,-0.730978 -0.70717,0.336696 q -0.37257,0.177702 -0.62834,0.209355 -0.24868,0.03402 -0.3739,-0.0045 z m 0.97677,3.382683 q -0.19649,-0.398717 -0.088,-0.741238 0.11553,-0.340133 0.48105,-0.520231 0.37972,-0.18712 0.73147,-0.03599 0.3565,0.148681 0.58104,0.604448 l 0.31344,0.636038 0.18512,-0.09123 q 0.39395,-0.194127 0.16706,-0.654552 -0.10292,-0.208865 -0.24444,-0.292493 -0.1415,-0.08365 -0.29566,-0.02545 l -0.28068,-0.569582 q 0.3606,-0.15411 0.71461,0.01355 0.35635,0.172456 0.58792,0.642352 0.24561,0.498403 0.14869,0.888319 -0.0969,0.389917 -0.51936,0.598099 l -1.77047,0.872487 -0.28537,-0.579095 0.48889,-0.240915 q -0.26793,0.09074 -0.51092,-0.04316 -0.24298,-0.133914 -0.40437,-0.461449 z m 0.57771,-0.04873 q 0.12865,0.261052 0.33166,0.349796 0.20301,0.08877 0.4166,-0.01645 l 0.30853,-0.152051 -0.29942,-0.607552 q -0.0959,-0.194627 -0.26121,-0.254727 -0.16531,-0.06002 -0.33618,0.02409 -0.17563,0.08656 -0.22633,0.259031 -0.0436,0.17487 0.0663,0.39796 z m 0.3324,1.859657 0.54112,-0.266667 0.0538,0.109177 q 0.0795,0.161372 0.24744,0.178928 0.17491,0.02086 0.46215,-0.115651 l 1.57092,-0.738756 0.94031,1.908111 -2.61061,1.286525 -0.29239,-0.593334 2.07425,-1.022172 -0.36021,-0.730977 -1.0631,0.500287 q -0.52206,0.245477 -0.90723,0.146216 -0.37809,-0.09688 -0.58394,-0.514542 z m 1.58875,3.140075 2.61063,-1.286501 0.29472,0.59807 -0.85438,0.421051 0.32045,0.65027 q 0.23157,0.46991 0.12757,0.85743 -0.0993,0.38516 -0.5122,0.58867 -0.40346,0.19882 -0.77646,0.0405 -0.36592,-0.15591 -0.5928,-0.61637 z m 0.81211,0.3431 0.30876,0.62656 q 0.10058,0.2041 0.25165,0.27125 0.15108,0.0671 0.32196,-0.0171 0.17087,-0.0842 0.20966,-0.2449 0.0388,-0.1607 -0.0618,-0.3648 l -0.30875,-0.62656 z m 0.56797,2.45741 2.61061,-1.28652 0.2924,0.59332 -1.00628,0.49589 0.45847,0.93034 1.00627,-0.49589 0.29239,0.5933 -2.61063,1.28652 -0.29238,-0.59333 1.06798,-0.52629 -0.45846,-0.93033 -1.06799,0.5263 z m 1.88235,3.92747 q -0.24794,-0.50313 -0.11292,-0.93542 0.1398,-0.43463 0.61918,-0.67089 l 0.60756,-0.29941 q 0.48415,-0.23858 0.90922,-0.0823 0.42506,0.15638 0.67302,0.65943 0.24794,0.50313 0.11292,0.93543 -0.13505,0.4323 -0.61918,0.67088 l -0.60756,0.29942 q -0.47941,0.23624 -0.90922,0.0823 -0.42506,-0.15637 -0.67302,-0.65943 z m 0.51737,-0.25494 q 0.11697,0.23731 0.30828,0.30232 0.19839,0.0674 0.44521,-0.0542 l 0.64557,-0.31839 q 0.24682,-0.12162 0.30949,-0.31769 0.0698,-0.19364 -0.0472,-0.43099 -0.11696,-0.23733 -0.31536,-0.30473 -0.19132,-0.065 -0.43814,0.0567 l -0.64554,0.31814 q -0.24682,0.12163 -0.31656,0.31525 -0.0627,0.19608 0.0543,0.43342 z m 0.9024,3.14797 q -0.16607,-0.33702 -0.16664,-0.64939 0.007,-0.30997 0.16654,-0.55991 0.16475,-0.25227 0.47802,-0.40665 l 0.65503,-0.3228 q 0.31328,-0.15438 0.60895,-0.129 0.30043,0.0229 0.54546,0.20904 0.25213,0.18841 0.41821,0.52543 0.24092,0.48889 0.12963,0.90948 -0.10422,0.42302 -0.53387,0.65245 l -0.28771,-0.58383 q 0.19708,-0.11481 0.23609,-0.31102 0.0461,-0.19381 -0.0615,-0.41214 -0.1193,-0.24207 -0.32004,-0.31421 -0.19597,-0.0746 -0.43806,0.0448 l -0.65978,0.32513 q -0.24208,0.1193 -0.30714,0.32245 -0.0651,0.20315 0.0542,0.44522 0.10993,0.22309 0.28694,0.30695 0.18176,0.0815 0.39286,-0.005 l 0.28772,0.58383 q -0.44371,0.20096 -0.84739,0.0282 -0.39661,-0.17028 -0.63753,-0.65923 z m 1.28252,2.4828 2.07425,-1.02219 -0.43975,-0.89235 0.53637,-0.26433 1.17422,2.3828 -0.53636,0.26432 -0.43975,-0.89236 -2.07425,1.02218 z m 1.0526,2.13597 2.61062,-1.2865 0.29472,0.59806 -0.85439,0.42104 0.32047,0.65027 q 0.23157,0.46993 0.12757,0.85743 -0.0993,0.38518 -0.51222,0.58869 -0.40345,0.1988 -0.77645,0.0405 -0.36591,-0.15591 -0.59281,-0.61636 z m 0.81209,0.34312 0.30877,0.62654 q 0.10058,0.2041 0.25165,0.27124 0.15107,0.0671 0.32196,-0.0171 0.17087,-0.0842 0.20967,-0.24492 0.0388,-0.16069 -0.0618,-0.36479 l -0.30876,-0.62656 z"
       id="text3-3-3"
       style="font-weight:bold;font-size:10.2646px;font-family:'JetBrains Mono';-inkscape-font-specification:'JetBrains Mono, Bold';white-space:pre;stroke-width:0.974216;stroke-linecap:square;stroke-dasharray:2.92265, 0.974216"
       aria-label="дальность" /><path
       d="m 119.99528,146.62541 -0.004,-0.74082 -2.02667,0.0113 -0.0162,-2.91036 0.66144,-0.004 0.0128,2.30184 0.91545,-0.005 -0.0128,-2.30183 0.66145,-0.004 0.0128,2.30182 0.39687,-0.002 0.008,1.34935 z m 2.32975,-0.7009 q -0.3704,0.002 -0.64636,-0.13928 -0.27596,-0.14134 -0.43086,-0.39976 -0.14963,-0.26376 -0.15161,-0.6183 l -0.003,-0.6879 q -0.002,-0.35453 0.14475,-0.61464 0.15198,-0.26543 0.42634,-0.40984 0.27437,-0.14441 0.64478,-0.14647 0.36512,-0.002 0.63578,0.13933 0.27596,0.14134 0.42557,0.3998 0.15487,0.25314 0.15679,0.5971 l 0.003,0.52915 -1.79914,0.01 10e-4,0.20109 q 0.002,0.29632 0.15596,0.44893 0.15429,0.1473 0.43474,0.14575 0.20637,-0.001 0.34886,-0.0708 0.14775,-0.0749 0.17344,-0.21265 l 0.65616,-0.004 q -0.0667,0.37609 -0.38822,0.60543 -0.32155,0.22403 -0.78721,0.22663 z m -0.59779,-1.86994 1.8e-4,0.10054 1.16411,-0.0118 -1.8e-4,-0.10052 q -0.002,-0.30162 -0.15075,-0.46483 -0.14909,-0.16323 -0.42954,-0.16166 -0.29103,0.002 -0.43826,0.17178 -0.14724,0.16487 -0.14556,0.46648 z m 2.2963,1.8446 -0.003,-0.60324 0.12172,-0.001 q 0.17991,-5.4e-4 0.26907,-0.14438 0.0944,-0.14869 0.0979,-0.46622 l 0.0222,-1.73581 2.1272,-0.0119 0.0162,2.91036 -0.66144,0.004 -0.0128,-2.31242 -0.8149,0.005 -0.0146,1.17484 q -0.008,0.57685 -0.26497,0.87991 -0.25235,0.29775 -0.71801,0.30034 z m 3.51869,-0.0566 -0.0162,-2.91036 0.66673,-0.004 0.005,0.95249 0.72494,-0.004 q 0.52386,-0.003 0.82696,0.25998 0.30306,0.25761 0.30563,0.71797 0.002,0.44979 -0.30293,0.71608 -0.30017,0.26096 -0.81345,0.26382 z m 0.66352,-0.58049 0.69849,-0.004 q 0.22753,-0.001 0.35394,-0.1078 0.12641,-0.10654 0.12534,-0.29704 -0.001,-0.19049 -0.12864,-0.29561 -0.12759,-0.10513 -0.35513,-0.10386 l -0.69848,0.004 z"
       id="text3-3-3-1-5"
       style="font-weight:bold;font-size:10.2646px;font-family:'JetBrains Mono';-inkscape-font-specification:'JetBrains Mono, Bold';white-space:pre;stroke-width:0.974216;stroke-linecap:square;stroke-dasharray:2.92265, 0.974216"
       aria-label="цель" /><path
       d="m 113.603,88.958611 0.0329,-5.15046 1.58747,0.0101 q 0.4586,0.003 0.8031,0.19564 0.34454,0.18565 0.53292,0.51847 0.18837,0.33282 0.18553,0.77731 -0.003,0.5221 -0.27383,0.89433 -0.2705,0.37222 -0.71594,0.51754 l 1.03687,2.2574 -0.69848,-0.004 -0.99495,-2.19363 -0.8537,-0.005 -0.014,2.18718 z m 0.64557,-2.75466 0.95954,0.006 q 0.3951,0.003 0.63657,-0.24289 0.2415,-0.25246 0.24412,-0.66167 0.003,-0.41627 -0.23565,-0.66475 -0.2383,-0.24847 -0.63341,-0.25099 l -0.95953,-0.006 z"
       id="text12-9"
       style="font-size:26.6667px;font-family:'JetBrains Mono';-inkscape-font-specification:'JetBrains Mono, Normal';white-space:pre;stroke-width:0.499999;stroke-linecap:square;stroke-dasharray:1.5, 0.499999"
       aria-label="R" /><path
       style="fill:#000000;stroke-width:0.081747"
       d="m 97.989487,56.937767 c -0.26171,0.06225 -0.55714,0.129307 -0.65651,0.149007 l -0.18068,0.03584 -0.0309,-0.09964 c -0.027,-0.08808 -0.10143,-0.582301 -0.44473,-2.961374 -0.0469,-0.32532 -0.15152,-1.059887 -0.2324,-1.632376 -0.32419,-2.294875 -0.32131,-2.276482 -0.35914,-2.293357 -0.0375,-0.01672 -0.36225,0.06526 -1.02123,0.257775 -0.76148,0.222436 -1.46344,0.405001 -2.707427,0.704058 -0.485613,0.116742 -0.702629,0.176537 -0.870499,0.239826 -0.218642,0.08247 -0.278537,0.444096 -0.332268,2.006311 l -0.02924,0.85025 -0.127931,0.05567 c -0.2204,0.09596 -1.301629,0.458396 -1.364377,0.457585 -0.05539,-8.88e-4 -0.05874,-0.0051 -0.07574,-0.09631 -0.04165,-0.223195 -0.210249,-1.820241 -0.365872,-3.465074 l -0.01646,-0.173683 -0.264082,-0.441993 c -0.352621,-0.590175 -0.575335,-0.941122 -0.962629,-1.516905 -0.564517,-0.839244 -0.610903,-0.914038 -0.585079,-0.943371 0.04735,-0.05377 0.246009,-0.128399 0.854446,-0.32096 0.461251,-0.145983 0.636575,-0.195001 0.659269,-0.184367 0.017,0.0079 0.240004,0.272562 0.495566,0.588019 0.733814,0.905794 1.109403,1.310726 1.313545,1.416159 0.13449,0.06946 0.223451,0.0546 0.67699,-0.113049 0.204864,-0.07573 0.625111,-0.245895 0.9339,-0.378105 0.648035,-0.277506 1.423628,-0.599774 1.925408,-0.800033 0.55252,-0.22052 0.9097,-0.368026 0.96342,-0.397914 0.0624,-0.0347 0.0611,-0.03862 -0.13072,-0.400496 -0.5705,-1.076602 -1.25159,-2.345016 -1.725209,-3.212933 -0.974655,-1.786064 -1.436356,-2.662995 -1.419007,-2.695209 0.01554,-0.02888 0.44249,-0.232744 0.979858,-0.467875 0.548095,-0.239798 0.492381,-0.227992 0.600284,-0.127473 0.278984,0.2599 1.081604,1.17774 3.212064,3.673143 0.91909,1.076533 1.70072,1.988828 1.73697,2.027313 l 0.0659,0.06997 1.718633,-0.567854 c 2.1426,-0.707927 2.28366,-0.74621 3.13155,-0.850386 1.10089,-0.135239 2.01095,-0.100118 2.27973,0.08798 0.12629,0.08838 0.14869,0.138015 0.12171,0.269629 -0.0684,0.333783 -0.56194,0.772204 -1.59619,1.417903 -0.3788,0.236498 -0.62941,0.368433 -0.9557,0.503133 -0.29943,0.123614 -1.48685,0.553613 -2.96359,1.073176 -0.640143,0.22524 -0.959753,0.344754 -0.973653,0.364156 -0.0114,0.01586 -0.0824,1.134657 -0.15785,2.486212 -0.2749,4.926554 -0.28473,5.087571 -0.31415,5.143304 -0.0254,0.0482 -0.0471,0.06061 -0.17958,0.103066 -0.0829,0.02633 -0.36479,0.09923 -0.62651,0.161472 z"
       id="path4" /><path
       style="fill:none;fill-opacity:1;stroke:#7f7f7f;stroke-width:1;stroke-linecap:square;stroke-dasharray:4, 4;stroke-dashoffset:0;stroke-opacity:1"
       d="M 11.1571,90.476212 C 31.024188,73.6656 51.676195,47.923265 70.562097,39.564179 90.129451,30.903475 109.11443,27.324882 128.19307,30.818133 c 14.38511,2.633878 28.5958,8.98377 45.20986,4.025733 14.90093,-4.446799 18.51792,-7.485946 28.01975,-13.596816"
       id="path5"
       sodipodi:nodetypes="csssc" /><path
       style="fill:#808080;fill-opacity:1;stroke-width:0.081747"
       d="m 75.432252,46.663066 c -0.255821,0.08321 -0.544864,0.173923 -0.642316,0.201591 l -0.177192,0.05033 -0.03885,-0.09682 c -0.03403,-0.08561 -0.14817,-0.572195 -0.682665,-2.915731 -0.07304,-0.320463 -0.236703,-1.044169 -0.363597,-1.608247 -0.508643,-2.261157 -0.504285,-2.243058 -0.543355,-2.256819 -0.03873,-0.01363 -0.355789,0.09433 -0.99705,0.339485 -0.741007,0.283265 -1.425912,0.521978 -2.641652,0.920617 -0.474587,0.155616 -0.686058,0.232759 -0.848264,0.30941 -0.211258,0.09988 -0.241725,0.46516 -0.168994,2.026605 l 0.03959,0.849831 -0.123012,0.06583 c -0.211922,0.113462 -1.260313,0.562117 -1.322921,0.566381 -0.05528,0.0036 -0.05896,-3.15e-4 -0.08328,-0.08988 -0.05956,-0.219098 -0.356705,-1.797289 -0.644784,-3.424158 l -0.03044,-0.171784 -0.298947,-0.419199 c -0.399177,-0.559738 -0.649531,-0.891533 -1.082102,-1.434124 -0.630513,-0.790862 -0.682793,-0.861661 -0.659425,-0.892986 0.04285,-0.05742 0.234824,-0.147866 0.825704,-0.388982 0.44794,-0.182791 0.618728,-0.245822 0.642207,-0.237057 0.01759,0.0065 0.261252,0.252269 0.541479,0.546034 0.804635,0.843509 1.211728,1.216754 1.423725,1.30534 0.139665,0.05836 0.227134,0.03636 0.665636,-0.167405 0.198072,-0.09204 0.603188,-0.295623 0.900278,-0.452363 0.623482,-0.328983 1.370484,-0.712894 1.854434,-0.95306 0.532885,-0.264463 0.876972,-0.440359 0.9281,-0.474492 0.05939,-0.03963 0.05778,-0.04343 -0.162667,-0.388619 -0.655663,-1.026961 -1.43706,-2.236165 -1.97929,-3.062956 -1.115846,-1.701429 -1.646926,-2.538167 -1.632237,-2.571678 0.01316,-0.03004 0.422227,-0.267752 0.938829,-0.545553 0.526916,-0.28332 0.472339,-0.26705 0.588015,-0.175582 0.29908,0.236497 1.173269,1.086451 3.498481,3.401465 1.003106,0.998713 1.855926,1.844836 1.895168,1.880265 l 0.07134,0.06441 1.667105,-0.704927 c 2.078348,-0.878811 2.215852,-0.928372 3.05254,-1.100748 1.086348,-0.22379 1.996263,-0.262351 2.279369,-0.0966 0.133022,0.07788 0.15936,0.125544 0.143108,0.258908 -0.0412,0.338219 -0.497675,0.815102 -1.476336,1.542294 -0.358443,0.266345 -0.597565,0.418108 -0.911897,0.578743 -0.288455,0.147415 -1.437223,0.671995 -2.86712,1.309233 -0.619841,0.27625 -0.928744,0.42121 -0.94103,0.441672 -0.01008,0.01673 0.0096,1.137605 0.04365,2.490835 0.12425,4.932654 0.127467,5.093938 0.102644,5.151867 -0.02142,0.0501 -0.04205,0.06422 -0.17066,0.117246 -0.0805,0.03294 -0.355575,0.128394 -0.611406,0.21159 z"
       id="path6" /><path
       style="fill:#000000;fill-opacity:1;stroke:#808080;stroke-width:0.5;stroke-dasharray:1.5, 0.5;stroke-dashoffset:0;stroke-opacity:1"
       d="M 77.550151,38.786569 123.69197,138.2089"
       id="path7"
       sodipodi:nodetypes="cc" /><path
       id="path13"
       style="fill:#ffffff;stroke:#000000;stroke-linecap:square"
       d="m 127.20983,137.47125 a 3.6488347,3.6488347 0 0 1 -3.64883,3.64884 3.6488347,3.6488347 0 0 1 -3.64884,-3.64884 3.6488347,3.6488347 0 0 1 3.64884,-3.64883 3.6488347,3.6488347 0 0 1 3.64883,3.64883 z" /><path
       style="font-weight:bold;font-size:5.29167px;font-family:'JetBrains Mono';-inkscape-font-specification:'JetBrains Mono, Bold';text-align:center;text-anchor:middle;stroke-width:0.5;stroke-linecap:square"
       d="m 179.04302,85.859473 q -0.42095,0.14276 -0.74638,-0.01 -0.32212,-0.15897 -0.45298,-0.544847 -0.13596,-0.400907 0.0598,-0.729907 0.19406,-0.334007 0.67515,-0.497157 l 0.67151,-0.227727 -0.0663,-0.19545 q -0.14105,-0.415937 -0.62715,-0.251087 -0.22051,0.0748 -0.3219,0.204187 -0.10138,0.12942 -0.0637,0.28983 l -0.60136,0.203937 q -0.10568,-0.377647 0.10677,-0.706724 0.21749,-0.33079 0.71361,-0.49904 0.52619,-0.178437 0.90013,-0.0315 0.37393,0.146977 0.52518,0.592997 l 0.6339,1.869211 -0.61139,0.20734 -0.17504,-0.51616 q 0.055,0.27748 -0.10951,0.50091 -0.1645,0.223417 -0.51029,0.340677 z m 0.0271,-0.579127 q 0.27562,-0.0935 0.39011,-0.283167 0.11447,-0.18969 0.038,-0.4152 l -0.11046,-0.325737 -0.64145,0.21753 q -0.20547,0.0697 -0.28665,0.225727 -0.0812,0.15605 -0.02,0.336457 0.0629,0.18542 0.22725,0.2582 0.16768,0.0661 0.40321,-0.0138 z m 3.08485,-0.492967 q -0.4861,0.16484 -0.84652,0.0412 -0.36043,-0.12364 -0.48789,-0.499477 l 0.61139,-0.20734 q 0.0476,0.14031 0.19675,0.18472 0.14748,0.0394 0.35293,-0.0302 l 0.32073,-0.10877 q 0.21048,-0.0714 0.30018,-0.20232 0.093,-0.137697 0.0386,-0.298067 -0.0544,-0.16036 -0.21025,-0.20808 -0.15256,-0.0544 -0.36304,0.0169 l -0.64145,0.21753 -0.16825,-0.496117 0.61639,-0.20904 q 0.19545,-0.0663 0.27682,-0.188797 0.0814,-0.12262 0.0338,-0.26291 -0.051,-0.15034 -0.19344,-0.191427 -0.14417,-0.0461 -0.33961,0.0201 l -0.25056,0.085 q -0.18543,0.0629 -0.27518,0.17717 -0.0865,0.10756 -0.044,0.23283 l -0.6164,0.209044 q -0.11593,-0.357424 0.0903,-0.656454 0.20424,-0.303937 0.67531,-0.463697 l 0.25057,-0.085 q 0.47107,-0.159747 0.82298,-0.0612 0.35695,0.0969 0.46911,0.427627 0.0799,0.23553 -0.0328,0.44697 -0.11438,0.20642 -0.37489,0.311524 l 0.0102,0.0301 q 0.31411,-0.0953 0.55909,0.0339 0.24831,0.12254 0.34688,0.413197 0.085,0.25056 0.009,0.488587 -0.0707,0.23631 -0.2806,0.42483 -0.20986,0.188507 -0.5356,0.298967 z m 2.07284,-0.742017 -0.93471,-2.756232 0.56629,-0.19204 0.45205,1.333011 q 0.0765,0.22551 0.14809,0.486187 0.0749,0.25398 0.091,0.44968 l 0.21585,-2.576468 0.76173,-0.258317 0.93471,2.756225 -0.56629,0.192037 -0.45376,-1.338021 q -0.0748,-0.2205 -0.14461,-0.459437 -0.0698,-0.23894 -0.0791,-0.414577 l -0.22953,2.519635 z m 2.89155,-0.980594 -0.9347,-2.756225 0.78677,-0.266817 0.88287,1.153394 -8.7e-4,-1.452494 0.79681,-0.270217 0.9347,2.756225 -0.58132,0.197137 -0.15975,-0.471057 q -0.0833,-0.245557 -0.17674,-0.521177 -0.0935,-0.275617 -0.18221,-0.552857 -0.0887,-0.277227 -0.15327,-0.517967 -0.0665,-0.245647 -0.0926,-0.421197 l 0.0186,1.636481 -0.50114,0.16994 -0.94522,-1.238404 q 0.10974,0.19188 0.23356,0.507497 0.12714,0.308897 0.25121,0.674737 0.12709,0.359207 0.24435,0.704984 l 0.15975,0.47106 z m 3.86898,-0.306277 0.034,-1.184934 -1.92107,-2.254098 0.66149,-0.224327 1.00876,1.228041 q 0.0876,0.10999 0.18363,0.24504 0.0944,0.13005 0.15692,0.248517 -0.0274,-0.130387 -0.0367,-0.289297 -0.006,-0.16563 -0.003,-0.306197 l 0.0136,-1.574731 0.6615,-0.22432 -0.10243,4.113716 z m 3.06171,-2.044068 -0.74266,-2.189948 -0.94213,0.319497 -0.19204,-0.566277 2.51568,-0.853124 0.19204,0.566277 -0.94212,0.319497 0.74266,2.189948 z"
       id="text4-1"
       aria-label="азимут" /><g
       id="g8"
       transform="translate(-1.6622346,0.86450166)"><path
         style="font-weight:bold;font-size:5.29167px;font-family:'JetBrains Mono';-inkscape-font-specification:'JetBrains Mono, Bold';text-align:center;text-anchor:middle;fill:#808080;stroke-width:0.5;stroke-linecap:square"
         d="M 85.024465,23.858629 84.88977,23.457065 c -0.202193,0.06395 -0.395367,0.0771 -0.580167,0.03932 -0.181425,-0.03892 -0.342732,-0.121621 -0.483966,-0.248385 -0.14236,-0.13008 -0.250709,-0.301673 -0.324459,-0.515032 l -0.361292,-1.045215 c -0.07607,-0.220061 -0.09752,-0.4254 -0.06373,-0.616249 0.03378,-0.190813 0.112541,-0.357899 0.236406,-0.500937 0.127294,-0.144206 0.29397,-0.253071 0.499646,-0.32602 l -0.126277,-0.376467 c 0.217835,-0.07336 0.435931,-0.146108 0.654283,-0.218229 l 0.124157,0.377305 c 0.208395,-0.06507 0.405389,-0.07741 0.590316,-0.0372 0.188416,0.03909 0.353893,0.126831 0.496361,0.262896 0.141414,0.132725 0.246687,0.308592 0.316432,0.527367 l 0.336352,1.055075 c 0.06866,0.215375 0.08453,0.41795 0.04825,0.607524 -0.03737,0.186243 -0.118909,0.349606 -0.244493,0.49041 -0.122224,0.139722 -0.283339,0.244065 -0.48374,0.313596 l 0.132435,0.402459 c -0.210827,0.06919 -0.421434,0.138978 -0.631815,0.209346 z m -0.235738,-0.92047 -0.742909,-2.219157 c -0.168214,0.05646 -0.285672,0.155863 -0.352119,0.297676 -0.06418,0.137356 -0.06475,0.297856 -0.0022,0.481599 l 0.356309,1.047292 c 0.06023,0.177041 0.156919,0.300709 0.28962,0.371264 0.136108,0.06944 0.286382,0.07648 0.451337,0.02133 z m 0.505456,-0.167736 c 0.165243,-0.05442 0.279826,-0.149377 0.343994,-0.285396 0.06753,-0.137075 0.0727,-0.294669 0.01497,-0.472706 l -0.341495,-1.053149 c -0.05992,-0.184775 -0.158199,-0.312513 -0.295315,-0.382938 -0.134725,-0.07488 -0.286618,-0.08459 -0.455146,-0.02889 z m 2.737446,0.04418 c -0.283381,0.08626 -0.531777,0.07623 -0.746575,-0.03088 -0.212371,-0.111476 -0.359874,-0.296598 -0.441398,-0.556121 -0.08471,-0.269649 -0.05859,-0.51312 0.0798,-0.730134 0.137304,-0.220339 0.370937,-0.381524 0.700196,-0.481534 0.22977,-0.06979 0.459784,-0.138873 0.690036,-0.207238 l -0.05885,-0.198247 c -0.08344,-0.281091 -0.292652,-0.37259 -0.627675,-0.271392 -0.151821,0.04586 -0.26378,0.111388 -0.335776,0.196215 -0.07201,0.08484 -0.09697,0.181243 -0.07514,0.289134 -0.206092,0.06327 -0.411983,0.127111 -0.617669,0.191515 -0.06436,-0.253797 -0.02128,-0.489537 0.130775,-0.706934 0.155427,-0.218358 0.40511,-0.380436 0.748301,-0.484139 0.364008,-0.109994 0.671951,-0.110666 0.921787,-0.0035 0.249897,0.107147 0.418193,0.312434 0.505968,0.61461 l 0.551797,1.899634 c -0.206769,0.05998 -0.413359,0.120548 -0.619767,0.181697 l -0.155351,-0.523599 c 0.02949,0.186671 -0.01361,0.352406 -0.128738,0.497483 -0.115144,0.145097 -0.288915,0.252613 -0.521717,0.323477 0,-10e-7 0,-10e-7 -1e-6,-2e-6 z m 0.04574,-0.578975 c 0.18655,-0.05644 0.320467,-0.146305 0.402001,-0.270225 0.08152,-0.123905 0.0999,-0.262053 0.05463,-0.414551 l -0.09808,-0.330411 c -0.219127,0.06504 -0.43804,0.130721 -0.656735,0.197051 -0.14011,0.0425 -0.239246,0.115321 -0.297252,0.21811 -0.05801,0.102798 -0.06815,0.215012 -0.03071,0.336597 0.03848,0.124961 0.11213,0.213192 0.220749,0.264932 0.110986,0.04733 0.24599,0.04673 0.405405,-0.0015 z m 2.209549,-0.13735 -0.792181,-2.807749 c 0.217849,-0.06152 0.435903,-0.122397 0.654155,-0.182622 l 0.298943,1.084175 c 0.152139,-0.04196 0.304372,-0.08359 0.456697,-0.12491 0.11997,-0.42099 0.242305,-0.841946 0.367026,-1.262836 0.246939,-0.0654 0.494121,-0.129969 0.741537,-0.193686 -0.163463,0.527904 -0.323094,1.055966 -0.478942,1.584123 0.422919,0.407316 0.84221,0.816929 1.257791,1.228788 -0.244433,0.06278 -0.488657,0.126403 -0.732664,0.19086 -0.330335,-0.32431 -0.662957,-0.647206 -0.997825,-0.968662 -0.151516,0.04108 -0.302942,0.08249 -0.454276,0.124207 l 0.317274,1.150658 c -0.212688,0.05859 -0.425202,0.117812 -0.637535,0.177654 z m 3.84548,-1.009996 -0.548366,-2.252995 c -0.32926,0.08014 -0.65814,0.161801 -0.986622,0.244967 l -0.147144,-0.581244 c 0.881846,-0.22329 1.766609,-0.435779 2.653956,-0.637113 l 0.132719,0.584676 c -0.330483,0.075 -0.660615,0.151553 -0.990378,0.229642 l 0.534365,2.256326 c -0.216325,0.05124 -0.432503,0.103159 -0.64853,0.155741 z m 2.268463,-0.52625 -0.627991,-2.849624 c 0.200028,-0.04406 0.400183,-0.08754 0.600461,-0.130451 l 0.295859,1.379797 c 0.03337,0.15563 0.06371,0.322718 0.09112,0.501332 0.03014,0.174377 0.04294,0.327213 0.03853,0.458383 0.17128,-0.847263 0.350515,-1.694407 0.537829,-2.54128 0.269917,-0.05523 0.540045,-0.109419 0.810376,-0.162543 l 0.563162,2.862163 c -0.195418,0.03851 -0.390743,0.07758 -0.585972,0.11722 l -0.281447,-1.387987 c -0.03092,-0.152481 -0.05939,-0.31089 -0.08537,-0.475198 -0.02598,-0.164331 -0.03432,-0.305119 -0.02493,-0.422477 -0.189692,0.826554 -0.37153,1.653422 -0.545633,2.480455 -0.262182,0.05573 -0.524181,0.112472 -0.785985,0.17021 z m 4.74703,-0.932073 -0.15866,-0.924745 c -0.24,0.04122 -0.47988,0.0833 -0.71963,0.126243 -0.318454,0.05704 -0.581849,0.01956 -0.791764,-0.113913 -0.210417,-0.13685 -0.344674,-0.354287 -0.40123,-0.652998 l -0.187439,-0.989977 c 0.222608,-0.04209 0.445348,-0.08345 0.668212,-0.124086 l 0.175278,0.959737 c 0.02286,0.125183 0.08123,0.215113 0.174876,0.269975 0.09366,0.05487 0.212507,0.06931 0.356867,0.04362 0.20775,-0.03697 0.41559,-0.0733 0.62353,-0.108975 l -0.23306,-1.358383 c 0.22505,-0.03854 0.45022,-0.07633 0.6755,-0.11336 l 0.47384,2.876227 c -0.21887,0.03615 -0.43764,0.07303 -0.65632,0.110636 z m 2.66201,-0.367393 c -0.24359,0.03515 -0.4626,0.01951 -0.65791,-0.04747 -0.1953,-0.06697 -0.35684,-0.177847 -0.48471,-0.333159 -0.12488,-0.159311 -0.20604,-0.355796 -0.24262,-0.589613 l -0.10648,-0.680569 c -0.0366,-0.233859 -0.0187,-0.444014 0.0546,-0.630539 0.0763,-0.190524 0.20039,-0.347182 0.37235,-0.469429 0.17195,-0.122239 0.38387,-0.201744 0.63504,-0.237752 0.24759,-0.03549 0.46973,-0.01825 0.66554,0.05118 0.19944,0.06895 0.36055,0.18281 0.48335,0.34103 0.12594,0.154284 0.20339,0.345273 0.23322,0.57279 l 0.0688,0.525003 c -0.60056,0.07879 -1.20058,0.163184 -1.79995,0.25307 l 0.0298,0.199095 c 0.0293,0.195588 0.10255,0.336396 0.21913,0.422585 0.11611,0.08274 0.26664,0.110469 0.4521,0.08374 0.13648,-0.01967 0.24874,-0.05875 0.33696,-0.117492 0.0912,-0.06272 0.13942,-0.140673 0.1444,-0.234047 0.21771,-0.03017 0.4355,-0.0596 0.65335,-0.08829 -0.013,0.254509 -0.11632,0.471001 -0.30886,0.650392 -0.19304,0.17591 -0.442,0.285291 -0.74821,0.329472 z m -0.85724,-1.769393 0.0149,0.09955 c 0.38924,-0.06011 0.77879,-0.117919 1.16861,-0.173387 l -0.0137,-0.09968 c -0.0275,-0.199382 -0.0984,-0.346418 -0.21338,-0.440973 -0.11493,-0.09451 -0.26728,-0.128477 -0.45651,-0.101321 -0.19636,0.02818 -0.33631,0.105924 -0.41944,0.232472 -0.0837,0.123116 -0.11032,0.284222 -0.0805,0.483336 z m 4.03552,1.364404 c -0.24774,0.02736 -0.46905,0.0066 -0.66483,-0.06276 -0.19266,-0.0733 -0.35005,-0.187575 -0.47214,-0.343351 -0.12249,-0.15924 -0.19841,-0.35436 -0.22684,-0.585519 l -0.0892,-0.725055 c -0.0284,-0.231199 -0.001,-0.43717 0.0819,-0.617933 0.0829,-0.18422 0.21245,-0.333052 0.38867,-0.44593 0.17938,-0.116792 0.39732,-0.189561 0.65301,-0.217536 0.37097,-0.04059 0.67843,0.0237 0.9202,0.190833 0.24508,0.163299 0.38773,0.406543 0.42967,0.728408 -0.21928,0.02119 -0.4385,0.04315 -0.65767,0.06587 -0.0264,-0.149739 -0.0973,-0.259439 -0.21308,-0.328808 -0.1126,-0.07325 -0.25146,-0.101032 -0.41613,-0.08298 -0.18259,0.02001 -0.32027,0.0853 -0.41265,0.195264 -0.0928,0.106505 -0.12856,0.249173 -0.10782,0.427929 l 0.0848,0.730753 c 0.0207,0.178736 0.0879,0.31123 0.20107,0.397661 0.11317,0.08647 0.25902,0.119575 0.43805,0.09984 0.16499,-0.01819 0.29404,-0.0728 0.3875,-0.164278 0.0931,-0.09496 0.13726,-0.21834 0.1322,-0.370284 0.21707,-0.02257 0.4342,-0.04438 0.65138,-0.06544 0.0206,0.323908 -0.0709,0.591356 -0.27231,0.803 -0.19844,0.207938 -0.47644,0.33064 -0.83577,0.370322 z m 1.96965,-0.249592 -0.25617,-2.897003 c 0.22533,-0.01982 0.45072,-0.03884 0.67615,-0.05705 l 0.0907,1.117085 c 0.15682,-0.01273 0.31366,-0.02506 0.47052,-0.03699 0.19624,-0.389535 0.39523,-0.778374 0.59698,-1.166486 0.25448,-0.0174 0.509,-0.03376 0.76357,-0.04907 -0.26054,0.484967 -0.51665,0.97115 -0.76836,1.458485 0.33708,0.477934 0.66929,0.957551 0.99655,1.4388 -0.25009,0.01513 -0.50016,0.03132 -0.75021,0.04855 -0.26135,-0.379273 -0.52575,-0.757516 -0.79318,-1.134704 -0.15585,0.01189 -0.31169,0.02417 -0.4675,0.03685 l 0.0963,1.185586 c -0.21849,0.01787 -0.43697,0.03652 -0.6554,0.05595 z m 3.9523,-0.21228 c -0.29362,0.01321 -0.52996,-0.05754 -0.71043,-0.213785 -0.17711,-0.159909 -0.27385,-0.374864 -0.28879,-0.645615 -0.0155,-0.281302 0.0695,-0.510129 0.25657,-0.685571 0.18687,-0.178914 0.45242,-0.276792 0.79507,-0.291496 0.23909,-0.01026 0.4782,-0.01957 0.71733,-0.02792 l -0.007,-0.205771 c -0.0102,-0.291685 -0.18926,-0.432388 -0.53832,-0.418245 -0.15815,0.0064 -0.2827,0.04181 -0.37336,0.105761 -0.0907,0.06397 -0.1387,0.150814 -0.14435,0.260334 -0.21482,0.01 -0.42962,0.02074 -0.64439,0.03225 3.5e-4,-0.260965 0.10017,-0.478006 0.3012,-0.650235 0.20453,-0.172303 0.48661,-0.266767 0.84459,-0.281192 0.37968,-0.0153 0.67769,0.06132 0.89209,0.227211 0.21448,0.165953 0.32513,0.406011 0.33373,0.719077 l 0.0541,1.968097 c -0.21337,0.006 -0.42674,0.0127 -0.64012,0.02023 l -0.0189,-0.543448 c -0.0181,0.18729 -0.1008,0.336295 -0.24744,0.447577 -0.14663,0.111297 -0.34014,0.171888 -0.58135,0.182738 z m 0.18711,-0.547313 c 0.19345,-0.0082 0.34452,-0.06156 0.45377,-0.160738 0.10924,-0.09916 0.16136,-0.227726 0.15582,-0.386012 l -0.012,-0.342951 c -0.22732,0.008 -0.45464,0.0168 -0.68195,0.02651 -0.14564,0.0062 -0.25929,0.05194 -0.34064,0.136786 -0.0814,0.08486 -0.11884,0.190673 -0.11277,0.31728 0.006,0.130122 0.0554,0.233469 0.14723,0.310244 0.0952,0.07311 0.22524,0.105895 0.39054,0.09888 z m 1.99323,0.423641 c 0.21865,-0.359768 0.44007,-0.718638 0.66426,-1.076578 -0.19537,-0.0575 -0.35108,-0.160586 -0.46735,-0.309914 -0.11275,-0.152864 -0.17159,-0.334733 -0.17556,-0.545777 -0.006,-0.30251 0.0937,-0.54207 0.30016,-0.717566 0.20636,-0.175444 0.49484,-0.265364 0.86362,-0.267281 0.43197,-0.0022 0.86394,-0.0013 1.29587,0.0028 l -0.0268,2.900694 c -0.21839,-0.002 -0.43682,-0.003 -0.65527,-0.0033 l 0.002,-1.002241 c -0.15384,-2.13e-4 -0.30769,-1.2e-5 -0.46155,6.02e-4 -0.19678,0.334904 -0.39128,0.670529 -0.5835,1.006853 -0.25176,0.0028 -0.50354,0.0067 -0.75535,0.01173 z m 1.21947,-1.529771 c 0.19391,-0.001 0.38781,-0.0014 0.5817,-0.0011 l 0.001,-0.849268 c -0.19579,-3.3e-4 -0.3916,-2e-6 -0.58741,9.81e-4 -0.16169,8.11e-4 -0.29079,0.04059 -0.38691,0.118872 -0.0926,0.07475 -0.13796,0.17906 -0.13646,0.312719 0.002,0.133659 0.0491,0.236867 0.14245,0.30984 0.0934,0.07298 0.22168,0.108794 0.38535,0.10794 z m 6.01747,1.697807 0.15537,-2.298399 c -0.33666,-0.02276 -0.67343,-0.04345 -1.01032,-0.06211 l 0.0329,-0.59478 c 0.90597,0.05019 1.81127,0.11501 2.71556,0.194806 l -0.0524,0.593418 c -0.33619,-0.02969 -0.67254,-0.05728 -1.00901,-0.08281 l -0.17432,2.297078 c -0.21918,-0.01665 -0.43843,-0.03238 -0.65776,-0.04721 z m 2.20331,1.133375 0.37094,-3.830933 c 0.21964,0.02123 0.43922,0.04334 0.65873,0.06635 l -0.0557,0.529652 c 0.0727,-0.176173 0.18453,-0.307551 0.33569,-0.393724 0.1515,-0.08964 0.33203,-0.122765 0.54073,-0.09876 0.1907,0.02194 0.35266,0.08726 0.48519,0.195445 0.13616,0.108647 0.23289,0.251831 0.29033,0.429201 0.0615,0.174369 0.0777,0.371398 0.0497,0.591203 l -0.0996,0.779677 c -0.0423,0.331352 -0.16225,0.587281 -0.35748,0.768344 -0.19539,0.181206 -0.43227,0.254886 -0.71268,0.222422 -0.20083,-0.02325 -0.36463,-0.09451 -0.49215,-0.214506 -0.124,-0.119575 -0.2025,-0.276358 -0.23508,-0.470648 -0.0169,0.227982 -0.0338,0.455959 -0.0508,0.683932 l -0.085,0.807575 c -0.21419,-0.02265 -0.42847,-0.0444 -0.64286,-0.06524 z m 1.32519,-1.334986 c 0.16748,0.01882 0.30171,-0.01154 0.40321,-0.09168 0.10494,-0.07968 0.16894,-0.213707 0.19139,-0.402228 l 0.0886,-0.743687 c 0.0225,-0.188563 -0.009,-0.333903 -0.0945,-0.436015 -0.082,-0.101631 -0.20905,-0.162387 -0.38059,-0.181595 -0.17154,-0.01921 -0.31118,0.017 -0.41835,0.108054 -0.10367,0.09148 -0.16493,0.229944 -0.18444,0.415251 l -0.0729,0.692207 c -0.0195,0.185266 0.0111,0.333441 0.0912,0.444517 0.0836,0.111509 0.20893,0.176353 0.37641,0.195177 z m 2.71573,0.930668 c -0.28963,-0.04349 -0.5072,-0.15808 -0.65404,-0.345731 -0.14279,-0.190512 -0.19683,-0.419786 -0.16015,-0.68813 0.0381,-0.278818 0.16473,-0.487127 0.3816,-0.623616 0.21728,-0.139928 0.49661,-0.185391 0.83574,-0.134149 0.23665,0.03576 0.47318,0.07262 0.70957,0.110587 l 0.0327,-0.203333 c 0.0463,-0.288218 -0.10244,-0.460901 -0.44833,-0.513967 -0.15667,-0.02404 -0.28585,-0.01312 -0.38717,0.03231 -0.10136,0.04544 -0.16513,0.121468 -0.19161,0.227825 -0.21286,-0.0312 -0.42581,-0.06152 -0.63885,-0.09096 0.0499,-0.255867 0.18915,-0.449849 0.41962,-0.580598 0.23389,-0.13014 0.52949,-0.169156 0.88446,-0.11476 0.37651,0.0577 0.65503,0.190333 0.83378,0.394614 0.17893,0.204498 0.24088,0.461511 0.18843,0.770542 l -0.3297,1.942591 c -0.20995,-0.03583 -0.42002,-0.07074 -0.63023,-0.104747 l 0.0864,-0.536996 c -0.0539,0.1803 -0.16368,0.310516 -0.32852,0.391326 -0.16491,0.08086 -0.36577,0.102922 -0.60372,0.06719 z m 0.28794,-0.500959 c 0.19096,0.02917 0.34913,0.006 0.47526,-0.0702 0.12611,-0.07619 0.20203,-0.192268 0.22717,-0.348679 l 0.0545,-0.338888 c -0.22454,-0.03612 -0.44921,-0.07123 -0.674,-0.105329 -0.14402,-0.02185 -0.26423,0.0013 -0.3602,0.06893 -0.096,0.06768 -0.15289,0.16432 -0.1711,0.289671 -0.0187,0.128832 0.01,0.239609 0.085,0.332511 0.0792,0.08995 0.20025,0.147064 0.36343,0.171993 z m 3.12553,1.09552 c -0.23978,-0.04763 -0.43976,-0.134642 -0.60088,-0.26203 -0.1611,-0.127375 -0.27635,-0.284829 -0.34567,-0.473056 -0.0652,-0.191 -0.0774,-0.4027 -0.0355,-0.634982 l 0.12197,-0.676136 c 0.0419,-0.232337 0.1275,-0.424534 0.25788,-0.576366 0.13451,-0.154606 0.3033,-0.261643 0.50632,-0.320422 0.20296,-0.05876 0.42993,-0.06399 0.67968,-0.01497 0.19529,0.03833 0.36446,0.102851 0.50699,0.193039 0.0368,0.02347 0.0718,0.04867 0.10497,0.07559 0.16421,0.130996 0.2778,0.291519 0.34094,0.481239 0.0674,0.187025 0.0773,0.392736 0.0303,0.617178 l -0.10842,0.517925 c -0.22826,-0.04778 -0.45662,-0.09506 -0.68508,-0.141816 -0.36448,-0.07468 -0.72936,-0.146583 -1.09462,-0.215749 l -0.0373,0.197414 c -0.0367,0.193925 -0.0141,0.35071 0.0671,0.470332 0.0818,0.116238 0.21398,0.19205 0.39687,0.228299 0.13459,0.02668 0.25288,0.02714 0.35518,0.0011 0.0987,-0.02667 0.16703,-0.07794 0.20493,-0.154066 0,0 0,0 0,0 0,0 0,0 0,0 0,0 0,0 0,0 0,0 0,0 0,0 0,0 0,0 0,0 0,0 0,0 0,0 0,0 0,0 0,0 0,0 0,0 0,0 0,0 0,0 0,0 0,0 0,0 0,0 0,0 0,0 0,0 0,0 0,0 0,0 0,0 0,0 0,0 0,0 0,0 0,0 0,0 0,0 0,0 0,0 0,-1e-6 0,-1e-6 0,0 0,0 0,0 0,0 0,0 0,0 0,0 0,0 0,0 0.003,-0.006 0.006,-0.01211 0.008,-0.01839 0.21575,0.04415 0.43144,0.08879 0.64708,0.133874 -0.0965,0.235724 -0.26608,0.40564 -0.50812,0.510546 -0.0927,0.03898 -0.19004,0.06591 -0.29201,0.08083 -0.16184,0.02404 -0.33529,0.01747 -0.52093,-0.0194 0,-10e-7 0,-10e-7 0,-2e-6 z m -0.22282,-1.950066 -0.0187,0.09871 c 0.36767,0.0678 0.735,0.138357 1.10196,0.211694 0.019,0.0038 0.038,0.0076 0.057,0.01142 l 0.0202,-0.09849 c 0.0251,-0.122629 0.0277,-0.231734 0.008,-0.327354 -0.0123,-0.05799 -0.033,-0.111002 -0.0621,-0.159029 -0.0771,-0.1272 -0.20986,-0.209725 -0.39771,-0.246671 -0.19495,-0.03834 -0.35292,-0.01114 -0.47316,0.08074 -0.11966,0.08848 -0.19777,0.231543 -0.23512,0.428976 0,3e-6 0,6e-6 0,9e-6 z m 2.2268,2.31242 0.61013,-2.845616 c 0.21983,0.04713 0.43949,0.09465 0.659,0.142527 l -0.23905,1.096023 c 0.15367,0.03352 0.30729,0.06722 0.46087,0.101082 0.30043,-0.316669 0.60193,-0.632743 0.90432,-0.948296 0.24706,0.05525 0.49394,0.110869 0.74065,0.166811 -0.38374,0.394102 -0.76625,0.788929 -1.14718,1.184633 0.187,0.55501 0.37197,1.11019 0.55536,1.665544 -0.24756,-0.05621 -0.49508,-0.112058 -0.74258,-0.16748 -0.14522,-0.43922 -0.29159,-0.878319 -0.43933,-1.3173 -0.15315,-0.03377 -0.30633,-0.06738 -0.45954,-0.100794 l -0.25371,1.163233 c -0.21631,-0.04719 -0.43262,-0.09399 -0.64894,-0.140367 z m 3.90001,0.873886 0.52181,-2.253004 c -0.32766,-0.07588 -0.6555,-0.151342 -0.98355,-0.226272 l 0.13318,-0.582963 c 0.8777,0.200457 1.75341,0.404611 2.62761,0.610173 l -0.13691,0.582154 c -0.32711,-0.07692 -0.65436,-0.153633 -0.98178,-0.23001 l -0.52543,2.252219 c -0.21836,-0.05095 -0.43667,-0.101732 -0.65493,-0.152297 z m 3.43909,0.856918 c -0.36832,-0.08714 -0.63602,-0.257422 -0.80344,-0.510866 -0.16658,-0.256858 -0.20903,-0.558733 -0.12719,-0.905545 l 0.15557,-0.659323 c 0.0827,-0.350282 0.25567,-0.601256 0.5192,-0.752922 0.26353,-0.151653 0.57963,-0.183845 0.94803,-0.09667 0.36839,0.08717 0.63616,0.257491 0.8036,0.510961 0.16743,0.253458 0.20986,0.555339 0.12717,0.905569 l -0.15566,0.65929 c -0.0819,0.346832 -0.25495,0.597773 -0.51931,0.752847 -0.26353,0.151632 -0.57961,0.183813 -0.94797,0.09666 z m 0.13283,-0.561375 c 0.17376,0.04111 0.31854,0.02642 0.43432,-0.04408 0.12008,-0.07312 0.20123,-0.198944 0.24346,-0.37749 l 0.16567,-0.70044 c 0.0422,-0.178541 0.0257,-0.325676 -0.0497,-0.441395 -0.0711,-0.11833 -0.19347,-0.198054 -0.36724,-0.239171 -0.17376,-0.04112 -0.3207,-0.02512 -0.44077,0.048 -0.11578,0.07051 -0.19478,0.19504 -0.237,0.373589 l -0.16563,0.700456 c -0.0422,0.178545 -0.0278,0.326985 0.0433,0.445306 0.0753,0.115713 0.19988,0.194121 0.37362,0.235229 z m 1.62755,1.906865 0.88441,-3.7607 c 0.21163,0.04978 0.42323,0.09945 0.63478,0.148978 l -0.12181,0.520432 c 0.0939,-0.166438 0.22013,-0.283637 0.37863,-0.351689 0.15934,-0.07149 0.33945,-0.08382 0.54048,-0.03713 0.18371,0.04267 0.33449,0.124639 0.45253,0.246028 0.1215,0.122181 0.20147,0.274525 0.23991,0.457098 0.0427,0.179919 0.0393,0.378218 -0.0104,0.594829 l -0.17625,0.768484 c -0.0749,0.326674 -0.22068,0.570092 -0.43778,0.730131 -0.21706,0.160004 -0.46734,0.207263 -0.75022,0.141606 -0.20254,-0.04701 -0.36157,-0.138403 -0.47702,-0.274027 -0.11197,-0.134815 -0.17232,-0.301113 -0.18116,-0.49884 -0.0453,0.22492 -0.0906,0.449842 -0.13582,0.674767 l -0.18569,0.793535 c -0.21836,-0.05107 -0.43655,-0.10225 -0.65459,-0.153505 z m 1.51774,-1.155773 c 0.16734,0.03895 0.30676,0.02421 0.41812,-0.04414 0.11486,-0.06755 0.1937,-0.194138 0.23665,-0.379742 l 0.16941,-0.732081 c 0.043,-0.185592 0.0279,-0.333937 -0.0452,-0.445014 -0.0696,-0.110288 -0.1876,-0.184764 -0.35421,-0.223561 -0.16661,-0.0388 -0.3084,-0.01939 -0.42545,0.05832 -0.11356,0.07852 -0.19169,0.208791 -0.2343,0.390857 l -0.15916,0.680173 c -0.0426,0.182068 -0.0303,0.333499 0.037,0.454294 0.0708,0.121601 0.18983,0.201937 0.35716,0.240886 z m 1.84375,0.955836 0.64284,-2.838327 c 0.19575,0.04435 0.39149,0.08847 0.58722,0.132319 l -0.30761,1.373411 c -0.0347,0.154891 -0.0769,0.318952 -0.12675,0.492142 -0.0456,0.170546 -0.0979,0.314233 -0.1572,0.431094 0.51402,-0.6945 1.02501,-1.390404 1.53208,-2.088039 0.26328,0.05777 0.52657,0.114999 0.78987,0.171612 l -0.6116,2.844917 c -0.19888,-0.04275 -0.39763,-0.08581 -0.59624,-0.129157 l 0.30129,-1.380152 c 0.0331,-0.151631 0.0708,-0.307657 0.11315,-0.468106 0.0423,-0.160436 0.0912,-0.292399 0.14644,-0.395861 -0.50117,0.679558 -1.00621,1.357365 -1.51428,2.033741 -0.26662,-0.05945 -0.53302,-0.119331 -0.79921,-0.179594 z m 3.0464,0.667629 c 0.30088,-0.300653 0.60051,-0.602055 0.89872,-0.904284 -0.18081,-0.09853 -0.31166,-0.233929 -0.39252,-0.405805 -0.0766,-0.174623 -0.0929,-0.365482 -0.0494,-0.57258 0.0625,-0.296845 0.21249,-0.508507 0.44903,-0.635716 0.23664,-0.127273 0.53116,-0.154461 0.88475,-0.08287 0.41428,0.08388 0.82868,0.165879 1.24326,0.245743 l -0.55107,2.857727 c -0.22177,-0.04282 -0.44334,-0.08618 -0.66472,-0.130066 l 0.19533,-0.986164 c -0.15296,-0.03031 -0.30585,-0.06087 -0.45868,-0.09167 -0.26294,0.288834 -0.52714,0.576975 -0.79248,0.864476 -0.25433,-0.05234 -0.50842,-0.105289 -0.76227,-0.158793 z m 1.54062,-1.232123 c 0.19076,0.03861 0.38161,0.07683 0.57254,0.114648 l 0.16551,-0.835644 c -0.18974,-0.03757 -0.37944,-0.07555 -0.56908,-0.113919 -0.15658,-0.03168 -0.28954,-0.01926 -0.39914,0.03749 -0.10539,0.054 -0.1717,0.146557 -0.19875,0.277833 -0.027,0.131277 -0.003,0.242557 0.0733,0.333756 0.076,0.09119 0.19458,0.153253 0.35559,0.185837 z"
         id="text4-4"
         transform="rotate(-1.190465,377.16952,243.17893)"
         aria-label="Фактическая траектория" /><path
         style="display:none;fill:none;fill-opacity:1;stroke:#000000;stroke-width:0.1;stroke-linecap:square;stroke-dasharray:none;stroke-dashoffset:0;stroke-opacity:1"
         d="m 79.0319,28.717751 c 16.600386,-6.111078 32.84653,-8.295125 49.16117,-5.307956 6.43959,1.179073 12.96673,2.827195 19.64816,3.966744"
         id="path8"
         sodipodi:nodetypes="csc" /></g><path
       d="m 100.28138,83.91259 v -3.862919 h 0.60325 v 1.889126 q 0,0.1905 -0.0106,0.418042 -0.0106,0.227542 -0.0265,0.4445 -0.0159,0.216959 -0.0265,0.370417 l 1.06363,-3.122085 h 0.80962 v 3.862919 h -0.60325 v -1.830918 q 0,-0.185208 0.0106,-0.423333 0.0159,-0.238125 0.0318,-0.465667 0.0159,-0.232834 0.0318,-0.402167 l -1.07421,3.122085 z m 2.91571,0.740834 v -1.307043 h 0.1958 q 0.0953,-0.09525 0.1905,-0.328083 0.0953,-0.238125 0.10054,-0.666751 l 0.0212,-1.349375 h 2.05846 v 2.344209 h 0.35455 v 1.307043 h -0.60855 V 83.91259 h -1.70391 v 0.740834 z m 0.85196,-1.307043 h 1.0848 v -1.772709 h -0.81492 l -0.0106,0.783167 q -0.005,0.41275 -0.09,0.656167 -0.0794,0.238125 -0.16934,0.333375 z m 3.79413,0.619126 q -0.37041,0 -0.64558,-0.142875 -0.27517,-0.142875 -0.42863,-0.402167 -0.14816,-0.264584 -0.14816,-0.619126 v -0.687917 q 0,-0.354542 0.14816,-0.613833 0.15346,-0.264584 0.42863,-0.407459 0.27517,-0.142875 0.64558,-0.142875 0.36513,0 0.635,0.142875 0.27517,0.142875 0.42334,0.402167 0.15345,0.254 0.15345,0.597959 v 0.529167 h -1.79916 v 0.201083 q 0,0.296334 0.15346,0.449792 0.15345,0.148167 0.43391,0.148167 0.20638,0 0.34925,-0.06879 0.14817,-0.07408 0.17463,-0.211667 h 0.65616 q -0.0688,0.375709 -0.39158,0.603251 -0.32279,0.22225 -0.78846,0.22225 z m -0.58737,-1.873251 v 0.100541 l 1.16416,-0.0053 v -0.100542 q 0,-0.301625 -0.14816,-0.465667 -0.14817,-0.164042 -0.42863,-0.164042 -0.29104,0 -0.43921,0.169334 -0.14816,0.164041 -0.14816,0.465667 z m 3.43429,1.873251 q -0.4445,0 -0.70379,-0.248709 -0.254,-0.254 -0.254,-0.661458 0,-0.423334 0.29104,-0.672043 0.29104,-0.254 0.79904,-0.254 h 0.70909 v -0.206375 q 0,-0.439208 -0.51329,-0.439208 -0.23284,0 -0.37042,0.08996 -0.13758,0.08996 -0.15346,0.254 h -0.635 q 0.0212,-0.391583 0.32808,-0.635 0.31221,-0.243417 0.83609,-0.243417 0.55562,0 0.86254,0.259292 0.30692,0.259292 0.30692,0.73025 v 1.973793 h -0.64559 v -0.545042 q -0.037,0.280459 -0.26458,0.439209 -0.22754,0.15875 -0.59267,0.15875 z m 0.21167,-0.539751 q 0.29104,0 0.46038,-0.142875 0.16933,-0.142875 0.16933,-0.381 v -0.343958 h -0.67734 q -0.21695,0 -0.34395,0.121708 -0.127,0.121708 -0.127,0.312208 0,0.195792 0.13229,0.317501 0.13758,0.116416 0.38629,0.116416 z m 1.81504,0.523876 v -0.603251 h 0.12171 q 0.17992,0 0.26988,-0.142875 0.0952,-0.148166 0.10054,-0.465667 l 0.0318,-1.735667 h 2.12725 v 2.910418 h -0.66146 v -2.31246 h -0.81491 l -0.0212,1.174751 q -0.0106,0.576792 -0.26988,0.878417 -0.254,0.296334 -0.71966,0.296334 z m 3.51897,-0.03704 v -2.910418 h 0.66675 v 0.9525 h 0.72496 q 0.52387,0 0.8255,0.264584 0.30162,0.259291 0.30162,0.719667 0,0.449792 -0.30691,0.714375 -0.30163,0.259292 -0.81492,0.259292 z m 0.66675,-0.576792 h 0.6985 q 0.22754,0 0.35454,-0.105833 0.127,-0.105834 0.127,-0.296334 0,-0.1905 -0.127,-0.296333 -0.127,-0.105834 -0.35454,-0.105834 h -0.6985 z m 2.45533,0.576792 v -2.910418 h 0.66146 v 1.121834 h 1.03717 v -1.121834 h 0.66146 v 2.910418 h -0.66146 v -1.190626 h -1.03717 v 1.190626 z m 4.03226,0.05292 q -0.4445,0 -0.70379,-0.248709 -0.254,-0.254 -0.254,-0.661458 0,-0.423334 0.29104,-0.672043 0.29104,-0.254 0.79904,-0.254 h 0.70909 v -0.206375 q 0,-0.439208 -0.5133,-0.439208 -0.23283,0 -0.37041,0.08996 -0.13759,0.08996 -0.15346,0.254 h -0.635 q 0.0212,-0.391583 0.32808,-0.635 0.31221,-0.243417 0.83609,-0.243417 0.55562,0 0.86254,0.259292 0.30691,0.259292 0.30691,0.73025 v 1.973793 h -0.64558 v -0.545042 q -0.037,0.280459 -0.26458,0.439209 -0.22754,0.15875 -0.59267,0.15875 z m 0.21167,-0.539751 q 0.29104,0 0.46037,-0.142875 0.16934,-0.142875 0.16934,-0.381 v -0.343958 h -0.67734 q -0.21696,0 -0.34396,0.121708 -0.127,0.121708 -0.127,0.312208 0,0.195792 0.13229,0.317501 0.13759,0.116416 0.3863,0.116416 z m 1.98967,0.486834 0.68262,-1.068917 q -0.29104,-0.08996 -0.46037,-0.3175 -0.16405,-0.232834 -0.16405,-0.550334 0,-0.455084 0.30692,-0.714376 0.30692,-0.259291 0.84667,-0.259291 h 1.26471 v 2.910418 h -0.66146 v -1.005417 h -0.46038 l -0.59266,1.005417 z m 1.23825,-1.518709 h 0.57679 v -0.851959 h -0.57679 q -0.23813,0 -0.381,0.116417 -0.13759,0.111125 -0.13759,0.312208 0,0.201084 0.13759,0.312209 0.13758,0.111125 0.381,0.111125 z m 6.07484,1.518709 v -2.31246 h -0.99484 v -0.597958 h 2.65642 v 0.597958 h -0.99483 v 2.31246 z m 2.32834,0.952501 v -3.862919 h 0.64558 v 0.534458 q 0.0794,-0.275167 0.28575,-0.428625 0.20637,-0.15875 0.51329,-0.15875 0.28046,0 0.49213,0.137583 0.21696,0.137584 0.33337,0.391584 0.12171,0.248708 0.12171,0.582084 v 0.788458 q 0,0.502709 -0.25929,0.809626 -0.25929,0.306917 -0.68792,0.306917 -0.30692,0 -0.51858,-0.15875 -0.20638,-0.15875 -0.28575,-0.444501 l 0.0212,0.687917 v 0.814918 z m 1.19591,-1.471085 q 0.254,0 0.39159,-0.137583 0.14287,-0.137583 0.14287,-0.423334 v -0.751417 q 0,-0.28575 -0.14287,-0.423333 -0.13759,-0.137584 -0.39159,-0.137584 -0.254,0 -0.39687,0.153459 -0.13759,0.153458 -0.13759,0.433917 v 0.6985 q 0,0.280459 0.13759,0.433917 0.14287,0.153458 0.39687,0.153458 z m 2.83634,0.571501 q -0.4445,0 -0.70379,-0.248709 -0.254,-0.254 -0.254,-0.661458 0,-0.423334 0.29104,-0.672043 0.29104,-0.254 0.79904,-0.254 h 0.70908 v -0.206375 q 0,-0.439208 -0.51329,-0.439208 -0.23283,0 -0.37041,0.08996 -0.13759,0.08996 -0.15346,0.254 h -0.635 q 0.0212,-0.391583 0.32808,-0.635 0.31221,-0.243417 0.83608,-0.243417 0.55563,0 0.86255,0.259292 0.30691,0.259292 0.30691,0.73025 v 1.973793 h -0.64558 v -0.545042 q -0.037,0.280459 -0.26458,0.439209 -0.22755,0.15875 -0.59267,0.15875 z m 0.21167,-0.539751 q 0.29104,0 0.46037,-0.142875 0.16933,-0.142875 0.16933,-0.381 v -0.343958 h -0.67733 q -0.21696,0 -0.34396,0.121708 -0.127,0.121708 -0.127,0.312208 0,0.195792 0.13229,0.317501 0.13759,0.116416 0.3863,0.116416 z m 3.29142,0.539751 q -0.37042,0 -0.64559,-0.142875 -0.27516,-0.142875 -0.42862,-0.402167 -0.14817,-0.264584 -0.14817,-0.619126 v -0.687917 q 0,-0.354542 0.14817,-0.613833 0.15346,-0.264584 0.42862,-0.407459 0.27517,-0.142875 0.64559,-0.142875 0.36512,0 0.635,0.142875 0.27516,0.142875 0.42333,0.402167 0.15346,0.254 0.15346,0.597959 v 0.529167 h -1.79917 v 0.201083 q 0,0.296334 0.15346,0.449792 0.15346,0.148167 0.43392,0.148167 0.20637,0 0.34925,-0.06879 0.14816,-0.07408 0.17462,-0.211667 h 0.65617 q -0.0688,0.375709 -0.39159,0.603251 -0.32279,0.22225 -0.78845,0.22225 z m -0.58738,-1.873251 v 0.100541 l 1.16417,-0.0053 v -0.100542 q 0,-0.301625 -0.14817,-0.465667 -0.14817,-0.164042 -0.42862,-0.164042 -0.29105,0 -0.43921,0.169334 -0.14817,0.164041 -0.14817,0.465667 z m 2.62467,1.820334 v -2.910418 h 0.66146 v 1.121834 h 0.46567 l 0.66675,-1.121834 h 0.74612 l -0.84666,1.407584 0.89958,1.502834 h -0.75671 l -0.70908,-1.190626 h -0.46567 v 1.190626 z m 3.97405,0 v -2.31246 h -0.99484 v -0.597958 h 2.65642 v 0.597958 h -0.99483 v 2.31246 z m 3.50838,0.04763 q -0.56092,0 -0.889,-0.312208 -0.32809,-0.317501 -0.32809,-0.851959 v -0.677334 q 0,-0.53975 0.32809,-0.851959 0.32808,-0.312208 0.889,-0.312208 0.56091,0 0.889,0.312208 0.32808,0.312209 0.32808,0.851959 v 0.677334 q 0,0.534458 -0.32808,0.851959 -0.32809,0.312208 -0.889,0.312208 z m 0,-0.576792 q 0.26458,0 0.40746,-0.142875 0.14816,-0.148167 0.14816,-0.423334 v -0.719667 q 0,-0.275167 -0.14816,-0.418042 -0.14288,-0.148166 -0.40746,-0.148166 -0.26459,0 -0.41275,0.148166 -0.14288,0.142875 -0.14288,0.418042 v 0.719667 q 0,0.275167 0.14288,0.423334 0.14816,0.142875 0.41275,0.142875 z m 1.99496,1.481668 v -3.862919 h 0.64558 v 0.534458 q 0.0794,-0.275167 0.28575,-0.428625 0.20638,-0.15875 0.51329,-0.15875 0.28046,0 0.49213,0.137583 0.21696,0.137584 0.33337,0.391584 0.12171,0.248708 0.12171,0.582084 v 0.788458 q 0,0.502709 -0.25929,0.809626 -0.25929,0.306917 -0.68792,0.306917 -0.30691,0 -0.51858,-0.15875 -0.20638,-0.15875 -0.28575,-0.444501 l 0.0212,0.687917 v 0.814918 z m 1.19591,-1.471085 q 0.25401,0 0.39159,-0.137583 0.14287,-0.137583 0.14287,-0.423334 v -0.751417 q 0,-0.28575 -0.14287,-0.423333 -0.13758,-0.137584 -0.39159,-0.137584 -0.254,0 -0.39687,0.153459 -0.13758,0.153458 -0.13758,0.433917 v 0.6985 q 0,0.280459 0.13758,0.433917 0.14287,0.153458 0.39687,0.153458 z m 1.97909,0.518584 v -2.910418 h 0.59796 v 1.407584 q 0,0.238125 -0.0159,0.508 -0.0106,0.264584 -0.0582,0.455084 l 1.03187,-2.370668 h 0.80434 v 2.910418 h -0.59796 v -1.412876 q 0,-0.232833 0.0106,-0.481542 0.0106,-0.248708 0.0582,-0.418042 l -1.02659,2.31246 z m 3.05859,0 0.68263,-1.068917 q -0.29105,-0.08996 -0.46038,-0.3175 -0.16404,-0.232834 -0.16404,-0.550334 0,-0.455084 0.30692,-0.714376 0.30691,-0.259291 0.84666,-0.259291 h 1.26471 v 2.910418 h -0.66146 v -1.005417 h -0.46037 l -0.59267,1.005417 z m 1.23825,-1.518709 h 0.57679 v -0.851959 h -0.57679 q -0.23812,0 -0.381,0.116417 -0.13758,0.111125 -0.13758,0.312208 0,0.201084 0.13758,0.312209 0.13758,0.111125 0.381,0.111125 z"
       id="text1"
       style="font-weight:bold;font-size:5.29167px;font-family:'JetBrains Mono';-inkscape-font-specification:'JetBrains Mono, Bold';text-align:center;text-anchor:middle;stroke-width:0.1;stroke-linecap:square;stroke-dasharray:0.2, 0.4"
       transform="rotate(-18.95496)"
       aria-label="Идеальная траектория" /><path
       d="m 82.356467,92.921387 v -5.150559 h 1.587501 q 0.458611,0 0.804333,0.1905 0.345723,0.183445 0.536223,0.515056 0.1905,0.331611 0.1905,0.776111 0,0.522112 -0.268111,0.896057 -0.268111,0.373944 -0.712612,0.522111 l 1.051279,2.250724 h -0.698501 l -1.008945,-2.187224 h -0.853723 v 2.187224 z m 0.627944,-2.758724 h 0.959557 q 0.395111,0 0.635,-0.246945 0.239889,-0.254 0.239889,-0.663223 0,-0.416278 -0.239889,-0.663222 -0.239889,-0.246945 -0.635,-0.246945 h -0.959557 z m 4.755451,2.088446 V 90.875274 H 86.39225 v -0.564445 h 1.347612 v -1.375834 h 0.620889 v 1.375834 h 1.347612 v 0.564445 h -1.347612 v 1.375835 z m 2.356559,0.246944 2.187224,-4.303892 2.187224,4.303892 z m 0.585612,-0.352778 h 3.203224 L 92.283645,88.99144 Z m 4.37445,0.776112 v -5.150559 h 1.587501 q 0.458611,0 0.804333,0.1905 0.345723,0.183445 0.536223,0.515056 0.1905,0.331611 0.1905,0.776111 0,0.522112 -0.268111,0.896057 -0.268111,0.373944 -0.712612,0.522111 l 1.051279,2.250724 H 97.547095 L 96.53815,90.734163 h -0.853723 v 2.187224 z m 0.627944,-2.758724 h 0.959557 q 0.395111,0 0.635,-0.246945 0.239889,-0.254 0.239889,-0.663223 0,-0.416278 -0.239889,-0.663222 -0.239889,-0.246945 -0.635,-0.246945 h -0.959557 z"
       id="text2"
       style="font-size:7.05556px;font-family:'JetBrains Mono';-inkscape-font-specification:'JetBrains Mono, Normal';text-align:center;text-anchor:middle;fill:#818181;stroke-width:0.1;stroke-linecap:square;stroke-dasharray:0.2, 0.4"
       aria-label="R+△R" /></g></svg>
