<?xml version="1.0" encoding="UTF-8" standalone="no"?>
<!-- Created with Inkscape (http://www.inkscape.org/) -->

<svg
   width="196.87642mm"
   height="154.44363mm"
   viewBox="0 0 196.87641 154.44363"
   version="1.1"
   id="svg1"
   xml:space="preserve"
   sodipodi:docname="Model_geometry.svg"
   inkscape:version="1.3.2 (091e20e, 2023-11-25, custom)"
   inkscape:export-filename="SAR_geometry.png"
   inkscape:export-xdpi="600"
   inkscape:export-ydpi="600"
   xmlns:inkscape="http://www.inkscape.org/namespaces/inkscape"
   xmlns:sodipodi="http://sodipodi.sourceforge.net/DTD/sodipodi-0.dtd"
   xmlns="http://www.w3.org/2000/svg"
   xmlns:svg="http://www.w3.org/2000/svg"><sodipodi:namedview
     id="namedview1"
     pagecolor="#ffffff"
     bordercolor="#000000"
     borderopacity="0.25"
     inkscape:showpageshadow="2"
     inkscape:pageopacity="0.0"
     inkscape:pagecheckerboard="0"
     inkscape:deskcolor="#d1d1d1"
     inkscape:document-units="mm"
     inkscape:zoom="1.224212"
     inkscape:cx="293.24986"
     inkscape:cy="78.009364"
     inkscape:window-width="1920"
     inkscape:window-height="991"
     inkscape:window-x="-9"
     inkscape:window-y="1341"
     inkscape:window-maximized="1"
     inkscape:current-layer="layer1"
     inkscape:export-bgcolor="#ffffffff" /><defs
     id="defs1"><inkscape:path-effect
       effect="bend_path"
       id="path-effect20"
       is_visible="true"
       lpeversion="1"
       bendpath="#path20"
       prop_scale="1"
       scale_y_rel="false"
       vertical="false"
       hide_knot="false" /><marker
       style="overflow:visible"
       id="Triangle"
       refX="0"
       refY="0"
       orient="auto-start-reverse"
       inkscape:stockid="Triangle arrow"
       markerWidth="1"
       markerHeight="1"
       viewBox="0 0 1 1"
       inkscape:isstock="true"
       inkscape:collect="always"
       preserveAspectRatio="xMidYMid"><path
         transform="scale(0.5)"
         style="fill:context-stroke;fill-rule:evenodd;stroke:context-stroke;stroke-width:1pt"
         d="M 5.77,0 -2.88,5 V -5 Z"
         id="path135" /></marker><marker
       style="overflow:visible"
       id="marker6"
       refX="0"
       refY="0"
       orient="auto-start-reverse"
       inkscape:stockid="Concave triangle arrow"
       markerWidth="1"
       markerHeight="1"
       viewBox="0 0 1 1"
       inkscape:isstock="true"
       inkscape:collect="always"
       preserveAspectRatio="xMidYMid"><path
         transform="scale(0.7)"
         d="M -2,-4 9,0 -2,4 c 2,-2.33 2,-5.66 0,-8 z"
         style="fill:context-stroke;fill-rule:evenodd;stroke:none"
         id="path7" /></marker><inkscape:path-effect
       effect="bend_path"
       id="path-effect8"
       is_visible="true"
       lpeversion="1"
       bendpath="m 79.0319,28.717751 c 16.600386,-6.111078 32.84653,-8.295125 49.16117,-5.307956 6.43959,1.179073 12.96673,2.827195 19.64816,3.966744"
       prop_scale="1"
       scale_y_rel="false"
       vertical="false"
       hide_knot="false" /><rect
       x="41.895844"
       y="122.07582"
       width="160.35995"
       height="64.288452"
       id="rect13" /><rect
       x="73.678902"
       y="150.24718"
       width="112.68537"
       height="27.449001"
       id="rect12" /><marker
       style="overflow:visible"
       id="marker11"
       refX="0"
       refY="0"
       orient="auto-start-reverse"
       markerWidth="1"
       markerHeight="1"
       viewBox="0 0 1 1"
       preserveAspectRatio="xMidYMid"><path
         transform="scale(0.7)"
         d="M -2,-4 9,0 -2,4 c 2,-2.33 2,-5.66 0,-8 z"
         style="fill:context-stroke;fill-rule:evenodd;stroke:none"
         id="path11" /></marker><marker
       style="overflow:visible"
       id="marker10"
       refX="0"
       refY="0"
       orient="auto-start-reverse"
       markerWidth="1"
       markerHeight="1"
       viewBox="0 0 1 1"
       preserveAspectRatio="xMidYMid"><path
         transform="scale(0.7)"
         d="M -2,-4 9,0 -2,4 c 2,-2.33 2,-5.66 0,-8 z"
         style="fill:context-stroke;fill-rule:evenodd;stroke:none"
         id="path10" /></marker><marker
       style="overflow:visible"
       id="ConcaveTriangle"
       refX="0"
       refY="0"
       orient="auto-start-reverse"
       markerWidth="1"
       markerHeight="1"
       viewBox="0 0 1 1"
       preserveAspectRatio="xMidYMid"><path
         transform="scale(0.7)"
         d="M -2,-4 9,0 -2,4 c 2,-2.33 2,-5.66 0,-8 z"
         style="fill:context-stroke;fill-rule:evenodd;stroke:none"
         id="path9" /></marker><rect
       x="41.895844"
       y="122.07582"
       width="160.35995"
       height="64.288452"
       id="rect13-8" /><rect
       x="41.895844"
       y="122.07582"
       width="160.35995"
       height="64.288452"
       id="rect13-8-9" /><rect
       x="41.895844"
       y="122.07582"
       width="160.35995"
       height="64.288452"
       id="rect13-8-9-1" /><rect
       x="41.895844"
       y="122.07582"
       width="160.35995"
       height="64.288452"
       id="rect13-4" /><rect
       x="41.895844"
       y="122.07582"
       width="160.35995"
       height="64.288452"
       id="rect13-4-3" /><rect
       x="41.895844"
       y="122.07582"
       width="160.35995"
       height="64.288452"
       id="rect13-4-3-1" /><rect
       x="41.895844"
       y="122.07582"
       width="160.35995"
       height="64.288452"
       id="rect13-4-3-4" /><rect
       x="41.895844"
       y="122.07582"
       width="160.35995"
       height="64.288452"
       id="rect13-2" /><rect
       x="41.895844"
       y="122.07582"
       width="160.35995"
       height="64.288452"
       id="rect13-4-3-1-2" /><rect
       x="41.895844"
       y="122.07582"
       width="160.35995"
       height="64.288452"
       id="rect13-4-3-4-2" /><rect
       x="41.895844"
       y="122.07582"
       width="160.35995"
       height="64.288452"
       id="rect13-8-6" /><rect
       x="41.895844"
       y="122.07582"
       width="160.35995"
       height="64.288452"
       id="rect13-4-3-4-2-9" /><rect
       x="41.895844"
       y="122.07582"
       width="160.35995"
       height="64.288452"
       id="rect13-4-3-4-2-6" /><marker
       style="overflow:visible"
       id="marker11-3"
       refX="0"
       refY="0"
       orient="auto-start-reverse"
       markerWidth="1"
       markerHeight="1"
       viewBox="0 0 1 1"
       preserveAspectRatio="xMidYMid"><path
         transform="scale(0.7)"
         d="M -2,-4 9,0 -2,4 c 2,-2.33 2,-5.66 0,-8 z"
         style="fill:context-stroke;fill-rule:evenodd;stroke:none"
         id="path11-3" /></marker><marker
       style="overflow:visible"
       id="marker11-4"
       refX="0"
       refY="0"
       orient="auto-start-reverse"
       markerWidth="1"
       markerHeight="1"
       viewBox="0 0 1 1"
       preserveAspectRatio="xMidYMid"><path
         transform="scale(0.7)"
         d="M -2,-4 9,0 -2,4 c 2,-2.33 2,-5.66 0,-8 z"
         style="fill:context-stroke;fill-rule:evenodd;stroke:none"
         id="path11-6" /></marker><rect
       x="41.895844"
       y="122.07582"
       width="160.35995"
       height="64.288452"
       id="rect13-4-3-4-0" /><rect
       x="41.895844"
       y="122.07582"
       width="160.35995"
       height="64.288452"
       id="rect13-4-3-4-0-9" /><rect
       x="41.895844"
       y="122.07582"
       width="160.35995"
       height="64.288452"
       id="rect13-8-5" /><rect
       x="41.895844"
       y="122.07582"
       width="160.35995"
       height="64.288452"
       id="rect13-8-5-9" /><rect
       x="41.895844"
       y="122.07582"
       width="160.35995"
       height="64.288452"
       id="rect13-8-9-1-3" /></defs><g
     id="layer1"
     transform="translate(-9.7816865,-16.870873)"><path
       style="fill:none;stroke:#7f7f7f;stroke-width:1;stroke-linecap:square;stroke-dasharray:2, 4;stroke-dashoffset:0;stroke-opacity:1"
       d="M 48.535938,65.042869 C 55.0152,52.616976 67.273645,46.505739 74.634672,43.749087 c 7.218156,-2.703148 23.884447,-2.559737 37.020748,0.100382 12.55774,2.54296 25.30468,2.390517 35.15427,-0.943163 7.79865,-2.639523 15.31237,-5.467528 21.32811,-17.511203"
       id="path17"
       sodipodi:nodetypes="csssc" /><path
       style="fill:#000000;fill-opacity:1;stroke:#000000;stroke-width:1;stroke-dasharray:none;stroke-opacity:1;marker-end:url(#ConcaveTriangle)"
       d="M 9.9382236,77.212345 182.71042,20.258688"
       id="path1" /><path
       style="fill:#000000;fill-opacity:1;stroke:#000000;stroke-width:1;stroke-dasharray:none;stroke-opacity:1;marker-end:url(#marker10)"
       d="M 9.9505977,136.44137 196.3803,74.985669"
       id="path2" /><path
       style="fill:#000000;fill-opacity:1;stroke:#000000;stroke-width:1;stroke-dasharray:none;stroke-dashoffset:0;stroke-opacity:1;marker-end:url(#marker11)"
       d="m 111.798,103.02733 20.18783,56.2885"
       id="path3"
       sodipodi:nodetypes="cc" /><path
       d="m 108.45476,118.49552 1.23137,-0.43822 0.0657,0.18447 q 0.12168,0.0577 0.37301,0.0692 0.25628,0.01 0.66186,-0.12884 l 1.27837,-0.43248 0.69014,1.93931 -2.20852,0.78596 0.11888,0.33401 -1.2314,0.43821 -0.20402,-0.57331 0.69796,-0.24838 -0.57129,-1.60528 -0.69793,0.24837 z m 1.51696,0.3647 0.36371,1.02197 1.67009,-0.59433 -0.27322,-0.76775 -0.74139,0.25261 q -0.39062,0.1334 -0.64832,0.13525 -0.25096,0.005 -0.37088,-0.048 z m 0.57878,3.47297 q -0.14903,-0.41877 -0.002,-0.74642 0.15407,-0.3245 0.53801,-0.46108 0.39884,-0.14192 0.73073,0.0488 0.33691,0.18893 0.5072,0.66761 l 0.23773,0.66803 0.19444,-0.0691 q 0.41375,-0.14725 0.24166,-0.63084 -0.0781,-0.21937 -0.20895,-0.31881 -0.13086,-0.0994 -0.29071,-0.0595 l -0.2129,-0.59825 q 0.37601,-0.11135 0.70824,0.0962 0.334,0.21255 0.50965,0.70607 0.18628,0.52348 0.0449,0.89957 -0.14136,0.37607 -0.58508,0.53398 l -1.85953,0.66175 -0.21646,-0.60822 0.51349,-0.18273 q -0.27662,0.0591 -0.5025,-0.10199 -0.22586,-0.16113 -0.34825,-0.50514 z m 0.57946,0.0185 q 0.0976,0.27419 0.28896,0.38583 0.19137,0.11174 0.41571,0.0319 l 0.32406,-0.11533 -0.22712,-0.63811 q -0.0728,-0.20443 -0.22998,-0.28325 -0.15724,-0.0788 -0.33672,-0.0149 -0.18447,0.0657 -0.25478,0.23109 -0.0635,0.16868 0.0198,0.40296 z m 0.11494,1.88564 0.56834,-0.20227 0.0409,0.11467 q 0.0603,0.16949 0.22507,0.20636 0.17131,0.0411 0.47242,-0.0614 l 1.64585,-0.55201 0.71321,2.0041 -2.74194,0.97579 -0.22178,-0.62318 2.1786,-0.77527 -0.2732,-0.76776 -1.11386,0.37391 q -0.54695,0.18343 -0.91805,0.0403 -0.36436,-0.13993 -0.52047,-0.57866 z m 1.21472,3.30282 2.74196,-0.97577 0.22354,0.62816 -0.89737,0.31936 0.24306,0.68298 q 0.17564,0.49355 0.0275,0.86642 -0.14327,0.37108 -0.57688,0.52545 -0.42376,0.1508 -0.77592,-0.0497 -0.34543,-0.19721 -0.5175,-0.68082 z m 0.76695,0.43477 0.23418,0.65808 q 0.0763,0.21438 0.21858,0.29855 0.1423,0.0841 0.32177,0.0203 0.17946,-0.0638 0.23659,-0.21899 0.0571,-0.15513 -0.0192,-0.3695 l -0.23418,-0.65808 z m 0.2798,2.50662 2.74194,-0.97578 0.22179,0.62315 -1.05691,0.37613 0.34774,0.97714 1.0569,-0.37613 0.22177,0.62316 -2.74196,0.97579 -0.22177,-0.62318 1.12172,-0.39918 -0.34773,-0.97713 -1.12172,0.39919 z m 1.41525,4.1189 q -0.18806,-0.52844 -0.004,-0.9422 0.18917,-0.41553 0.69266,-0.59473 l 0.63813,-0.2271 q 0.5085,-0.18095 0.91263,0.0234 0.40412,0.20452 0.59219,0.73289 0.18807,0.52844 0.004,0.9422 -0.18417,0.41377 -0.69265,0.59473 l -0.63813,0.22711 q -0.50351,0.17917 -0.91263,-0.0234 -0.40411,-0.2045 -0.5922,-0.73288 z m 0.54339,-0.19334 q 0.0887,0.24925 0.27124,0.33596 0.18924,0.0899 0.44848,-0.002 l 0.67807,-0.24155 q 0.25924,-0.0923 0.34417,-0.27974 0.0917,-0.18427 0.003,-0.43355 -0.0887,-0.24927 -0.27797,-0.33917 -0.18252,-0.0866 -0.44176,0.006 l -0.67802,0.2413 q -0.25923,0.0923 -0.35091,0.2765 -0.085,0.1875 0.004,0.43678 z m 0.53207,3.23123 q -0.12595,-0.35397 -0.0904,-0.6643 0.043,-0.30706 0.23022,-0.5369 0.19283,-0.23149 0.52186,-0.3486 l 0.68798,-0.24483 q 0.32904,-0.11709 0.6198,-0.0576 0.29579,0.0573 0.5176,0.27075 0.22864,0.21633 0.3546,0.57029 0.18273,0.51349 0.0235,0.91838 -0.15248,0.40812 -0.6058,0.58629 l -0.21822,-0.6132 q 0.20905,-0.0913 0.27051,-0.28162 0.0682,-0.18718 -0.0135,-0.41648 -0.0905,-0.25425 -0.28154,-0.34914 -0.18603,-0.0968 -0.4403,-0.006 l -0.69296,0.24659 q -0.25427,0.0905 -0.3424,0.28476 -0.0882,0.19423 0.002,0.44848 0.0834,0.23433 0.2495,0.3381 0.17109,0.10208 0.39078,0.0405 l 0.21824,0.61319 q -0.46398,0.14827 -0.84495,-0.0701 -0.37424,-0.21503 -0.55697,-0.72857 z m 0.98662,2.61453 2.17858,-0.77532 -0.33353,-0.93723 0.56336,-0.2005 0.89061,2.50267 -0.56335,0.20049 -0.33353,-0.93726 -2.1786,0.7753 z m 0.79836,2.24341 2.74196,-0.97577 0.22353,0.62815 -0.89737,0.31935 0.24307,0.68299 q 0.17564,0.49357 0.0275,0.86643 -0.14328,0.37109 -0.5769,0.52546 -0.42375,0.15078 -0.77592,-0.0497 -0.3454,-0.19719 -0.5175,-0.68081 z m 0.76693,0.4348 0.2342,0.65805 q 0.0763,0.21437 0.21858,0.29854 0.14229,0.0841 0.32177,0.0203 0.17945,-0.0638 0.2366,-0.21903 0.0571,-0.15511 -0.0192,-0.36949 l -0.23417,-0.65807 z"
       id="text3-3-3"
       style="font-weight:bold;font-size:10.2646px;font-family:'JetBrains Mono';-inkscape-font-specification:'JetBrains Mono, Bold';white-space:pre;stroke-width:0.974216;stroke-linecap:square;stroke-dasharray:2.92265, 0.974216"
       aria-label="дальность" /><path
       style="fill:#000000;stroke-width:0.081747"
       d="m 44.34835,74.588911 c -0.26171,0.06225 -0.55714,0.129307 -0.65651,0.149007 l -0.18068,0.03584 -0.0309,-0.09964 c -0.027,-0.08808 -0.10143,-0.582301 -0.44473,-2.961374 -0.0469,-0.32532 -0.15152,-1.059887 -0.2324,-1.632376 -0.32419,-2.294875 -0.32131,-2.276482 -0.35914,-2.293357 -0.0375,-0.01672 -0.36225,0.06526 -1.02123,0.257775 -0.76148,0.222436 -1.46344,0.405001 -2.707427,0.704058 -0.485613,0.116742 -0.702629,0.176537 -0.870499,0.239826 -0.218642,0.08247 -0.278537,0.444096 -0.332268,2.006311 l -0.02924,0.85025 -0.127931,0.05567 c -0.2204,0.09596 -1.301629,0.458396 -1.364377,0.457585 -0.05539,-8.88e-4 -0.05874,-0.0051 -0.07574,-0.09631 -0.04165,-0.223195 -0.210249,-1.820241 -0.365872,-3.465074 l -0.01646,-0.173683 -0.264082,-0.441993 c -0.352621,-0.590175 -0.575335,-0.941122 -0.962629,-1.516905 -0.564517,-0.839244 -0.610903,-0.914038 -0.585079,-0.943371 0.04735,-0.05377 0.246009,-0.128399 0.854446,-0.32096 0.461251,-0.145983 0.636575,-0.195001 0.659269,-0.184367 0.017,0.0079 0.240004,0.272562 0.495566,0.588019 0.733814,0.905794 1.109403,1.310726 1.313545,1.416159 0.13449,0.06946 0.223451,0.0546 0.67699,-0.113049 0.204864,-0.07573 0.625111,-0.245895 0.9339,-0.378105 0.648035,-0.277506 1.423628,-0.599774 1.925408,-0.800033 0.55252,-0.22052 0.9097,-0.368026 0.96342,-0.397914 0.0624,-0.0347 0.0611,-0.03862 -0.13072,-0.400496 -0.5705,-1.076602 -1.25159,-2.345016 -1.725209,-3.212933 -0.974655,-1.786064 -1.436356,-2.662995 -1.419007,-2.695209 0.01554,-0.02888 0.44249,-0.232744 0.979858,-0.467875 0.548095,-0.239798 0.492381,-0.227992 0.600284,-0.127473 0.278984,0.2599 1.081604,1.17774 3.212064,3.673143 0.91909,1.076533 1.70072,1.988828 1.73697,2.027313 l 0.0659,0.06997 1.718633,-0.567854 c 2.1426,-0.707927 2.28366,-0.74621 3.13155,-0.850386 1.10089,-0.135239 2.01095,-0.100118 2.27973,0.08798 0.12629,0.08838 0.14869,0.138015 0.12171,0.269629 -0.0684,0.333783 -0.56194,0.772204 -1.59619,1.417903 -0.3788,0.236498 -0.62941,0.368433 -0.9557,0.503133 -0.29943,0.123614 -1.48685,0.553613 -2.96359,1.073176 -0.640143,0.22524 -0.959753,0.344754 -0.973653,0.364156 -0.0114,0.01586 -0.0824,1.134657 -0.15785,2.486212 -0.2749,4.926554 -0.28473,5.087571 -0.31415,5.143304 -0.0254,0.0482 -0.0471,0.06061 -0.17958,0.103066 -0.0829,0.02633 -0.36479,0.09923 -0.62651,0.161472 z"
       id="path4" /><path
       style="font-weight:bold;font-size:5.29167px;font-family:'JetBrains Mono';-inkscape-font-specification:'JetBrains Mono, Bold';text-align:center;text-anchor:middle;stroke-width:0.5;stroke-linecap:square"
       d="m 178.8269,85.590907 q -0.42095,0.14276 -0.74638,-0.01 -0.32212,-0.15897 -0.45298,-0.544847 -0.13596,-0.400907 0.0598,-0.729907 0.19406,-0.334007 0.67515,-0.497157 l 0.67151,-0.227727 -0.0663,-0.19545 q -0.14105,-0.415937 -0.62715,-0.251087 -0.22051,0.0748 -0.3219,0.204187 -0.10138,0.12942 -0.0637,0.28983 l -0.60136,0.203937 q -0.10568,-0.377647 0.10677,-0.706724 0.21749,-0.33079 0.71361,-0.49904 0.52619,-0.178437 0.90013,-0.0315 0.37393,0.146977 0.52518,0.592997 l 0.6339,1.869211 -0.61139,0.20734 -0.17504,-0.51616 q 0.055,0.27748 -0.10951,0.50091 -0.1645,0.223417 -0.51029,0.340677 z m 0.0271,-0.579127 q 0.27562,-0.0935 0.39011,-0.283167 0.11447,-0.18969 0.038,-0.4152 l -0.11046,-0.325737 -0.64145,0.21753 q -0.20547,0.0697 -0.28665,0.225727 -0.0812,0.15605 -0.02,0.336457 0.0629,0.18542 0.22725,0.2582 0.16768,0.0661 0.40321,-0.0138 z m 3.08485,-0.492967 q -0.4861,0.16484 -0.84652,0.0412 -0.36043,-0.12364 -0.48789,-0.499477 l 0.61139,-0.20734 q 0.0476,0.14031 0.19675,0.18472 0.14748,0.0394 0.35293,-0.0302 l 0.32073,-0.10877 q 0.21048,-0.0714 0.30018,-0.20232 0.093,-0.137697 0.0386,-0.298067 -0.0544,-0.16036 -0.21025,-0.20808 -0.15256,-0.0544 -0.36304,0.0169 l -0.64145,0.21753 -0.16825,-0.496117 0.61639,-0.20904 q 0.19545,-0.0663 0.27682,-0.188797 0.0814,-0.12262 0.0338,-0.26291 -0.051,-0.15034 -0.19344,-0.191427 -0.14417,-0.0461 -0.33961,0.0201 l -0.25056,0.085 q -0.18543,0.0629 -0.27518,0.17717 -0.0865,0.10756 -0.044,0.23283 l -0.6164,0.209044 q -0.11593,-0.357424 0.0903,-0.656454 0.20424,-0.303937 0.67531,-0.463697 l 0.25057,-0.085 q 0.47107,-0.159747 0.82298,-0.0612 0.35695,0.0969 0.46911,0.427627 0.0799,0.23553 -0.0328,0.44697 -0.11438,0.20642 -0.37489,0.311524 l 0.0102,0.0301 q 0.31411,-0.0953 0.55909,0.0339 0.24831,0.12254 0.34688,0.413197 0.085,0.25056 0.009,0.488587 -0.0707,0.23631 -0.2806,0.42483 -0.20986,0.188507 -0.5356,0.298967 z m 2.07284,-0.742017 -0.93471,-2.756232 0.56629,-0.19204 0.45205,1.333011 q 0.0765,0.22551 0.14809,0.486187 0.0749,0.25398 0.091,0.44968 l 0.21585,-2.576468 0.76173,-0.258317 0.93471,2.756225 -0.56629,0.192037 -0.45376,-1.338021 q -0.0748,-0.2205 -0.14461,-0.459437 -0.0698,-0.23894 -0.0791,-0.414577 l -0.22953,2.519635 z m 2.89155,-0.980594 -0.9347,-2.756225 0.78677,-0.266817 0.88287,1.153394 -8.7e-4,-1.452494 0.79681,-0.270217 0.9347,2.756225 -0.58132,0.197137 -0.15975,-0.471057 q -0.0833,-0.245557 -0.17674,-0.521177 -0.0935,-0.275617 -0.18221,-0.552857 -0.0887,-0.277227 -0.15327,-0.517967 -0.0665,-0.245647 -0.0926,-0.421197 l 0.0186,1.636481 -0.50114,0.16994 -0.94522,-1.238404 q 0.10974,0.19188 0.23356,0.507497 0.12714,0.308897 0.25121,0.674737 0.12709,0.359207 0.24435,0.704984 l 0.15975,0.47106 z m 3.86898,-0.306277 0.034,-1.184934 -1.92107,-2.254098 0.66149,-0.224327 1.00876,1.228041 q 0.0876,0.10999 0.18363,0.24504 0.0944,0.13005 0.15692,0.248517 -0.0274,-0.130387 -0.0367,-0.289297 -0.006,-0.16563 -0.003,-0.306197 l 0.0136,-1.574731 0.6615,-0.22432 -0.10243,4.113716 z m 3.06171,-2.044068 -0.74266,-2.189948 -0.94213,0.319497 -0.19204,-0.566277 2.51568,-0.853124 0.19204,0.566277 -0.94212,0.319497 0.74266,2.189948 z"
       id="text4-1"
       aria-label="азимут" /><path
       style="fill:none;stroke:#000000;stroke-width:0.5;stroke-linecap:butt;stroke-dasharray:0.5, 0.5;stroke-dashoffset:0;stroke-opacity:1"
       d="M 42.180322,126.08414 V 67.094171"
       id="path5" /><path
       style="fill:none;stroke:#000000;stroke-width:1;stroke-linecap:butt;stroke-dasharray:none;stroke-dashoffset:0;stroke-opacity:1;marker-end:url(#marker6)"
       d="M 111.57676,102.75892 V 32.149591"
       id="path6"
       sodipodi:nodetypes="cc" /><path
       style="fill:none;stroke:#000000;stroke-width:0.5;stroke-linecap:butt;stroke-dasharray:0.5, 0.5;stroke-dashoffset:0;stroke-opacity:1"
       d="M 169.18034,83.750792 V 24.760835"
       id="path8" /><path
       style="fill:#000000;fill-opacity:1;stroke:#000000;stroke-width:0.3;stroke-dasharray:none;stroke-opacity:1;marker-end:url(#Triangle)"
       d="m 46.741025,57.625615 7.010351,-2.310932"
       id="path12" /><path
       d="m 50.155087,55.157295 -0.989542,-2.910418 h 0.513292 l 0.635,1.957918 q 0.05821,0.174625 0.100542,0.338667 0.04233,0.15875 0.0635,0.248708 0.02646,-0.08996 0.0635,-0.248708 0.03704,-0.164042 0.08996,-0.338667 l 0.635001,-1.957918 h 0.502708 l -0.989542,2.910418 z"
       id="text12"
       style="font-size:5.29167px;font-family:'JetBrains Mono';-inkscape-font-specification:'JetBrains Mono, Normal';text-align:center;text-anchor:middle;stroke-width:0.3"
       aria-label="v" /><path
       d="m 109.84499,24.5807 v -0.635 l 2.32128,-3.937003 h -2.286 v -0.578556 h 2.92806 v 0.635 l -2.32128,3.937003 h 2.39183 V 24.5807 Z"
       id="text12-3"
       style="font-size:7.05556px;font-family:'JetBrains Mono';-inkscape-font-specification:'JetBrains Mono, Normal';text-align:center;text-anchor:middle;stroke-width:0.3"
       aria-label="Z" /><path
       d="m 50.384496,71.881935 q -0.359833,0 -0.576792,-0.206375 -0.216958,-0.211667 -0.216958,-0.560917 v -1.709209 h -0.836084 v -0.433917 h 0.836084 v -0.820209 h 0.47625 v 0.820209 h 1.190626 v 0.433917 h -1.190626 v 1.709209 q 0,0.148167 0.08467,0.243417 0.08996,0.08996 0.232833,0.08996 h 0.846667 v 0.433917 z m 1.746253,-2.169585 v -0.423333 h 2.275418 v 0.423333 z m 0,1.270001 v -0.423333 h 2.275418 v 0.423333 z m 4.312713,0.952501 q -0.534458,0 -0.851958,-0.306917 -0.312209,-0.312209 -0.312209,-0.830792 v -1.693335 q 0,-0.518583 0.312209,-0.8255 0.3175,-0.312209 0.851958,-0.312209 0.534459,0 0.846668,0.312209 0.3175,0.306917 0.3175,0.8255 v 1.693335 q 0,0.343958 -0.142875,0.60325 -0.142875,0.254 -0.407459,0.396875 -0.259292,0.137584 -0.613834,0.137584 z m 0,-0.407459 q 0.317501,0 0.508001,-0.201083 0.195791,-0.206375 0.195791,-0.529167 v -1.693335 q 0,-0.322791 -0.195791,-0.523875 -0.1905,-0.206375 -0.508001,-0.206375 -0.3175,0 -0.513292,0.206375 -0.1905,0.201084 -0.1905,0.523875 v 1.693335 q 0,0.322792 0.1905,0.529167 0.195792,0.201083 0.513292,0.201083 z m 0,-1.285876 q -0.142875,0 -0.232833,-0.07937 -0.08467,-0.07937 -0.08467,-0.227541 0,-0.142875 0.08467,-0.216959 0.08996,-0.07937 0.232833,-0.07937 0.142875,0 0.227542,0.07937 0.08996,0.07408 0.08996,0.216959 0,0.148166 -0.08996,0.227541 -0.08467,0.07937 -0.227542,0.07937 z"
       id="text12-0"
       style="font-size:5.29167px;font-family:'JetBrains Mono';-inkscape-font-specification:'JetBrains Mono, Normal';text-align:center;text-anchor:middle;stroke-width:0.3"
       aria-label="t=0" /><g
       id="text12-0-7"
       style="font-size:5.29167px;font-family:'JetBrains Mono';-inkscape-font-specification:'JetBrains Mono, Normal';text-align:center;text-anchor:middle;stroke-width:0.3"
       aria-label="y0"><path
         d="m 43.190711,135.01402 0.428625,-1.13241 -1.084792,-2.7305 h 0.513292 l 0.687917,1.79916 q 0.04233,0.10584 0.07937,0.22225 0.03704,0.11642 0.05292,0.20109 0.01588,-0.0847 0.05292,-0.20109 0.03704,-0.11641 0.07408,-0.22225 l 0.640292,-1.79916 h 0.502708 l -1.449917,3.86291 z"
         id="path13" /><path
         style="font-size:65%;baseline-shift:sub"
         d="m 46.455673,135.15425 q -0.347398,0 -0.553773,-0.19949 -0.202936,-0.20294 -0.202936,-0.54002 v -1.10066 q 0,-0.33708 0.202936,-0.53658 0.206375,-0.20294 0.553773,-0.20294 0.347398,0 0.550334,0.20294 0.206375,0.1995 0.206375,0.53658 v 1.10066 q 0,0.22358 -0.09287,0.39212 -0.09287,0.1651 -0.264848,0.25796 -0.16854,0.0894 -0.398992,0.0894 z m 0,-0.26484 q 0.206375,0 0.3302,-0.13071 0.127265,-0.13414 0.127265,-0.34396 v -1.10066 q 0,-0.20982 -0.127265,-0.34052 -0.123825,-0.13415 -0.3302,-0.13415 -0.206375,0 -0.33364,0.13415 -0.123825,0.1307 -0.123825,0.34052 v 1.10066 q 0,0.20982 0.123825,0.34396 0.127265,0.13071 0.33364,0.13071 z m 0,-0.83582 q -0.09287,0 -0.151342,-0.0516 -0.05503,-0.0516 -0.05503,-0.1479 0,-0.0929 0.05503,-0.14102 0.05847,-0.0516 0.151342,-0.0516 0.09287,0 0.147902,0.0516 0.05847,0.0482 0.05847,0.14102 0,0.0963 -0.05847,0.1479 -0.05503,0.0516 -0.147902,0.0516 z"
         id="path16" /></g><path
       d="m 107.76887,42.73835 v -3.862919 h 0.47625 v 1.508126 h 0.005 q 0.037,-0.291042 0.23813,-0.449792 0.20108,-0.15875 0.53445,-0.15875 0.43921,0 0.69851,0.269875 0.25929,0.269875 0.25929,0.735542 v 1.957918 h -0.47625 v -1.878543 q 0,-0.328083 -0.16934,-0.502709 -0.16404,-0.179916 -0.44979,-0.179916 -0.29633,0 -0.47096,0.185208 -0.16933,0.185209 -0.16933,0.523875 v 1.852085 z"
       id="text12-0-7-4"
       style="font-size:5.29167px;font-family:'JetBrains Mono';-inkscape-font-specification:'JetBrains Mono, Normal';text-align:center;text-anchor:middle;stroke-width:0.3"
       aria-label="h" /><path
       style="fill:#000000;stroke-width:0.081747"
       d="m 171.27377,32.900545 c -0.26171,0.06225 -0.55714,0.129307 -0.65651,0.149007 l -0.18068,0.03584 -0.0309,-0.09964 c -0.027,-0.08808 -0.10143,-0.582301 -0.44473,-2.961374 -0.0469,-0.32532 -0.15152,-1.059887 -0.2324,-1.632376 -0.32419,-2.294875 -0.32131,-2.276482 -0.35914,-2.293357 -0.0375,-0.01672 -0.36225,0.06526 -1.02123,0.257775 -0.76148,0.222436 -1.46344,0.405001 -2.70743,0.704058 -0.48561,0.116742 -0.70263,0.176537 -0.8705,0.239826 -0.21865,0.08247 -0.27854,0.444096 -0.33227,2.006311 l -0.0292,0.85025 -0.12793,0.05567 c -0.2204,0.09596 -1.30163,0.458396 -1.36438,0.457585 -0.0554,-8.88e-4 -0.0587,-0.0051 -0.0757,-0.09631 -0.0417,-0.223195 -0.21025,-1.820241 -0.36587,-3.465074 l -0.0165,-0.173683 -0.26408,-0.441993 c -0.35262,-0.590175 -0.57534,-0.941122 -0.96263,-1.516905 -0.56452,-0.839244 -0.61091,-0.914038 -0.58508,-0.943371 0.0473,-0.05377 0.24601,-0.128399 0.85444,-0.32096 0.46126,-0.145983 0.63658,-0.195001 0.65927,-0.184367 0.017,0.0079 0.24001,0.272562 0.49557,0.588019 0.73381,0.905794 1.1094,1.310726 1.31354,1.416159 0.13449,0.06946 0.22346,0.0546 0.67699,-0.113049 0.20487,-0.07573 0.62512,-0.245895 0.93391,-0.378105 0.64803,-0.277506 1.42363,-0.599774 1.92541,-0.800033 0.55252,-0.22052 0.9097,-0.368026 0.96342,-0.397914 0.0624,-0.0347 0.0611,-0.03862 -0.13072,-0.400496 -0.5705,-1.076602 -1.25159,-2.345016 -1.72521,-3.212933 -0.97466,-1.786064 -1.43636,-2.662995 -1.41901,-2.695209 0.0155,-0.02888 0.44249,-0.232744 0.97986,-0.467875 0.54809,-0.239798 0.49238,-0.227992 0.60028,-0.127473 0.27899,0.2599 1.08161,1.17774 3.21207,3.673143 0.91909,1.076533 1.70072,1.988828 1.73697,2.027313 l 0.0659,0.06997 1.71863,-0.567854 c 2.1426,-0.707927 2.28366,-0.74621 3.13155,-0.850386 1.10089,-0.135239 2.01095,-0.100118 2.27973,0.08798 0.12629,0.08838 0.14869,0.138015 0.12171,0.269629 -0.0684,0.333783 -0.56194,0.772204 -1.59619,1.417903 -0.3788,0.236498 -0.62941,0.368433 -0.9557,0.503133 -0.29943,0.123614 -1.48685,0.553613 -2.96359,1.073176 -0.64014,0.22524 -0.95975,0.344754 -0.97365,0.364156 -0.0114,0.01586 -0.0824,1.134657 -0.15785,2.486212 -0.2749,4.926554 -0.28473,5.087571 -0.31415,5.143304 -0.0254,0.0482 -0.0471,0.06061 -0.17958,0.103066 -0.0829,0.02633 -0.36479,0.09923 -0.62651,0.161472 z"
       id="path14" /><path
       d="m 177.3099,30.193567 q -0.35983,0 -0.57679,-0.206375 -0.21696,-0.211667 -0.21696,-0.560917 v -1.709209 h -0.83608 v -0.433917 h 0.83608 V 26.46294 h 0.47625 v 0.820209 h 1.19063 v 0.433917 h -1.19063 v 1.709209 q 0,0.148167 0.0847,0.243417 0.09,0.08996 0.23283,0.08996 h 0.84667 v 0.433917 z m 1.74625,-2.169584 v -0.423334 h 2.27542 v 0.423334 z m 0,1.27 V 28.87065 h 2.27542 v 0.423333 z m 4.07459,0.899584 v -3.429002 h -1.05833 v -0.433917 h 2.59292 v 0.433917 h -1.05834 v 3.429002 z"
       id="text14"
       style="font-size:5.29167px;font-family:'JetBrains Mono';-inkscape-font-specification:'JetBrains Mono, Normal';text-align:center;text-anchor:middle;stroke-width:0.3"
       aria-label="t=T" /><path
       style="fill:#000000;fill-opacity:1;stroke:#000000;stroke-width:0.5;stroke-linecap:butt;stroke-dasharray:none;stroke-dashoffset:0;stroke-opacity:1"
       d="m 42.176095,125.50544 2.27143,4.67556"
       id="path15"
       sodipodi:nodetypes="cc" /><path
       style="fill:#000000;fill-opacity:1;stroke:#000000;stroke-width:0.5;stroke-linecap:butt;stroke-dasharray:none;stroke-dashoffset:0;stroke-opacity:1"
       d="m 169.21668,83.646772 2.27143,4.67556"
       id="path15-4"
       sodipodi:nodetypes="cc" /><path
       d="m 204.47089,75.099136 v -1.926168 l -1.55222,-3.224391 h 0.67733 l 1.00189,2.116669 q 0.0847,0.176389 0.13406,0.303389 0.0494,0.119944 0.0635,0.176389 0.0141,-0.05644 0.0635,-0.176389 0.0564,-0.127 0.14111,-0.303389 l 1.00189,-2.116669 h 0.65616 l -1.55222,3.224391 v 1.926168 z"
       id="text12-3-6"
       style="font-size:7.05556px;font-family:'JetBrains Mono';-inkscape-font-specification:'JetBrains Mono, Normal';text-align:center;text-anchor:middle;stroke-width:0.3"
       aria-label="Y" /><path
       d="m 132.29367,171.31451 1.48167,-2.61056 -1.40406,-2.54 h 0.73378 l 0.79728,1.524 q 0.0635,0.11995 0.127,0.26106 0.0706,0.13405 0.11288,0.21166 0.0353,-0.0776 0.0988,-0.21166 0.0706,-0.14111 0.13406,-0.26106 l 0.81139,-1.524 h 0.6985 l -1.40406,2.49767 1.48167,2.65289 h -0.72672 l -0.88195,-1.63689 q -0.0635,-0.11994 -0.13405,-0.254 -0.0635,-0.14111 -0.0988,-0.22578 -0.0353,0.0847 -0.10584,0.21872 -0.0635,0.13406 -0.127,0.254 l -0.889,1.64395 z"
       id="text12-3-6-6"
       style="font-size:7.05556px;font-family:'JetBrains Mono';-inkscape-font-specification:'JetBrains Mono, Normal';text-align:center;text-anchor:middle;stroke-width:0.3"
       aria-label="X" /><path
       d="m 108.53481,102.01603 q -0.71261,0 -1.13594,-0.40922 -0.41628,-0.41628 -0.41628,-1.10773 v -2.257776 q 0,-0.691445 0.41628,-1.100668 0.42333,-0.416278 1.13594,-0.416278 0.71261,0 1.12889,0.416278 0.42333,0.409223 0.42333,1.100668 v 2.257776 q 0,0.45861 -0.1905,0.80434 -0.1905,0.33866 -0.54327,0.52916 -0.34573,0.18345 -0.81845,0.18345 z m 0,-0.54328 q 0.42334,0 0.67734,-0.26811 0.26105,-0.27517 0.26105,-0.70556 v -2.257776 q 0,-0.43039 -0.26105,-0.698501 -0.254,-0.275167 -0.67734,-0.275167 -0.42333,0 -0.68439,0.275167 -0.254,0.268111 -0.254,0.698501 v 2.257776 q 0,0.43039 0.254,0.70556 0.26106,0.26811 0.68439,0.26811 z m 0,-1.714501 q -0.1905,0 -0.31044,-0.105833 -0.11289,-0.105834 -0.11289,-0.303389 0,-0.190501 0.11289,-0.289278 0.11994,-0.105834 0.31044,-0.105834 0.1905,0 0.30339,0.105834 0.11995,0.09878 0.11995,0.289278 0,0.197555 -0.11995,0.303389 -0.11289,0.105833 -0.30339,0.105833 z"
       id="text12-3-6-6-4"
       style="font-size:7.05556px;font-family:'JetBrains Mono';-inkscape-font-specification:'JetBrains Mono, Normal';text-align:center;text-anchor:middle;stroke-width:0.3"
       aria-label="0" /><g
       id="g20"
       transform="translate(-1.833885,0.611295)"><path
         d="M 41.906716,66.66539 40.71101,62.992004 c 0.219582,-0.07129 0.439562,-0.14108 0.65992,-0.209395 l 0.560356,1.803716 c 0.03768,0.121286 0.07527,0.255434 0.112927,0.402585 0.03765,0.147115 0.07247,0.29144 0.104508,0.432923 0.03199,0.141278 0.05976,0.26239 0.08294,0.362087 0.05468,-1.107274 0.134345,-2.21716 0.238312,-3.328963 0.297368,-0.08516 0.595366,-0.167692 0.893952,-0.247637 l 0.999001,3.729251 c -0.206396,0.05532 -0.412389,0.111976 -0.617958,0.169981 l -0.496474,-1.76138 c -0.03347,-0.118743 -0.06802,-0.255627 -0.103476,-0.410442 -0.03169,-0.155918 -0.06232,-0.308466 -0.0919,-0.457642 -0.03052,-0.152573 -0.05523,-0.284802 -0.07415,-0.396673 -0.108996,1.110679 -0.193521,2.219523 -0.252876,3.325823 -0.273951,0.0839 -0.547088,0.170276 -0.81937,0.259152 z m 4.550028,-1.187596 c -0.259942,0.05791 -0.496439,0.06574 -0.711492,0.02252 -0.21217,-0.04751 -0.391692,-0.139706 -0.538871,-0.277697 -0.147956,-0.14135 -0.25103,-0.324564 -0.307509,-0.550266 l -0.177168,-0.70799 c -0.0565,-0.225767 -0.05056,-0.434398 0.0196,-0.626108 0.06928,-0.195037 0.193383,-0.361519 0.372608,-0.498302 0.182194,-0.141074 0.411529,-0.243226 0.686622,-0.304608 0.399159,-0.08906 0.740011,-0.06299 1.017853,0.07446 0.281379,0.133384 0.457368,0.359548 0.531568,0.675587 -0.234962,0.04631 -0.469608,0.09416 -0.703916,0.143546 -0.04271,-0.14596 -0.129784,-0.246603 -0.261732,-0.301242 -0.128838,-0.0589 -0.281922,-0.06901 -0.458287,-0.02967 -0.195544,0.04362 -0.337792,0.12704 -0.426091,0.248872 -0.08917,0.118499 -0.112563,0.265303 -0.07133,0.44034 l 0.168561,0.715545 c 0.04123,0.17501 0.127191,0.297832 0.256864,0.369022 0.129783,0.07125 0.288464,0.08538 0.477236,0.04332 0.173981,-0.03877 0.306121,-0.108846 0.396969,-0.211268 0.09009,-0.105847 0.125493,-0.233959 0.105457,-0.384697 0.230391,-0.04853 0.461142,-0.09555 0.692231,-0.14106 0.05147,0.32055 -0.02221,0.597085 -0.217029,0.831211 -0.191929,0.230037 -0.475109,0.384496 -0.852142,0.468493 z m 2.071756,-0.47152 -0.518846,-2.863318 c 0.243782,-0.04422 0.487839,-0.08685 0.732148,-0.127909 l 0.185709,1.106331 c 0.16866,-0.02831 0.337459,-0.05585 0.506388,-0.08264 0.183292,-0.407715 0.371584,-0.814685 0.564768,-1.220819 0.276475,-0.0403 0.553219,-0.07863 0.8302,-0.11503 -0.253226,0.506674 -0.498794,1.014806 -0.736488,1.524212 0.39844,0.447712 0.788873,0.899541 1.171444,1.355178 -0.267368,0.03474 -0.534402,0.07134 -0.801068,0.109844 -0.30675,-0.356791 -0.618452,-0.711097 -0.935177,-1.062765 -0.167167,0.02649 -0.334197,0.05373 -0.501082,0.08172 l 0.197096,1.174172 c -0.232027,0.03886 -0.463732,0.07919 -0.695092,0.12103 z m 4.219177,-0.544191 c -0.315052,0.0328 -0.573054,-0.02125 -0.776689,-0.164479 -0.200221,-0.147132 -0.317873,-0.354798 -0.350797,-0.624555 -0.0342,-0.280243 0.04328,-0.515653 0.235756,-0.70522 0.191845,-0.19285 0.474706,-0.310191 0.846241,-0.348035 0.259247,-0.02641 0.518674,-0.05115 0.778254,-0.07426 l -0.01831,-0.20569 c -0.02594,-0.291387 -0.228248,-0.421787 -0.608346,-0.384409 -0.172111,0.01692 -0.305966,0.06094 -0.401183,0.131282 -0.09524,0.07036 -0.14259,0.160719 -0.142511,0.270755 -0.23316,0.02516 -0.466171,0.05166 -0.699013,0.07953 -0.0155,-0.261133 0.07995,-0.486074 0.289353,-0.673373 0.213122,-0.187558 0.516298,-0.302598 0.906956,-0.34099 0.41433,-0.04072 0.744346,0.01784 0.986609,0.17126 0.242413,0.153514 0.37438,0.38793 0.398578,0.701164 l 0.152117,1.969153 c -0.229845,0.01777 -0.459544,0.03682 -0.689076,0.05718 l -0.04821,-0.543245 c -0.01004,0.18873 -0.0917,0.342971 -0.243775,0.463495 -0.152176,0.120608 -0.357106,0.19349 -0.615951,0.220437 z m 0.171193,-0.560371 c 0.208312,-0.0209 0.368549,-0.08379 0.481464,-0.189914 0.112844,-0.106059 0.16275,-0.238017 0.148662,-0.396249 l -0.03052,-0.342815 c -0.246239,0.02192 -0.492328,0.04532 -0.738242,0.07021 -0.157557,0.01595 -0.278205,0.06958 -0.361469,0.160168 -0.0833,0.09063 -0.117673,0.199191 -0.103788,0.325493 0.01427,0.129816 0.07341,0.229791 0.176875,0.300333 0.106909,0.06664 0.249006,0.09063 0.427019,0.07277 z m 1.878155,0.329207 c 0.185817,-0.513696 0.377128,-1.026572 0.573818,-1.538515 -0.238446,-0.457938 -0.481498,-0.914598 -0.729218,-1.369866 0.221175,-0.01526 0.442403,-0.02937 0.663667,-0.04235 0.201411,0.391259 0.399557,0.783417 0.594474,1.176407 0.08147,-0.0041 0.162948,-0.0081 0.244431,-0.01192 l -0.05646,-1.205658 c 0.177851,-0.0083 0.355713,-0.01586 0.533576,-0.02271 l 0.04677,1.205919 c 0.0815,-0.0032 0.16301,-0.0062 0.24452,-0.009 0.170274,-0.408474 0.34394,-0.816227 0.520936,-1.223199 0.01215,-3.2e-4 0.02429,-6.36e-4 0.03644,-9.49e-4 0.203793,-0.0048 0.407368,-0.0075 0.610719,-0.008 -0.201503,0.430817 -0.393975,0.86418 -0.576918,1.300119 -0.01488,0.03521 -0.02974,0.07042 -0.04457,0.105637 0.01671,0.03469 0.0334,0.06938 0.05006,0.104082 0.22021,0.463478 0.429121,0.929029 0.627348,1.396503 -0.197013,0.0012 -0.393858,0.0049 -0.590528,0.01105 -0.0041,1.1e-4 -0.0081,2.19e-4 -0.01218,3.29e-4 -0.194599,-0.418222 -0.392761,-0.835675 -0.594531,-1.252275 -0.08483,0.003 -0.169654,0.0061 -0.254473,0.0094 l 0.04923,1.269389 c -0.170111,0.0067 -0.340183,0.01405 -0.510207,0.02208 l -0.05943,-1.269115 c -0.08479,0.004 -0.169578,0.0081 -0.254355,0.01245 -0.157705,0.4321 -0.311827,0.86481 -0.462304,1.298071 -0.217044,0.01291 -0.433989,0.02695 -0.650818,0.04211 z M 59.787878,64.1845 C 59.533873,64.169628 59.315407,64.112814 59.129319,64.011492 58.943275,63.910194 58.798428,63.773487 58.694539,63.59924 58.5945,63.4217 58.544338,63.215059 58.547344,62.979279 l 0.0087,-0.686467 c 0.003,-0.235943 0.05992,-0.439353 0.173953,-0.609837 0.117953,-0.173775 0.282888,-0.305514 0.494386,-0.393046 0.211456,-0.08752 0.459223,-0.124134 0.739997,-0.107586 0.276726,0.01631 0.513924,0.08135 0.709275,0.192447 0.199389,0.111455 0.34558,0.259241 0.439094,0.441315 0.09785,0.179086 0.133894,0.382549 0.110956,0.610151 l -0.05292,0.525161 c -0.645111,-0.06529 -1.290849,-0.111233 -1.936956,-0.134968 l -0.0074,0.2004 c -0.0073,0.196829 0.04172,0.348278 0.144953,0.454609 0.103574,0.103011 0.252465,0.15906 0.448398,0.170547 0.14423,0.0085 0.267654,-0.0061 0.371055,-0.04458 0.107293,-0.04168 0.17411,-0.106955 0.199849,-0.196721 0.231529,0.01799 0.463087,0.0387 0.694662,0.06197 -0.07338,0.243821 -0.230105,0.429317 -0.466434,0.560425 -0.236319,0.127763 -0.511729,0.180092 -0.831035,0.161397 z m -0.534416,-1.895421 -0.0037,0.1002 c 0.424358,0.01395 0.848381,0.03722 1.271988,0.06904 l 0.0079,-0.09994 c 0.01584,-0.199917 -0.02611,-0.358488 -0.127927,-0.475473 -0.101651,-0.116797 -0.257806,-0.182634 -0.467025,-0.194952 -0.217135,-0.01278 -0.384107,0.03596 -0.498892,0.143651 -0.114833,0.104362 -0.174895,0.257 -0.182341,0.457459 z m 2.592888,2.036396 0.362586,-2.882434 c 0.247861,0.03093 0.495307,0.06434 0.742325,0.10008 l -0.16177,1.108968 c 0.376162,0.05493 0.75181,0.115543 1.126894,0.181304 l 0.193646,-1.105471 c 0.245647,0.04271 0.490845,0.08754 0.735583,0.134336 l -0.550763,2.861786 c -0.229178,-0.04469 -0.45825,-0.08745 -0.687204,-0.128156 l 0.205522,-1.173265 c -0.369706,-0.06511 -0.739691,-0.12511 -1.109904,-0.17944 l -0.171691,1.176972 c -0.228551,-0.03389 -0.456963,-0.0655 -0.685224,-0.09468 z m 3.296001,0.572196 0.605698,-2.853752 c 0.2202,0.0465 0.440012,0.09446 0.659424,0.143784 l -0.310847,1.377185 c -0.03506,0.15535 -0.07812,0.319685 -0.129043,0.493212 -0.04638,0.170862 -0.100357,0.314712 -0.161604,0.431436 0.535247,-0.69178 1.087294,-1.376622 1.652726,-2.054762 0.293389,0.07186 0.58603,0.145871 0.877899,0.221791 L 67.60089,65.48443 c -0.207825,-0.05409 -0.415613,-0.107168 -0.623356,-0.15913 l 0.343151,-1.376169 c 0.0377,-0.151178 0.08045,-0.306603 0.128329,-0.466192 0.04789,-0.159627 0.102675,-0.290067 0.164605,-0.391416 -0.55841,0.657828 -1.104168,1.322114 -1.633975,1.993094 -0.279215,-0.06472 -0.558321,-0.127124 -0.837293,-0.186946 z m 4.530265,1.210551 c -0.257511,-0.07388 -0.468633,-0.183126 -0.634343,-0.328714 -0.165663,-0.145546 -0.279194,-0.316419 -0.340553,-0.513155 -0.0567,-0.199071 -0.05438,-0.413215 0.0081,-0.64207 l 0.181786,-0.666186 c 0.06247,-0.228929 0.169299,-0.412639 0.321592,-0.550729 0.156976,-0.140417 0.347422,-0.229076 0.571031,-0.265322 0.223567,-0.03624 0.468675,-0.01589 0.734006,0.06138 0.261501,0.07615 0.474899,0.189259 0.639869,0.338088 0.168767,0.149981 0.280415,0.323942 0.335398,0.521245 0.05976,0.195102 0.05604,0.402326 -0.01039,0.621844 l -0.15331,0.506614 C 70.69452,65.001157 70.061275,64.81532 69.426299,64.636558 l -0.05478,0.19418 c -0.05381,0.190753 -0.04067,0.350739 0.03873,0.479805 0.08042,0.125741 0.21842,0.216381 0.414444,0.272776 0.14426,0.0415 0.27269,0.05485 0.385547,0.03987 0.117532,-0.01729 0.198657,-0.06712 0.243248,-0.149802 0.229737,0.06746 0.459322,0.135612 0.688741,0.204326 -0.120619,0.225443 -0.315445,0.377126 -0.583695,0.456367 -0.267264,0.07586 -0.562182,0.06702 -0.885918,-0.02586 z m -0.102161,-1.982665 -0.02739,0.09709 c 0.413347,0.114694 0.825735,0.232383 1.237085,0.352293 l 0.02861,-0.09656 c 0.05723,-0.193119 0.04904,-0.357765 -0.02515,-0.493937 -0.07417,-0.136138 -0.211258,-0.233733 -0.411144,-0.2918 -0.207459,-0.06027 -0.379951,-0.05068 -0.516568,0.02818 -0.135723,0.0755 -0.230653,0.210518 -0.28544,0.404724 z"
         id="text17"
         style="font-weight:bold;font-size:5.29167px;font-family:'JetBrains Mono';-inkscape-font-specification:'JetBrains Mono, Bold';text-align:center;text-anchor:middle;fill:#808080;stroke-linecap:square;stroke-dasharray:2, 4"
         transform="rotate(-19.032109)"
         aria-label="Искажение&#10;" /><path
         style="display:none;fill:none;stroke:#7f7f7f;stroke-width:1;stroke-linecap:square;stroke-dasharray:2, 4;stroke-dashoffset:0;stroke-opacity:1"
         d="m 60.29539,47.768839 c 5.092953,-3.828604 10.412839,-6.253496 14.339282,-7.723921 3.274541,-1.226292 8.305863,-2.075444 14.137691,-2.294239"
         id="path20"
         sodipodi:nodetypes="csc" /></g><g
       id="g21"
       transform="translate(-0.52916667,0.52916667)"><path
         id="path13-6"
         style="fill:#ffffff;stroke:#000000;stroke-width:0.583256;stroke-linecap:square"
         d="m 143.27736,101.85708 a 2.1282036,2.1282036 0 0 1 0.27792,-2.996851 2.1282036,2.1282036 0 0 1 2.99687,0.277914 2.1282036,2.1282036 0 0 1 -0.27791,2.996877 2.1282036,2.1282036 0 0 1 -2.99688,-0.27794 z" /><path
         id="path13-6-5"
         style="fill:#ffffff;stroke:#000000;stroke-width:0.583256;stroke-linecap:square"
         d="m 113.80707,112.39491 a 2.1282036,2.1282036 0 0 1 0.27791,-2.99689 2.1282036,2.1282036 0 0 1 2.99688,0.27792 2.1282036,2.1282036 0 0 1 -0.27791,2.99687 2.1282036,2.1282036 0 0 1 -2.99688,-0.2779 z" /><path
         id="path13-6-7"
         style="fill:#ffffff;stroke:#000000;stroke-width:0.583256;stroke-linecap:square"
         d="m 84.336772,122.93268 a 2.1282036,2.1282036 0 0 1 0.277923,-2.99687 2.1282036,2.1282036 0 0 1 2.996878,0.27791 2.1282036,2.1282036 0 0 1 -0.277919,2.99689 2.1282036,2.1282036 0 0 1 -2.996882,-0.27793 z" /><path
         id="path13-6-8"
         style="fill:#ffffff;stroke:#000000;stroke-width:0.583256;stroke-linecap:square"
         d="m 149.36095,118.87063 a 2.1282036,2.1282036 0 0 1 0.27792,-2.99687 2.1282036,2.1282036 0 0 1 2.99687,0.27791 2.1282036,2.1282036 0 0 1 -0.2779,2.99688 2.1282036,2.1282036 0 0 1 -2.99689,-0.27792 z" /><path
         id="path13-6-0"
         style="fill:#ffffff;stroke:#000000;stroke-width:0.583256;stroke-linecap:square"
         d="m 90.420362,139.94623 a 2.1282036,2.1282036 0 0 1 0.277903,-2.99686 2.1282036,2.1282036 0 0 1 2.996888,0.2779 2.1282036,2.1282036 0 0 1 -0.277922,2.99687 2.1282036,2.1282036 0 0 1 -2.996869,-0.27791 z" /><path
         id="path13-6-9"
         style="fill:#ffffff;stroke:#000000;stroke-width:0.583256;stroke-linecap:square"
         d="m 96.503945,156.95975 a 2.1282036,2.1282036 0 0 1 0.277912,-2.99686 2.1282036,2.1282036 0 0 1 2.996895,0.2779 2.1282036,2.1282036 0 0 1 -0.27793,2.9969 2.1282036,2.1282036 0 0 1 -2.996877,-0.27794 z" /><path
         id="path13-6-3"
         style="fill:#ffffff;stroke:#000000;stroke-width:0.583256;stroke-linecap:square"
         d="m 125.97425,146.42196 a 2.1282036,2.1282036 0 0 1 0.27791,-2.99686 2.1282036,2.1282036 0 0 1 2.99688,0.27791 2.1282036,2.1282036 0 0 1 -0.27792,2.99688 2.1282036,2.1282036 0 0 1 -2.99687,-0.27793 z" /><path
         id="path13-6-57"
         style="fill:#ffffff;stroke:#000000;stroke-width:0.583256;stroke-linecap:square"
         d="m 155.44453,135.88417 a 2.1282036,2.1282036 0 0 1 0.27793,-2.99686 2.1282036,2.1282036 0 0 1 2.99687,0.2779 2.1282036,2.1282036 0 0 1 -0.27793,2.99688 2.1282036,2.1282036 0 0 1 -2.99687,-0.27792 z" /><path
         id="path13-6-32"
         style="fill:#ffffff;stroke:#000000;stroke-width:0.583256;stroke-linecap:square"
         d="m 119.89066,129.40843 a 2.1282036,2.1282036 0 0 1 0.2779,-2.99687 2.1282036,2.1282036 0 0 1 2.99688,0.27789 2.1282036,2.1282036 0 0 1 -0.2779,2.9969 2.1282036,2.1282036 0 0 1 -2.99688,-0.27792 z" /></g><g
       id="text12-0-7-1"
       style="font-size:5.29167px;font-family:'JetBrains Mono';-inkscape-font-specification:'JetBrains Mono, Normal';text-align:center;text-anchor:middle;stroke-width:0.3"
       aria-label="y0"
       transform="translate(128.96955,-39.034004)"><g
         id="text1"
         style="font-weight:bold;-inkscape-font-specification:'JetBrains Mono, Bold';fill:#808080;stroke-width:1;stroke-linecap:square;stroke-dasharray:2, 4"
         aria-label="y0+v·T"><path
           style="font-weight:normal;-inkscape-font-specification:'JetBrains Mono, Normal';fill:#000000"
           d="m 35.798852,132.88876 0.428625,-1.13241 -1.084792,-2.7305 h 0.513292 l 0.687917,1.79916 q 0.04233,0.10584 0.07937,0.22225 0.03704,0.11642 0.05292,0.20109 0.01588,-0.0847 0.05292,-0.20109 0.03704,-0.11641 0.07408,-0.22225 l 0.640292,-1.79916 h 0.502708 l -1.449917,3.86291 z"
           id="path18" /><path
           style="font-weight:normal;font-size:3.43959px;-inkscape-font-specification:'JetBrains Mono, Normal';baseline-shift:sub;fill:#000000"
           d="m 39.063814,133.02899 q -0.347398,0 -0.553773,-0.19949 -0.202936,-0.20294 -0.202936,-0.54002 v -1.10066 q 0,-0.33708 0.202936,-0.53658 0.206375,-0.20294 0.553773,-0.20294 0.347398,0 0.550334,0.20294 0.206375,0.1995 0.206375,0.53658 v 1.10066 q 0,0.22358 -0.09287,0.39212 -0.09287,0.1651 -0.264848,0.25796 -0.16854,0.0894 -0.398992,0.0894 z m 0,-0.26484 q 0.206375,0 0.3302,-0.13071 0.127265,-0.13414 0.127265,-0.34396 v -1.10066 q 0,-0.20982 -0.127265,-0.34052 -0.123825,-0.13415 -0.3302,-0.13415 -0.206375,0 -0.33364,0.13415 -0.123825,0.1307 -0.123825,0.34052 v 1.10066 q 0,0.20982 0.123825,0.34396 0.127265,0.13071 0.33364,0.13071 z m 0,-0.83582 q -0.09287,0 -0.151342,-0.0516 -0.05503,-0.0516 -0.05503,-0.1479 0,-0.0929 0.05503,-0.14102 0.05847,-0.0516 0.151342,-0.0516 0.09287,0 0.147902,0.0516 0.05847,0.0482 0.05847,0.14102 0,0.0963 -0.05847,0.1479 -0.05503,0.0516 -0.147902,0.0516 z"
           id="path19" /><path
           style="font-weight:normal;-inkscape-font-specification:'JetBrains Mono, Normal';fill:#000000"
           d="m 41.450358,131.43356 v -1.03188 h -1.010709 v -0.42333 h 1.010709 v -1.03188 h 0.465667 v 1.03188 h 1.010709 v 0.42333 h -1.010709 v 1.03188 z m 3.095629,0.5027 -0.989542,-2.91041 h 0.513292 l 0.635,1.95791 q 0.05821,0.17463 0.100542,0.33867 0.04233,0.15875 0.0635,0.24871 0.02646,-0.09 0.0635,-0.24871 0.03704,-0.16404 0.08996,-0.33867 l 0.635,-1.95791 h 0.502709 l -0.989543,2.91041 z m 3.487213,-1.37583 q -0.195792,0 -0.3175,-0.11642 -0.116417,-0.11641 -0.116417,-0.30162 0,-0.19579 0.116417,-0.3175 0.121708,-0.12171 0.3175,-0.12171 0.195792,0 0.312208,0.12171 0.121709,0.12171 0.121709,0.3175 0,0.18521 -0.121709,0.30162 -0.116416,0.11642 -0.312208,0.11642 z m 2.936879,1.37583 v -3.429 h -1.058334 v -0.43391 h 2.592918 v 0.43391 h -1.058334 v 3.429 z"
           id="path21" /></g></g></g></svg>
