<?xml version="1.0" encoding="UTF-8" standalone="no"?>
<!-- Created with Inkscape (http://www.inkscape.org/) -->

<svg
   version="1.1"
   id="svg1"
   width="216.2459"
   height="324.20044"
   viewBox="0 0 216.2459 324.20044"
   sodipodi:docname="Point_target_model.svg"
   inkscape:version="1.3.2 (091e20e, 2023-11-25, custom)"
   xmlns:inkscape="http://www.inkscape.org/namespaces/inkscape"
   xmlns:sodipodi="http://sodipodi.sourceforge.net/DTD/sodipodi-0.dtd"
   xmlns="http://www.w3.org/2000/svg"
   xmlns:svg="http://www.w3.org/2000/svg">
  <defs
     id="defs1">
    <clipPath
       clipPathUnits="userSpaceOnUse"
       id="clipPath2">
      <path
         d="M 0,0 H 2480 V 3506.9824 H 0 Z"
         transform="scale(0.31999999)"
         clip-rule="evenodd"
         id="path2" />
    </clipPath>
    <clipPath
       clipPathUnits="userSpaceOnUse"
       id="clipPath4">
      <path
         d="m 78.125,112.5 h 2325 v 3284.375 h -2325 z"
         transform="matrix(0.35661692,0,0,0.35661692,-29.4801,-2379.734)"
         clip-rule="evenodd"
         id="path4" />
    </clipPath>
    <clipPath
       clipPathUnits="userSpaceOnUse"
       id="clipPath6">
      <path
         d="m 78.125,112.5 h 2325 v 3284.375 h -2325 z"
         transform="matrix(0.35661692,0,0,0.35661692,-29.4801,-2379.734)"
         clip-rule="evenodd"
         id="path6" />
    </clipPath>
    <clipPath
       clipPathUnits="userSpaceOnUse"
       id="clipPath8">
      <path
         d="m 78.125,112.5 h 2325 v 3284.375 h -2325 z"
         transform="matrix(0.35661692,0,0,0.35661692,-29.4801,-2379.734)"
         clip-rule="evenodd"
         id="path8" />
    </clipPath>
    <clipPath
       clipPathUnits="userSpaceOnUse"
       id="clipPath9">
      <path
         d="m 78.125,112.5 h 2325 v 3284.375 h -2325 z"
         transform="matrix(0.35661692,0,0,0.35661692,-316.9801,-83.23389)"
         clip-rule="evenodd"
         id="path9" />
    </clipPath>
    <clipPath
       clipPathUnits="userSpaceOnUse"
       id="clipPath11">
      <path
         d="m 78.125,112.5 h 2325 v 3284.375 h -2325 z"
         transform="matrix(0.35661692,0,0,0.35661692,-29.4801,-2379.734)"
         clip-rule="evenodd"
         id="path11" />
    </clipPath>
    <clipPath
       clipPathUnits="userSpaceOnUse"
       id="clipPath13">
      <path
         d="m 78.125,112.5 h 2325 v 3284.375 h -2325 z"
         transform="matrix(0.35661692,0,0,0.35661692,-29.4801,-2379.734)"
         clip-rule="evenodd"
         id="path13" />
    </clipPath>
    <clipPath
       clipPathUnits="userSpaceOnUse"
       id="clipPath15">
      <path
         d="m 78.125,112.5 h 2325 v 3284.375 h -2325 z"
         transform="matrix(0.35661692,0,0,0.35661692,-29.4801,-2379.734)"
         clip-rule="evenodd"
         id="path15" />
    </clipPath>
    <clipPath
       clipPathUnits="userSpaceOnUse"
       id="clipPath16">
      <path
         d="m 78.125,112.5 h 2325 v 3284.375 h -2325 z"
         transform="matrix(0.35661692,0,0,0.35661692,-327.77698,-156.23389)"
         clip-rule="evenodd"
         id="path16" />
    </clipPath>
    <clipPath
       clipPathUnits="userSpaceOnUse"
       id="clipPath17">
      <path
         d="m 78.125,112.5 h 2325 v 3284.375 h -2325 z"
         transform="matrix(0.35661692,0,0,0.35661692,-309.77699,-171.23389)"
         clip-rule="evenodd"
         id="path17" />
    </clipPath>
    <clipPath
       clipPathUnits="userSpaceOnUse"
       id="clipPath19">
      <path
         d="m 78.125,112.5 h 2325 v 3284.375 h -2325 z"
         transform="matrix(0.35661692,0,0,0.35661692,-29.4801,-2379.734)"
         clip-rule="evenodd"
         id="path19" />
    </clipPath>
    <clipPath
       clipPathUnits="userSpaceOnUse"
       id="clipPath21">
      <path
         d="m 78.125,112.5 h 2325 v 3284.375 h -2325 z"
         transform="matrix(0.35661692,0,0,0.35661692,-29.4801,-2379.734)"
         clip-rule="evenodd"
         id="path21" />
    </clipPath>
    <clipPath
       clipPathUnits="userSpaceOnUse"
       id="clipPath23">
      <path
         d="m 78.125,112.5 h 2325 v 3284.375 h -2325 z"
         transform="matrix(0.35661692,0,0,0.35661692,-29.4801,-2379.734)"
         clip-rule="evenodd"
         id="path23" />
    </clipPath>
    <clipPath
       clipPathUnits="userSpaceOnUse"
       id="clipPath24">
      <path
         d="m 78.125,112.5 h 2325 v 3284.375 h -2325 z"
         transform="matrix(0.35661692,0,0,0.35661692,-316.9801,-243.23389)"
         clip-rule="evenodd"
         id="path24" />
    </clipPath>
    <clipPath
       clipPathUnits="userSpaceOnUse"
       id="clipPath26">
      <path
         d="m 78.125,112.5 h 2325 v 3284.375 h -2325 z"
         transform="matrix(0.35661692,0,0,0.35661692,-29.4801,-2379.734)"
         clip-rule="evenodd"
         id="path26" />
    </clipPath>
    <clipPath
       clipPathUnits="userSpaceOnUse"
       id="clipPath28">
      <path
         d="m 78.125,112.5 h 2325 v 3284.375 h -2325 z"
         transform="matrix(0.35661692,0,0,0.35661692,-29.4801,-2379.734)"
         clip-rule="evenodd"
         id="path28" />
    </clipPath>
    <clipPath
       clipPathUnits="userSpaceOnUse"
       id="clipPath30">
      <path
         d="m 78.125,112.5 h 2325 v 3284.375 h -2325 z"
         transform="matrix(0.35661692,0,0,0.35661692,-29.4801,-2379.734)"
         clip-rule="evenodd"
         id="path30" />
    </clipPath>
    <clipPath
       clipPathUnits="userSpaceOnUse"
       id="clipPath31">
      <path
         d="m 78.125,112.5 h 2325 v 3284.375 h -2325 z"
         transform="matrix(0.35661692,0,0,0.35661692,-298.96448,-316.23389)"
         clip-rule="evenodd"
         id="path31" />
    </clipPath>
    <clipPath
       clipPathUnits="userSpaceOnUse"
       id="clipPath32">
      <path
         d="m 78.125,112.5 h 2325 v 3284.375 h -2325 z"
         transform="matrix(0.35661692,0,0,0.35661692,-378.1676,-316.23389)"
         clip-rule="evenodd"
         id="path32" />
    </clipPath>
    <clipPath
       clipPathUnits="userSpaceOnUse"
       id="clipPath33">
      <path
         d="m 78.125,112.5 h 2325 v 3284.375 h -2325 z"
         transform="matrix(0.35661692,0,0,0.35661692,-313.37073,-331.23389)"
         clip-rule="evenodd"
         id="path33" />
    </clipPath>
    <clipPath
       clipPathUnits="userSpaceOnUse"
       id="clipPath35">
      <path
         d="m 78.125,112.5 h 2325 v 3284.375 h -2325 z"
         transform="matrix(0.35661692,0,0,0.35661692,-29.4801,-2379.734)"
         clip-rule="evenodd"
         id="path35" />
    </clipPath>
    <clipPath
       clipPathUnits="userSpaceOnUse"
       id="clipPath36">
      <path
         d="m 78.125,112.5 h 2325 v 3284.375 h -2325 z"
         transform="matrix(0.35661692,0,0,0.35661692,-273.77699,-396.23389)"
         clip-rule="evenodd"
         id="path36" />
    </clipPath>
    <clipPath
       clipPathUnits="userSpaceOnUse"
       id="clipPath37">
      <path
         d="m 78.125,112.5 h 2325 v 3284.375 h -2325 z"
         transform="matrix(0.35661692,0,0,0.35661692,-327.77698,-411.23389)"
         clip-rule="evenodd"
         id="path37" />
    </clipPath>
  </defs>
  <sodipodi:namedview
     id="namedview1"
     pagecolor="#ffffff"
     bordercolor="#000000"
     borderopacity="0.25"
     inkscape:showpageshadow="2"
     inkscape:pageopacity="0.0"
     inkscape:pagecheckerboard="0"
     inkscape:deskcolor="#d1d1d1"
     showgrid="false"
     inkscape:zoom="1.3843358"
     inkscape:cx="46.231558"
     inkscape:cy="240.90976"
     inkscape:window-width="1920"
     inkscape:window-height="991"
     inkscape:window-x="-9"
     inkscape:window-y="1341"
     inkscape:window-maximized="1"
     inkscape:current-layer="g1">
    <inkscape:page
       x="0"
       y="0"
       inkscape:label="1"
       id="page1"
       width="216.2459"
       height="324.20044"
       margin="0"
       bleed="0" />
  </sodipodi:namedview>
  <g
     id="g1"
     inkscape:groupmode="layer"
     inkscape:label="1"
     transform="translate(-241.34983,-52.913463)">
    <path
       id="path1"
       d="M 0,0 H 794 V 1122 H 0 Z"
       style="fill:#ffffff;fill-opacity:1;fill-rule:nonzero;stroke:none"
       clip-path="url(#clipPath2)"
       transform="matrix(0.27248728,0,0,0.2889487,241.34983,52.913463)" />
    <path
       id="path3"
       d="m 360,-2280 v 33.6299"
       style="fill:none;stroke:#000000;stroke-width:1;stroke-linecap:butt;stroke-linejoin:miter;stroke-miterlimit:10;stroke-dasharray:none;stroke-opacity:1"
       transform="matrix(0.89732137,0,0,0.89732137,26.453124,2135.3862)"
       clip-path="url(#clipPath4)" />
    <path
       id="path5"
       d="m 360,-2241.1201 -3.5,-7 3.5,1.75 3.5,-1.75 z"
       style="fill:#000000;fill-opacity:1;fill-rule:nonzero;stroke:#000000;stroke-width:1;stroke-linecap:butt;stroke-linejoin:miter;stroke-miterlimit:10;stroke-dasharray:none;stroke-opacity:1"
       transform="matrix(0.89732137,0,0,0.89732137,26.453124,2135.3862)"
       clip-path="url(#clipPath6)" />
    <path
       id="path7"
       d="m 246,-2320 h 228 c 0.39395,0 0.78412,0.039 1.1705,0.1155 0.38638,0.077 0.76157,0.1907 1.12555,0.3413 0.36398,0.1506 0.70975,0.3357 1.03735,0.5547 0.32758,0.2187 0.63065,0.4675 0.90921,0.7461 0.27857,0.2788 0.52729,0.582 0.74616,0.9094 0.21884,0.3274 0.40369,0.6733 0.55447,1.0373 0.15076,0.3641 0.26456,0.7391 0.34143,1.1253 0.0768,0.3865 0.1153,0.7766 0.11533,1.1704 v 28 c -3e-5,0.394 -0.0385,0.7842 -0.11536,1.1707 -0.0768,0.3864 -0.19064,0.7614 -0.3414,1.1254 -0.15078,0.3641 -0.33563,0.7098 -0.55447,1.0372 -0.21887,0.3278 -0.46759,0.6308 -0.74616,0.9094 -0.27856,0.2785 -0.58163,0.5271 -0.90924,0.7461 -0.32757,0.219 -0.67334,0.4038 -1.03732,0.5547 -0.36398,0.1506 -0.73917,0.2644 -1.12555,0.3413 -0.38638,0.077 -0.77655,0.1152 -1.1705,0.1152 H 246 c -0.39398,0 -0.78418,-0.038 -1.17058,-0.1152 -0.3864,-0.077 -0.76158,-0.1907 -1.12555,-0.3413 -0.36397,-0.1509 -0.70974,-0.3357 -1.03734,-0.5547 -0.32756,-0.219 -0.63061,-0.4676 -0.90919,-0.7461 -0.27858,-0.2786 -0.5273,-0.5816 -0.74619,-0.9094 -0.21888,-0.3274 -0.4037,-0.6731 -0.55445,-1.0372 -0.15076,-0.364 -0.26458,-0.739 -0.34144,-1.1254 -0.0769,-0.3865 -0.11528,-0.7767 -0.11526,-1.1707 v -28 c -2e-5,-0.3938 0.0384,-0.7839 0.11525,-1.1704 0.0769,-0.3862 0.19069,-0.7612 0.34145,-1.1253 0.15075,-0.364 0.33557,-0.7099 0.55445,-1.0373 0.21889,-0.3274 0.46761,-0.6306 0.74619,-0.9094 0.27858,-0.2786 0.58163,-0.5274 0.90919,-0.7461 0.3276,-0.219 0.67337,-0.4041 1.03734,-0.5547 0.36397,-0.1506 0.73917,-0.2644 1.12557,-0.3413 0.3864,-0.077 0.77658,-0.1155 1.17056,-0.1155 z"
       style="fill:#ffffff;fill-opacity:1;fill-rule:nonzero;stroke:#000000;stroke-width:1;stroke-linecap:butt;stroke-linejoin:miter;stroke-miterlimit:10;stroke-dasharray:none;stroke-opacity:1"
       transform="matrix(0.89732137,0,0,0.89732137,26.453124,2135.3862)"
       clip-path="url(#clipPath8)" />
    <path
       style="font-size:12px;font-family:'JetBrains Mono'"
       d="m 1.08,0 v -8.76 h 1.044 v 4.92 q 0,0.432 -0.024,0.924 -0.012,0.48 -0.036,0.924 Q 2.04,-1.56 2.016,-1.26 L 4.68,-8.76 H 6.12 V 0 H 5.076 v -4.92 q 0,-0.444 0.012,-0.924 0.024,-0.492 0.048,-0.924 0.036,-0.444 0.06,-0.732 L 2.52,0 Z m 7.2239969,0 v -6.6 h 1.08 v 2.724 H 12.215997 V -6.6 h 1.08 V 0 h -1.08 V -2.892 H 9.3839969 V 0 Z m 7.1999971,0 v -6.6 h 1.032 v 3.552 q 0,0.516 -0.024,1.068 -0.012,0.552 -0.108,0.9 l 2.748,-5.52 h 1.344 V 0 h -1.032 v -3.564 q 0,-0.528 0.012,-1.08 0.024,-0.552 0.12,-0.9 L 16.847994,0 Z M 27.479991,1.68 V 0 h -4.776 v -6.6 h 1.08 v 5.64 h 2.676 V -6.6 h 1.08 v 5.64 h 0.9 V 1.68 Z M 29.903988,0 v -6.6 h 1.032 v 3.552 q 0,0.516 -0.024,1.068 -0.012,0.552 -0.108,0.9 l 2.748,-5.52 h 1.344 V 0 h -1.032 v -3.564 q 0,-0.528 0.012,-1.08 0.024,-0.552 0.12,-0.9 L 31.247988,0 Z m 9.119997,0.12 q -1.02,0 -1.62,-0.564 -0.6,-0.576 -0.6,-1.5 0,-0.612 0.276,-1.068 0.276,-0.456 0.768,-0.708 0.492,-0.264 1.128,-0.264 h 2.04 V -4.5 q 0,-1.284 -1.404,-1.284 -0.624,0 -1.008,0.228 -0.384,0.228 -0.408,0.636 h -1.08 q 0.06,-0.78 0.72,-1.284 0.672,-0.516 1.776,-0.516 1.2,0 1.836,0.576 0.648,0.576 0.648,1.608 V 0 h -1.068 v -1.2 h -0.024 q -0.096,0.612 -0.612,0.972 -0.516,0.348 -1.368,0.348 z m 0.264,-0.912 q 0.792,0 1.26,-0.384 0.468,-0.384 0.468,-1.044 v -0.924 h -1.92 q -0.528,0 -0.864,0.324 -0.324,0.312 -0.324,0.84 0,0.552 0.36,0.876 0.372,0.312 1.02,0.312 z m 4.211997,0.876 v -1.008 h 0.18 q 0.552,0 0.768,-0.432 0.228,-0.432 0.24,-1.548 l 0.072,-3.696 h 4.536 V 0 h -1.08 v -5.616 h -2.388 l -0.06,2.76 q -0.036,1.572 -0.504,2.256 -0.468,0.684 -1.524,0.684 z M 51.503979,0 v -6.6 h 1.032 v 3.552 q 0,0.516 -0.024,1.068 -0.012,0.552 -0.108,0.9 l 2.748,-5.52 h 1.344 V 0 h -1.032 v -3.564 q 0,-0.528 0.012,-1.08 0.024,-0.552 0.12,-0.9 L 52.847979,0 Z m 9.287997,0.084 q -1.08,0 -1.716,-0.504 -0.636,-0.516 -0.636,-1.392 h 1.08 q 0,0.42 0.336,0.672 0.348,0.252 0.936,0.252 h 0.636 q 0.624,0 0.984,-0.264 0.36,-0.276 0.36,-0.744 0,-0.492 -0.36,-0.768 -0.36,-0.288 -0.984,-0.288 h -1.44 v -0.936 h 1.404 q 0.564,0 0.888,-0.252 0.336,-0.252 0.336,-0.684 0,-0.42 -0.324,-0.66 -0.324,-0.252 -0.888,-0.252 h -0.564 q -0.528,0 -0.852,0.204 -0.312,0.204 -0.336,0.552 h -1.08 q 0.024,-0.78 0.636,-1.236 0.612,-0.468 1.632,-0.468 h 0.564 q 1.08,0 1.704,0.444 0.636,0.444 0.636,1.272 0,0.552 -0.384,0.936 -0.372,0.372 -0.972,0.42 v 0.048 q 0.72,0.048 1.116,0.504 0.396,0.456 0.396,1.176 0,0.9 -0.672,1.44 -0.66,0.528 -1.8,0.528 z m 7.031997,0.036 q -1.02,0 -1.62,-0.564 -0.6,-0.576 -0.6,-1.5 0,-0.612 0.276,-1.068 0.276,-0.456 0.768,-0.708 0.492,-0.264 1.128,-0.264 h 2.04 V -4.5 q 0,-1.284 -1.404,-1.284 -0.624,0 -1.008,0.228 -0.384,0.228 -0.408,0.636 h -1.08 q 0.06,-0.78 0.72,-1.284 0.672,-0.516 1.776,-0.516 1.2,0 1.836,0.576 0.648,0.576 0.648,1.608 V 0 h -1.068 v -1.2 h -0.024 q -0.096,0.612 -0.612,0.972 -0.516,0.348 -1.368,0.348 z m 0.264,-0.912 q 0.792,0 1.26,-0.384 0.468,-0.384 0.468,-1.044 v -0.924 h -1.92 q -0.528,0 -0.864,0.324 -0.324,0.312 -0.324,0.84 0,0.552 0.36,0.876 0.372,0.312 1.02,0.312 z M 77.879969,1.68 V 0 h -4.776 v -6.6 h 1.08 v 5.64 h 2.676 V -6.6 h 1.08 v 5.64 h 0.9 V 1.68 Z M 80.303966,0 v -6.6 h 1.032 v 3.552 q 0,0.516 -0.024,1.068 -0.012,0.552 -0.108,0.9 l 2.748,-5.52 h 1.344 V 0 h -1.032 v -3.564 q 0,-0.528 0.012,-1.08 0.024,-0.552 0.12,-0.9 L 81.647966,0 Z m 6.851997,0 1.692,-2.568 q -0.696,-0.168 -1.116,-0.696 -0.42,-0.54 -0.42,-1.272 0,-0.96 0.648,-1.512 0.648,-0.552 1.752,-0.552 h 2.784 V 0 h -1.08 v -2.496 h -1.392 l -1.56,2.496 z m 2.556,-3.432 h 1.704 v -2.22 h -1.704 q -0.588,0 -0.948,0.3 -0.348,0.288 -0.348,0.816 0,0.516 0.348,0.816 0.36,0.288 0.948,0.288 z M 101.66396,0 v -6.6 h 1.416 l 1.296,3.228 1.308,-3.228 h 1.452 V 0 h -1.032 v -1.02 q 0,-1.716 0.012,-2.964 0.024,-1.248 0.144,-2.088 l -1.404,3.492 h -0.984 l -1.32,-3.3 q 0.108,0.744 0.12,1.896 0.024,1.152 0.024,2.964 V 0 Z m 9.93599,0.096 q -1.188,0 -1.896,-0.696 -0.696,-0.696 -0.696,-1.944 v -1.512 q 0,-1.26 0.696,-1.944 0.696,-0.696 1.896,-0.696 1.2,0 1.896,0.696 0.696,0.684 0.696,1.944 v 1.512 q 0,1.248 -0.708,1.944 -0.696,0.696 -1.884,0.696 z m 0,-0.96 q 0.708,0 1.104,-0.396 0.408,-0.396 0.408,-1.164 v -1.752 q 0,-0.768 -0.408,-1.164 -0.396,-0.396 -1.104,-0.396 -0.696,0 -1.104,0.396 -0.408,0.396 -0.408,1.164 v 1.752 q 0,0.768 0.408,1.164 0.408,0.396 1.104,0.396 z m 3.924,2.544 v -2.64 h 0.504 q 0.156,-0.144 0.3,-0.432 0.156,-0.3 0.264,-0.828 0.108,-0.528 0.12,-1.392 l 0.048,-2.988 h 4.38 v 5.64 h 0.9 v 2.64 h -0.96 V 0 h -4.596 v 1.68 z m 1.584,-2.64 h 2.952 v -4.704 h -2.28 l -0.024,2.076 q -0.012,0.852 -0.108,1.38 -0.096,0.528 -0.24,0.828 -0.132,0.288 -0.3,0.42 z m 8.892,1.08 q -1.164,0 -1.884,-0.696 -0.708,-0.708 -0.708,-1.944 v -1.56 q 0,-1.236 0.708,-1.932 0.72,-0.708 1.884,-0.708 0.78,0 1.356,0.312 0.588,0.312 0.912,0.876 0.324,0.564 0.324,1.332 v 1.176 h -4.128 V -2.4 q 0,0.732 0.42,1.164 0.42,0.42 1.116,0.42 0.6,0 0.984,-0.228 0.396,-0.24 0.48,-0.636 h 1.08 q -0.108,0.828 -0.804,1.32 -0.696,0.48 -1.74,0.48 z m -1.536,-3.984 h 3.072 V -4.2 q 0,-0.78 -0.408,-1.2 -0.396,-0.432 -1.128,-0.432 -0.732,0 -1.14,0.432 -0.396,0.42 -0.396,1.2 z m 5.436,3.948 v -1.008 h 0.18 q 0.552,0 0.768,-0.432 0.228,-0.432 0.24,-1.548 l 0.072,-3.696 h 4.536 V 0 h -1.08 v -5.616 h -2.388 l -0.06,2.76 q -0.036,1.572 -0.504,2.256 -0.468,0.684 -1.524,0.684 z M 137.90394,0 v -6.6 h 1.032 v 3.552 q 0,0.516 -0.024,1.068 -0.012,0.552 -0.108,0.9 l 2.748,-5.52 h 1.344 V 0 h -1.032 v -3.564 q 0,-0.528 0.012,-1.08 0.024,-0.552 0.12,-0.9 L 139.24794,0 Z"
       id="text8"
       clip-path="url(#clipPath9)"
       transform="matrix(0.89732137,0,0,0.89732137,284.43302,74.687548)"
       aria-label="Инициализация модели" />
    <path
       id="path10"
       d="m 360,-2200 v 33.6299"
       style="fill:none;stroke:#000000;stroke-width:1;stroke-linecap:butt;stroke-linejoin:miter;stroke-miterlimit:10;stroke-dasharray:none;stroke-opacity:1"
       transform="matrix(0.89732137,0,0,0.89732137,26.453124,2135.3862)"
       clip-path="url(#clipPath11)" />
    <path
       id="path12"
       d="m 360,-2161.1201 -3.5,-7 3.5,1.75 3.5,-1.75 z"
       style="fill:#000000;fill-opacity:1;fill-rule:nonzero;stroke:#000000;stroke-width:1;stroke-linecap:butt;stroke-linejoin:miter;stroke-miterlimit:10;stroke-dasharray:none;stroke-opacity:1"
       transform="matrix(0.89732137,0,0,0.89732137,26.453124,2135.3862)"
       clip-path="url(#clipPath13)" />
    <path
       id="path14"
       d="m 246,-2240 h 228 c 0.39395,0 0.78412,0.039 1.1705,0.1155 0.38638,0.077 0.76157,0.1907 1.12555,0.3415 0.36398,0.1509 0.70975,0.3357 1.03735,0.5545 0.32758,0.219 0.63065,0.4675 0.90921,0.7461 0.27857,0.2785 0.52729,0.5818 0.74616,0.9091 0.21884,0.3279 0.40369,0.6736 0.55447,1.0374 0.15076,0.364 0.26456,0.739 0.34143,1.1255 0.0768,0.3862 0.1153,0.7764 0.11533,1.1704 v 28 c -3e-5,0.394 -0.0385,0.7842 -0.11536,1.1707 -0.0768,0.3864 -0.19064,0.7617 -0.3414,1.1257 -0.15078,0.364 -0.33563,0.7097 -0.55447,1.0373 -0.21887,0.3277 -0.46759,0.6307 -0.74616,0.9092 -0.27856,0.2786 -0.58163,0.5274 -0.90924,0.7461 -0.32757,0.2188 -0.67334,0.4036 -1.03732,0.5545 -0.36398,0.1506 -0.73917,0.2644 -1.12555,0.3413 -0.38638,0.077 -0.77655,0.1152 -1.1705,0.1152 H 246 c -0.39398,0 -0.78418,-0.038 -1.17058,-0.1152 -0.3864,-0.077 -0.76158,-0.1907 -1.12555,-0.3413 -0.36397,-0.1509 -0.70974,-0.3357 -1.03734,-0.5542 -0.32756,-0.219 -0.63061,-0.4678 -0.90919,-0.7464 -0.27858,-0.2785 -0.5273,-0.5815 -0.74619,-0.9092 -0.21888,-0.3276 -0.4037,-0.6733 -0.55445,-1.0373 -0.15076,-0.364 -0.26458,-0.7393 -0.34144,-1.1257 -0.0769,-0.3865 -0.11528,-0.7767 -0.11526,-1.1707 v -28 c -2e-5,-0.394 0.0384,-0.7842 0.11525,-1.1704 0.0769,-0.3865 0.19069,-0.7615 0.34145,-1.1255 0.15075,-0.3638 0.33557,-0.7095 0.55445,-1.0374 0.21889,-0.3273 0.46761,-0.6306 0.74619,-0.9091 0.27858,-0.2786 0.58163,-0.5271 0.90919,-0.7461 0.3276,-0.2188 0.67337,-0.4036 1.03734,-0.5545 0.36397,-0.1508 0.73917,-0.2646 1.12557,-0.3415 0.3864,-0.077 0.77658,-0.1155 1.17056,-0.1155 z"
       style="fill:#ffffff;fill-opacity:1;fill-rule:nonzero;stroke:#000000;stroke-width:1;stroke-linecap:butt;stroke-linejoin:miter;stroke-miterlimit:10;stroke-dasharray:none;stroke-opacity:1"
       transform="matrix(0.89732137,0,0,0.89732137,26.453124,2135.3862)"
       clip-path="url(#clipPath15)" />
    <path
       style="font-size:12px;font-family:'JetBrains Mono'"
       d="m 1.56,0 v -8.76 h 5.1 v 0.984 H 2.64 V 0 Z m 9.239997,0.12 q -1.1640001,0 -1.8840001,-0.696 -0.708,-0.708 -0.708,-1.944 v -1.56 q 0,-1.236 0.708,-1.932 0.72,-0.708 1.8840001,-0.708 0.78,0 1.356,0.312 0.588,0.312 0.912,0.876 0.324,0.564 0.324,1.332 v 1.176 H 9.2639969 V -2.4 q 0,0.732 0.42,1.164 0.4200001,0.42 1.1160001,0.42 0.6,0 0.984,-0.228 0.396,-0.24 0.48,-0.636 h 1.08 q -0.108,0.828 -0.804,1.32 -0.696,0.48 -1.74,0.48 z M 9.2639969,-3.864 H 12.335997 V -4.2 q 0,-0.78 -0.408,-1.2 -0.396,-0.432 -1.128,-0.432 -0.732,0 -1.1400001,0.432 -0.396,0.42 -0.396,1.2 z M 15.503994,0 v -6.6 h 1.08 v 2.724 h 2.832 V -6.6 h 1.08 V 0 h -1.08 v -2.892 h -2.832 V 0 Z m 9.695997,0.12 q -1.164,0 -1.884,-0.696 -0.708,-0.708 -0.708,-1.944 v -1.56 q 0,-1.236 0.708,-1.932 0.72,-0.708 1.884,-0.708 0.78,0 1.356,0.312 0.588,0.312 0.912,0.876 0.324,0.564 0.324,1.332 v 1.176 h -4.128 V -2.4 q 0,0.732 0.42,1.164 0.42,0.42 1.116,0.42 0.6,0 0.984,-0.228 0.396,-0.24 0.48,-0.636 h 1.08 q -0.108,0.828 -0.804,1.32 -0.696,0.48 -1.74,0.48 z m -1.536,-3.984 h 3.072 V -4.2 q 0,-0.78 -0.408,-1.2 -0.396,-0.432 -1.128,-0.432 -0.732,0 -1.14,0.432 -0.396,0.42 -0.396,1.2 z M 29.903988,2.16 V -6.6 h 1.08 v 1.26 h 0.012 q 0.084,-0.648 0.564,-1.008 0.48,-0.372 1.224,-0.372 0.996,0 1.584,0.66 0.588,0.648 0.588,1.788 v 1.932 q 0,1.14 -0.588,1.8 -0.588,0.66 -1.584,0.66 -0.744,0 -1.224,-0.372 -0.48,-0.372 -0.564,-1.008 h -0.036 l 0.024,1.5 v 1.92 z m 2.52,-2.976 q 0.684,0 1.068,-0.36 0.384,-0.36 0.384,-1.164 v -1.92 q 0,-0.816 -0.384,-1.164 -0.384,-0.36 -1.068,-0.36 -0.66,0 -1.056,0.42 -0.384,0.42 -0.384,1.164 v 1.8 q 0,0.744 0.384,1.164 0.396,0.42 1.056,0.42 z m 6.599997,0.936 q -1.02,0 -1.62,-0.564 -0.6,-0.576 -0.6,-1.5 0,-0.612 0.276,-1.068 0.276,-0.456 0.768,-0.708 0.492,-0.264 1.128,-0.264 h 2.04 V -4.5 q 0,-1.284 -1.404,-1.284 -0.624,0 -1.008,0.228 -0.384,0.228 -0.408,0.636 h -1.08 q 0.06,-0.78 0.72,-1.284 0.672,-0.516 1.776,-0.516 1.2,0 1.836,0.576 0.648,0.576 0.648,1.608 V 0 h -1.068 v -1.2 h -0.024 q -0.096,0.612 -0.612,0.972 -0.516,0.348 -1.368,0.348 z m 0.264,-0.912 q 0.792,0 1.26,-0.384 0.468,-0.384 0.468,-1.044 v -0.924 h -1.92 q -0.528,0 -0.864,0.324 -0.324,0.312 -0.324,0.84 0,0.552 0.36,0.876 0.372,0.312 1.02,0.312 z M 49.079982,1.68 V 0 h -4.776 v -6.6 h 1.08 v 5.64 h 2.676 V -6.6 h 1.08 v 5.64 h 0.9 V 1.68 Z M 51.503979,0 v -6.6 h 1.032 v 3.552 q 0,0.516 -0.024,1.068 -0.012,0.552 -0.108,0.9 l 2.748,-5.52 h 1.344 V 0 h -1.032 v -3.564 q 0,-0.528 0.012,-1.08 0.024,-0.552 0.12,-0.9 L 52.847979,0 Z m 6.851997,0 1.692,-2.568 q -0.696,-0.168 -1.116,-0.696 -0.42,-0.54 -0.42,-1.272 0,-0.96 0.648,-1.512 0.648,-0.552 1.752,-0.552 h 2.784 V 0 h -1.08 v -2.496 h -1.392 l -1.56,2.496 z m 2.556,-3.432 h 1.704 v -2.22 h -1.704 q -0.588,0 -0.948,0.3 -0.348,0.288 -0.348,0.816 0,0.516 0.348,0.816 0.36,0.288 0.948,0.288 z M 72.863969,0 v -6.6 h 1.416 l 1.296,3.228 1.308,-3.228 h 1.452 V 0 h -1.032 v -1.02 q 0,-1.716 0.012,-2.964 0.024,-1.248 0.144,-2.088 l -1.404,3.492 h -0.984 l -1.32,-3.3 q 0.108,0.744 0.12,1.896 0.024,1.152 0.024,2.964 V 0 Z m 9.359997,0.12 q -1.02,0 -1.62,-0.564 -0.6,-0.576 -0.6,-1.5 0,-0.612 0.276,-1.068 0.276,-0.456 0.768,-0.708 0.492,-0.264 1.128,-0.264 h 2.04 V -4.5 q 0,-1.284 -1.404,-1.284 -0.624,0 -1.008,0.228 -0.384,0.228 -0.408,0.636 h -1.08 q 0.06,-0.78 0.72,-1.284 0.672,-0.516 1.776,-0.516 1.2,0 1.836,0.576 0.648,0.576 0.648,1.608 V 0 h -1.068 v -1.2 h -0.024 q -0.096,0.612 -0.612,0.972 -0.516,0.348 -1.368,0.348 z m 0.264,-0.912 q 0.792,0 1.26,-0.384 0.468,-0.384 0.468,-1.044 v -0.924 h -1.92 q -0.528,0 -0.864,0.324 -0.324,0.312 -0.324,0.84 0,0.552 0.36,0.876 0.372,0.312 1.02,0.312 z m 7.607997,0.912 q -1.2,0 -1.92,-0.672 -0.72,-0.672 -0.72,-1.848 v -1.8 q 0,-1.176 0.72,-1.848 0.72,-0.672 1.92,-0.672 1.14,0 1.836,0.612 0.708,0.612 0.744,1.668 h -1.08 q -0.036,-0.636 -0.432,-0.972 -0.396,-0.348 -1.068,-0.348 -0.708,0 -1.14,0.408 -0.42,0.396 -0.42,1.14 V -2.4 q 0,0.744 0.42,1.152 0.432,0.408 1.14,0.408 0.672,0 1.068,-0.348 0.396,-0.348 0.432,-0.972 h 1.08 q -0.036,1.056 -0.744,1.668 -0.696,0.612 -1.836,0.612 z m 7.199997,0 q -1.2,0 -1.92,-0.672 -0.72,-0.672 -0.72,-1.848 v -1.8 q 0,-1.176 0.72,-1.848 0.72,-0.672 1.92,-0.672 1.14,0 1.836,0.612 0.708,0.612 0.744,1.668 h -1.08 q -0.036,-0.636 -0.432,-0.972 -0.396,-0.348 -1.068,-0.348 -0.708,0 -1.14,0.408 -0.42,0.396 -0.42,1.14 V -2.4 q 0,0.744 0.42,1.152 0.432,0.408 1.14,0.408 0.672,0 1.068,-0.348 0.396,-0.348 0.432,-0.972 h 1.08 q -0.036,1.056 -0.744,1.668 -0.696,0.612 -1.836,0.612 z m 4.608,-0.12 v -6.6 h 1.032 v 3.552 q 0,0.516 -0.024,1.068 -0.012,0.552 -0.108,0.9 l 2.748,-5.52 h 1.344 V 0 h -1.032 v -3.564 q 0,-0.528 0.012,-1.08 0.024,-0.552 0.12,-0.9 L 103.24796,0 Z m 7.19999,0 v -6.6 h 2.892 q 0.996,0 1.572,0.444 0.576,0.444 0.576,1.212 0,0.552 -0.384,0.936 -0.372,0.372 -0.972,0.42 v 0.048 q 0.72,0.048 1.116,0.504 0.396,0.456 0.396,1.176 0,0.852 -0.612,1.356 -0.612,0.504 -1.656,0.504 z m 1.056,-3.84 h 1.836 q 0.504,0 0.792,-0.24 0.288,-0.24 0.288,-0.672 0,-0.42 -0.288,-0.66 -0.288,-0.24 -0.792,-0.24 h -1.836 z m 0,2.892 h 1.872 q 0.564,0 0.876,-0.264 0.324,-0.264 0.324,-0.744 0,-0.468 -0.324,-0.732 -0.312,-0.264 -0.876,-0.264 h -1.872 z m 8.064,1.068 q -1.02,0 -1.62,-0.564 -0.6,-0.576 -0.6,-1.5 0,-0.612 0.276,-1.068 0.276,-0.456 0.768,-0.708 0.492,-0.264 1.128,-0.264 h 2.04 V -4.5 q 0,-1.284 -1.404,-1.284 -0.624,0 -1.008,0.228 -0.384,0.228 -0.408,0.636 h -1.08 q 0.06,-0.78 0.72,-1.284 0.672,-0.516 1.776,-0.516 1.2,0 1.836,0.576 0.648,0.576 0.648,1.608 V 0 h -1.068 v -1.2 h -0.024 q -0.096,0.612 -0.612,0.972 -0.516,0.348 -1.368,0.348 z m 0.264,-0.912 q 0.792,0 1.26,-0.384 0.468,-0.384 0.468,-1.044 v -0.924 h -1.92 q -0.528,0 -0.864,0.324 -0.324,0.312 -0.324,0.84 0,0.552 0.36,0.876 0.372,0.312 1.02,0.312 z"
       id="text15"
       clip-path="url(#clipPath16)"
       transform="matrix(0.89732137,0,0,0.89732137,294.12129,140.19201)"
       aria-label="Генерация массива" />
    <path
       style="font-size:12px;font-family:'JetBrains Mono'"
       d="M 3.06,0 V -5.616 H 0.66 V -6.6 h 5.88 v 0.984 H 4.14 V 0 Z M 8.3039969,2.16 V -6.6 h 1.08 v 1.26 h 0.012 q 0.084,-0.648 0.564,-1.008 0.4800001,-0.372 1.2240001,-0.372 0.996,0 1.584,0.66 0.588,0.648 0.588,1.788 v 1.932 q 0,1.14 -0.588,1.8 -0.588,0.66 -1.584,0.66 -0.744,0 -1.2240001,-0.372 -0.48,-0.372 -0.564,-1.008 h -0.036 l 0.024,1.5 v 1.92 z m 2.5200001,-2.976 q 0.684,0 1.068,-0.36 0.384,-0.36 0.384,-1.164 v -1.92 q 0,-0.816 -0.384,-1.164 -0.384,-0.36 -1.068,-0.36 -0.66,0 -1.0560001,0.42 -0.384,0.42 -0.384,1.164 v 1.8 q 0,0.744 0.384,1.164 0.3960001,0.42 1.0560001,0.42 z m 6.599997,0.936 q -1.02,0 -1.62,-0.564 -0.6,-0.576 -0.6,-1.5 0,-0.612 0.276,-1.068 0.276,-0.456 0.768,-0.708 0.492,-0.264 1.128,-0.264 h 2.04 V -4.5 q 0,-1.284 -1.404,-1.284 -0.624,0 -1.008,0.228 -0.384,0.228 -0.408,0.636 h -1.08 q 0.06,-0.78 0.72,-1.284 0.672,-0.516 1.776,-0.516 1.2,0 1.836,0.576 0.648,0.576 0.648,1.608 V 0 h -1.068 v -1.2 h -0.024 q -0.096,0.612 -0.612,0.972 -0.516,0.348 -1.368,0.348 z m 0.264,-0.912 q 0.792,0 1.26,-0.384 0.468,-0.384 0.468,-1.044 v -0.924 h -1.92 q -0.528,0 -0.864,0.324 -0.324,0.312 -0.324,0.84 0,0.552 0.36,0.876 0.372,0.312 1.02,0.312 z m 7.511997,0.912 q -1.164,0 -1.884,-0.696 -0.708,-0.708 -0.708,-1.944 v -1.56 q 0,-1.236 0.708,-1.932 0.72,-0.708 1.884,-0.708 0.78,0 1.356,0.312 0.588,0.312 0.912,0.876 0.324,0.564 0.324,1.332 v 1.176 h -4.128 V -2.4 q 0,0.732 0.42,1.164 0.42,0.42 1.116,0.42 0.6,0 0.984,-0.228 0.396,-0.24 0.48,-0.636 h 1.08 q -0.108,0.828 -0.804,1.32 -0.696,0.48 -1.74,0.48 z m -1.536,-3.984 h 3.072 V -4.2 q 0,-0.78 -0.408,-1.2 -0.396,-0.432 -1.128,-0.432 -0.732,0 -1.14,0.432 -0.396,0.42 -0.396,1.2 z M 30.035988,0 v -6.6 h 1.08 v 2.724 h 1.284 l 1.824,-2.724 h 1.236 l -2.136,3.168 2.256,3.432 h -1.26 l -1.908,-2.892 h -1.296 V 0 Z m 9.023997,0 v -5.616 h -2.4 V -6.6 h 5.88 v 0.984 h -2.4 V 0 Z m 7.739997,0.096 q -1.188,0 -1.896,-0.696 -0.696,-0.696 -0.696,-1.944 v -1.512 q 0,-1.26 0.696,-1.944 0.696,-0.696 1.896,-0.696 1.2,0 1.896,0.696 0.696,0.684 0.696,1.944 v 1.512 q 0,1.248 -0.708,1.944 -0.696,0.696 -1.884,0.696 z m 0,-0.96 q 0.708,0 1.104,-0.396 0.408,-0.396 0.408,-1.164 v -1.752 q 0,-0.768 -0.408,-1.164 -0.396,-0.396 -1.104,-0.396 -0.696,0 -1.104,0.396 -0.408,0.396 -0.408,1.164 v 1.752 q 0,0.768 0.408,1.164 0.408,0.396 1.104,0.396 z M 51.503979,2.16 V -6.6 h 1.08 v 1.26 h 0.012 q 0.084,-0.648 0.564,-1.008 0.48,-0.372 1.224,-0.372 0.996,0 1.584,0.66 0.588,0.648 0.588,1.788 v 1.932 q 0,1.14 -0.588,1.8 -0.588,0.66 -1.584,0.66 -0.744,0 -1.224,-0.372 -0.48,-0.372 -0.564,-1.008 h -0.036 l 0.024,1.5 v 1.92 z m 2.52,-2.976 q 0.684,0 1.068,-0.36 0.384,-0.36 0.384,-1.164 v -1.92 q 0,-0.816 -0.384,-1.164 -0.384,-0.36 -1.068,-0.36 -0.66,0 -1.056,0.42 -0.384,0.42 -0.384,1.164 v 1.8 q 0,0.744 0.384,1.164 0.396,0.42 1.056,0.42 z M 58.703976,0 v -6.6 h 1.08 v 2.724 h 2.832 V -6.6 h 1.08 V 0 h -1.08 v -2.892 h -2.832 V 0 Z m 6.815997,0 v -6.6 h 1.008 v 2.424 h 0.66 q 1.068,0 1.68,0.564 0.624,0.564 0.624,1.524 0,0.96 -0.624,1.524 -0.612,0.564 -1.68,0.564 z m 4.752,0 v -6.6 h 1.008 V 0 Z m -3.744,-0.864 h 0.66 q 0.624,0 0.984,-0.324 0.36,-0.336 0.36,-0.9 0,-0.564 -0.36,-0.888 -0.36,-0.336 -0.984,-0.336 h -0.66 z M 72.599969,0 l 2.34,-3.396 -2.196,-3.204 h 1.272 l 1.308,2.04 q 0.084,0.132 0.156,0.288 0.084,0.156 0.132,0.252 0.036,-0.096 0.108,-0.252 0.084,-0.156 0.168,-0.288 l 1.308,-2.04 h 1.272 l -2.196,3.216 2.328,3.384 h -1.272 l -1.416,-2.16 q -0.084,-0.132 -0.168,-0.3 -0.072,-0.18 -0.132,-0.288 -0.048,0.108 -0.144,0.288 -0.084,0.168 -0.18,0.3 l -1.416,2.16 z m 17.399994,0.096 q -1.188,0 -1.896,-0.696 -0.696,-0.696 -0.696,-1.944 v -1.512 q 0,-1.26 0.696,-1.944 0.696,-0.696 1.896,-0.696 1.2,0 1.896,0.696 0.696,0.684 0.696,1.944 v 1.512 q 0,1.248 -0.708,1.944 -0.696,0.696 -1.884,0.696 z m 0,-0.96 q 0.708,0 1.104,-0.396 0.408,-0.396 0.408,-1.164 v -1.752 q 0,-0.768 -0.408,-1.164 -0.396,-0.396 -1.104,-0.396 -0.696,0 -1.104,0.396 -0.408,0.396 -0.408,1.164 v 1.752 q 0,0.768 0.408,1.164 0.408,0.396 1.104,0.396 z M 96.65996,0 v -5.616 h -2.4 V -6.6 h 5.88 v 0.984 h -2.4 V 0 Z m 5.376,0 v -6.6 h 1.08 v 2.724 h 1.284 l 1.824,-2.724 h 1.236 l -2.136,3.168 2.256,3.432 h -1.26 l -1.908,-2.892 h -1.296 V 0 Z m 6.26399,0.084 v -1.008 h 0.18 q 0.552,0 0.768,-0.432 0.228,-0.432 0.24,-1.548 l 0.072,-3.696 h 4.536 V 0 h -1.08 v -5.616 h -2.388 l -0.06,2.76 q -0.036,1.572 -0.504,2.256 -0.468,0.684 -1.524,0.684 z m 10.5,0.012 q -1.188,0 -1.896,-0.696 -0.696,-0.696 -0.696,-1.944 v -1.512 q 0,-1.26 0.696,-1.944 0.696,-0.696 1.896,-0.696 1.2,0 1.896,0.696 0.696,0.684 0.696,1.944 v 1.512 q 0,1.248 -0.708,1.944 -0.696,0.696 -1.884,0.696 z m 0,-0.96 q 0.708,0 1.104,-0.396 0.408,-0.396 0.408,-1.164 v -1.752 q 0,-0.768 -0.408,-1.164 -0.396,-0.396 -1.104,-0.396 -0.696,0 -1.104,0.396 -0.408,0.396 -0.408,1.164 v 1.752 q 0,0.768 0.408,1.164 0.408,0.396 1.104,0.396 z m 4.704,0.864 v -6.6 h 1.08 v 2.724 h 2.832 V -6.6 h 1.08 V 0 h -1.08 v -2.892 h -2.832 V 0 Z m 9.696,0.12 q -1.164,0 -1.884,-0.696 -0.708,-0.708 -0.708,-1.944 v -1.56 q 0,-1.236 0.708,-1.932 0.72,-0.708 1.884,-0.708 0.78,0 1.356,0.312 0.588,0.312 0.912,0.876 0.324,0.564 0.324,1.332 v 1.176 h -4.128 V -2.4 q 0,0.732 0.42,1.164 0.42,0.42 1.116,0.42 0.6,0 0.984,-0.228 0.396,-0.24 0.48,-0.636 h 1.08 q -0.108,0.828 -0.804,1.32 -0.696,0.48 -1.74,0.48 z m -1.536,-3.984 h 3.072 V -4.2 q 0,-0.78 -0.408,-1.2 -0.396,-0.432 -1.128,-0.432 -0.732,0 -1.14,0.432 -0.396,0.42 -0.396,1.2 z M 137.90394,0 v -6.6 h 1.08 v 2.724 h 2.832 V -6.6 h 1.08 V 0 h -1.08 v -2.892 h -2.832 V 0 Z m 7.2,0 v -6.6 h 1.032 v 3.552 q 0,0.516 -0.024,1.068 -0.012,0.552 -0.108,0.9 l 2.748,-5.52 h 1.344 V 0 h -1.032 v -3.564 q 0,-0.528 0.012,-1.08 0.024,-0.552 0.12,-0.9 L 146.44794,0 Z m 7.2,0 v -6.6 h 1.032 v 3.552 q 0,0.516 -0.024,1.068 -0.012,0.552 -0.108,0.9 l 2.748,-5.52 h 1.344 V 0 h -1.032 v -3.564 q 0,-0.528 0.012,-1.08 0.024,-0.552 0.12,-0.9 L 153.64794,0 Z m 2.496,-7.68 q -0.864,0 -1.392,-0.48 -0.528,-0.48 -0.528,-1.26 h 0.852 q 0,0.468 0.288,0.756 0.288,0.288 0.768,0.288 0.492,0 0.78,-0.288 0.3,-0.288 0.3,-0.756 h 0.852 q 0,0.78 -0.528,1.26 -0.528,0.48 -1.392,0.48 z"
       id="text16"
       clip-path="url(#clipPath17)"
       transform="matrix(0.89732137,0,0,0.89732137,277.96951,153.65183)"
       aria-label="траекторных отклонений" />
    <path
       id="path18"
       d="m 360,-2120 v 33.6299"
       style="fill:none;stroke:#000000;stroke-width:1;stroke-linecap:butt;stroke-linejoin:miter;stroke-miterlimit:10;stroke-dasharray:none;stroke-opacity:1"
       transform="matrix(0.89732137,0,0,0.89732137,26.453124,2135.3862)"
       clip-path="url(#clipPath19)" />
    <path
       id="path20"
       d="m 360,-2081.1201 -3.5,-7 3.5,1.75 3.5,-1.75 z"
       style="fill:#000000;fill-opacity:1;fill-rule:nonzero;stroke:#000000;stroke-width:1;stroke-linecap:butt;stroke-linejoin:miter;stroke-miterlimit:10;stroke-dasharray:none;stroke-opacity:1"
       transform="matrix(0.89732137,0,0,0.89732137,26.453124,2135.3862)"
       clip-path="url(#clipPath21)" />
    <path
       id="path22"
       d="m 246,-2160 h 228 c 0.39395,0 0.78412,0.039 1.1705,0.1155 0.38638,0.077 0.76157,0.1907 1.12555,0.3415 0.36398,0.1507 0.70975,0.3355 1.03735,0.5545 0.32758,0.2187 0.63065,0.4675 0.90921,0.7461 0.27857,0.2785 0.52729,0.5818 0.74616,0.9091 0.21884,0.3279 0.40369,0.6736 0.55447,1.0376 0.15076,0.3641 0.26456,0.7391 0.34143,1.1253 0.0768,0.3862 0.1153,0.7764 0.11533,1.1704 v 28 c -3e-5,0.394 -0.0385,0.7842 -0.11536,1.1704 -0.0768,0.3865 -0.19064,0.762 -0.3414,1.126 -0.15078,0.364 -0.33563,0.7097 -0.55447,1.0373 -0.21887,0.3274 -0.46759,0.6304 -0.74616,0.909 -0.27856,0.2785 -0.58163,0.5273 -0.90924,0.7463 -0.32757,0.219 -0.67334,0.4038 -1.03732,0.5545 -0.36398,0.1506 -0.73917,0.2644 -1.12555,0.3413 -0.38638,0.077 -0.77655,0.1152 -1.1705,0.1152 H 246 c -0.39398,0 -0.78418,-0.038 -1.17058,-0.1152 -0.3864,-0.077 -0.76158,-0.1907 -1.12555,-0.3413 -0.36397,-0.1507 -0.70974,-0.3355 -1.03734,-0.5545 -0.32756,-0.219 -0.63061,-0.4678 -0.90919,-0.7463 -0.27858,-0.2786 -0.5273,-0.5816 -0.74619,-0.909 -0.21888,-0.3276 -0.4037,-0.6733 -0.55445,-1.0373 -0.15076,-0.364 -0.26458,-0.7395 -0.34144,-1.126 -0.0769,-0.3862 -0.11528,-0.7764 -0.11526,-1.1704 v -28 c -2e-5,-0.394 0.0384,-0.7842 0.11525,-1.1704 0.0769,-0.3862 0.19069,-0.7612 0.34145,-1.1253 0.15075,-0.364 0.33557,-0.7097 0.55445,-1.0373 0.21889,-0.3276 0.46761,-0.6309 0.74619,-0.9094 0.27858,-0.2786 0.58163,-0.5274 0.90919,-0.7461 0.3276,-0.219 0.67337,-0.4038 1.03734,-0.5545 0.36397,-0.1508 0.73917,-0.2646 1.12557,-0.3415 0.3864,-0.077 0.77658,-0.1155 1.17056,-0.1155 z"
       style="fill:#ffffff;fill-opacity:1;fill-rule:nonzero;stroke:#000000;stroke-width:1;stroke-linecap:butt;stroke-linejoin:miter;stroke-miterlimit:10;stroke-dasharray:none;stroke-opacity:1"
       transform="matrix(0.89732137,0,0,0.89732137,26.453124,2135.3862)"
       clip-path="url(#clipPath23)" />
    <path
       style="font-size:12px;font-family:'JetBrains Mono'"
       d="m 1.56,0 v -8.76 h 5.1 v 0.984 H 2.64 V 0 Z m 9.239997,0.12 q -1.1640001,0 -1.8840001,-0.696 -0.708,-0.708 -0.708,-1.944 v -1.56 q 0,-1.236 0.708,-1.932 0.72,-0.708 1.8840001,-0.708 0.78,0 1.356,0.312 0.588,0.312 0.912,0.876 0.324,0.564 0.324,1.332 v 1.176 H 9.2639969 V -2.4 q 0,0.732 0.42,1.164 0.4200001,0.42 1.1160001,0.42 0.6,0 0.984,-0.228 0.396,-0.24 0.48,-0.636 h 1.08 q -0.108,0.828 -0.804,1.32 -0.696,0.48 -1.74,0.48 z M 9.2639969,-3.864 H 12.335997 V -4.2 q 0,-0.78 -0.408,-1.2 -0.396,-0.432 -1.128,-0.432 -0.732,0 -1.1400001,0.432 -0.396,0.42 -0.396,1.2 z M 15.503994,0 v -6.6 h 1.08 v 2.724 h 2.832 V -6.6 h 1.08 V 0 h -1.08 v -2.892 h -2.832 V 0 Z m 9.695997,0.12 q -1.164,0 -1.884,-0.696 -0.708,-0.708 -0.708,-1.944 v -1.56 q 0,-1.236 0.708,-1.932 0.72,-0.708 1.884,-0.708 0.78,0 1.356,0.312 0.588,0.312 0.912,0.876 0.324,0.564 0.324,1.332 v 1.176 h -4.128 V -2.4 q 0,0.732 0.42,1.164 0.42,0.42 1.116,0.42 0.6,0 0.984,-0.228 0.396,-0.24 0.48,-0.636 h 1.08 q -0.108,0.828 -0.804,1.32 -0.696,0.48 -1.74,0.48 z m -1.536,-3.984 h 3.072 V -4.2 q 0,-0.78 -0.408,-1.2 -0.396,-0.432 -1.128,-0.432 -0.732,0 -1.14,0.432 -0.396,0.42 -0.396,1.2 z M 29.903988,2.16 V -6.6 h 1.08 v 1.26 h 0.012 q 0.084,-0.648 0.564,-1.008 0.48,-0.372 1.224,-0.372 0.996,0 1.584,0.66 0.588,0.648 0.588,1.788 v 1.932 q 0,1.14 -0.588,1.8 -0.588,0.66 -1.584,0.66 -0.744,0 -1.224,-0.372 -0.48,-0.372 -0.564,-1.008 h -0.036 l 0.024,1.5 v 1.92 z m 2.52,-2.976 q 0.684,0 1.068,-0.36 0.384,-0.36 0.384,-1.164 v -1.92 q 0,-0.816 -0.384,-1.164 -0.384,-0.36 -1.068,-0.36 -0.66,0 -1.056,0.42 -0.384,0.42 -0.384,1.164 v 1.8 q 0,0.744 0.384,1.164 0.396,0.42 1.056,0.42 z m 6.599997,0.936 q -1.02,0 -1.62,-0.564 -0.6,-0.576 -0.6,-1.5 0,-0.612 0.276,-1.068 0.276,-0.456 0.768,-0.708 0.492,-0.264 1.128,-0.264 h 2.04 V -4.5 q 0,-1.284 -1.404,-1.284 -0.624,0 -1.008,0.228 -0.384,0.228 -0.408,0.636 h -1.08 q 0.06,-0.78 0.72,-1.284 0.672,-0.516 1.776,-0.516 1.2,0 1.836,0.576 0.648,0.576 0.648,1.608 V 0 h -1.068 v -1.2 h -0.024 q -0.096,0.612 -0.612,0.972 -0.516,0.348 -1.368,0.348 z m 0.264,-0.912 q 0.792,0 1.26,-0.384 0.468,-0.384 0.468,-1.044 v -0.924 h -1.92 q -0.528,0 -0.864,0.324 -0.324,0.312 -0.324,0.84 0,0.552 0.36,0.876 0.372,0.312 1.02,0.312 z M 49.079982,1.68 V 0 h -4.776 v -6.6 h 1.08 v 5.64 h 2.676 V -6.6 h 1.08 v 5.64 h 0.9 V 1.68 Z M 51.503979,0 v -6.6 h 1.032 v 3.552 q 0,0.516 -0.024,1.068 -0.012,0.552 -0.108,0.9 l 2.748,-5.52 h 1.344 V 0 h -1.032 v -3.564 q 0,-0.528 0.012,-1.08 0.024,-0.552 0.12,-0.9 L 52.847979,0 Z m 6.851997,0 1.692,-2.568 q -0.696,-0.168 -1.116,-0.696 -0.42,-0.54 -0.42,-1.272 0,-0.96 0.648,-1.512 0.648,-0.552 1.752,-0.552 h 2.784 V 0 h -1.08 v -2.496 h -1.392 l -1.56,2.496 z m 2.556,-3.432 h 1.704 v -2.22 h -1.704 q -0.588,0 -0.948,0.3 -0.348,0.288 -0.348,0.816 0,0.516 0.348,0.816 0.36,0.288 0.948,0.288 z M 73.619969,0 v -6.6 h 4.74 v 0.984 h -3.66 V 0 Z m 9.179997,0.096 q -1.188,0 -1.896,-0.696 -0.696,-0.696 -0.696,-1.944 v -1.512 q 0,-1.26 0.696,-1.944 0.696,-0.696 1.896,-0.696 1.2,0 1.896,0.696 0.696,0.684 0.696,1.944 v 1.512 q 0,1.248 -0.708,1.944 -0.696,0.696 -1.884,0.696 z m 0,-0.96 q 0.708,0 1.104,-0.396 0.408,-0.396 0.408,-1.164 v -1.752 q 0,-0.768 -0.408,-1.164 -0.396,-0.396 -1.104,-0.396 -0.696,0 -1.104,0.396 -0.408,0.396 -0.408,1.164 v 1.752 q 0,0.768 0.408,1.164 0.408,0.396 1.104,0.396 z m 3.899997,0.948 v -1.008 h 0.18 q 0.552,0 0.768,-0.432 0.228,-0.432 0.24,-1.548 l 0.072,-3.696 h 4.536 V 0 h -1.08 v -5.616 h -2.388 l -0.06,2.76 q -0.036,1.572 -0.504,2.256 -0.468,0.684 -1.524,0.684 z M 97.19996,0.096 q -1.188,0 -1.896,-0.696 -0.696,-0.696 -0.696,-1.944 v -1.512 q 0,-1.26 0.696,-1.944 0.696,-0.696 1.896,-0.696 1.2,0 1.896,0.696 0.696,0.684 0.696,1.944 v 1.512 q 0,1.248 -0.708,1.944 -0.696,0.696 -1.884,0.696 z m 0,-0.96 q 0.708,0 1.104,-0.396 0.408,-0.396 0.408,-1.164 v -1.752 q 0,-0.768 -0.408,-1.164 -0.396,-0.396 -1.104,-0.396 -0.696,0 -1.104,0.396 -0.408,0.396 -0.408,1.164 v 1.752 q 0,0.768 0.408,1.164 0.408,0.396 1.104,0.396 z m 5.22,0.864 v -6.6 h 4.74 v 0.984 h -3.66 V 0 Z m 6.68399,2.16 V -6.6 h 1.08 v 1.26 h 0.012 q 0.084,-0.648 0.564,-1.008 0.48,-0.372 1.224,-0.372 0.996,0 1.584,0.66 0.588,0.648 0.588,1.788 v 1.932 q 0,1.14 -0.588,1.8 -0.588,0.66 -1.584,0.66 -0.744,0 -1.224,-0.372 -0.48,-0.372 -0.564,-1.008 h -0.036 l 0.024,1.5 v 1.92 z m 2.52,-2.976 q 0.684,0 1.068,-0.36 0.384,-0.36 0.384,-1.164 v -1.92 q 0,-0.816 -0.384,-1.164 -0.384,-0.36 -1.068,-0.36 -0.66,0 -1.056,0.42 -0.384,0.42 -0.384,1.164 v 1.8 q 0,0.744 0.384,1.164 0.396,0.42 1.056,0.42 z m 6.6,0.936 q -1.02,0 -1.62,-0.564 -0.6,-0.576 -0.6,-1.5 0,-0.612 0.276,-1.068 0.276,-0.456 0.768,-0.708 0.492,-0.264 1.128,-0.264 h 2.04 V -4.5 q 0,-1.284 -1.404,-1.284 -0.624,0 -1.008,0.228 -0.384,0.228 -0.408,0.636 h -1.08 q 0.06,-0.78 0.72,-1.284 0.672,-0.516 1.776,-0.516 1.2,0 1.836,0.576 0.648,0.576 0.648,1.608 V 0 h -1.068 v -1.2 h -0.024 q -0.096,0.612 -0.612,0.972 -0.516,0.348 -1.368,0.348 z m 0.264,-0.912 q 0.792,0 1.26,-0.384 0.468,-0.384 0.468,-1.044 v -0.924 h -1.92 q -0.528,0 -0.864,0.324 -0.324,0.312 -0.324,0.84 0,0.552 0.36,0.876 0.372,0.312 1.02,0.312 z m 4.776,0.792 v -6.6 h 1.416 l 1.296,3.228 1.308,-3.228 h 1.452 V 0 h -1.032 v -1.02 q 0,-1.716 0.012,-2.964 0.024,-1.248 0.144,-2.088 l -1.404,3.492 h -0.984 l -1.32,-3.3 q 0.108,0.744 0.12,1.896 0.024,1.152 0.024,2.964 V 0 Z m 7.2,0 v -6.6 h 1.416 l 1.296,3.228 1.308,-3.228 h 1.452 V 0 h -1.032 v -1.02 q 0,-1.716 0.012,-2.964 0.024,-1.248 0.144,-2.088 l -1.404,3.492 h -0.984 l -1.32,-3.3 q 0.108,0.744 0.12,1.896 0.024,1.152 0.024,2.964 V 0 Z m 7.05599,0 v -6.6 h 1.008 v 2.424 h 0.66 q 1.068,0 1.68,0.564 0.624,0.564 0.624,1.524 0,0.96 -0.624,1.524 -0.612,0.564 -1.68,0.564 z m 4.752,0 v -6.6 h 1.008 V 0 Z m -3.744,-0.864 h 0.66 q 0.624,0 0.984,-0.324 0.36,-0.336 0.36,-0.9 0,-0.564 -0.36,-0.888 -0.36,-0.336 -0.984,-0.336 h -0.66 z"
       id="text23"
       clip-path="url(#clipPath24)"
       transform="matrix(0.89732137,0,0,0.89732137,284.43302,218.25897)"
       aria-label="Генерация голограммы" />
    <path
       id="path25"
       d="m 360,-2040 v 33.63"
       style="fill:none;stroke:#000000;stroke-width:1;stroke-linecap:butt;stroke-linejoin:miter;stroke-miterlimit:10;stroke-dasharray:none;stroke-opacity:1"
       transform="matrix(0.89732137,0,0,0.89732137,26.453124,2135.3862)"
       clip-path="url(#clipPath26)" />
    <path
       id="path27"
       d="m 360,-2001.12 -3.5,-7 3.5,1.75 3.5,-1.75 z"
       style="fill:#000000;fill-opacity:1;fill-rule:nonzero;stroke:#000000;stroke-width:1;stroke-linecap:butt;stroke-linejoin:miter;stroke-miterlimit:10;stroke-dasharray:none;stroke-opacity:1"
       transform="matrix(0.89732137,0,0,0.89732137,26.453124,2135.3862)"
       clip-path="url(#clipPath28)" />
    <path
       id="path29"
       d="m 246,-2080 h 228 c 0.39395,2e-4 0.78412,0.039 1.1705,0.1155 0.38638,0.077 0.76157,0.1907 1.12555,0.3413 0.36398,0.1506 0.70975,0.3354 1.03735,0.5544 0.32758,0.219 0.63065,0.4676 0.90921,0.7461 0.27857,0.2786 0.52729,0.5818 0.74616,0.9094 0.21884,0.3277 0.40369,0.6734 0.55447,1.0374 0.15076,0.364 0.26456,0.7393 0.34143,1.1257 0.0768,0.3863 0.1153,0.7764 0.11533,1.1702 v 28 c -3e-5,0.3939 -0.0385,0.7842 -0.11536,1.1707 -0.0768,0.3864 -0.19064,0.7617 -0.3414,1.1256 -0.15078,0.3641 -0.33563,0.7098 -0.55447,1.0373 -0.21887,0.3275 -0.46759,0.6306 -0.74616,0.9092 -0.27856,0.2786 -0.58163,0.5273 -0.90924,0.7462 -0.32757,0.2189 -0.67334,0.4037 -1.03732,0.5545 -0.36398,0.1507 -0.73917,0.2645 -1.12555,0.3413 -0.38638,0.077 -0.77655,0.1152 -1.1705,0.1152 H 246 c -0.39398,0 -0.78418,-0.039 -1.17058,-0.1152 -0.3864,-0.077 -0.76158,-0.1906 -1.12555,-0.3413 -0.36397,-0.1508 -0.70974,-0.3356 -1.03734,-0.5545 -0.32756,-0.2189 -0.63061,-0.4676 -0.90919,-0.7462 -0.27858,-0.2786 -0.5273,-0.5817 -0.74619,-0.9092 -0.21888,-0.3275 -0.4037,-0.6732 -0.55445,-1.0372 -0.15076,-0.364 -0.26458,-0.7393 -0.34144,-1.1257 -0.0769,-0.3865 -0.11528,-0.7768 -0.11526,-1.1707 v -28 c -2e-5,-0.3938 0.0384,-0.7839 0.11525,-1.1702 0.0769,-0.3864 0.19069,-0.7617 0.34145,-1.1257 0.15075,-0.364 0.33557,-0.7097 0.55445,-1.0374 0.21889,-0.3276 0.46761,-0.6308 0.74619,-0.9094 0.27858,-0.2785 0.58163,-0.5271 0.90919,-0.7461 0.3276,-0.219 0.67337,-0.4038 1.03734,-0.5544 0.36397,-0.1506 0.73917,-0.2644 1.12557,-0.3413 0.3864,-0.077 0.77658,-0.1153 1.17056,-0.1155 z"
       style="fill:#ffffff;fill-opacity:1;fill-rule:nonzero;stroke:#000000;stroke-width:1;stroke-linecap:butt;stroke-linejoin:miter;stroke-miterlimit:10;stroke-dasharray:none;stroke-opacity:1"
       transform="matrix(0.89732137,0,0,0.89732137,26.453124,2135.3862)"
       clip-path="url(#clipPath30)" />
    <path
       style="font-size:12px;font-family:'JetBrains Mono'"
       d="M 3.696,0.12 Q 2.496,0.12 1.8,-0.552 1.104,-1.224 1.104,-2.4 v -3.96 q 0,-1.176 0.696,-1.848 0.696,-0.672 1.896,-0.672 1.176,0 1.872,0.684 0.696,0.672 0.696,1.836 h -1.08 q 0,-0.744 -0.396,-1.14 -0.384,-0.408 -1.092,-0.408 -0.708,0 -1.116,0.408 -0.396,0.396 -0.396,1.14 v 3.96 q 0,0.744 0.396,1.152 0.408,0.396 1.116,0.396 0.708,0 1.092,-0.396 0.396,-0.408 0.396,-1.152 h 1.08 q 0,1.164 -0.696,1.848 Q 4.872,0.12 3.696,0.12 Z M 8.3039969,0 v -6.6 h 1.032 v 3.552 q 0,0.516 -0.024,1.068 -0.012,0.552 -0.108,0.9 L 11.951997,-6.6 h 1.344 V 0 h -1.032 v -3.564 q 0,-0.528 0.012,-1.08 0.024,-0.552 0.12,-0.9 L 9.6479969,0 Z m 7.1999971,0 v -6.6 h 1.08 v 2.724 h 2.832 V -6.6 h 1.08 V 0 h -1.08 v -2.892 h -2.832 V 0 Z m 9.155997,0 v -5.616 h -2.4 V -6.6 h 5.88 v 0.984 h -2.4 V 0 Z m 7.739997,0.12 q -1.164,0 -1.884,-0.696 -0.708,-0.708 -0.708,-1.944 v -1.56 q 0,-1.236 0.708,-1.932 0.72,-0.708 1.884,-0.708 0.78,0 1.356,0.312 0.588,0.312 0.912,0.876 0.324,0.564 0.324,1.332 v 1.176 h -4.128 V -2.4 q 0,0.732 0.42,1.164 0.42,0.42 1.116,0.42 0.6,0 0.984,-0.228 0.396,-0.24 0.48,-0.636 h 1.08 q -0.108,0.828 -0.804,1.32 -0.696,0.48 -1.74,0.48 z m -1.536,-3.984 h 3.072 V -4.2 q 0,-0.78 -0.408,-1.2 -0.396,-0.432 -1.128,-0.432 -0.732,0 -1.14,0.432 -0.396,0.42 -0.396,1.2 z m 8.327997,3.948 q -1.08,0 -1.716,-0.504 -0.636,-0.516 -0.636,-1.392 h 1.08 q 0,0.42 0.336,0.672 0.348,0.252 0.936,0.252 h 0.636 q 0.624,0 0.984,-0.264 0.36,-0.276 0.36,-0.744 0,-0.492 -0.36,-0.768 -0.36,-0.288 -0.984,-0.288 h -1.44 v -0.936 h 1.404 q 0.564,0 0.888,-0.252 0.336,-0.252 0.336,-0.684 0,-0.42 -0.324,-0.66 -0.324,-0.252 -0.888,-0.252 h -0.564 q -0.528,0 -0.852,0.204 -0.312,0.204 -0.336,0.552 h -1.08 q 0.024,-0.78 0.636,-1.236 0.612,-0.468 1.632,-0.468 h 0.564 q 1.08,0 1.704,0.444 0.636,0.444 0.636,1.272 0,0.552 -0.384,0.936 -0.372,0.372 -0.972,0.42 v 0.048 q 0.72,0.048 1.116,0.504 0.396,0.456 0.396,1.176 0,0.9 -0.672,1.44 -0.66,0.528 -1.8,0.528 z M 51.503979,0 v -8.76 h 2.82 q 1.224,0 1.944,0.708 0.732,0.696 0.732,1.872 0,1.176 -0.732,1.884 -0.72,0.696 -1.944,0.696 h -1.74 V 0 Z m 1.08,-4.572 h 1.74 q 0.708,0 1.128,-0.432 0.432,-0.444 0.432,-1.176 0,-0.744 -0.432,-1.176 -0.42,-0.432 -1.128,-0.432 h -1.74 z m 5.255997,4.632 v -1.008 h 0.216 q 0.528,0 0.756,-0.468 0.24,-0.48 0.252,-1.632 l 0.096,-5.712 h 4.512 V 0 h -1.08 v -7.776 h -2.364 l -0.084,4.728 q -0.024,1.608 -0.516,2.364 -0.48,0.744 -1.512,0.744 z M 65.879973,0 v -8.76 h 1.044 v 4.92 q 0,0.432 -0.024,0.924 -0.012,0.48 -0.036,0.924 -0.024,0.432 -0.048,0.732 l 2.664,-7.5 h 1.44 V 0 h -1.044 v -4.92 q 0,-0.444 0.012,-0.924 0.024,-0.492 0.048,-0.924 0.036,-0.444 0.06,-0.732 l -2.676,7.5 z"
       id="text30"
       clip-path="url(#clipPath31)"
       transform="matrix(0.89732137,0,0,0.89732137,268.26722,283.76343)"
       aria-label="Синтез РЛИ " />
    <path
       style="font-size:12px;font-family:'JetBrains Mono'"
       d="m 3.024,0.12 q -1.02,0 -1.62,-0.564 -0.6,-0.576 -0.6,-1.5 0,-0.612 0.276,-1.068 0.276,-0.456 0.768,-0.708 0.492,-0.264 1.128,-0.264 h 2.04 V -4.5 q 0,-1.284 -1.404,-1.284 -0.624,0 -1.008,0.228 -0.384,0.228 -0.408,0.636 h -1.08 q 0.06,-0.78 0.72,-1.284 0.672,-0.516 1.776,-0.516 1.2,0 1.836,0.576 0.648,0.576 0.648,1.608 V 0 H 5.028 V -1.2 H 5.004 Q 4.908,-0.588 4.392,-0.228 3.876,0.12 3.024,0.12 Z m 0.264,-0.912 q 0.792,0 1.26,-0.384 0.468,-0.384 0.468,-1.044 v -0.924 h -1.92 q -0.528,0 -0.864,0.324 -0.324,0.312 -0.324,0.84 0,0.552 0.36,0.876 0.372,0.312 1.02,0.312 z m 4.2119969,0.876 v -1.008 h 0.18 q 0.552,0 0.768,-0.432 0.228,-0.432 0.24,-1.548 l 0.072,-3.696 H 13.295997 V 0 h -1.08 V -5.616 H 9.8279969 l -0.06,2.76 q -0.036,1.572 -0.504,2.256 -0.468,0.684 -1.524,0.684 z M 16.019994,0 v -6.6 h 4.74 v 0.984 h -3.66 V 0 Z m 9.179997,0.096 q -1.188,0 -1.896,-0.696 -0.696,-0.696 -0.696,-1.944 v -1.512 q 0,-1.26 0.696,-1.944 0.696,-0.696 1.896,-0.696 1.2,0 1.896,0.696 0.696,0.684 0.696,1.944 v 1.512 q 0,1.248 -0.708,1.944 -0.696,0.696 -1.884,0.696 z m 0,-0.96 q 0.708,0 1.104,-0.396 0.408,-0.396 0.408,-1.164 v -1.752 q 0,-0.768 -0.408,-1.164 -0.396,-0.396 -1.104,-0.396 -0.696,0 -1.104,0.396 -0.408,0.396 -0.408,1.164 v 1.752 q 0,0.768 0.408,1.164 0.408,0.396 1.104,0.396 z M 29.903988,2.16 V -6.6 h 1.08 v 1.26 h 0.012 q 0.084,-0.648 0.564,-1.008 0.48,-0.372 1.224,-0.372 0.996,0 1.584,0.66 0.588,0.648 0.588,1.788 v 1.932 q 0,1.14 -0.588,1.8 -0.588,0.66 -1.584,0.66 -0.744,0 -1.224,-0.372 -0.48,-0.372 -0.564,-1.008 h -0.036 l 0.024,1.5 v 1.92 z m 2.52,-2.976 q 0.684,0 1.068,-0.36 0.384,-0.36 0.384,-1.164 v -1.92 q 0,-0.816 -0.384,-1.164 -0.384,-0.36 -1.068,-0.36 -0.66,0 -1.056,0.42 -0.384,0.42 -0.384,1.164 v 1.8 q 0,0.744 0.384,1.164 0.396,0.42 1.056,0.42 z M 37.103985,0 v -6.6 h 1.032 v 3.552 q 0,0.516 -0.024,1.068 -0.012,0.552 -0.108,0.9 l 2.748,-5.52 h 1.344 V 0 h -1.032 v -3.564 q 0,-0.528 0.012,-1.08 0.024,-0.552 0.12,-0.9 L 38.447985,0 Z m 9.155997,0 v -5.616 h -2.4 V -6.6 h 5.88 v 0.984 h -2.4 V 0 Z m 5.003997,0 v -6.6 h 1.416 l 1.296,3.228 1.308,-3.228 h 1.452 V 0 h -1.032 v -1.02 q 0,-1.716 0.012,-2.964 0.024,-1.248 0.144,-2.088 l -1.404,3.492 h -0.984 l -1.32,-3.3 q 0.108,0.744 0.12,1.896 0.024,1.152 0.024,2.964 V 0 Z m 9.935997,0.096 q -1.188,0 -1.896,-0.696 -0.696,-0.696 -0.696,-1.944 v -1.512 q 0,-1.26 0.696,-1.944 0.696,-0.696 1.896,-0.696 1.2,0 1.896,0.696 0.696,0.684 0.696,1.944 v 1.512 q 0,1.248 -0.708,1.944 -0.696,0.696 -1.884,0.696 z m 0,-0.96 q 0.708,0 1.104,-0.396 0.408,-0.396 0.408,-1.164 v -1.752 q 0,-0.768 -0.408,-1.164 -0.396,-0.396 -1.104,-0.396 -0.696,0 -1.104,0.396 -0.408,0.396 -0.408,1.164 v 1.752 q 0,0.768 0.408,1.164 0.408,0.396 1.104,0.396 z M 65.663973,0 v -6.6 h 1.416 l 1.296,3.228 1.308,-3.228 h 1.452 V 0 h -1.032 v -1.02 q 0,-1.716 0.012,-2.964 0.024,-1.248 0.144,-2.088 l -1.404,3.492 h -0.984 l -1.32,-3.3 q 0.108,0.744 0.12,1.896 0.024,1.152 0.024,2.964 V 0 Z m 13.835993,1.68 v -2.604 h 0.54 q 0.204,-0.36 0.42,-1.08 0.216,-0.732 0.228,-1.572 l 0.084,-5.184 h 4.488 v 7.836 h 0.84 V 1.68 h -0.96 V 0 h -4.68 v 1.68 z m 1.668,-2.604 h 3.012 V -7.8 h -2.376 l -0.06,4.224 q -0.012,0.924 -0.204,1.632 -0.192,0.708 -0.372,1.02 z m 5.531997,2.604 v -2.604 h 0.54 q 0.204,-0.36 0.42,-1.08 0.216,-0.732 0.228,-1.572 l 0.084,-5.184 h 4.488 v 7.836 h 0.84 V 1.68 h -0.96 V 0 h -4.68 v 1.68 z m 1.668,-2.604 h 3.012 V -7.8 h -2.376 l -0.06,4.224 q -0.012,0.924 -0.204,1.632 -0.192,0.708 -0.372,1.02 z M 94.19996,0 l 2.28,-8.76 h 1.452 l 2.268,8.76 h -1.092 l -0.576,-2.328 h -2.652 L 95.30396,0 Z m 1.896,-3.24 h 2.208 l -0.672,-2.7 q -0.192,-0.768 -0.3,-1.284 -0.108,-0.516 -0.132,-0.672 -0.024,0.156 -0.132,0.672 -0.108,0.516 -0.3,1.272 z"
       id="text31"
       clip-path="url(#clipPath32)"
       transform="matrix(0.89732137,0,0,0.89732137,339.33787,283.76343)"
       aria-label="алгоритмом ДДА" />
    <path
       style="font-size:12px;font-family:'JetBrains Mono'"
       d="M 3.6,0.12 Q 2.412,0.12 1.716,-0.576 1.032,-1.272 1.032,-2.46 v -3.036 q 0,-1.452 0.648,-2.256 0.66,-0.804 1.932,-0.924 L 5.796,-8.88 v 1.068 l -2.016,0.18 q -1.848,0.168 -1.848,2.136 v 0.54 q 0.144,-0.576 0.624,-0.9 0.492,-0.336 1.236,-0.336 1.14,0 1.752,0.696 0.624,0.696 0.624,1.86 v 1.176 q 0,1.188 -0.696,1.884 Q 4.788,0.12 3.6,0.12 Z m 0,-0.96 q 0.696,0 1.092,-0.432 0.396,-0.444 0.396,-1.188 v -1.176 q 0,-0.744 -0.396,-1.176 -0.396,-0.444 -1.092,-0.444 -0.696,0 -1.092,0.444 -0.396,0.432 -0.396,1.176 v 1.176 q 0,0.744 0.396,1.188 0.396,0.432 1.092,0.432 z m 7.199997,0.96 q -1.1640001,0 -1.8840001,-0.696 -0.708,-0.708 -0.708,-1.944 v -1.56 q 0,-1.236 0.708,-1.932 0.72,-0.708 1.8840001,-0.708 0.78,0 1.356,0.312 0.588,0.312 0.912,0.876 0.324,0.564 0.324,1.332 v 1.176 H 9.2639969 V -2.4 q 0,0.732 0.42,1.164 0.4200001,0.42 1.1160001,0.42 0.6,0 0.984,-0.228 0.396,-0.24 0.48,-0.636 h 1.08 q -0.108,0.828 -0.804,1.32 -0.696,0.48 -1.74,0.48 z M 9.2639969,-3.864 H 12.335997 V -4.2 q 0,-0.78 -0.408,-1.2 -0.396,-0.432 -1.128,-0.432 -0.732,0 -1.1400001,0.432 -0.396,0.42 -0.396,1.2 z m 8.3279971,3.948 q -1.08,0 -1.716,-0.504 -0.636,-0.516 -0.636,-1.392 h 1.08 q 0,0.42 0.336,0.672 0.348,0.252 0.936,0.252 h 0.636 q 0.624,0 0.984,-0.264 0.36,-0.276 0.36,-0.744 0,-0.492 -0.36,-0.768 -0.36,-0.288 -0.984,-0.288 h -1.44 v -0.936 h 1.404 q 0.564,0 0.888,-0.252 0.336,-0.252 0.336,-0.684 0,-0.42 -0.324,-0.66 -0.324,-0.252 -0.888,-0.252 h -0.564 q -0.528,0 -0.852,0.204 -0.312,0.204 -0.336,0.552 h -1.08 q 0.024,-0.78 0.636,-1.236 0.612,-0.468 1.632,-0.468 h 0.564 q 1.08,0 1.704,0.444 0.636,0.444 0.636,1.272 0,0.552 -0.384,0.936 -0.372,0.372 -0.972,0.42 v 0.048 q 0.72,0.048 1.116,0.504 0.396,0.456 0.396,1.176 0,0.9 -0.672,1.44 -0.66,0.528 -1.8,0.528 z m 4.907997,1.236 4.26,-11.28 h 1.14 l -4.26,11.28 z m 9.995997,-1.2 q -1.2,0 -1.92,-0.672 -0.72,-0.672 -0.72,-1.848 v -1.8 q 0,-1.176 0.72,-1.848 0.72,-0.672 1.92,-0.672 1.14,0 1.836,0.612 0.708,0.612 0.744,1.668 h -1.08 q -0.036,-0.636 -0.432,-0.972 -0.396,-0.348 -1.068,-0.348 -0.708,0 -1.14,0.408 -0.42,0.396 -0.42,1.14 V -2.4 q 0,0.744 0.42,1.152 0.432,0.408 1.14,0.408 0.672,0 1.068,-0.348 0.396,-0.348 0.432,-0.972 h 1.08 q -0.036,1.056 -0.744,1.668 -0.696,0.612 -1.836,0.612 z M 44.435982,0 v -6.6 h 1.08 v 2.724 h 1.284 l 1.824,-2.724 h 1.236 l -2.136,3.168 2.256,3.432 h -1.26 l -1.908,-2.892 h -1.296 V 0 Z m 9.563997,0.096 q -1.188,0 -1.896,-0.696 -0.696,-0.696 -0.696,-1.944 v -1.512 q 0,-1.26 0.696,-1.944 0.696,-0.696 1.896,-0.696 1.2,0 1.896,0.696 0.696,0.684 0.696,1.944 v 1.512 q 0,1.248 -0.708,1.944 -0.696,0.696 -1.884,0.696 z m 0,-0.96 q 0.708,0 1.104,-0.396 0.408,-0.396 0.408,-1.164 v -1.752 q 0,-0.768 -0.408,-1.164 -0.396,-0.396 -1.104,-0.396 -0.696,0 -1.104,0.396 -0.408,0.396 -0.408,1.164 v 1.752 q 0,0.768 0.408,1.164 0.408,0.396 1.104,0.396 z M 58.463976,0 v -6.6 h 1.416 l 1.296,3.228 1.308,-3.228 h 1.452 V 0 h -1.032 v -1.02 q 0,-1.716 0.012,-2.964 0.024,-1.248 0.144,-2.088 l -1.404,3.492 h -0.984 l -1.32,-3.3 q 0.108,0.744 0.12,1.896 0.024,1.152 0.024,2.964 V 0 Z m 7.439997,0 v -6.6 h 4.992 V 0 h -1.08 v -5.616 h -2.832 V 0 Z m 9.695996,0.12 q -1.164,0 -1.884,-0.696 -0.708,-0.708 -0.708,-1.944 v -1.56 q 0,-1.236 0.708,-1.932 0.72,-0.708 1.884,-0.708 0.78,0 1.356,0.312 0.588,0.312 0.912,0.876 0.324,0.564 0.324,1.332 v 1.176 h -4.128 V -2.4 q 0,0.732 0.42,1.164 0.42,0.42 1.116,0.42 0.6,0 0.984,-0.228 0.396,-0.24 0.48,-0.636 h 1.08 q -0.108,0.828 -0.804,1.32 -0.696,0.48 -1.74,0.48 z m -1.536,-3.984 h 3.072 V -4.2 q 0,-0.78 -0.408,-1.2 -0.396,-0.432 -1.128,-0.432 -0.732,0 -1.14,0.432 -0.396,0.42 -0.396,1.2 z M 80.303966,0 v -6.6 h 1.08 v 2.724 h 2.832 V -6.6 h 1.08 V 0 h -1.08 v -2.892 h -2.832 V 0 Z m 9.791997,0.12 q -1.2,0 -1.92,-0.672 -0.72,-0.672 -0.72,-1.848 v -1.8 q 0,-1.176 0.72,-1.848 0.72,-0.672 1.92,-0.672 1.14,0 1.836,0.612 0.708,0.612 0.744,1.668 h -1.08 q -0.036,-0.636 -0.432,-0.972 -0.396,-0.348 -1.068,-0.348 -0.708,0 -1.14,0.408 -0.42,0.396 -0.42,1.14 V -2.4 q 0,0.744 0.42,1.152 0.432,0.408 1.14,0.408 0.672,0 1.068,-0.348 0.396,-0.348 0.432,-0.972 h 1.08 q -0.036,1.056 -0.744,1.668 -0.696,0.612 -1.836,0.612 z m 6.527997,0 q -1.02,0 -1.62,-0.564 -0.6,-0.576 -0.6,-1.5 0,-0.612 0.276,-1.068 0.276,-0.456 0.768,-0.708 0.492,-0.264 1.128,-0.264 h 2.04 V -4.5 q 0,-1.284 -1.404,-1.284 -0.624,0 -1.008,0.228 -0.384,0.228 -0.408,0.636 h -1.08 q 0.06,-0.78 0.72,-1.284 0.672,-0.516 1.776,-0.516 1.2,0 1.836,0.576 0.648,0.576 0.648,1.608 V 0 h -1.068 v -1.2 h -0.024 q -0.096,0.612 -0.612,0.972 -0.516,0.348 -1.368,0.348 z m 0.264,-0.912 q 0.792,0 1.26,-0.384 0.468,-0.384 0.468,-1.044 v -0.924 h -1.92 q -0.528,0 -0.864,0.324 -0.324,0.312 -0.324,0.84 0,0.552 0.36,0.876 0.372,0.312 1.02,0.312 z m 9.792,2.472 V 0 h -4.776 v -6.6 h 1.08 v 5.64 h 2.676 V -6.6 h 1.08 v 5.64 h 0.9 V 1.68 Z M 109.10395,0 v -6.6 h 1.032 v 3.552 q 0,0.516 -0.024,1.068 -0.012,0.552 -0.108,0.9 l 2.748,-5.52 h 1.344 V 0 h -1.032 v -3.564 q 0,-0.528 0.012,-1.08 0.024,-0.552 0.12,-0.9 L 110.44795,0 Z m 9.696,0.12 q -1.164,0 -1.884,-0.696 -0.708,-0.708 -0.708,-1.944 v -1.56 q 0,-1.236 0.708,-1.932 0.72,-0.708 1.884,-0.708 0.78,0 1.356,0.312 0.588,0.312 0.912,0.876 0.324,0.564 0.324,1.332 v 1.176 h -4.128 V -2.4 q 0,0.732 0.42,1.164 0.42,0.42 1.116,0.42 0.6,0 0.984,-0.228 0.396,-0.24 0.48,-0.636 h 1.08 q -0.108,0.828 -0.804,1.32 -0.696,0.48 -1.74,0.48 z m -1.536,-3.984 h 3.072 V -4.2 q 0,-0.78 -0.408,-1.2 -0.396,-0.432 -1.128,-0.432 -0.732,0 -1.14,0.432 -0.396,0.42 -0.396,1.2 z m 6.24,3.864 v -6.6 h 1.032 v 3.552 q 0,0.516 -0.024,1.068 -0.012,0.552 -0.108,0.9 l 2.748,-5.52 h 1.344 V 0 h -1.032 v -3.564 q 0,-0.528 0.012,-1.08 0.024,-0.552 0.12,-0.9 L 124.84795,0 Z m 2.496,-7.68 q -0.864,0 -1.392,-0.48 -0.528,-0.48 -0.528,-1.26 h 0.852 q 0,0.468 0.288,0.756 0.288,0.288 0.768,0.288 0.492,0 0.78,-0.288 0.3,-0.288 0.3,-0.756 h 0.852 q 0,0.78 -0.528,1.26 -0.528,0.48 -1.392,0.48 z M 139.85994,0 v -7.776 h -2.4 V -8.76 h 5.88 v 0.984 h -2.4 V 0 Z m 5.256,0 v -8.76 h 1.08 v 3.744 h 2.808 V -8.76 h 1.08 V 0 h -1.08 v -4.032 h -2.808 V 0 Z"
       id="text32"
       clip-path="url(#clipPath33)"
       transform="matrix(0.89732137,0,0,0.89732137,281.19425,297.22325)"
       aria-label="без/с компенсацией ТН" />
    <path
       id="path34"
       d="m 246,-2000 h 228 c 0.39395,10e-5 0.78412,0.039 1.1705,0.1155 0.38638,0.077 0.76157,0.1909 1.12555,0.3417 0.36398,0.1507 0.70975,0.3355 1.03735,0.5544 0.32758,0.2187 0.63065,0.4674 0.90921,0.746 0.27857,0.2787 0.52729,0.5818 0.74616,0.9093 0.21884,0.3275 0.40369,0.6733 0.55447,1.0372 0.15076,0.364 0.26456,0.7391 0.34143,1.1255 0.0768,0.3863 0.1153,0.7765 0.11533,1.1704 v 28 c -3e-5,0.3942 -0.0385,0.7844 -0.11536,1.1708 -0.0768,0.3865 -0.19064,0.7617 -0.3414,1.1256 -0.15078,0.364 -0.33563,0.7098 -0.55447,1.0373 -0.21887,0.3276 -0.46759,0.6305 -0.74616,0.9091 -0.27856,0.2786 -0.58163,0.5273 -0.90924,0.7462 -0.32757,0.2189 -0.67334,0.4037 -1.03732,0.5545 -0.36398,0.1506 -0.73917,0.2644 -1.12555,0.3413 -0.38638,0.077 -0.77655,0.1151 -1.1705,0.1152 H 246 c -0.39398,-10e-5 -0.78418,-0.039 -1.17058,-0.1154 -0.3864,-0.077 -0.76158,-0.1905 -1.12555,-0.3411 -0.36397,-0.1508 -0.70974,-0.3356 -1.03734,-0.5545 -0.32756,-0.2189 -0.63061,-0.4676 -0.90919,-0.7462 -0.27858,-0.2786 -0.5273,-0.5815 -0.74619,-0.9091 -0.21888,-0.3275 -0.4037,-0.6733 -0.55445,-1.0373 -0.15076,-0.3639 -0.26458,-0.7391 -0.34144,-1.1256 -0.0769,-0.3864 -0.11528,-0.7766 -0.11526,-1.1708 v -28 c -2e-5,-0.3939 0.0384,-0.7841 0.11525,-1.1704 0.0769,-0.3862 0.19069,-0.7614 0.34145,-1.1254 0.15075,-0.364 0.33557,-0.7098 0.55445,-1.0373 0.21889,-0.3275 0.46761,-0.6306 0.74619,-0.9093 0.27858,-0.2786 0.58163,-0.5273 0.90919,-0.7461 0.3276,-0.2189 0.67337,-0.4037 1.03734,-0.5545 0.36397,-0.1507 0.73917,-0.2645 1.12557,-0.3415 0.3864,-0.077 0.77658,-0.1154 1.17056,-0.1155 z"
       style="fill:#ffffff;fill-opacity:1;fill-rule:nonzero;stroke:#000000;stroke-width:1;stroke-linecap:butt;stroke-linejoin:miter;stroke-miterlimit:10;stroke-dasharray:none;stroke-opacity:1"
       transform="matrix(0.89732137,0,0,0.89732137,26.453124,2135.3862)"
       clip-path="url(#clipPath35)" />
    <path
       style="font-size:12px;font-family:'JetBrains Mono'"
       d="M 0.6,0 2.88,-8.76 H 4.332 L 6.6,0 H 5.508 L 4.932,-2.328 H 2.28 L 1.704,0 Z M 2.496,-3.24 H 4.704 L 4.032,-5.94 Q 3.84,-6.708 3.732,-7.224 3.624,-7.74 3.6,-7.896 3.576,-7.74 3.468,-7.224 3.36,-6.708 3.168,-5.952 Z M 8.3039969,0 v -6.6 h 1.08 v 2.724 H 12.215997 V -6.6 h 1.08 V 0 h -1.08 V -2.892 H 9.3839969 V 0 Z m 9.1199971,0.12 q -1.02,0 -1.62,-0.564 -0.6,-0.576 -0.6,-1.5 0,-0.612 0.276,-1.068 0.276,-0.456 0.768,-0.708 0.492,-0.264 1.128,-0.264 h 2.04 V -4.5 q 0,-1.284 -1.404,-1.284 -0.624,0 -1.008,0.228 -0.384,0.228 -0.408,0.636 h -1.08 q 0.06,-0.78 0.72,-1.284 0.672,-0.516 1.776,-0.516 1.2,0 1.836,0.576 0.648,0.576 0.648,1.608 V 0 h -1.068 v -1.2 h -0.024 q -0.096,0.612 -0.612,0.972 -0.516,0.348 -1.368,0.348 z m 0.264,-0.912 q 0.792,0 1.26,-0.384 0.468,-0.384 0.468,-1.044 v -0.924 h -1.92 q -0.528,0 -0.864,0.324 -0.324,0.312 -0.324,0.84 0,0.552 0.36,0.876 0.372,0.312 1.02,0.312 z m 4.211997,0.876 v -1.008 h 0.18 q 0.552,0 0.768,-0.432 0.228,-0.432 0.24,-1.548 l 0.072,-3.696 h 4.536 V 0 h -1.08 v -5.616 h -2.388 l -0.06,2.76 q -0.036,1.572 -0.504,2.256 -0.468,0.684 -1.524,0.684 z M 29.903988,0 v -6.6 h 1.032 v 3.552 q 0,0.516 -0.024,1.068 -0.012,0.552 -0.108,0.9 l 2.748,-5.52 h 1.344 V 0 h -1.032 v -3.564 q 0,-0.528 0.012,-1.08 0.024,-0.552 0.12,-0.9 L 31.247988,0 Z m 9.287997,0.084 q -1.08,0 -1.716,-0.504 -0.636,-0.516 -0.636,-1.392 h 1.08 q 0,0.42 0.336,0.672 0.348,0.252 0.936,0.252 h 0.636 q 0.624,0 0.984,-0.264 0.36,-0.276 0.36,-0.744 0,-0.492 -0.36,-0.768 -0.36,-0.288 -0.984,-0.288 h -1.44 v -0.936 h 1.404 q 0.564,0 0.888,-0.252 0.336,-0.252 0.336,-0.684 0,-0.42 -0.324,-0.66 -0.324,-0.252 -0.888,-0.252 h -0.564 q -0.528,0 -0.852,0.204 -0.312,0.204 -0.336,0.552 h -1.08 q 0.024,-0.78 0.636,-1.236 0.612,-0.468 1.632,-0.468 h 0.564 q 1.08,0 1.704,0.444 0.636,0.444 0.636,1.272 0,0.552 -0.384,0.936 -0.372,0.372 -0.972,0.42 v 0.048 q 0.72,0.048 1.116,0.504 0.396,0.456 0.396,1.176 0,0.9 -0.672,1.44 -0.66,0.528 -1.8,0.528 z M 51.503979,0 v -6.6 h 4.992 V 0 h -1.08 v -5.616 h -2.832 V 0 Z m 9.695997,0.096 q -1.188,0 -1.896,-0.696 -0.696,-0.696 -0.696,-1.944 v -1.512 q 0,-1.26 0.696,-1.944 0.696,-0.696 1.896,-0.696 1.2,0 1.896,0.696 0.696,0.684 0.696,1.944 v 1.512 q 0,1.248 -0.708,1.944 -0.696,0.696 -1.884,0.696 z m 0,-0.96 q 0.708,0 1.104,-0.396 0.408,-0.396 0.408,-1.164 v -1.752 q 0,-0.768 -0.408,-1.164 -0.396,-0.396 -1.104,-0.396 -0.696,0 -1.104,0.396 -0.408,0.396 -0.408,1.164 v 1.752 q 0,0.768 0.408,1.164 0.408,0.396 1.104,0.396 z m 3.899997,0.948 v -1.008 h 0.18 q 0.552,0 0.768,-0.432 0.228,-0.432 0.24,-1.548 l 0.072,-3.696 h 4.536 V 0 h -1.08 v -5.616 h -2.388 l -0.06,2.76 q -0.036,1.572 -0.504,2.256 -0.468,0.684 -1.524,0.684 z m 9.035996,2.076 0.972,-2.568 -2.46,-6.192 h 1.164 l 1.56,4.08 q 0.096,0.24 0.18,0.504 0.084,0.264 0.12,0.456 0.036,-0.192 0.12,-0.456 0.084,-0.264 0.168,-0.504 l 1.452,-4.08 h 1.14 l -3.288,8.76 z M 84.119966,0 v -2.292 h -1.764 q -1.02,0 -1.62,-0.54 -0.6,-0.54 -0.6,-1.452 V -6.6 h 1.08 v 2.316 q 0,0.468 0.312,0.744 0.324,0.276 0.864,0.276 h 1.728 V -6.6 h 1.08 V 0 Z m 5.879997,0.12 q -1.164,0 -1.884,-0.696 -0.708,-0.708 -0.708,-1.944 v -1.56 q 0,-1.236 0.708,-1.932 0.72,-0.708 1.884,-0.708 0.78,0 1.356,0.312 0.588,0.312 0.912,0.876 0.324,0.564 0.324,1.332 v 1.176 h -4.128 V -2.4 q 0,0.732 0.42,1.164 0.42,0.42 1.116,0.42 0.6,0 0.984,-0.228 0.396,-0.24 0.48,-0.636 h 1.08 q -0.108,0.828 -0.804,1.32 -0.696,0.48 -1.74,0.48 z m -1.536,-3.984 h 3.072 V -4.2 q 0,-0.78 -0.408,-1.2 -0.396,-0.432 -1.128,-0.432 -0.732,0 -1.14,0.432 -0.396,0.42 -0.396,1.2 z M 94.70396,0 v -6.6 h 1.08 v 2.724 h 2.832 V -6.6 h 1.08 V 0 h -1.08 v -2.892 h -2.832 V 0 Z m 7.2,0 v -6.6 h 1.08 v 2.724 h 2.832 V -6.6 h 1.08 V 0 h -1.08 v -2.892 h -2.832 V 0 Z m 9.69599,0.096 q -1.188,0 -1.896,-0.696 -0.696,-0.696 -0.696,-1.944 v -1.512 q 0,-1.26 0.696,-1.944 0.696,-0.696 1.896,-0.696 1.2,0 1.896,0.696 0.696,0.684 0.696,1.944 v 1.512 q 0,1.248 -0.708,1.944 -0.696,0.696 -1.884,0.696 z m 0,-0.96 q 0.708,0 1.104,-0.396 0.408,-0.396 0.408,-1.164 v -1.752 q 0,-0.768 -0.408,-1.164 -0.396,-0.396 -1.104,-0.396 -0.696,0 -1.104,0.396 -0.408,0.396 -0.408,1.164 v 1.752 q 0,0.768 0.408,1.164 0.408,0.396 1.104,0.396 z m 5.22,0.864 v -6.6 h 4.74 v 0.984 h -3.66 V 0 Z m 9.18,0.096 q -1.188,0 -1.896,-0.696 -0.696,-0.696 -0.696,-1.944 v -1.512 q 0,-1.26 0.696,-1.944 0.696,-0.696 1.896,-0.696 1.2,0 1.896,0.696 0.696,0.684 0.696,1.944 v 1.512 q 0,1.248 -0.708,1.944 -0.696,0.696 -1.884,0.696 z m 0,-0.96 q 0.708,0 1.104,-0.396 0.408,-0.396 0.408,-1.164 v -1.752 q 0,-0.768 -0.408,-1.164 -0.396,-0.396 -1.104,-0.396 -0.696,0 -1.104,0.396 -0.408,0.396 -0.408,1.164 v 1.752 q 0,0.768 0.408,1.164 0.408,0.396 1.104,0.396 z M 137.90394,0 v -6.6 h 1.032 v 3.552 q 0,0.516 -0.024,1.068 -0.012,0.552 -0.108,0.9 l 2.748,-5.52 h 1.344 V 0 h -1.032 v -3.564 q 0,-0.528 0.012,-1.08 0.024,-0.552 0.12,-0.9 L 139.24794,0 Z m 9.288,0.084 q -1.08,0 -1.716,-0.504 -0.636,-0.516 -0.636,-1.392 h 1.08 q 0,0.42 0.336,0.672 0.348,0.252 0.936,0.252 h 0.636 q 0.624,0 0.984,-0.264 0.36,-0.276 0.36,-0.744 0,-0.492 -0.36,-0.768 -0.36,-0.288 -0.984,-0.288 h -1.44 v -0.936 h 1.404 q 0.564,0 0.888,-0.252 0.336,-0.252 0.336,-0.684 0,-0.42 -0.324,-0.66 -0.324,-0.252 -0.888,-0.252 h -0.564 q -0.528,0 -0.852,0.204 -0.312,0.204 -0.336,0.552 h -1.08 q 0.024,-0.78 0.636,-1.236 0.612,-0.468 1.632,-0.468 h 0.564 q 1.08,0 1.704,0.444 0.636,0.444 0.636,1.272 0,0.552 -0.384,0.936 -0.372,0.372 -0.972,0.42 v 0.048 q 0.72,0.048 1.116,0.504 0.396,0.456 0.396,1.176 0,0.9 -0.672,1.44 -0.66,0.528 -1.8,0.528 z m 7.608,0.012 q -1.188,0 -1.896,-0.696 -0.696,-0.696 -0.696,-1.944 v -1.512 q 0,-1.26 0.696,-1.944 0.696,-0.696 1.896,-0.696 1.2,0 1.896,0.696 0.696,0.684 0.696,1.944 v 1.512 q 0,1.248 -0.708,1.944 -0.696,0.696 -1.884,0.696 z m 0,-0.96 q 0.708,0 1.104,-0.396 0.408,-0.396 0.408,-1.164 v -1.752 q 0,-0.768 -0.408,-1.164 -0.396,-0.396 -1.104,-0.396 -0.696,0 -1.104,0.396 -0.408,0.396 -0.408,1.164 v 1.752 q 0,0.768 0.408,1.164 0.408,0.396 1.104,0.396 z m 7.19999,0.984 q -1.188,0 -1.884,-0.696 -0.684,-0.696 -0.684,-1.884 v -3.036 q 0,-1.452 0.648,-2.256 0.66,-0.804 1.932,-0.924 l 2.184,-0.204 v 1.068 l -2.016,0.18 q -1.848,0.168 -1.848,2.136 v 0.54 q 0.144,-0.576 0.624,-0.9 0.492,-0.336 1.236,-0.336 1.14,0 1.752,0.696 0.624,0.696 0.624,1.86 v 1.176 q 0,1.188 -0.696,1.884 -0.684,0.696 -1.872,0.696 z m 0,-0.96 q 0.696,0 1.092,-0.432 0.396,-0.444 0.396,-1.188 v -1.176 q 0,-0.744 -0.396,-1.176 -0.396,-0.444 -1.092,-0.444 -0.696,0 -1.092,0.444 -0.396,0.432 -0.396,1.176 v 1.176 q 0,0.744 0.396,1.188 0.396,0.432 1.092,0.432 z m 4.704,3 V -6.6 h 1.08 v 1.26 h 0.012 q 0.084,-0.648 0.564,-1.008 0.48,-0.372 1.224,-0.372 0.996,0 1.584,0.66 0.588,0.648 0.588,1.788 v 1.932 q 0,1.14 -0.588,1.8 -0.588,0.66 -1.584,0.66 -0.744,0 -1.224,-0.372 -0.48,-0.372 -0.564,-1.008 h -0.036 l 0.024,1.5 v 1.92 z m 2.52,-2.976 q 0.684,0 1.068,-0.36 0.384,-0.36 0.384,-1.164 v -1.92 q 0,-0.816 -0.384,-1.164 -0.384,-0.36 -1.068,-0.36 -0.66,0 -1.056,0.42 -0.384,0.42 -0.384,1.164 v 1.8 q 0,0.744 0.384,1.164 0.396,0.42 1.056,0.42 z m 6.6,0.936 q -1.02,0 -1.62,-0.564 -0.6,-0.576 -0.6,-1.5 0,-0.612 0.276,-1.068 0.276,-0.456 0.768,-0.708 0.492,-0.264 1.128,-0.264 h 2.04 V -4.5 q 0,-1.284 -1.404,-1.284 -0.624,0 -1.008,0.228 -0.384,0.228 -0.408,0.636 h -1.08 q 0.06,-0.78 0.72,-1.284 0.672,-0.516 1.776,-0.516 1.2,0 1.836,0.576 0.648,0.576 0.648,1.608 V 0 h -1.068 v -1.2 h -0.024 q -0.096,0.612 -0.612,0.972 -0.516,0.348 -1.368,0.348 z m 0.264,-0.912 q 0.792,0 1.26,-0.384 0.468,-0.384 0.468,-1.044 v -0.924 h -1.92 q -0.528,0 -0.864,0.324 -0.324,0.312 -0.324,0.84 0,0.552 0.36,0.876 0.372,0.312 1.02,0.312 z m 4.09199,0.792 1.476,-3.408 -1.38,-3.192 h 1.032 l 1.212,2.844 h 0.636 V -6.6 h 0.888 v 2.844 h 0.612 l 1.248,-2.844 h 1.02 l -1.38,3.156 1.476,3.444 h -1.068 l -1.26,-3.012 h -0.648 V 0 h -0.888 v -3.012 h -0.648 L 181.23592,0 Z m 10.62,0.12 q -1.164,0 -1.884,-0.696 -0.708,-0.708 -0.708,-1.944 v -1.56 q 0,-1.236 0.708,-1.932 0.72,-0.708 1.884,-0.708 0.78,0 1.356,0.312 0.588,0.312 0.912,0.876 0.324,0.564 0.324,1.332 v 1.176 h -4.128 V -2.4 q 0,0.732 0.42,1.164 0.42,0.42 1.116,0.42 0.6,0 0.984,-0.228 0.396,-0.24 0.48,-0.636 h 1.08 q -0.108,0.828 -0.804,1.32 -0.696,0.48 -1.74,0.48 z m -1.536,-3.984 h 3.072 V -4.2 q 0,-0.78 -0.408,-1.2 -0.396,-0.432 -1.128,-0.432 -0.732,0 -1.14,0.432 -0.396,0.42 -0.396,1.2 z m 6.24,3.864 v -6.6 h 1.08 v 2.724 h 2.832 V -6.6 h 1.08 V 0 h -1.08 v -2.892 h -2.832 V 0 Z m 7.19999,0 v -6.6 h 1.032 v 3.552 q 0,0.516 -0.024,1.068 -0.012,0.552 -0.108,0.9 l 2.748,-5.52 h 1.344 V 0 h -1.032 v -3.564 q 0,-0.528 0.012,-1.08 0.024,-0.552 0.12,-0.9 L 204.04791,0 Z m 6.852,0 1.692,-2.568 q -0.696,-0.168 -1.116,-0.696 -0.42,-0.54 -0.42,-1.272 0,-0.96 0.648,-1.512 0.648,-0.552 1.752,-0.552 h 2.784 V 0 h -1.08 v -2.496 h -1.392 l -1.56,2.496 z m 2.556,-3.432 h 1.704 v -2.22 h -1.704 q -0.588,0 -0.948,0.3 -0.348,0.288 -0.348,0.816 0,0.516 0.348,0.816 0.36,0.288 0.948,0.288 z M 224.30391,0 v -6.6 h 1.032 v 3.552 q 0,0.516 -0.024,1.068 -0.012,0.552 -0.108,0.9 l 2.748,-5.52 h 1.344 V 0 h -1.032 v -3.564 q 0,-0.528 0.012,-1.08 0.024,-0.552 0.12,-0.9 L 225.64791,0 Z"
       id="text35"
       clip-path="url(#clipPath36)"
       transform="matrix(0.89732137,0,0,0.89732137,245.66594,355.54914)"
       aria-label="Анализ полученного изображения и" />
    <path
       style="font-size:12px;font-family:'JetBrains Mono'"
       d="m 1.236,0 v -6.6 h 1.08 v 2.724 H 3.6 L 5.424,-6.6 H 6.66 L 4.524,-3.432 6.78,0 H 5.52 L 3.612,-2.892 H 2.316 V 0 Z m 9.563997,0.096 q -1.1880001,0 -1.8960001,-0.696 -0.696,-0.696 -0.696,-1.944 v -1.512 q 0,-1.26 0.696,-1.944 0.696,-0.696 1.8960001,-0.696 1.2,0 1.896,0.696 0.696,0.684 0.696,1.944 v 1.512 q 0,1.248 -0.708,1.944 -0.696,0.696 -1.884,0.696 z m 0,-0.96 q 0.708,0 1.104,-0.396 0.408,-0.396 0.408,-1.164 v -1.752 q 0,-0.768 -0.408,-1.164 -0.396,-0.396 -1.104,-0.396 -0.696,0 -1.1040001,0.396 -0.408,0.396 -0.408,1.164 v 1.752 q 0,0.768 0.408,1.164 0.4080001,0.396 1.1040001,0.396 z M 15.503994,0 v -6.6 h 1.08 v 2.724 h 2.832 V -6.6 h 1.08 V 0 h -1.08 v -2.892 h -2.832 V 0 Z m 9.155997,0 v -5.616 h -2.4 V -6.6 h 5.88 v 0.984 h -2.4 V 0 Z m 5.243997,2.16 V -6.6 h 1.08 v 1.26 h 0.012 q 0.084,-0.648 0.564,-1.008 0.48,-0.372 1.224,-0.372 0.996,0 1.584,0.66 0.588,0.648 0.588,1.788 v 1.932 q 0,1.14 -0.588,1.8 -0.588,0.66 -1.584,0.66 -0.744,0 -1.224,-0.372 -0.48,-0.372 -0.564,-1.008 h -0.036 l 0.024,1.5 v 1.92 z m 2.52,-2.976 q 0.684,0 1.068,-0.36 0.384,-0.36 0.384,-1.164 v -1.92 q 0,-0.816 -0.384,-1.164 -0.384,-0.36 -1.068,-0.36 -0.66,0 -1.056,0.42 -0.384,0.42 -0.384,1.164 v 1.8 q 0,0.744 0.384,1.164 0.396,0.42 1.056,0.42 z m 7.175997,0.912 q -1.188,0 -1.896,-0.696 -0.696,-0.696 -0.696,-1.944 v -1.512 q 0,-1.26 0.696,-1.944 0.696,-0.696 1.896,-0.696 1.2,0 1.896,0.696 0.696,0.684 0.696,1.944 v 1.512 q 0,1.248 -0.708,1.944 -0.696,0.696 -1.884,0.696 z m 0,-0.96 q 0.708,0 1.104,-0.396 0.408,-0.396 0.408,-1.164 v -1.752 q 0,-0.768 -0.408,-1.164 -0.396,-0.396 -1.104,-0.396 -0.696,0 -1.104,0.396 -0.408,0.396 -0.408,1.164 v 1.752 q 0,0.768 0.408,1.164 0.408,0.396 1.104,0.396 z m 3.899997,0.948 v -1.008 h 0.18 q 0.552,0 0.768,-0.432 0.228,-0.432 0.24,-1.548 l 0.072,-3.696 h 4.536 V 0 h -1.08 v -5.616 h -2.388 l -0.06,2.76 q -0.036,1.572 -0.504,2.256 -0.468,0.684 -1.524,0.684 z M 51.659979,0 v -6.6 h 1.08 v 2.424 h 1.884 q 1.116,0 1.752,0.564 0.648,0.552 0.648,1.524 0,0.96 -0.648,1.524 -0.648,0.564 -1.752,0.564 z m 1.08,-0.984 h 1.884 q 0.624,0 0.948,-0.276 0.336,-0.288 0.336,-0.828 0,-0.54 -0.336,-0.816 -0.324,-0.288 -0.948,-0.288 h -1.884 z M 66.035973,0 v -6.6 h 1.08 v 2.724 h 1.284 l 1.824,-2.724 h 1.236 l -2.136,3.168 2.256,3.432 h -1.26 l -1.908,-2.892 h -1.296 V 0 Z m 8.987996,0.12 q -1.02,0 -1.62,-0.564 -0.6,-0.576 -0.6,-1.5 0,-0.612 0.276,-1.068 0.276,-0.456 0.768,-0.708 0.492,-0.264 1.128,-0.264 h 2.04 V -4.5 q 0,-1.284 -1.404,-1.284 -0.624,0 -1.008,0.228 -0.384,0.228 -0.408,0.636 h -1.08 q 0.06,-0.78 0.72,-1.284 0.672,-0.516 1.776,-0.516 1.2,0 1.836,0.576 0.648,0.576 0.648,1.608 V 0 h -1.068 v -1.2 h -0.024 q -0.096,0.612 -0.612,0.972 -0.516,0.348 -1.368,0.348 z m 0.264,-0.912 q 0.792,0 1.26,-0.384 0.468,-0.384 0.468,-1.044 v -0.924 h -1.92 q -0.528,0 -0.864,0.324 -0.324,0.312 -0.324,0.84 0,0.552 0.36,0.876 0.372,0.312 1.02,0.312 z M 84.119966,0 v -2.292 h -1.764 q -1.02,0 -1.62,-0.54 -0.6,-0.54 -0.6,-1.452 V -6.6 h 1.08 v 2.316 q 0,0.468 0.312,0.744 0.324,0.276 0.864,0.276 h 1.728 V -6.6 h 1.08 V 0 Z m 5.879997,0.12 q -1.164,0 -1.884,-0.696 -0.708,-0.708 -0.708,-1.944 v -1.56 q 0,-1.236 0.708,-1.932 0.72,-0.708 1.884,-0.708 0.78,0 1.356,0.312 0.588,0.312 0.912,0.876 0.324,0.564 0.324,1.332 v 1.176 h -4.128 V -2.4 q 0,0.732 0.42,1.164 0.42,0.42 1.116,0.42 0.6,0 0.984,-0.228 0.396,-0.24 0.48,-0.636 h 1.08 q -0.108,0.828 -0.804,1.32 -0.696,0.48 -1.74,0.48 z m -1.536,-3.984 h 3.072 V -4.2 q 0,-0.78 -0.408,-1.2 -0.396,-0.432 -1.128,-0.432 -0.732,0 -1.14,0.432 -0.396,0.42 -0.396,1.2 z M 97.29596,0.12 q -1.2,0 -1.92,-0.672 -0.72,-0.672 -0.72,-1.848 v -1.8 q 0,-1.176 0.72,-1.848 0.72,-0.672 1.92,-0.672 1.14,0 1.836,0.612 0.708,0.612 0.744,1.668 h -1.08 q -0.036,-0.636 -0.432,-0.972 -0.396,-0.348 -1.068,-0.348 -0.708,0 -1.14,0.408 -0.42,0.396 -0.42,1.14 V -2.4 q 0,0.744 0.42,1.152 0.432,0.408 1.14,0.408 0.672,0 1.068,-0.348 0.396,-0.348 0.432,-0.972 h 1.08 q -0.036,1.056 -0.744,1.668 -0.696,0.612 -1.836,0.612 z m 6.564,-0.12 v -5.616 h -2.4 V -6.6 h 5.88 v 0.984 h -2.4 V 0 Z m 5.24399,0 v -6.6 h 2.892 q 0.996,0 1.572,0.444 0.576,0.444 0.576,1.212 0,0.552 -0.384,0.936 -0.372,0.372 -0.972,0.42 v 0.048 q 0.72,0.048 1.116,0.504 0.396,0.456 0.396,1.176 0,0.852 -0.612,1.356 -0.612,0.504 -1.656,0.504 z m 1.056,-3.84 h 1.836 q 0.504,0 0.792,-0.24 0.288,-0.24 0.288,-0.672 0,-0.42 -0.288,-0.66 -0.288,-0.24 -0.792,-0.24 h -1.836 z m 0,2.892 h 1.872 q 0.564,0 0.876,-0.264 0.324,-0.264 0.324,-0.744 0,-0.468 -0.324,-0.732 -0.312,-0.264 -0.876,-0.264 h -1.872 z m 8.064,1.068 q -1.02,0 -1.62,-0.564 -0.6,-0.576 -0.6,-1.5 0,-0.612 0.276,-1.068 0.276,-0.456 0.768,-0.708 0.492,-0.264 1.128,-0.264 h 2.04 V -4.5 q 0,-1.284 -1.404,-1.284 -0.624,0 -1.008,0.228 -0.384,0.228 -0.408,0.636 h -1.08 q 0.06,-0.78 0.72,-1.284 0.672,-0.516 1.776,-0.516 1.2,0 1.836,0.576 0.648,0.576 0.648,1.608 V 0 h -1.068 v -1.2 h -0.024 q -0.096,0.612 -0.612,0.972 -0.516,0.348 -1.368,0.348 z m 0.264,-0.912 q 0.792,0 1.26,-0.384 0.468,-0.384 0.468,-1.044 v -0.924 h -1.92 q -0.528,0 -0.864,0.324 -0.324,0.312 -0.324,0.84 0,0.552 0.36,0.876 0.372,0.312 1.02,0.312 z"
       id="text36"
       clip-path="url(#clipPath37)"
       transform="matrix(0.89732137,0,0,0.89732137,294.12129,369.00896)"
       aria-label="контроль качества" />
  </g>
</svg>
