<?xml version="1.0" encoding="UTF-8" standalone="no"?>
<!-- Created with Inkscape (http://www.inkscape.org/) -->

<svg
   width="87.998444mm"
   height="41.649998mm"
   viewBox="0 0 87.998443 41.649997"
   version="1.1"
   id="svg1"
   inkscape:version="1.3.2 (091e20e, 2023-11-25, custom)"
   sodipodi:docname="precise_corr.svg"
   inkscape:export-filename="recv_signal.png"
   inkscape:export-xdpi="600"
   inkscape:export-ydpi="600"
   xmlns:inkscape="http://www.inkscape.org/namespaces/inkscape"
   xmlns:sodipodi="http://sodipodi.sourceforge.net/DTD/sodipodi-0.dtd"
   xmlns="http://www.w3.org/2000/svg"
   xmlns:svg="http://www.w3.org/2000/svg">
  <sodipodi:namedview
     id="namedview1"
     pagecolor="#ffffff"
     bordercolor="#000000"
     borderopacity="0.25"
     inkscape:showpageshadow="2"
     inkscape:pageopacity="0.0"
     inkscape:pagecheckerboard="0"
     inkscape:deskcolor="#d1d1d1"
     inkscape:document-units="mm"
     inkscape:zoom="2"
     inkscape:cx="130.5"
     inkscape:cy="27.25"
     inkscape:window-width="1920"
     inkscape:window-height="991"
     inkscape:window-x="-9"
     inkscape:window-y="1341"
     inkscape:window-maximized="1"
     inkscape:current-layer="layer1"
     inkscape:export-bgcolor="#ffffffff" />
  <defs
     id="defs1">
    <marker
       style="overflow:visible"
       id="DartArrow"
       refX="0"
       refY="0"
       orient="auto-start-reverse"
       inkscape:stockid="Dart arrow"
       markerWidth="1"
       markerHeight="1"
       viewBox="0 0 1 1"
       inkscape:isstock="true"
       inkscape:collect="always"
       preserveAspectRatio="xMidYMid">
      <path
         style="fill:context-stroke;fill-rule:evenodd;stroke:none"
         d="M 0,0 5,-5 -12.5,0 5,5 Z"
         transform="scale(-0.5)"
         id="path9" />
    </marker>
    <marker
       style="overflow:visible"
       id="Triangle"
       refX="0"
       refY="0"
       orient="auto-start-reverse"
       inkscape:stockid="Triangle arrow"
       markerWidth="1"
       markerHeight="1"
       viewBox="0 0 1 1"
       inkscape:isstock="true"
       inkscape:collect="always"
       preserveAspectRatio="xMidYMid">
      <path
         transform="scale(0.5)"
         style="fill:context-stroke;fill-rule:evenodd;stroke:context-stroke;stroke-width:1pt"
         d="M 5.77,0 -2.88,5 V -5 Z"
         id="path135" />
    </marker>
    <marker
       style="overflow:visible"
       id="ConcaveTriangle"
       refX="0"
       refY="0"
       orient="auto-start-reverse"
       inkscape:stockid="Concave triangle arrow"
       markerWidth="1"
       markerHeight="1"
       viewBox="0 0 1 1"
       inkscape:isstock="true"
       inkscape:collect="always"
       preserveAspectRatio="xMidYMid">
      <path
         transform="scale(0.7)"
         d="M -2,-4 9,0 -2,4 c 2,-2.33 2,-5.66 0,-8 z"
         style="fill:context-stroke;fill-rule:evenodd;stroke:none"
         id="path7" />
    </marker>
    <marker
       style="overflow:visible"
       id="Triangle-0"
       refX="0"
       refY="0"
       orient="auto-start-reverse"
       inkscape:stockid="Triangle arrow"
       markerWidth="1"
       markerHeight="1"
       viewBox="0 0 1 1"
       inkscape:isstock="true"
       inkscape:collect="always"
       preserveAspectRatio="xMidYMid">
      <path
         transform="scale(0.5)"
         style="fill:context-stroke;fill-rule:evenodd;stroke:context-stroke;stroke-width:1pt"
         d="M 5.77,0 -2.88,5 V -5 Z"
         id="path135-0" />
    </marker>
  </defs>
  <g
     inkscape:label="Слой 1"
     inkscape:groupmode="layer"
     id="layer1"
     transform="translate(-56.183948,-35.135382)">
    <rect
       style="fill:none;fill-opacity:1;stroke:#000000;stroke-width:0.5;stroke-linecap:square;stroke-dasharray:none;stroke-opacity:1"
       id="rect3"
       width="7.2102499"
       height="25.72678"
       x="80.96032"
       y="49.64138" />
    <rect
       style="fill:#000000;fill-opacity:0;stroke:#000000;stroke-width:0.5;stroke-linecap:square;stroke-dasharray:none;stroke-opacity:1"
       id="rect1"
       width="29.537685"
       height="17.63205"
       x="94.301834"
       y="57.755383" />
    <path
       style="fill:none;stroke:#808080;stroke-width:0.5;stroke-linecap:square;stroke-dasharray:1, 1;stroke-dashoffset:0;stroke-opacity:1"
       d="M 94.301335,42.830094 V 75.382747"
       id="path6"
       sodipodi:nodetypes="cc" />
    <rect
       style="fill:none;fill-opacity:1;stroke:#b2b2b2;stroke-width:0.505649;stroke-linecap:square;stroke-dasharray:none;stroke-opacity:1"
       id="rect4"
       width="29.532351"
       height="17.6264"
       x="100.00515"
       y="57.758205" />
    <g
       id="text2"
       style="font-size:3.52778px;font-family:'JetBrains Mono';-inkscape-font-specification:'JetBrains Mono, Normal';text-align:center;text-anchor:middle;fill:#b2b2b2;stroke-width:0.499999;stroke-linecap:square;stroke-dasharray:1.5, 0.499999"
       aria-label="Принятый сигнал&#10;при наличии ТН">
      <path
         style="stroke-width:0.5"
         d="m 113.08852,37.90469 v -2.57528 h 1.45344 v 2.57528 h -0.3175 v -2.286002 h -0.81844 v 2.286002 z m 2.10961,0.635 v -2.575279 h 0.3175 v 0.370417 h 0.004 q 0.0247,-0.1905 0.16581,-0.296334 0.14111,-0.109361 0.35983,-0.109361 0.29281,0 0.46567,0.194028 0.17286,0.1905 0.17286,0.525639 v 0.567973 q 0,0.335139 -0.17286,0.529167 -0.17286,0.194028 -0.46567,0.194028 -0.21872,0 -0.35983,-0.109362 -0.14112,-0.109361 -0.16581,-0.296333 h -0.0106 l 0.007,0.440972 v 0.564445 z m 0.74084,-0.874889 q 0.20108,0 0.31397,-0.105834 0.11289,-0.105833 0.11289,-0.342194 v -0.564445 q 0,-0.239889 -0.11289,-0.342195 -0.11289,-0.105833 -0.31397,-0.105833 -0.19403,0 -0.31045,0.123472 -0.11289,0.123472 -0.11289,0.342195 v 0.529167 q 0,0.218722 0.11289,0.342194 0.11642,0.123473 0.31045,0.123473 z m 1.37583,0.239889 v -1.940279 h 0.30339 v 1.044223 q 0,0.151694 -0.007,0.313972 -0.004,0.162278 -0.0318,0.264584 l 0.80786,-1.622779 h 0.39511 v 1.940279 h -0.30339 v -1.047751 q 0,-0.155222 0.004,-0.3175 0.007,-0.162278 0.0353,-0.264584 l -0.80786,1.629835 z m 2.11667,0 v -1.940279 h 0.3175 v 0.800806 h 0.83256 v -0.800806 h 0.3175 v 1.940279 h -0.3175 v -0.850195 h -0.83256 v 0.850195 z m 2.01436,0 0.49742,-0.754945 q -0.20461,-0.04939 -0.32808,-0.204611 -0.12347,-0.15875 -0.12347,-0.373945 0,-0.282222 0.1905,-0.4445 0.1905,-0.162278 0.51505,-0.162278 h 0.81845 v 1.940279 h -0.3175 v -0.733778 h -0.40923 l -0.45861,0.733778 z m 0.75142,-1.008945 h 0.50095 v -0.65264 h -0.50095 q -0.17286,0 -0.27869,0.08819 -0.10231,0.08467 -0.10231,0.239889 0,0.151694 0.10231,0.239889 0.10583,0.08467 0.27869,0.08467 z m 2.04259,1.008945 v -1.651001 h -0.70556 v -0.289278 h 1.72861 v 0.289278 h -0.70555 v 1.651001 z m 1.42875,0 v -1.940279 h 0.29633 v 0.712611 h 0.19403 q 0.31397,0 0.49389,0.165806 0.18345,0.165806 0.18345,0.448028 0,0.282222 -0.18345,0.448028 -0.17992,0.165806 -0.49389,0.165806 z m 1.397,0 v -1.940279 h 0.29633 v 1.940279 z m -1.10067,-0.254 h 0.19403 q 0.18345,0 0.28928,-0.09525 0.10583,-0.09878 0.10583,-0.264584 0,-0.165806 -0.10583,-0.261056 -0.10583,-0.09878 -0.28928,-0.09878 h -0.19403 z m 1.93323,0.254 v -1.940279 h 0.30339 v 1.044223 q 0,0.151694 -0.007,0.313972 -0.004,0.162278 -0.0317,0.264584 l 0.80786,-1.622779 h 0.39512 v 1.940279 h -0.30339 v -1.047751 q 0,-0.155222 0.004,-0.3175 0.007,-0.162278 0.0353,-0.264584 l -0.80786,1.629835 z m 0.73378,-2.257779 q -0.254,0 -0.40923,-0.141112 -0.15522,-0.141111 -0.15522,-0.370417 h 0.25047 q 0,0.137584 0.0847,0.222251 0.0847,0.08467 0.22578,0.08467 0.14464,0 0.2293,-0.08467 0.0882,-0.08467 0.0882,-0.222251 h 0.25047 q 0,0.229306 -0.15522,0.370417 -0.15522,0.141112 -0.40922,0.141112 z m 4.26156,2.293057 q -0.35278,0 -0.56445,-0.197556 -0.21166,-0.197556 -0.21166,-0.543278 v -0.529167 q 0,-0.345723 0.21166,-0.543278 0.21167,-0.197556 0.56445,-0.197556 0.33514,0 0.53975,0.179917 0.20814,0.179917 0.21872,0.490361 h -0.3175 q -0.0106,-0.186972 -0.127,-0.28575 -0.11642,-0.102306 -0.31397,-0.102306 -0.20814,0 -0.33514,0.119945 -0.12347,0.116417 -0.12347,0.335139 v 0.532695 q 0,0.218722 0.12347,0.338667 0.127,0.119944 0.33514,0.119944 0.19755,0 0.31397,-0.102305 0.11642,-0.102306 0.127,-0.285751 h 0.3175 q -0.0106,0.310445 -0.21872,0.490362 -0.20461,0.179917 -0.53975,0.179917 z m 1.35467,-0.03528 v -1.940279 h 0.30339 v 1.044223 q 0,0.151694 -0.007,0.313972 -0.004,0.162278 -0.0317,0.264584 l 0.80786,-1.622779 h 0.39511 v 1.940279 h -0.30339 v -1.047751 q 0,-0.155222 0.004,-0.3175 0.007,-0.162278 0.0353,-0.264584 l -0.80786,1.629835 z m 2.26836,0 v -1.940279 h 1.39347 v 0.289278 h -1.07597 v 1.651001 z m 1.96497,0 v -1.940279 h 0.31751 v 0.800806 h 0.83255 v -0.800806 h 0.3175 v 1.940279 h -0.3175 V 37.054495 H 138.799 v 0.850195 z m 2.68112,0.03528 q -0.29986,0 -0.47625,-0.165806 -0.17639,-0.169334 -0.17639,-0.440973 0,-0.179916 0.0811,-0.313972 0.0811,-0.134056 0.22578,-0.208139 0.14464,-0.07761 0.33161,-0.07761 h 0.59972 v -0.151695 q 0,-0.377472 -0.41275,-0.377472 -0.18344,0 -0.29633,0.06703 -0.11289,0.06703 -0.11995,0.186972 h -0.3175 q 0.0176,-0.229306 0.21167,-0.377473 0.19756,-0.151694 0.52211,-0.151694 0.35278,0 0.53975,0.169333 0.1905,0.169334 0.1905,0.472723 v 1.333501 h -0.31397 v -0.352778 h -0.007 q -0.0282,0.179917 -0.17991,0.28575 -0.1517,0.102306 -0.40217,0.102306 z m 0.0776,-0.268112 q 0.23284,0 0.37042,-0.112889 0.13758,-0.112889 0.13758,-0.306917 v -0.271639 h -0.56444 q -0.15523,0 -0.254,0.09525 -0.0952,0.09172 -0.0952,0.246945 0,0.162278 0.10583,0.257528 0.10936,0.09172 0.29986,0.09172 z m 1.23825,0.257528 v -0.296333 h 0.0529 q 0.16228,0 0.22578,-0.127 0.067,-0.127 0.0705,-0.455084 l 0.0212,-1.086556 h 1.3335 v 1.940279 h -0.3175 v -1.651001 h -0.70203 l -0.0176,0.811389 q -0.0106,0.462139 -0.14816,0.663223 -0.13759,0.201083 -0.44803,0.201083 z"
         id="path10" />
      <path
         style="stroke-width:0.5"
         d="m 114.1398,42.314415 v -1.940279 h 1.46755 v 1.940279 h -0.3175 v -1.651001 h -0.83255 v 1.651001 z m 2.11667,0.635 v -2.575279 h 0.3175 v 0.370417 h 0.004 q 0.0247,-0.1905 0.1658,-0.296334 0.14111,-0.109361 0.35983,-0.109361 0.29281,0 0.46567,0.194028 0.17286,0.1905 0.17286,0.525639 v 0.567973 q 0,0.335139 -0.17286,0.529167 -0.17286,0.194028 -0.46567,0.194028 -0.21872,0 -0.35983,-0.109362 -0.14111,-0.109361 -0.1658,-0.296333 h -0.0106 l 0.007,0.440972 v 0.564445 z m 0.74083,-0.874889 q 0.20108,0 0.31397,-0.105834 0.11289,-0.105833 0.11289,-0.342194 v -0.564445 q 0,-0.239889 -0.11289,-0.342195 -0.11289,-0.105833 -0.31397,-0.105833 -0.19403,0 -0.31044,0.123472 -0.11289,0.123472 -0.11289,0.342195 v 0.529167 q 0,0.218722 0.11289,0.342195 0.11641,0.123472 0.31044,0.123472 z m 1.37584,0.239889 v -1.940279 h 0.30339 v 1.044223 q 0,0.151694 -0.007,0.313972 -0.004,0.162278 -0.0318,0.264584 l 0.80786,-1.622779 h 0.39511 v 1.940279 h -0.30339 v -1.047751 q 0,-0.155222 0.004,-0.3175 0.007,-0.162278 0.0353,-0.264584 l -0.80786,1.629835 z m 4.23334,0 v -1.940279 h 0.3175 v 0.800806 h 0.83255 v -0.800806 h 0.3175 v 1.940279 h -0.3175 V 41.46422 h -0.83255 v 0.850195 z m 2.68111,0.03528 q -0.29986,0 -0.47625,-0.165806 -0.17639,-0.169333 -0.17639,-0.440973 0,-0.179916 0.0811,-0.313972 0.0811,-0.134056 0.22578,-0.208139 0.14464,-0.07761 0.33161,-0.07761 h 0.59972 v -0.151695 q 0,-0.377472 -0.41275,-0.377472 -0.18344,0 -0.29633,0.06703 -0.11289,0.06703 -0.11995,0.186972 h -0.3175 q 0.0176,-0.229306 0.21167,-0.377472 0.19756,-0.151695 0.52211,-0.151695 0.35278,0 0.53975,0.169333 0.1905,0.169334 0.1905,0.472723 v 1.333501 h -0.31397 v -0.352778 h -0.007 q -0.0282,0.179917 -0.17991,0.28575 -0.1517,0.102306 -0.40217,0.102306 z m 0.0776,-0.268112 q 0.23283,0 0.37042,-0.112889 0.13758,-0.112889 0.13758,-0.306916 v -0.27164 h -0.56444 q -0.15523,0 -0.254,0.09525 -0.0953,0.09172 -0.0953,0.246944 0,0.162278 0.10583,0.257528 0.10936,0.09172 0.29986,0.09172 z m 1.23825,0.257528 v -0.296333 h 0.0529 q 0.16228,0 0.22578,-0.127 0.067,-0.127 0.0705,-0.455084 l 0.0212,-1.086556 h 1.3335 v 1.940279 h -0.3175 v -1.651001 h -0.70203 l -0.0176,0.811389 q -0.0106,0.462139 -0.14816,0.663223 -0.13759,0.201083 -0.44803,0.201083 z m 2.35303,-0.02469 v -1.940279 h 0.30339 v 1.044223 q 0,0.151694 -0.007,0.313972 -0.004,0.162278 -0.0318,0.264584 l 0.80786,-1.622779 h 0.39511 v 1.940279 h -0.30339 v -1.047751 q 0,-0.155222 0.004,-0.3175 0.007,-0.162278 0.0353,-0.264584 l -0.80787,1.629835 z m 3.23851,0 v -0.673806 h -0.51859 q -0.29986,0 -0.47625,-0.15875 -0.17639,-0.15875 -0.17639,-0.426862 v -0.680861 h 0.3175 v 0.680861 q 0,0.137584 0.0917,0.218723 0.0953,0.08114 0.254,0.08114 h 0.508 v -0.980723 h 0.3175 v 1.940279 z m 0.99483,0 v -1.940279 h 0.30339 v 1.044223 q 0,0.151694 -0.007,0.313972 -0.004,0.162278 -0.0318,0.264584 l 0.80786,-1.622779 h 0.39511 v 1.940279 h -0.30339 v -1.047751 q 0,-0.155222 0.004,-0.3175 0.007,-0.162278 0.0353,-0.264584 l -0.80786,1.629835 z m 2.11667,0 v -1.940279 h 0.30339 v 1.044223 q 0,0.151694 -0.007,0.313972 -0.004,0.162278 -0.0318,0.264584 l 0.80786,-1.622779 h 0.39511 v 1.940279 h -0.30339 v -1.047751 q 0,-0.155222 0.004,-0.3175 0.007,-0.162278 0.0353,-0.264584 l -0.80787,1.629835 z m 4.80837,0 v -2.286002 h -0.70556 v -0.289278 h 1.72861 v 0.289278 h -0.70555 v 2.286002 z m 1.54517,0 v -2.57528 h 0.3175 v 1.100668 h 0.8255 v -1.100668 h 0.3175 v 2.57528 h -0.3175 v -1.185334 h -0.8255 v 1.185334 z"
         id="path11" />
    </g>
    <g
       id="text2-9"
       style="font-size:3.52778px;font-family:'JetBrains Mono';-inkscape-font-specification:'JetBrains Mono, Normal';text-align:center;text-anchor:middle;stroke-width:0.499999;stroke-linecap:square;stroke-dasharray:1.5, 0.499999"
       aria-label="Принятый сигнал&#10;при отсутствии ТН">
      <path
         style="stroke-width:0.5"
         d="m 58.307673,37.90469 v -2.57528 h 1.453445 v 2.57528 h -0.3175 v -2.286002 h -0.818445 v 2.286002 z m 2.109614,0.635 v -2.575279 h 0.3175 v 0.370417 h 0.0035 q 0.02469,-0.1905 0.165805,-0.296334 0.141112,-0.109361 0.359834,-0.109361 0.292806,0 0.465667,0.194028 0.172861,0.1905 0.172861,0.525639 v 0.567973 q 0,0.335139 -0.172861,0.529167 -0.172861,0.194028 -0.465667,0.194028 -0.218722,0 -0.359834,-0.109362 -0.141111,-0.109361 -0.165805,-0.296333 h -0.01058 l 0.0071,0.440972 v 0.564445 z m 0.740833,-0.874889 q 0.201084,0 0.313973,-0.105834 0.112889,-0.105833 0.112889,-0.342194 v -0.564445 q 0,-0.239889 -0.112889,-0.342195 Q 61.359204,36.2043 61.15812,36.2043 q -0.194027,0 -0.310444,0.123472 -0.112889,0.123472 -0.112889,0.342195 v 0.529167 q 0,0.218722 0.112889,0.342194 0.116417,0.123473 0.310444,0.123473 z m 1.375836,0.239889 v -1.940279 h 0.303389 v 1.044223 q 0,0.151694 -0.0071,0.313972 -0.0035,0.162278 -0.03175,0.264584 l 0.807861,-1.622779 h 0.395112 v 1.940279 h -0.303389 v -1.047751 q 0,-0.155222 0.0035,-0.3175 0.0071,-0.162278 0.03528,-0.264584 l -0.807862,1.629835 z m 2.116669,0 v -1.940279 h 0.3175 v 0.800806 h 0.832557 v -0.800806 h 0.3175 v 1.940279 h -0.3175 v -0.850195 h -0.832557 v 0.850195 z m 2.014364,0 0.497417,-0.754945 q -0.204611,-0.04939 -0.328083,-0.204611 -0.123473,-0.15875 -0.123473,-0.373945 0,-0.282222 0.190501,-0.4445 0.1905,-0.162278 0.515055,-0.162278 h 0.818445 v 1.940279 h -0.3175 v -0.733778 h -0.409222 l -0.458612,0.733778 z m 0.751417,-1.008945 h 0.500945 v -0.65264 h -0.500945 q -0.172861,0 -0.278694,0.08819 -0.102306,0.08467 -0.102306,0.239889 0,0.151694 0.102306,0.239889 0.105833,0.08467 0.278694,0.08467 z m 2.042587,1.008945 v -1.651001 h -0.705556 v -0.289278 h 1.728612 v 0.289278 h -0.705556 v 1.651001 z m 1.428751,0 v -1.940279 h 0.296334 v 0.712611 h 0.194028 q 0.313972,0 0.493889,0.165806 0.183445,0.165806 0.183445,0.448028 0,0.282222 -0.183445,0.448028 -0.179917,0.165806 -0.493889,0.165806 z m 1.397001,0 v -1.940279 h 0.296334 v 1.940279 z m -1.100667,-0.254 h 0.194028 q 0.183444,0 0.289278,-0.09525 0.105833,-0.09878 0.105833,-0.264584 0,-0.165806 -0.105833,-0.261056 -0.105834,-0.09878 -0.289278,-0.09878 h -0.194028 z m 1.933225,0.254 v -1.940279 h 0.303389 v 1.044223 q 0,0.151694 -0.0071,0.313972 -0.0035,0.162278 -0.03175,0.264584 l 0.807862,-1.622779 h 0.395111 V 37.90469 H 74.28147 v -1.047751 q 0,-0.155222 0.0035,-0.3175 0.0071,-0.162278 0.03528,-0.264584 l -0.807862,1.629835 z m 0.733778,-2.257779 q -0.254,0 -0.409222,-0.141112 -0.155223,-0.141111 -0.155223,-0.370417 h 0.250473 q 0,0.137584 0.08467,0.222251 0.08467,0.08467 0.225778,0.08467 0.144639,0 0.229306,-0.08467 0.08819,-0.08467 0.08819,-0.222251 h 0.250472 q 0,0.229306 -0.155222,0.370417 -0.155223,0.141112 -0.409223,0.141112 z m 4.261561,2.293057 q -0.352778,0 -0.564445,-0.197556 -0.211667,-0.197556 -0.211667,-0.543278 v -0.529167 q 0,-0.345723 0.211667,-0.543278 0.211667,-0.197556 0.564445,-0.197556 0.335139,0 0.53975,0.179917 0.208139,0.179917 0.218723,0.490361 h -0.317501 q -0.01058,-0.186972 -0.127,-0.28575 -0.116417,-0.102306 -0.313972,-0.102306 -0.208139,0 -0.335139,0.119945 -0.123473,0.116417 -0.123473,0.335139 v 0.532695 q 0,0.218722 0.123473,0.338667 0.127,0.119944 0.335139,0.119944 0.197555,0 0.313972,-0.102305 0.116417,-0.102306 0.127,-0.285751 h 0.317501 q -0.01058,0.310445 -0.218723,0.490362 -0.204611,0.179917 -0.53975,0.179917 z m 1.35467,-0.03528 v -1.940279 h 0.303389 v 1.044223 q 0,0.151694 -0.0071,0.313972 -0.0035,0.162278 -0.03175,0.264584 l 0.807862,-1.622779 h 0.395111 v 1.940279 h -0.303389 v -1.047751 q 0,-0.155222 0.0035,-0.3175 0.0071,-0.162278 0.03528,-0.264584 l -0.807862,1.629835 z m 2.268363,0 v -1.940279 h 1.393473 v 0.289278 h -1.075973 v 1.651001 z m 1.964974,0 v -1.940279 h 0.317501 v 0.800806 h 0.832556 v -0.800806 h 0.3175 v 1.940279 h -0.3175 V 37.054495 H 84.01815 v 0.850195 z m 2.681116,0.03528 q -0.299862,0 -0.476251,-0.165806 -0.176389,-0.169334 -0.176389,-0.440973 0,-0.179916 0.08114,-0.313972 0.08114,-0.134056 0.225778,-0.208139 0.144639,-0.07761 0.331612,-0.07761 h 0.599722 v -0.151695 q 0,-0.377472 -0.41275,-0.377472 -0.183445,0 -0.296334,0.06703 -0.112889,0.06703 -0.119944,0.186972 h -0.3175 q 0.01764,-0.229306 0.211667,-0.377473 0.197555,-0.151694 0.522111,-0.151694 0.352778,0 0.53975,0.169333 0.1905,0.169334 0.1905,0.472723 v 1.333501 h -0.313972 v -0.352778 h -0.0071 q -0.02822,0.179917 -0.179916,0.28575 -0.151695,0.102306 -0.402167,0.102306 z m 0.07761,-0.268112 q 0.232833,0 0.370417,-0.112889 0.137583,-0.112889 0.137583,-0.306917 v -0.271639 h -0.564445 q -0.155222,0 -0.254,0.09525 -0.09525,0.09172 -0.09525,0.246945 0,0.162278 0.105834,0.257528 0.109361,0.09172 0.299861,0.09172 z m 1.238251,0.257528 v -0.296333 h 0.05292 q 0.162278,0 0.225778,-0.127 0.06703,-0.127 0.07056,-0.455084 l 0.02117,-1.086556 h 1.333501 v 1.940279 h -0.3175 v -1.651001 h -0.702028 l -0.01764,0.811389 q -0.01058,0.462139 -0.148167,0.663223 -0.137583,0.201083 -0.448028,0.201083 z"
         id="path3" />
      <path
         style="stroke-width:0.5"
         d="m 56.183948,42.314415 v -1.940279 h 1.467556 v 1.940279 h -0.3175 v -1.651001 h -0.832556 v 1.651001 z m 2.116669,0.635 v -2.575279 h 0.317501 v 0.370417 h 0.0035 q 0.0247,-0.1905 0.165806,-0.296334 0.141111,-0.109361 0.359834,-0.109361 0.292805,0 0.465666,0.194028 0.172862,0.1905 0.172862,0.525639 v 0.567973 q 0,0.335139 -0.172862,0.529167 -0.172861,0.194028 -0.465666,0.194028 -0.218723,0 -0.359834,-0.109362 -0.141111,-0.109361 -0.165806,-0.296333 h -0.01058 l 0.0071,0.440972 v 0.564445 z m 0.740834,-0.874889 q 0.201084,0 0.313973,-0.105834 0.112889,-0.105833 0.112889,-0.342194 v -0.564445 q 0,-0.239889 -0.112889,-0.342195 -0.112889,-0.105833 -0.313973,-0.105833 -0.194028,0 -0.310445,0.123472 -0.112888,0.123472 -0.112888,0.342195 v 0.529167 q 0,0.218722 0.112888,0.342195 0.116417,0.123472 0.310445,0.123472 z m 1.375836,0.239889 v -1.940279 h 0.303389 v 1.044223 q 0,0.151694 -0.0071,0.313972 -0.0035,0.162278 -0.03175,0.264584 l 0.807862,-1.622779 h 0.395111 v 1.940279 h -0.303389 v -1.047751 q 0,-0.155222 0.0035,-0.3175 0.0071,-0.162278 0.03528,-0.264584 l -0.807862,1.629835 z m 4.967117,0.02822 q -0.34925,0 -0.557389,-0.204611 -0.204612,-0.204611 -0.204612,-0.571501 v -0.4445 q 0,-0.370417 0.204612,-0.5715 0.204611,-0.204611 0.557389,-0.204611 0.352778,0 0.557389,0.204611 0.204611,0.201083 0.204611,0.5715 v 0.4445 q 0,0.36689 -0.208139,0.571501 -0.204611,0.204611 -0.553861,0.204611 z m 0,-0.282222 q 0.208139,0 0.324556,-0.116417 0.119944,-0.116417 0.119944,-0.342195 v -0.515056 q 0,-0.225778 -0.119944,-0.342194 -0.116417,-0.116417 -0.324556,-0.116417 -0.204611,0 -0.324556,0.116417 -0.119944,0.116416 -0.119944,0.342194 v 0.515056 q 0,0.225778 0.119944,0.342195 0.119945,0.116417 0.324556,0.116417 z m 1.957919,0.254 v -1.651001 h -0.705556 v -0.289278 h 1.728613 v 0.289278 h -0.705556 v 1.651001 z m 2.303641,0.03528 q -0.352778,0 -0.564444,-0.197556 -0.211667,-0.197556 -0.211667,-0.543278 v -0.529167 q 0,-0.345723 0.211667,-0.543278 0.211666,-0.197556 0.564444,-0.197556 0.33514,0 0.539751,0.179917 0.208139,0.179917 0.218722,0.490361 h -0.3175 q -0.01058,-0.186972 -0.127,-0.28575 -0.116417,-0.102306 -0.313973,-0.102306 -0.208139,0 -0.335139,0.119945 -0.123472,0.116417 -0.123472,0.335139 v 0.532695 q 0,0.218722 0.123472,0.338667 0.127,0.119944 0.335139,0.119944 0.197556,0 0.313973,-0.102305 0.116417,-0.102306 0.127,-0.285751 h 0.3175 q -0.01058,0.310445 -0.218722,0.490362 -0.204611,0.179917 -0.539751,0.179917 z m 1.658059,0.599722 0.28575,-0.754945 -0.723195,-1.820334 h 0.342195 l 0.458611,1.199445 q 0.02822,0.07056 0.05292,0.148167 0.02469,0.07761 0.03528,0.134055 0.01058,-0.05644 0.03528,-0.134055 0.02469,-0.07761 0.04939,-0.148167 l 0.426862,-1.199445 h 0.335139 l -0.966612,2.575279 z m 2.388308,-0.635 v -1.651001 h -0.705556 v -0.289278 h 1.728613 v 0.289278 h -0.705556 v 1.651001 z m 2.303641,0.03528 q -0.352778,0 -0.564444,-0.197556 -0.211667,-0.197556 -0.211667,-0.543278 v -0.529167 q 0,-0.345723 0.211667,-0.543278 0.211666,-0.197556 0.564444,-0.197556 0.33514,0 0.539751,0.179917 0.208139,0.179917 0.218722,0.490361 h -0.3175 q -0.01058,-0.186972 -0.127,-0.28575 -0.116417,-0.102306 -0.313973,-0.102306 -0.208139,0 -0.335139,0.119945 -0.123472,0.116417 -0.123472,0.335139 v 0.532695 q 0,0.218722 0.123472,0.338667 0.127,0.119944 0.335139,0.119944 0.197556,0 0.313973,-0.102305 0.116417,-0.102306 0.127,-0.285751 h 0.3175 q -0.01058,0.310445 -0.218722,0.490362 -0.204611,0.179917 -0.539751,0.179917 z m 1.929699,-0.03528 v -1.651001 h -0.705556 v -0.289278 h 1.728612 v 0.289278 h -0.705556 v 1.651001 z m 1.54164,0 v -1.940279 h 0.850195 q 0.292806,0 0.462139,0.130528 0.169334,0.130528 0.169334,0.356305 0,0.162278 -0.112889,0.275167 -0.109361,0.109362 -0.28575,0.123473 v 0.01411 q 0.211667,0.01411 0.328083,0.148167 0.116417,0.134055 0.116417,0.345722 0,0.250472 -0.179917,0.398639 -0.179917,0.148167 -0.486833,0.148167 z m 0.310445,-1.12889 h 0.53975 q 0.148167,0 0.232834,-0.07055 0.08467,-0.07056 0.08467,-0.197556 0,-0.123472 -0.08467,-0.194028 -0.08467,-0.07056 -0.232834,-0.07056 h -0.53975 z m 0,0.850195 h 0.550334 q 0.165805,0 0.257528,-0.07761 0.09525,-0.07761 0.09525,-0.218722 0,-0.137584 -0.09525,-0.215195 -0.09172,-0.07761 -0.257528,-0.07761 h -0.550334 z m 1.806224,0.278695 v -1.940279 h 0.303389 v 1.044223 q 0,0.151694 -0.0071,0.313972 -0.0035,0.162278 -0.03175,0.264584 l 0.807862,-1.622779 h 0.395111 v 1.940279 h -0.303389 v -1.047751 q 0,-0.155222 0.0035,-0.3175 0.0071,-0.162278 0.03528,-0.264584 l -0.807862,1.629835 z m 2.116671,0 v -1.940279 h 0.303389 v 1.044223 q 0,0.151694 -0.0071,0.313972 -0.0035,0.162278 -0.03175,0.264584 l 0.807862,-1.622779 h 0.395111 v 1.940279 h -0.303389 v -1.047751 q 0,-0.155222 0.0035,-0.3175 0.0071,-0.162278 0.03528,-0.264584 l -0.807862,1.629835 z m 4.808367,0 v -2.286002 h -0.705556 v -0.289278 h 1.728612 v 0.289278 h -0.705556 v 2.286002 z m 1.545168,0 v -2.57528 h 0.317501 v 1.100668 h 0.8255 v -1.100668 h 0.3175 v 2.57528 h -0.3175 v -1.185334 h -0.8255 v 1.185334 z"
         id="path4" />
    </g>
    <path
       style="fill:none;fill-opacity:1;stroke:#000000;stroke-width:0.5;stroke-linecap:square;stroke-dasharray:none;stroke-dashoffset:0;stroke-opacity:1;marker-end:url(#Triangle)"
       d="M 84.809248,43.443938 94.37089,55.333802"
       id="path5"
       sodipodi:nodetypes="cc" />
    <path
       style="fill:none;fill-opacity:1;stroke:#b2b2b2;stroke-width:0.5;stroke-linecap:square;stroke-dasharray:none;stroke-dashoffset:0;stroke-opacity:1;marker-end:url(#Triangle-0)"
       d="m 128.74014,43.646039 -8.06399,11.783497"
       id="path5-7"
       sodipodi:nodetypes="cc" />
    <path
       style="fill:none;fill-opacity:1;stroke:#000000;stroke-width:0.3;stroke-linecap:square;stroke-dasharray:none;stroke-dashoffset:0;stroke-opacity:1;marker-end:url(#DartArrow)"
       d="m 95.040245,49.62125 h 2.704863"
       id="path8"
       sodipodi:nodetypes="cc" />
    <path
       style="fill:none;stroke:#808080;stroke-width:0.5;stroke-linecap:square;stroke-dasharray:1, 1;stroke-dashoffset:0;stroke-opacity:1"
       d="M 100.00195,42.830094 V 75.382747"
       id="path2"
       sodipodi:nodetypes="cc" />
    <path
       style="fill:#000000;fill-opacity:1;stroke:#000000;stroke-width:0.5;stroke-linecap:square;stroke-dasharray:none;stroke-opacity:1;marker-end:url(#ConcaveTriangle)"
       d="M 76.609174,75.385382 H 133.68812"
       id="path1"
       sodipodi:nodetypes="cc" />
    <path
       style="font-size:3.52778px;font-family:'JetBrains Mono';-inkscape-font-specification:'JetBrains Mono, Normal';text-align:center;text-anchor:middle;stroke-width:0.1;stroke-linecap:square;stroke-dasharray:0.2, 0.4"
       d="m 95.261978,48.219028 1.093612,-2.151946 1.093612,2.151946 z m 0.292806,-0.176389 h 1.601612 L 96.35559,46.465721 Z m 3.111503,0.388056 q -0.239889,0 -0.384528,-0.137584 Q 98.13712,48.152 98.13712,47.919166 V 46.779694 H 97.579731 V 46.490416 H 98.13712 V 45.94361 h 0.3175 v 0.546806 h 0.793751 v 0.289278 H 98.45462 v 1.139472 q 0,0.09878 0.05644,0.162278 0.05997,0.05997 0.155222,0.05997 h 0.564445 v 0.289278 z"
       id="text1"
       aria-label="△t" />
  </g>
</svg>
