<?xml version="1.0" encoding="UTF-8" standalone="no"?>
<!-- Created with Inkscape (http://www.inkscape.org/) -->

<svg
   width="151.05313mm"
   height="66.506622mm"
   viewBox="0 0 151.05313 66.506622"
   version="1.1"
   id="svg1"
   inkscape:version="1.3.2 (091e20e, 2023-11-25, custom)"
   sodipodi:docname="recv_signal.svg"
   inkscape:export-filename="recv_signal.png"
   inkscape:export-xdpi="600"
   inkscape:export-ydpi="600"
   xmlns:inkscape="http://www.inkscape.org/namespaces/inkscape"
   xmlns:sodipodi="http://sodipodi.sourceforge.net/DTD/sodipodi-0.dtd"
   xmlns="http://www.w3.org/2000/svg"
   xmlns:svg="http://www.w3.org/2000/svg">
  <sodipodi:namedview
     id="namedview1"
     pagecolor="#ffffff"
     bordercolor="#000000"
     borderopacity="0.25"
     inkscape:showpageshadow="2"
     inkscape:pageopacity="0.0"
     inkscape:pagecheckerboard="0"
     inkscape:deskcolor="#d1d1d1"
     inkscape:document-units="mm"
     inkscape:zoom="0.97890838"
     inkscape:cx="200.7338"
     inkscape:cy="181.32443"
     inkscape:window-width="1920"
     inkscape:window-height="991"
     inkscape:window-x="-9"
     inkscape:window-y="1341"
     inkscape:window-maximized="1"
     inkscape:current-layer="layer1"
     inkscape:export-bgcolor="#ffffffff" />
  <defs
     id="defs1">
    <marker
       style="overflow:visible"
       id="marker8"
       refX="0"
       refY="0"
       orient="auto-start-reverse"
       inkscape:stockid="Concave triangle arrow"
       markerWidth="1"
       markerHeight="1"
       viewBox="0 0 1 1"
       inkscape:isstock="true"
       inkscape:collect="always"
       preserveAspectRatio="xMidYMid">
      <path
         transform="scale(0.7)"
         d="M -2,-4 9,0 -2,4 c 2,-2.33 2,-5.66 0,-8 z"
         style="fill:context-stroke;fill-rule:evenodd;stroke:none"
         id="path8" />
    </marker>
    <marker
       style="overflow:visible"
       id="Triangle"
       refX="0"
       refY="0"
       orient="auto-start-reverse"
       inkscape:stockid="Triangle arrow"
       markerWidth="1.2"
       markerHeight="1.2"
       viewBox="0 0 1 1"
       inkscape:isstock="true"
       inkscape:collect="always"
       preserveAspectRatio="xMidYMid">
      <path
         transform="scale(0.5)"
         style="fill:context-stroke;fill-rule:evenodd;stroke:context-stroke;stroke-width:1pt"
         d="M 5.77,0 -2.88,5 V -5 Z"
         id="path135" />
    </marker>
    <marker
       style="overflow:visible"
       id="ConcaveTriangle"
       refX="0"
       refY="0"
       orient="auto-start-reverse"
       inkscape:stockid="Concave triangle arrow"
       markerWidth="1"
       markerHeight="1"
       viewBox="0 0 1 1"
       inkscape:isstock="true"
       inkscape:collect="always"
       preserveAspectRatio="xMidYMid">
      <path
         transform="scale(0.7)"
         d="M -2,-4 9,0 -2,4 c 2,-2.33 2,-5.66 0,-8 z"
         style="fill:context-stroke;fill-rule:evenodd;stroke:none"
         id="path7" />
    </marker>
    <marker
       style="overflow:visible"
       id="Triangle-2"
       refX="0"
       refY="0"
       orient="auto-start-reverse"
       inkscape:stockid="Triangle arrow"
       markerWidth="1.2"
       markerHeight="1.2"
       viewBox="0 0 1 1"
       inkscape:isstock="true"
       inkscape:collect="always"
       preserveAspectRatio="xMidYMid">
      <path
         transform="scale(0.5)"
         style="fill:context-stroke;fill-rule:evenodd;stroke:context-stroke;stroke-width:1pt"
         d="M 5.77,0 -2.88,5 V -5 Z"
         id="path135-6" />
    </marker>
    <marker
       style="overflow:visible"
       id="ConcaveTriangle-9"
       refX="0"
       refY="0"
       orient="auto-start-reverse"
       inkscape:stockid="Concave triangle arrow"
       markerWidth="1"
       markerHeight="1"
       viewBox="0 0 1 1"
       inkscape:isstock="true"
       inkscape:collect="always"
       preserveAspectRatio="xMidYMid">
      <path
         transform="scale(0.7)"
         d="M -2,-4 9,0 -2,4 c 2,-2.33 2,-5.66 0,-8 z"
         style="fill:context-stroke;fill-rule:evenodd;stroke:none"
         id="path7-2" />
    </marker>
  </defs>
  <g
     inkscape:label="Слой 1"
     inkscape:groupmode="layer"
     id="layer1"
     transform="translate(-32.291335,-21.068836)">
    <path
       style="fill:#000000;fill-opacity:1;stroke:#000000;stroke-width:0.5;stroke-linecap:square;stroke-dasharray:none;stroke-opacity:1;marker-end:url(#ConcaveTriangle)"
       d="M 32.644596,75.4754 H 174.4554"
       id="path1" />
    <path
       style="fill:#000000;fill-opacity:1;stroke:#000000;stroke-width:0.3;stroke-linecap:square;stroke-dasharray:none;stroke-opacity:1;marker-start:url(#marker8);marker-end:url(#ConcaveTriangle-9)"
       d="M 34.984788,79.358431 H 78.564047"
       id="path1-6"
       sodipodi:nodetypes="cc" />
    <path
       d="m 168.28437,82.189156 v -3.862919 h 1.18534 q 0.55562,0 0.8837,0.269875 0.33338,0.269875 0.33338,0.724959 0,0.3175 -0.18521,0.545042 -0.17992,0.227541 -0.47096,0.275166 v 0.01058 q 0.21696,0.02646 0.38629,0.15875 0.16934,0.127 0.26459,0.333375 0.0952,0.201083 0.0952,0.4445 0,0.333375 -0.15346,0.582084 -0.15346,0.248708 -0.43392,0.386292 -0.28046,0.132292 -0.66146,0.132292 z m 0.64559,-2.270127 h 0.52916 q 0.25929,0 0.41275,-0.137583 0.15346,-0.142875 0.15346,-0.386292 0,-0.238125 -0.15346,-0.375709 -0.14816,-0.142875 -0.41275,-0.142875 h -0.52916 z m 0,1.719793 h 0.56091 q 0.29104,0 0.45509,-0.153459 0.16933,-0.15875 0.16933,-0.428625 0,-0.269875 -0.16933,-0.433917 -0.16405,-0.169333 -0.45509,-0.169333 h -0.56091 z m 2.52942,1.502834 v -3.862919 h 0.64558 v 0.534459 q 0.0794,-0.275167 0.28575,-0.428625 0.20637,-0.158751 0.51329,-0.158751 0.28046,0 0.49213,0.137584 0.21696,0.137583 0.33337,0.391583 0.12171,0.248709 0.12171,0.582084 v 0.788459 q 0,0.502709 -0.25929,0.809625 -0.25929,0.306917 -0.68792,0.306917 -0.30692,0 -0.51858,-0.15875 -0.20638,-0.15875 -0.28575,-0.4445 l 0.0212,0.687917 v 0.814917 z m 1.19591,-1.471084 q 0.254,0 0.39159,-0.137583 0.14287,-0.137584 0.14287,-0.423334 v -0.751417 q 0,-0.28575 -0.14287,-0.423334 -0.13759,-0.137583 -0.39159,-0.137583 -0.254,0 -0.39687,0.153458 -0.13759,0.153459 -0.13759,0.433917 v 0.698501 q 0,0.280458 0.13759,0.433917 0.14287,0.153458 0.39687,0.153458 z m 3.16442,0.5715 q -0.37041,0 -0.64558,-0.142875 -0.27517,-0.142875 -0.42863,-0.402167 -0.14816,-0.264583 -0.14816,-0.619125 v -0.687917 q 0,-0.354542 0.14816,-0.613834 0.15346,-0.264583 0.42863,-0.407458 0.27517,-0.142876 0.64558,-0.142876 0.36513,0 0.635,0.142876 0.27517,0.142875 0.42334,0.402166 0.15346,0.254001 0.15346,0.597959 v 0.529167 h -1.79917 v 0.201084 q 0,0.296333 0.15346,0.449792 0.15345,0.148166 0.43391,0.148166 0.20638,0 0.34925,-0.06879 0.14817,-0.07408 0.17463,-0.211667 h 0.65617 q -0.0688,0.375708 -0.39159,0.60325 -0.32279,0.22225 -0.78846,0.22225 z m -0.58737,-1.873251 v 0.100542 l 1.16417,-0.0053 v -0.100542 q 0,-0.301625 -0.14817,-0.465666 -0.14817,-0.164042 -0.42863,-0.164042 -0.29104,0 -0.43921,0.169333 -0.14816,0.164042 -0.14816,0.465667 z m 2.45533,1.820335 v -2.910419 h 0.8308 l 0.46566,1.375834 0.46567,-1.375834 h 0.84138 v 2.910419 h -0.61384 v -0.497417 q 0,-0.259292 0,-0.550334 0,-0.291042 0.005,-0.582084 0.005,-0.291042 0.0212,-0.53975 0.0159,-0.254 0.0476,-0.428625 l -0.508,1.555751 h -0.52917 l -0.49742,-1.476376 q 0.0423,0.216958 0.0582,0.555625 0.0212,0.333375 0.0212,0.719667 0.005,0.381 0.005,0.746126 v 0.497417 z m 3.1803,0 0.68263,-1.068918 q -0.29105,-0.08996 -0.46038,-0.3175 -0.16404,-0.232833 -0.16404,-0.550334 0,-0.455083 0.30692,-0.714375 0.30691,-0.259292 0.84666,-0.259292 h 1.26471 v 2.910419 h -0.66146 v -1.005418 h -0.46037 l -0.59267,1.005418 z m 1.23825,-1.51871 h 0.57679 v -0.851959 h -0.57679 q -0.23812,0 -0.381,0.116417 -0.13758,0.111125 -0.13758,0.312209 0,0.201083 0.13758,0.312208 0.13758,0.111125 0.381,0.111125 z"
       id="text1"
       style="font-weight:bold;font-size:5.29167px;font-family:'JetBrains Mono';-inkscape-font-specification:'JetBrains Mono, Bold';font-variant-position:sub;text-align:center;text-anchor:middle;stroke-width:0.5;stroke-linecap:square"
       aria-label="Время" />
    <path
       d="m 52.33043,84.27581 v -3.862919 h 1.243542 q 0.53975,0 0.857251,0.312209 0.322792,0.306917 0.322792,0.8255 0,0.518584 -0.322792,0.830792 -0.317501,0.306917 -0.857251,0.306917 H 52.80668 v 1.587501 z m 0.47625,-2.016126 h 0.767292 q 0.312209,0 0.497417,-0.1905 0.1905,-0.195792 0.1905,-0.518584 0,-0.328083 -0.1905,-0.518583 -0.185208,-0.1905 -0.497417,-0.1905 H 52.80668 Z m 2.704045,2.016126 v -3.862919 h 1.190626 q 0.343959,0 0.60325,0.142875 0.259292,0.137584 0.402167,0.386292 0.142875,0.248709 0.142875,0.582084 0,0.391583 -0.201083,0.672042 -0.201083,0.280458 -0.534459,0.391584 l 0.788459,1.688042 h -0.523875 l -0.756709,-1.640417 h -0.640292 v 1.640417 z m 0.470959,-2.069043 h 0.719667 q 0.296334,0 0.47625,-0.185208 0.179917,-0.1905 0.179917,-0.497417 0,-0.312209 -0.179917,-0.497417 -0.179916,-0.185208 -0.47625,-0.185208 h -0.719667 z m 2.767545,2.069043 v -0.433917 h 0.788459 v -2.995085 h -0.788459 v -0.433917 h 2.063752 v 0.433917 h -0.788459 v 2.995085 h 0.788459 v 0.433917 z"
       id="text1-4"
       style="font-size:5.29167px;font-family:'JetBrains Mono';-inkscape-font-specification:'JetBrains Mono, Normal';font-variant-position:sub;text-align:center;text-anchor:middle;stroke-width:0.5;stroke-linecap:square"
       aria-label="PRI" />
    <g
       id="g2">
      <rect
         style="fill:none;fill-opacity:1;stroke:#000000;stroke-width:0.500445;stroke-linecap:square;stroke-dasharray:none;stroke-opacity:1"
         id="rect1"
         width="7.2102499"
         height="25.72678"
         x="32.541557"
         y="49.741024" />
      <rect
         style="fill:none;fill-opacity:1;stroke:#000000;stroke-width:0.5;stroke-linecap:square;stroke-dasharray:none;stroke-opacity:1"
         id="rect2"
         width="29.537685"
         height="17.63205"
         x="45.883072"
         y="57.880394" />
    </g>
    <g
       id="g4"
       transform="translate(48.418764)">
      <rect
         style="fill:none;fill-opacity:1;stroke:#000000;stroke-width:0.500445;stroke-linecap:square;stroke-dasharray:none;stroke-opacity:1"
         id="rect3"
         width="7.2102499"
         height="25.72678"
         x="32.541557"
         y="49.741024" />
      <rect
         style="fill:none;fill-opacity:1;stroke:#000000;stroke-width:0.5;stroke-linecap:square;stroke-dasharray:none;stroke-opacity:1"
         id="rect4"
         width="29.537685"
         height="17.63205"
         x="45.883072"
         y="57.880394" />
    </g>
    <g
       id="g6"
       transform="translate(96.837528)">
      <rect
         style="fill:none;fill-opacity:1;stroke:#000000;stroke-width:0.500445;stroke-linecap:square;stroke-dasharray:none;stroke-opacity:1"
         id="rect5"
         width="7.2102499"
         height="25.72678"
         x="32.541557"
         y="49.741024" />
      <rect
         style="fill:none;fill-opacity:1;stroke:#000000;stroke-width:0.5;stroke-linecap:square;stroke-dasharray:none;stroke-opacity:1"
         id="rect6"
         width="29.537685"
         height="17.63205"
         x="45.883072"
         y="57.880394" />
    </g>
    <g
       id="text1-5"
       style="font-weight:bold;font-size:5.29167px;font-family:'JetBrains Mono';-inkscape-font-specification:'JetBrains Mono, Bold';font-variant-position:sub;text-align:center;text-anchor:middle;stroke-width:0.5;stroke-linecap:square"
       aria-label="Окно излучения&#10;сигнала">
      <path
         d="m 38.465478,25.281005 q -0.555625,0 -0.883709,-0.3175 -0.322792,-0.3175 -0.322792,-0.878417 V 22.50817 q 0,-0.560917 0.322792,-0.878417 0.328084,-0.3175 0.883709,-0.3175 0.555625,0 0.878417,0.3175 0.328084,0.3175 0.328084,0.873125 v 1.58221 q 0,0.560917 -0.328084,0.878417 -0.322792,0.3175 -0.878417,0.3175 z m 0,-0.582084 q 0.269875,0 0.407459,-0.142875 0.137583,-0.148166 0.137583,-0.418042 v -1.682751 q 0,-0.269875 -0.137583,-0.41275 -0.137584,-0.148167 -0.407459,-0.148167 -0.269875,0 -0.407459,0.148167 -0.137583,0.142875 -0.137583,0.41275 v 1.682751 q 0,0.269876 0.137583,0.418042 0.137584,0.142875 0.407459,0.142875 z m 2.042587,0.529167 V 22.31767 h 0.661458 v 1.121834 h 0.465667 l 0.666751,-1.121834 h 0.746125 l -0.846667,1.407584 0.899584,1.502834 H 42.344274 L 41.63519,24.037463 h -0.465667 v 1.190625 z m 3.127379,0 V 22.31767 h 0.661458 v 1.121834 H 45.33407 V 22.31767 h 0.661458 v 2.910418 H 45.33407 v -1.190625 h -1.037168 v 1.190625 z m 4.355046,0.04763 q -0.560917,0 -0.889001,-0.312208 -0.328083,-0.3175 -0.328083,-0.851959 v -0.677334 q 0,-0.53975 0.328083,-0.851959 0.328084,-0.312208 0.889001,-0.312208 0.560917,0 0.889,0.312208 0.328084,0.312209 0.328084,0.851959 v 0.677334 q 0,0.534459 -0.328084,0.851959 -0.328083,0.312208 -0.889,0.312208 z m 0,-0.576792 q 0.264583,0 0.407459,-0.142875 0.148166,-0.148166 0.148166,-0.423333 v -0.719667 q 0,-0.275167 -0.148166,-0.418042 -0.142876,-0.148167 -0.407459,-0.148167 -0.264584,0 -0.41275,0.148167 -0.142875,0.142875 -0.142875,0.418042 v 0.719667 q 0,0.275167 0.142875,0.423333 0.148166,0.142875 0.41275,0.142875 z m 5.169966,0.529167 V 22.31767 h 0.597958 v 1.407584 q 0,0.238125 -0.01588,0.508 -0.01058,0.264584 -0.05821,0.455084 l 1.031876,-2.370668 h 0.804333 v 2.910418 h -0.597958 v -1.412875 q 0,-0.232834 0.01058,-0.481542 0.01058,-0.248709 0.05821,-0.418042 l -1.026584,2.312459 z m 4.148671,0.03704 q -0.513292,0 -0.814917,-0.232833 -0.301626,-0.232834 -0.301626,-0.629709 h 0.645584 q 0,0.148167 0.127,0.238125 0.127,0.08467 0.343959,0.08467 h 0.338667 q 0.22225,0 0.34925,-0.09525 0.132292,-0.100542 0.132292,-0.269875 0,-0.169334 -0.132292,-0.264584 -0.127,-0.100542 -0.34925,-0.100542 H 56.97046 v -0.523875 h 0.650875 q 0.206375,0 0.322792,-0.08996 0.116417,-0.08996 0.116417,-0.238126 0,-0.15875 -0.121708,-0.243416 -0.121709,-0.08996 -0.328084,-0.08996 h -0.264583 q -0.195792,0 -0.317501,0.07937 -0.116416,0.07408 -0.116416,0.206375 h -0.650876 q 0.0053,-0.375708 0.296334,-0.592667 0.291042,-0.22225 0.788459,-0.22225 h 0.264583 q 0.497417,0 0.799042,0.206375 0.306917,0.206376 0.306917,0.555626 0,0.248708 -0.174625,0.41275 -0.174625,0.15875 -0.455084,0.174625 v 0.03175 q 0.328084,0.01058 0.518584,0.211667 0.195792,0.195792 0.195792,0.502709 0,0.264583 -0.148167,0.465666 -0.142875,0.201084 -0.402167,0.312209 -0.259292,0.111125 -0.60325,0.111125 z m 1.910296,0 v -0.60325 h 0.121708 q 0.179917,0 0.269875,-0.142875 0.09525,-0.148167 0.100542,-0.465667 l 0.03175,-1.735668 h 2.127251 v 2.910418 h -0.661458 v -2.312459 h -0.814918 l -0.02117,1.17475 q -0.01058,0.576792 -0.269875,0.878418 -0.254001,0.296333 -0.719668,0.296333 z m 3.931712,0.915459 0.41275,-1.111251 -1.095376,-2.751668 h 0.698501 l 0.560917,1.486959 q 0.04762,0.132292 0.09525,0.291042 0.04762,0.153458 0.06879,0.28575 0.01588,-0.132292 0.05821,-0.28575 0.04763,-0.15875 0.09525,-0.291042 L 64.56401,22.31767 h 0.698501 l -1.418168,3.862919 z m 4.376212,-0.952501 v -0.936625 h -0.724959 q -0.481542,0 -0.751417,-0.254 -0.269875,-0.259292 -0.269875,-0.714376 V 22.31767 h 0.661458 v 0.973667 q 0,0.1905 0.121709,0.296334 0.121708,0.105833 0.338667,0.105833 h 0.624417 V 22.31767 h 0.66675 v 2.910418 z m 2.693463,0.05292 q -0.370417,0 -0.645584,-0.142875 -0.275167,-0.142875 -0.428625,-0.402167 -0.148167,-0.264583 -0.148167,-0.619125 v -0.687917 q 0,-0.354542 0.148167,-0.613834 0.153458,-0.264584 0.428625,-0.407459 0.275167,-0.142875 0.645584,-0.142875 0.365125,0 0.635,0.142875 0.275167,0.142875 0.423334,0.402167 0.153458,0.254 0.153458,0.597959 v 0.529167 h -1.799168 v 0.201083 q 0,0.296334 0.153459,0.449792 0.153458,0.148167 0.433917,0.148167 0.206375,0 0.34925,-0.06879 0.148167,-0.07408 0.174625,-0.211666 h 0.656167 q -0.06879,0.375708 -0.391584,0.60325 -0.322791,0.22225 -0.788458,0.22225 z m -0.587376,-1.873251 v 0.100542 l 1.164168,-0.0053 v -0.100542 q 0,-0.301625 -0.148167,-0.465667 -0.148167,-0.164041 -0.428625,-0.164041 -0.291042,0 -0.439209,0.169333 -0.148167,0.164042 -0.148167,0.465667 z m 2.577047,1.820334 V 22.31767 h 0.661458 v 1.121834 h 1.037168 V 22.31767 h 0.661458 v 2.910418 h -0.661458 v -1.190625 h -1.037168 v 1.190625 z m 3.175003,0 V 22.31767 h 0.597958 v 1.407584 q 0,0.238125 -0.01587,0.508 -0.01058,0.264584 -0.05821,0.455084 l 1.031876,-2.370668 h 0.804333 v 2.910418 H 77.14761 v -1.412875 q 0,-0.232834 0.01058,-0.481542 0.01058,-0.248709 0.05821,-0.418042 l -1.026584,2.312459 z m 3.058586,0 0.682625,-1.068917 q -0.291041,-0.08996 -0.460375,-0.3175 -0.164042,-0.232834 -0.164042,-0.550334 0,-0.455083 0.306917,-0.714375 0.306917,-0.259292 0.846667,-0.259292 h 1.264709 v 2.910418 h -0.661458 v -1.005417 h -0.460376 l -0.592667,1.005417 z m 1.238251,-1.518709 h 0.576792 V 22.85742 h -0.576792 q -0.238125,0 -0.381001,0.116417 -0.137583,0.111125 -0.137583,0.312209 0,0.201083 0.137583,0.312208 0.137584,0.111125 0.381001,0.111125 z"
         id="path2" />
      <path
         d="m 49.625617,31.895592 q -0.375709,0 -0.656167,-0.137583 -0.275167,-0.142875 -0.428626,-0.396875 -0.153458,-0.259292 -0.153458,-0.608542 v -0.730251 q 0,-0.34925 0.153458,-0.60325 0.153459,-0.259292 0.428626,-0.396875 0.280458,-0.142875 0.656167,-0.142875 0.545042,0 0.873125,0.28575 0.333375,0.280458 0.34925,0.767292 h -0.650875 q -0.01588,-0.227542 -0.174625,-0.34925 -0.153458,-0.127 -0.396875,-0.127 -0.269875,0 -0.423334,0.148166 -0.153458,0.142875 -0.153458,0.412751 v 0.735542 q 0,0.269875 0.153458,0.418042 0.153459,0.148166 0.423334,0.148166 0.248708,0 0.402167,-0.121708 0.153458,-0.127 0.169333,-0.354542 h 0.650875 q -0.01588,0.486834 -0.34925,0.772584 -0.328083,0.280458 -0.873125,0.280458 z m 1.947336,-0.05292 v -2.910419 h 0.597959 v 1.407584 q 0,0.238126 -0.01588,0.508001 -0.01058,0.264583 -0.05821,0.455083 l 1.031875,-2.370668 h 0.804334 v 2.910419 H 53.335079 V 30.4298 q 0,-0.232834 0.01058,-0.481542 0.01058,-0.248709 0.05821,-0.418042 l -1.026584,2.31246 z m 3.418421,0 v -2.910419 h 2.169585 v 0.613834 h -1.508126 v 2.296585 z m 2.931587,0 v -2.910419 h 0.661459 v 1.121834 h 1.037167 v -1.121834 h 0.661459 v 2.910419 H 59.621587 V 30.65205 H 58.58442 v 1.190626 z m 4.032255,0.05292 q -0.4445,0 -0.703792,-0.248708 -0.254,-0.254 -0.254,-0.661459 0,-0.423333 0.291041,-0.672042 0.291042,-0.254 0.799043,-0.254 h 0.709083 v -0.206375 q 0,-0.439209 -0.513292,-0.439209 -0.232833,0 -0.370417,0.08996 -0.137583,0.08996 -0.153458,0.254 h -0.635 q 0.02117,-0.391584 0.328083,-0.635001 0.312209,-0.243416 0.836084,-0.243416 0.555625,0 0.862542,0.259291 0.306917,0.259292 0.306917,0.730251 v 1.973793 h -0.645584 v -0.545042 q -0.03704,0.280458 -0.264583,0.439208 -0.227542,0.15875 -0.592667,0.15875 z m 0.211667,-0.53975 q 0.291041,0 0.460375,-0.142875 0.169333,-0.142875 0.169333,-0.381 v -0.343959 h -0.677333 q -0.216959,0 -0.343959,0.121709 -0.127,0.121708 -0.127,0.312208 0,0.195792 0.132292,0.3175 0.137583,0.116417 0.386292,0.116417 z m 1.815044,0.523875 v -0.60325 h 0.121709 q 0.179917,0 0.269875,-0.142875 0.09525,-0.148167 0.100542,-0.465667 l 0.03175,-1.735668 h 2.127251 v 2.910419 h -0.661459 v -2.31246 h -0.814917 l -0.02117,1.174751 q -0.01058,0.576792 -0.269876,0.878417 -0.254,0.296333 -0.719667,0.296333 z m 4.323297,0.01588 q -0.4445,0 -0.703792,-0.248708 -0.254,-0.254 -0.254,-0.661459 0,-0.423333 0.291041,-0.672042 0.291042,-0.254 0.799043,-0.254 h 0.709083 v -0.206375 q 0,-0.439209 -0.513292,-0.439209 -0.232833,0 -0.370417,0.08996 -0.137583,0.08996 -0.153458,0.254 h -0.635 q 0.02117,-0.391584 0.328083,-0.635001 0.312209,-0.243416 0.836084,-0.243416 0.555625,0 0.862542,0.259291 0.306917,0.259292 0.306917,0.730251 v 1.973793 h -0.645584 v -0.545042 q -0.03704,0.280458 -0.264583,0.439208 -0.227542,0.15875 -0.592667,0.15875 z m 0.211667,-0.53975 q 0.291041,0 0.460375,-0.142875 0.169333,-0.142875 0.169333,-0.381 v -0.343959 h -0.677333 q -0.216959,0 -0.343959,0.121709 -0.127,0.121708 -0.127,0.312208 0,0.195792 0.132292,0.3175 0.137583,0.116417 0.386292,0.116417 z"
         id="path3" />
    </g>
    <g
       id="text2"
       style="font-weight:bold;font-size:5.29167px;font-family:'JetBrains Mono';-inkscape-font-specification:'JetBrains Mono, Bold';font-variant-position:sub;text-align:center;text-anchor:middle;stroke-width:0.5;stroke-linecap:square"
       aria-label="Окно приёма&#10;отражённого сигнал">
      <path
         d="m 127.89465,25.281005 q -0.55563,0 -0.88371,-0.3175 -0.32279,-0.3175 -0.32279,-0.878417 V 22.50817 q 0,-0.560917 0.32279,-0.878417 0.32808,-0.3175 0.88371,-0.3175 0.55562,0 0.87842,0.3175 0.32808,0.3175 0.32808,0.873125 v 1.58221 q 0,0.560917 -0.32808,0.878417 -0.3228,0.3175 -0.87842,0.3175 z m 0,-0.582084 q 0.26987,0 0.40746,-0.142875 0.13758,-0.148166 0.13758,-0.418042 v -1.682751 q 0,-0.269875 -0.13758,-0.41275 -0.13759,-0.148167 -0.40746,-0.148167 -0.26988,0 -0.40746,0.148167 -0.13758,0.142875 -0.13758,0.41275 v 1.682751 q 0,0.269876 0.13758,0.418042 0.13758,0.142875 0.40746,0.142875 z m 2.04258,0.529167 V 22.31767 h 0.66146 v 1.121834 h 0.46567 l 0.66675,-1.121834 h 0.74613 l -0.84667,1.407584 0.89958,1.502834 h -0.75671 l -0.70908,-1.190625 h -0.46567 v 1.190625 z m 3.12738,0 V 22.31767 h 0.66146 v 1.121834 h 1.03717 V 22.31767 h 0.66146 v 2.910418 h -0.66146 v -1.190625 h -1.03717 v 1.190625 z m 4.35505,0.04763 q -0.56092,0 -0.889,-0.312208 -0.32808,-0.3175 -0.32808,-0.851959 v -0.677334 q 0,-0.53975 0.32808,-0.851959 0.32808,-0.312208 0.889,-0.312208 0.56092,0 0.889,0.312208 0.32808,0.312209 0.32808,0.851959 v 0.677334 q 0,0.534459 -0.32808,0.851959 -0.32808,0.312208 -0.889,0.312208 z m 0,-0.576792 q 0.26458,0 0.40746,-0.142875 0.14817,-0.148166 0.14817,-0.423333 v -0.719667 q 0,-0.275167 -0.14817,-0.418042 -0.14288,-0.148167 -0.40746,-0.148167 -0.26458,0 -0.41275,0.148167 -0.14288,0.142875 -0.14288,0.418042 v 0.719667 q 0,0.275167 0.14288,0.423333 0.14817,0.142875 0.41275,0.142875 z m 5.16997,0.529167 V 22.31767 h 2.36008 v 2.910418 h -0.66146 V 22.92092 h -1.03717 v 2.307168 z m 3.175,0.952501 V 22.31767 h 0.64558 v 0.534459 q 0.0794,-0.275167 0.28575,-0.428626 0.20638,-0.15875 0.5133,-0.15875 0.28045,0 0.49212,0.137584 0.21696,0.137583 0.33338,0.391583 0.1217,0.248709 0.1217,0.582084 v 0.788459 q 0,0.502708 -0.25929,0.809625 -0.25929,0.306917 -0.68791,0.306917 -0.30692,0 -0.51859,-0.15875 -0.20637,-0.15875 -0.28575,-0.4445 l 0.0212,0.687917 v 0.814917 z m 1.19592,-1.471084 q 0.254,0 0.39158,-0.137584 0.14288,-0.137583 0.14288,-0.423333 v -0.751417 q 0,-0.285751 -0.14288,-0.423334 -0.13758,-0.137583 -0.39158,-0.137583 -0.254,0 -0.39688,0.153458 -0.13758,0.153458 -0.13758,0.433917 v 0.6985 q 0,0.280459 0.13758,0.433917 0.14288,0.153459 0.39688,0.153459 z m 1.97908,0.518583 V 22.31767 h 0.59796 v 1.407584 q 0,0.238125 -0.0159,0.508 -0.0106,0.264584 -0.0582,0.455084 l 1.03188,-2.370668 h 0.80433 v 2.910418 h -0.59796 v -1.412875 q 0,-0.232834 0.0106,-0.481542 0.0106,-0.248709 0.0582,-0.418042 l -1.02658,2.312459 z m 4.36034,0.05292 q -0.37042,0 -0.64558,-0.142875 -0.27517,-0.142875 -0.42863,-0.402167 -0.14816,-0.264583 -0.14816,-0.619125 v -0.687917 q 0,-0.354542 0.14816,-0.613834 0.15346,-0.264584 0.42863,-0.407459 0.27516,-0.142875 0.64558,-0.142875 0.36513,0 0.635,0.142875 0.27517,0.142875 0.42334,0.402167 0.15345,0.254 0.15345,0.597959 v 0.529167 h -1.79916 v 0.201083 q 0,0.296334 0.15345,0.449792 0.15346,0.148167 0.43392,0.148167 0.20638,0 0.34925,-0.06879 0.14817,-0.07408 0.17463,-0.211666 h 0.65616 q -0.0688,0.375708 -0.39158,0.60325 -0.32279,0.22225 -0.78846,0.22225 z m -0.58737,-1.873251 v 0.100542 l 1.16416,-0.0053 v -0.100542 q 0,-0.301625 -0.14816,-0.465667 -0.14817,-0.164041 -0.42863,-0.164041 -0.29104,0 -0.43921,0.169333 -0.14816,0.164042 -0.14816,0.465667 z m 1.20121,-1.576918 q -0.17463,0 -0.28046,-0.100541 -0.10584,-0.105834 -0.10584,-0.280459 0,-0.174625 0.10584,-0.275167 0.10583,-0.105833 0.28046,-0.105833 0.17991,0 0.28575,0.105833 0.10583,0.100542 0.10583,0.275167 0,0.174625 -0.10583,0.280459 -0.10584,0.100541 -0.28575,0.100541 z m -1.23826,0 q -0.17991,0 -0.28575,-0.100541 -0.10583,-0.105834 -0.10583,-0.280459 0,-0.174625 0.10583,-0.275167 0.10584,-0.105833 0.28575,-0.105833 0.17463,0 0.28046,0.105833 0.10584,0.100542 0.10584,0.275167 0,0.174625 -0.10584,0.280459 -0.10583,0.100541 -0.28046,0.100541 z m 2.49238,3.397252 V 22.31767 h 0.83079 l 0.46567,1.375834 0.46567,-1.375834 h 0.84137 v 2.910418 h -0.61383 v -0.497417 q 0,-0.259291 0,-0.550333 0,-0.291042 0.005,-0.582084 0.005,-0.291042 0.0212,-0.53975 0.0159,-0.254 0.0476,-0.428626 l -0.508,1.555751 h -0.52916 l -0.49742,-1.476375 q 0.0423,0.216958 0.0582,0.555625 0.0212,0.333375 0.0212,0.719667 0.005,0.381 0.005,0.746125 v 0.497417 z m 4.15397,0.05292 q -0.4445,0 -0.7038,-0.248708 -0.254,-0.254001 -0.254,-0.661459 0,-0.423334 0.29105,-0.672042 0.29104,-0.254 0.79904,-0.254 h 0.70908 v -0.206375 q 0,-0.439209 -0.51329,-0.439209 -0.23283,0 -0.37042,0.08996 -0.13758,0.08996 -0.15346,0.254 h -0.635 q 0.0212,-0.391583 0.32809,-0.635 0.31221,-0.243417 0.83608,-0.243417 0.55563,0 0.86254,0.259292 0.30692,0.259292 0.30692,0.730251 v 1.973792 h -0.64558 v -0.545042 q -0.037,0.280459 -0.26459,0.439209 -0.22754,0.15875 -0.59266,0.15875 z m 0.21166,-0.53975 q 0.29104,0 0.46038,-0.142875 0.16933,-0.142875 0.16933,-0.381001 v -0.343958 h -0.67733 q -0.21696,0 -0.34396,0.121708 -0.127,0.121709 -0.127,0.312209 0,0.195792 0.13229,0.3175 0.13758,0.116417 0.38629,0.116417 z"
         id="path13" />
      <path
         d="m 116.78213,31.890301 q -0.56091,0 -0.889,-0.312209 -0.32808,-0.3175 -0.32808,-0.851959 V 30.0488 q 0,-0.539751 0.32808,-0.851959 0.32809,-0.312209 0.889,-0.312209 0.56092,0 0.889,0.312209 0.32809,0.312208 0.32809,0.851959 v 0.677333 q 0,0.534459 -0.32809,0.851959 -0.32808,0.312209 -0.889,0.312209 z m 0,-0.576792 q 0.26459,0 0.40746,-0.142875 0.14817,-0.148167 0.14817,-0.423334 v -0.719667 q 0,-0.275167 -0.14817,-0.418042 -0.14287,-0.148167 -0.40746,-0.148167 -0.26458,0 -0.41275,0.148167 -0.14287,0.142875 -0.14287,0.418042 V 30.7473 q 0,0.275167 0.14287,0.423334 0.14817,0.142875 0.41275,0.142875 z m 2.84163,0.529167 v -2.31246 h -0.99483 v -0.597959 h 2.65642 v 0.597959 h -0.99484 v 2.31246 z m 2.32834,0.9525 v -3.862919 h 0.64558 v 0.534459 q 0.0794,-0.275167 0.28575,-0.428625 0.20638,-0.15875 0.5133,-0.15875 0.28045,0 0.49212,0.137583 0.21696,0.137583 0.33338,0.391584 0.1217,0.248708 0.1217,0.582083 v 0.788459 q 0,0.502709 -0.25929,0.809626 -0.25929,0.306916 -0.68791,0.306916 -0.30692,0 -0.51859,-0.15875 -0.20637,-0.15875 -0.28575,-0.4445 l 0.0212,0.687917 v 0.814917 z m 1.19592,-1.471084 q 0.254,0 0.39158,-0.137583 0.14288,-0.137584 0.14288,-0.423334 v -0.751417 q 0,-0.28575 -0.14288,-0.423334 -0.13758,-0.137583 -0.39158,-0.137583 -0.254,0 -0.39688,0.153458 -0.13758,0.153459 -0.13758,0.433917 v 0.698501 q 0,0.280458 0.13758,0.433917 0.14288,0.153458 0.39688,0.153458 z m 2.83633,0.5715 q -0.4445,0 -0.70379,-0.248708 -0.254,-0.254 -0.254,-0.661459 0,-0.423333 0.29104,-0.672042 0.29105,-0.254 0.79905,-0.254 h 0.70908 v -0.206375 q 0,-0.439209 -0.51329,-0.439209 -0.23284,0 -0.37042,0.08996 -0.13758,0.08996 -0.15346,0.254 h -0.635 q 0.0212,-0.391584 0.32809,-0.635001 0.3122,-0.243416 0.83608,-0.243416 0.55562,0 0.86254,0.259291 0.30692,0.259292 0.30692,0.730251 v 1.973793 h -0.64559 v -0.545042 q -0.037,0.280458 -0.26458,0.439208 -0.22754,0.15875 -0.59267,0.15875 z m 0.21167,-0.53975 q 0.29104,0 0.46038,-0.142875 0.16933,-0.142875 0.16933,-0.381 v -0.343959 h -0.67733 q -0.21696,0 -0.34396,0.121709 -0.127,0.121708 -0.127,0.312208 0,0.195792 0.13229,0.3175 0.13758,0.116417 0.38629,0.116417 z m 1.7145,0.486834 0.61913,-1.497543 -0.57679,-1.412876 h 0.59266 l 0.47625,1.206501 h 0.22226 v -1.206501 h 0.47625 v 1.206501 h 0.22225 l 0.5027,-1.206501 h 0.56621 l -0.57679,1.397001 0.61913,1.513418 h -0.58738 l -0.51329,-1.270001 h -0.23283 v 1.270001 h -0.47625 v -1.270001 h -0.23284 l -0.49212,1.270001 z m 4.75193,0.05292 q -0.37042,0 -0.64559,-0.142875 -0.27516,-0.142875 -0.42862,-0.402167 -0.14817,-0.264583 -0.14817,-0.619125 v -0.687917 q 0,-0.354542 0.14817,-0.613834 0.15346,-0.264583 0.42862,-0.407458 0.27517,-0.142875 0.64559,-0.142875 0.36512,0 0.635,0.142875 0.27516,0.142875 0.42333,0.402167 0.15346,0.254 0.15346,0.597958 v 0.529167 h -1.79917 v 0.201084 q 0,0.296333 0.15346,0.449792 0.15346,0.148166 0.43392,0.148166 0.20637,0 0.34925,-0.06879 0.14816,-0.07408 0.17462,-0.211667 h 0.65617 q -0.0688,0.375708 -0.39159,0.60325 -0.32279,0.22225 -0.78845,0.22225 z m -0.58738,-1.873251 v 0.100542 l 1.16417,-0.0053 V 30.01705 q 0,-0.301626 -0.14817,-0.465667 -0.14817,-0.164042 -0.42862,-0.164042 -0.29105,0 -0.43921,0.169333 -0.14817,0.164042 -0.14817,0.465667 z m 1.20121,-1.576917 q -0.17463,0 -0.28046,-0.100542 -0.10583,-0.105833 -0.10583,-0.280459 0,-0.174625 0.10583,-0.275166 0.10583,-0.105834 0.28046,-0.105834 0.17992,0 0.28575,0.105834 0.10583,0.100541 0.10583,0.275166 0,0.174626 -0.10583,0.280459 -0.10583,0.100542 -0.28575,0.100542 z m -1.23825,0 q -0.17992,0 -0.28575,-0.100542 -0.10583,-0.105833 -0.10583,-0.280459 0,-0.174625 0.10583,-0.275166 0.10583,-0.105834 0.28575,-0.105834 0.17462,0 0.28046,0.105834 0.10583,0.100541 0.10583,0.275166 0,0.174626 -0.10583,0.280459 -0.10584,0.100542 -0.28046,0.100542 z m 2.61409,3.397252 v -2.910419 h 0.66145 v 1.121834 h 1.03717 v -1.121834 h 0.66146 v 2.910419 h -0.66146 V 30.65205 h -1.03717 v 1.190626 z m 3.175,0 v -2.910419 h 0.66146 v 1.121834 h 1.03717 v -1.121834 h 0.66146 v 2.910419 h -0.66146 V 30.65205 h -1.03717 v 1.190626 z m 4.35505,0.04763 q -0.56092,0 -0.889,-0.312209 -0.32809,-0.3175 -0.32809,-0.851959 V 30.0488 q 0,-0.539751 0.32809,-0.851959 0.32808,-0.312209 0.889,-0.312209 0.56091,0 0.889,0.312209 0.32808,0.312208 0.32808,0.851959 v 0.677333 q 0,0.534459 -0.32808,0.851959 -0.32809,0.312209 -0.889,0.312209 z m 0,-0.576792 q 0.26458,0 0.40745,-0.142875 0.14817,-0.148167 0.14817,-0.423334 v -0.719667 q 0,-0.275167 -0.14817,-0.418042 -0.14287,-0.148167 -0.40745,-0.148167 -0.26459,0 -0.41275,0.148167 -0.14288,0.142875 -0.14288,0.418042 V 30.7473 q 0,0.275167 0.14288,0.423334 0.14816,0.142875 0.41275,0.142875 z m 2.23837,0.529167 v -2.910419 h 2.16959 v 0.613834 H 145.082 v 2.296585 z m 4.11163,0.04763 q -0.56091,0 -0.889,-0.312209 -0.32808,-0.3175 -0.32808,-0.851959 V 30.0488 q 0,-0.539751 0.32808,-0.851959 0.32809,-0.312209 0.889,-0.312209 0.56092,0 0.889,0.312209 0.32809,0.312208 0.32809,0.851959 v 0.677333 q 0,0.534459 -0.32809,0.851959 -0.32808,0.312209 -0.889,0.312209 z m 0,-0.576792 q 0.26459,0 0.40746,-0.142875 0.14817,-0.148167 0.14817,-0.423334 v -0.719667 q 0,-0.275167 -0.14817,-0.418042 -0.14287,-0.148167 -0.40746,-0.148167 -0.26458,0 -0.41275,0.148167 -0.14287,0.142875 -0.14287,0.418042 V 30.7473 q 0,0.275167 0.14287,0.423334 0.14817,0.142875 0.41275,0.142875 z m 6.39764,0.582083 q -0.37571,0 -0.65617,-0.137583 -0.27517,-0.142875 -0.42863,-0.396875 -0.15345,-0.259292 -0.15345,-0.608542 v -0.730251 q 0,-0.34925 0.15345,-0.60325 0.15346,-0.259292 0.42863,-0.396875 0.28046,-0.142875 0.65617,-0.142875 0.54504,0 0.87312,0.28575 0.33338,0.280458 0.34925,0.767292 h -0.65087 q -0.0159,-0.227542 -0.17463,-0.34925 -0.15346,-0.127 -0.39687,-0.127 -0.26988,0 -0.42334,0.148166 -0.15345,0.142875 -0.15345,0.412751 v 0.735542 q 0,0.269875 0.15345,0.418042 0.15346,0.148166 0.42334,0.148166 0.24871,0 0.40216,-0.121708 0.15346,-0.127 0.16934,-0.354542 h 0.65087 q -0.0159,0.486834 -0.34925,0.772584 -0.32808,0.280458 -0.87312,0.280458 z m 1.94733,-0.05292 v -2.910419 h 0.59796 v 1.407584 q 0,0.238126 -0.0159,0.508001 -0.0106,0.264583 -0.0582,0.455083 l 1.03187,-2.370668 h 0.80434 v 2.910419 h -0.59796 V 30.4298 q 0,-0.232834 0.0106,-0.481542 0.0106,-0.248709 0.0582,-0.418042 l -1.02658,2.31246 z m 3.41843,0 v -2.910419 h 2.16958 v 0.613834 h -1.50812 v 2.296585 z m 2.93158,0 v -2.910419 h 0.66146 v 1.121834 h 1.03717 v -1.121834 h 0.66146 v 2.910419 h -0.66146 V 30.65205 h -1.03717 v 1.190626 z m 4.03226,0.05292 q -0.4445,0 -0.7038,-0.248708 -0.254,-0.254 -0.254,-0.661459 0,-0.423333 0.29105,-0.672042 0.29104,-0.254 0.79904,-0.254 h 0.70908 v -0.206375 q 0,-0.439209 -0.51329,-0.439209 -0.23283,0 -0.37042,0.08996 -0.13758,0.08996 -0.15346,0.254 h -0.635 q 0.0212,-0.391584 0.32809,-0.635001 0.31221,-0.243416 0.83608,-0.243416 0.55563,0 0.86254,0.259291 0.30692,0.259292 0.30692,0.730251 v 1.973793 h -0.64558 v -0.545042 q -0.037,0.280458 -0.26459,0.439208 -0.22754,0.15875 -0.59266,0.15875 z m 0.21166,-0.53975 q 0.29105,0 0.46038,-0.142875 0.16933,-0.142875 0.16933,-0.381 v -0.343959 h -0.67733 q -0.21696,0 -0.34396,0.121709 -0.127,0.121708 -0.127,0.312208 0,0.195792 0.13229,0.3175 0.13758,0.116417 0.38629,0.116417 z m 1.81505,0.523875 v -0.60325 h 0.12171 q 0.17991,0 0.26987,-0.142875 0.0953,-0.148167 0.10054,-0.465667 l 0.0317,-1.735668 h 2.12725 v 2.910419 h -0.66146 v -2.31246 h -0.81491 l -0.0212,1.174751 q -0.0106,0.576792 -0.26987,0.878417 -0.254,0.296333 -0.71967,0.296333 z"
         id="path14" />
    </g>
    <path
       style="fill:none;stroke:#000000;stroke-width:0.5;stroke-linecap:square;stroke-dasharray:1.5, 0.5;stroke-dashoffset:0;stroke-opacity:1;marker-end:url(#Triangle)"
       d="M 60.67877,33.785508 77.976953,47.434852"
       id="path4"
       sodipodi:nodetypes="cc" />
    <path
       style="fill:none;stroke:#000000;stroke-width:0.5;stroke-linecap:square;stroke-dasharray:1.5, 0.5;stroke-dashoffset:0;stroke-opacity:1;marker-end:url(#Triangle-2)"
       d="M 139.44557,34.026096 120.04876,54.937988"
       id="path4-0"
       sodipodi:nodetypes="cc" />
    <path
       style="fill:none;stroke:#808080;stroke-width:0.5;stroke-linecap:square;stroke-dasharray:1, 1;stroke-dashoffset:0;stroke-opacity:1"
       d="M 32.5441,40.995175 V 82.468146"
       id="path5" />
    <path
       style="fill:none;stroke:#808080;stroke-width:0.5;stroke-linecap:square;stroke-dasharray:1, 1;stroke-dashoffset:0;stroke-opacity:1"
       d="M 80.96,40.995175 V 82.468146"
       id="path6" />
    <path
       style="fill:none;stroke:#808080;stroke-width:0.5;stroke-linecap:square;stroke-dasharray:1, 1;stroke-dashoffset:0;stroke-opacity:1"
       d="M 94.3,40.995175 V 82.468146"
       id="path9" />
    <path
       style="fill:none;stroke:#808080;stroke-width:0.5;stroke-linecap:square;stroke-dasharray:1, 1;stroke-dashoffset:0;stroke-opacity:1"
       d="M 123.84,40.995175 V 82.468146"
       id="path10" />
    <path
       style="fill:#000000;fill-opacity:1;stroke:#000000;stroke-width:0.3;stroke-linecap:square;stroke-dasharray:none;stroke-opacity:1;marker-start:url(#marker8);marker-end:url(#ConcaveTriangle-9)"
       d="M 83.386467,79.358431 H 121.43019"
       id="path11"
       sodipodi:nodetypes="cc" />
    <path
       style="fill:#000000;fill-opacity:1;stroke:#000000;stroke-width:0.3;stroke-linecap:square;stroke-dasharray:none;stroke-opacity:1;marker-start:url(#marker8);marker-end:url(#ConcaveTriangle-9)"
       d="m 83.386467,82.004266 h 8.312478"
       id="path12"
       sodipodi:nodetypes="cc" />
    <g
       id="text3"
       style="font-size:5.29167px;font-family:'JetBrains Mono';-inkscape-font-specification:'JetBrains Mono, Normal';stroke-width:0.499999;stroke-linecap:square;stroke-dasharray:1.5, 0.499999"
       aria-label="t1">
      <path
         style="stroke-width:0.5"
         d="m 86.780703,86.503441 q -0.359833,0 -0.576792,-0.206375 -0.216958,-0.211667 -0.216958,-0.560917 v -1.70921 h -0.836084 v -0.433917 h 0.836084 v -0.820208 h 0.47625 v 0.820208 h 1.190626 v 0.433917 h -1.190626 v 1.70921 q 0,0.148166 0.08467,0.243417 0.08996,0.08996 0.232833,0.08996 h 0.846668 v 0.433917 z"
         id="path15" />
      <path
         style="font-size:3.43959px;baseline-shift:sub;stroke-width:0.5"
         d="m 88.386727,87.561775 v -0.282046 h 0.681038 v -1.960564 l -0.681038,0.509059 v -0.354277 l 0.567532,-0.423069 h 0.423069 v 2.228851 h 0.557213 v 0.282046 z"
         id="path16" />
    </g>
    <g
       id="text3-6"
       style="font-size:5.29167px;font-family:'JetBrains Mono';-inkscape-font-specification:'JetBrains Mono, Normal';stroke-width:0.499999;stroke-linecap:square;stroke-dasharray:1.5, 0.499999"
       aria-label="t2">
      <path
         style="stroke-width:0.5"
         d="m 105.40573,83.889359 q -0.35984,0 -0.5768,-0.206376 -0.21695,-0.211666 -0.21695,-0.560917 v -1.709209 h -0.83609 V 80.97894 h 0.83609 v -0.820209 h 0.47625 v 0.820209 h 1.19062 v 0.433917 h -1.19062 v 1.709209 q 0,0.148167 0.0847,0.243417 0.09,0.08996 0.23284,0.08996 h 0.84666 v 0.433917 z"
         id="path17" />
      <path
         style="font-size:3.43959px;baseline-shift:sub;stroke-width:0.5"
         d="m 106.99799,84.947693 v -0.285486 l 0.83582,-0.894292 q 0.1823,-0.192617 0.25797,-0.343959 0.0757,-0.151341 0.0757,-0.295804 0,-0.206375 -0.12038,-0.326761 -0.11695,-0.123825 -0.31989,-0.123825 -0.20981,0 -0.33364,0.127265 -0.12038,0.123825 -0.12038,0.337079 h -0.30956 q 0.0103,-0.340519 0.21669,-0.540015 0.20637,-0.199496 0.54689,-0.199496 0.3474,0 0.55034,0.196057 0.20637,0.196056 0.20637,0.533136 0,0.178858 -0.0998,0.378354 -0.0963,0.199496 -0.33364,0.447146 l -0.67759,0.708555 h 1.14194 v 0.282046 z"
         id="path18" />
    </g>
  </g>
</svg>
