<?xml version="1.0" encoding="UTF-8" standalone="no"?>
<!-- Created with Inkscape (http://www.inkscape.org/) -->

<svg
   width="197.10118mm"
   height="237.48811mm"
   viewBox="0 0 197.10118 237.48811"
   version="1.1"
   id="svg1"
   xml:space="preserve"
   sodipodi:docname="SAR_geometry.svg"
   inkscape:version="1.4 (86a8ad7, 2024-10-11)"
   inkscape:export-filename="SAR_geometry.png"
   inkscape:export-xdpi="600"
   inkscape:export-ydpi="600"
   xmlns:inkscape="http://www.inkscape.org/namespaces/inkscape"
   xmlns:sodipodi="http://sodipodi.sourceforge.net/DTD/sodipodi-0.dtd"
   xmlns="http://www.w3.org/2000/svg"
   xmlns:svg="http://www.w3.org/2000/svg"><sodipodi:namedview
     id="namedview1"
     pagecolor="#ffffff"
     bordercolor="#000000"
     borderopacity="0.25"
     inkscape:showpageshadow="2"
     inkscape:pageopacity="0.0"
     inkscape:pagecheckerboard="0"
     inkscape:deskcolor="#d1d1d1"
     inkscape:document-units="mm"
     inkscape:zoom="1.7312972"
     inkscape:cx="441.86522"
     inkscape:cy="623.52092"
     inkscape:window-width="1920"
     inkscape:window-height="1017"
     inkscape:window-x="-8"
     inkscape:window-y="-8"
     inkscape:window-maximized="1"
     inkscape:current-layer="layer1"
     inkscape:export-bgcolor="#ffffffff"
     showgrid="false" /><defs
     id="defs1"><rect
       x="41.895844"
       y="122.07582"
       width="160.35995"
       height="64.288452"
       id="rect13" /><rect
       x="73.678902"
       y="150.24718"
       width="112.68537"
       height="27.449001"
       id="rect12" /><marker
       style="overflow:visible"
       id="marker11"
       refX="0"
       refY="0"
       orient="auto-start-reverse"
       markerWidth="1"
       markerHeight="1"
       viewBox="0 0 1 1"
       preserveAspectRatio="xMidYMid"><path
         transform="scale(0.7)"
         d="M -2,-4 9,0 -2,4 c 2,-2.33 2,-5.66 0,-8 z"
         style="fill:context-stroke;fill-rule:evenodd;stroke:none"
         id="path11" /></marker><marker
       style="overflow:visible"
       id="marker10"
       refX="0"
       refY="0"
       orient="auto-start-reverse"
       markerWidth="1"
       markerHeight="1"
       viewBox="0 0 1 1"
       preserveAspectRatio="xMidYMid"><path
         transform="scale(0.7)"
         d="M -2,-4 9,0 -2,4 c 2,-2.33 2,-5.66 0,-8 z"
         style="fill:context-stroke;fill-rule:evenodd;stroke:none"
         id="path10" /></marker><marker
       style="overflow:visible"
       id="ConcaveTriangle"
       refX="0"
       refY="0"
       orient="auto-start-reverse"
       markerWidth="1"
       markerHeight="1"
       viewBox="0 0 1 1"
       preserveAspectRatio="xMidYMid"><path
         transform="scale(0.7)"
         d="M -2,-4 9,0 -2,4 c 2,-2.33 2,-5.66 0,-8 z"
         style="fill:context-stroke;fill-rule:evenodd;stroke:none"
         id="path9" /></marker><rect
       x="41.895844"
       y="122.07582"
       width="160.35995"
       height="64.288452"
       id="rect13-8" /><rect
       x="41.895844"
       y="122.07582"
       width="160.35995"
       height="64.288452"
       id="rect13-8-9" /><rect
       x="41.895844"
       y="122.07582"
       width="160.35995"
       height="64.288452"
       id="rect13-8-9-1" /><rect
       x="41.895844"
       y="122.07582"
       width="160.35995"
       height="64.288452"
       id="rect13-4" /><rect
       x="41.895844"
       y="122.07582"
       width="160.35995"
       height="64.288452"
       id="rect13-4-3" /><rect
       x="41.895844"
       y="122.07582"
       width="160.35995"
       height="64.288452"
       id="rect13-4-3-1" /><rect
       x="41.895844"
       y="122.07582"
       width="160.35995"
       height="64.288452"
       id="rect13-4-3-4" /><rect
       x="41.895844"
       y="122.07582"
       width="160.35995"
       height="64.288452"
       id="rect13-2" /><rect
       x="41.895844"
       y="122.07582"
       width="160.35995"
       height="64.288452"
       id="rect13-4-3-1-2" /><rect
       x="41.895844"
       y="122.07582"
       width="160.35995"
       height="64.288452"
       id="rect13-4-3-4-2" /><rect
       x="41.895844"
       y="122.07582"
       width="160.35995"
       height="64.288452"
       id="rect13-8-6" /><rect
       x="41.895844"
       y="122.07582"
       width="160.35995"
       height="64.288452"
       id="rect13-4-3-4-2-9" /><rect
       x="41.895844"
       y="122.07582"
       width="160.35995"
       height="64.288452"
       id="rect13-4-3-4-2-6" /><marker
       style="overflow:visible"
       id="marker11-3"
       refX="0"
       refY="0"
       orient="auto-start-reverse"
       markerWidth="1"
       markerHeight="1"
       viewBox="0 0 1 1"
       preserveAspectRatio="xMidYMid"><path
         transform="scale(0.7)"
         d="M -2,-4 9,0 -2,4 c 2,-2.33 2,-5.66 0,-8 z"
         style="fill:context-stroke;fill-rule:evenodd;stroke:none"
         id="path11-3" /></marker><marker
       style="overflow:visible"
       id="marker11-4"
       refX="0"
       refY="0"
       orient="auto-start-reverse"
       markerWidth="1"
       markerHeight="1"
       viewBox="0 0 1 1"
       preserveAspectRatio="xMidYMid"><path
         transform="scale(0.7)"
         d="M -2,-4 9,0 -2,4 c 2,-2.33 2,-5.66 0,-8 z"
         style="fill:context-stroke;fill-rule:evenodd;stroke:none"
         id="path11-6" /></marker><rect
       x="41.895844"
       y="122.07582"
       width="160.35995"
       height="64.288452"
       id="rect13-4-3-4-0" /><rect
       x="41.895844"
       y="122.07582"
       width="160.35995"
       height="64.288452"
       id="rect13-4-3-4-0-9" /><rect
       x="41.895844"
       y="122.07582"
       width="160.35995"
       height="64.288452"
       id="rect13-8-5" /><rect
       x="41.895844"
       y="122.07582"
       width="160.35995"
       height="64.288452"
       id="rect13-8-5-9" /><rect
       x="41.895844"
       y="122.07582"
       width="160.35995"
       height="64.288452"
       id="rect13-8-9-1-3" /></defs><g
     id="layer1"
     transform="translate(-9.7816865,-18.037752)"><path
       style="fill:#000000;fill-opacity:1;stroke:#000000;stroke-width:1;stroke-dasharray:none;stroke-opacity:1;marker-end:url(#ConcaveTriangle)"
       d="M 9.9382236,77.212345 182.71042,20.258688"
       id="path1" /><path
       style="fill:#000000;fill-opacity:1;stroke:#000000;stroke-width:1;stroke-dasharray:none;stroke-opacity:1;marker-end:url(#marker10)"
       d="M 9.9505977,159.72485 196.3803,98.269017"
       id="path2" /><path
       style="fill:#000000;fill-opacity:1;stroke:#000000;stroke-width:1;stroke-dasharray:none;stroke-dashoffset:0;stroke-opacity:1;marker-end:url(#marker11)"
       d="m 32.012548,152.02204 72.267112,98.42565"
       id="path3" /><path
       style="fill:#000000;fill-opacity:1;stroke:#000000;stroke-width:0.5;stroke-dasharray:1.5, 0.5;stroke-dashoffset:0;stroke-opacity:1"
       d="M 32.490347,70.318375 32.108104,152.88206"
       id="path4" /><path
       style="fill:#000000;fill-opacity:1;stroke:#000000;stroke-width:0.5;stroke-dasharray:1.5, 0.5;stroke-dashoffset:0;stroke-opacity:1"
       d="M 99.839047,48.322148 150.22608,198.48212"
       id="path5-3"
       sodipodi:nodetypes="cc" /><path
       style="fill:#000000;fill-opacity:1;stroke:#000000;stroke-width:0.5;stroke-dasharray:1.5, 0.5;stroke-dashoffset:0;stroke-opacity:1"
       d="M 82.584903,220.28936 150.45628,198.43002"
       id="path6" /><path
       id="path12"
       style="fill:none;stroke:#000000;stroke-width:0.517092;stroke-linecap:square"
       transform="matrix(0.9785513,0.20600327,-0.53969254,0.8418622,0,0)"
       d="m 292.61322,174.87189 a 42.955948,13.4159 0 0 1 -42.95595,13.4159 42.955948,13.4159 0 0 1 -42.95595,-13.4159 42.955948,13.4159 0 0 1 42.95595,-13.4159 42.955948,13.4159 0 0 1 42.95595,13.4159 z" /><path
       d="m 18.197906,61.31466 -1.325083,-3.628536 1.207855,-0.44109 q 0.362854,-0.132508 0.682091,-0.09135 0.324208,0.03934 0.565901,0.238387 0.239877,0.194074 0.363309,0.532075 0.123433,0.338 0.06689,0.645956 -0.05836,0.302986 -0.280917,0.541998 -0.217587,0.237196 -0.58044,0.369704 l -0.586531,0.214192 0.508251,1.391767 z m -0.0866,-2.165431 0.58653,-0.214191 q 0.263442,-0.0962 0.359445,-0.311535 0.096,-0.21533 0.0034,-0.46883 -0.09257,-0.253501 -0.304749,-0.356289 -0.212174,-0.102789 -0.475616,-0.0066 l -0.58653,0.214192 z m 4.235317,0.70672 q -0.352912,0.128878 -0.658578,0.09403 -0.307481,-0.03982 -0.538757,-0.225765 -0.228121,-0.192735 -0.347923,-0.520794 l -0.577228,-1.58065 q -0.119802,-0.32806 -0.06775,-0.617474 0.0552,-0.296199 0.266479,-0.519824 0.209462,-0.228596 0.562374,-0.357474 0.347942,-0.127063 0.655423,-0.08725 0.305666,0.03485 0.538757,0.225765 0.231276,0.185948 0.351078,0.514008 l -0.626295,0.228713 q -0.09257,-0.253501 -0.280761,-0.336882 -0.185031,-0.09017 -0.438532,0.0024 -0.2535,0.09257 -0.341852,0.282576 -0.09017,0.185031 0.0024,0.438532 l 0.577228,1.58065 q 0.09257,0.253501 0.282576,0.341852 0.188187,0.08338 0.441687,-0.0092 0.253501,-0.09257 0.338697,-0.275791 0.08835,-0.190001 -0.0042,-0.443502 l 0.626295,-0.228713 q 0.119802,0.32806 0.0646,0.624259 -0.05702,0.291229 -0.26648,0.519825 -0.211276,0.223625 -0.559218,0.350688 z m 1.607236,-0.643272 -0.410494,-3.96253 0.800267,-0.292244 2.244644,3.292727 -0.636237,0.232344 -0.520111,-0.807189 -0.964296,0.352146 0.122463,0.952403 z m 0.442948,-1.733497 0.735649,-0.268647 -0.574483,-0.894369 q -0.14362,-0.223592 -0.254177,-0.402924 -0.112372,-0.184302 -0.159957,-0.268328 0.01776,0.09492 0.0506,0.308262 0.03103,0.208375 0.06348,0.466931 z"
       id="text12"
       style="font-weight:bold;font-size:20px;font-family:'JetBrains Mono';-inkscape-font-specification:'JetBrains Mono, Bold';white-space:pre;stroke-width:0.499999;stroke-linecap:square;stroke-dasharray:1.5, 0.499999"
       aria-label="РСА&#10;" /><path
       d="m 43.436484,140.03072 v -14.6 h 2.5 v 5.92 h 3.92 v -5.92 h 2.5 v 14.6 h -2.5 v -6.42 h -3.92 v 6.42 z m 15.240008,0.2 q -1.68,0 -2.66,-0.94 -0.96,-0.96 -0.96,-2.5 0,-1.6 1.1,-2.54 1.1,-0.96 3.02,-0.96 h 2.68 v -0.78 q 0,-1.66 -1.94,-1.66 -0.88,0 -1.4,0.34 -0.52,0.34 -0.58,0.96 h -2.4 q 0.08,-1.48 1.24,-2.4 1.18,-0.92 3.16,-0.92 2.1,0 3.26,0.98 1.16,0.98 1.16,2.76 v 7.46 h -2.44 v -2.06 q -0.14,1.06 -1,1.66 -0.86,0.6 -2.24,0.6 z m 0.8,-2.04 q 1.1,0 1.74,-0.54 0.64,-0.54 0.64,-1.44 v -1.3 h -2.56 q -0.82,0 -1.3,0.46 -0.48,0.46 -0.48,1.18 0,0.74 0.5,1.2 0.52,0.44 1.46,0.44 z m 6.880008,4.64 v -4.94 h 0.74 q 0.36,-0.36 0.72,-1.24 0.36,-0.9 0.38,-2.52 l 0.08,-5.1 h 7.78 v 8.86 h 1.34 v 4.94 h -2.3 v -2.8 h -6.44 v 2.8 z m 3.22,-4.94 h 4.1 v -6.7 h -3.08 l -0.04,2.96 q -0.02,1.56 -0.34,2.48 -0.3,0.9 -0.64,1.26 z m 9.860007,2.14 v -11 h 2.26 v 5.32 q 0,0.9 -0.06,1.92 -0.04,1 -0.22,1.72 l 3.9,-8.96 h 3.04 v 11 h -2.26 v -5.34 q 0,-0.88 0.04,-1.82 0.04,-0.94 0.22,-1.58 l -3.88,8.74 z m 12.000008,3.6 v -14.6 h 2.44 v 2.02 q 0.3,-1.04 1.08,-1.62 0.78,-0.6 1.94,-0.6 1.06,0 1.86,0.52 0.82,0.52 1.259995,1.48 0.46,0.94 0.46,2.2 v 2.98 q 0,1.9 -0.979995,3.06 -0.98,1.16 -2.6,1.16 -1.16,0 -1.96,-0.6 -0.78,-0.6 -1.08,-1.68 l 0.08,2.6 v 3.08 z m 4.52,-5.56 q 0.96,0 1.48,-0.52 0.54,-0.52 0.54,-1.6 v -2.84 q 0,-1.08 -0.54,-1.6 -0.52,-0.52 -1.48,-0.52 -0.96,0 -1.5,0.58 -0.52,0.58 -0.52,1.64 v 2.64 q 0,1.06 0.52,1.64 0.54,0.58 1.5,0.58 z"
       id="text12-1"
       style="font-weight:bold;font-size:20px;font-family:'JetBrains Mono';-inkscape-font-specification:'JetBrains Mono, Bold';white-space:pre;stroke-width:1.88976;stroke-linecap:square;stroke-dasharray:5.66929, 1.88976"
       transform="matrix(0.26458166,9.3691029e-4,-9.3691029e-4,0.26458166,3.3832685,113.03645)"
       aria-label="Надир&#10;" /><path
       d="m 44.329195,131.29098 v -6.33326 h -1.960539 v -1.15989 h 5.214417 v 1.15989 h -1.960539 v 6.33326 z m 4.516427,1.84763 v -7.49316 h 1.252282 v 1.03673 q 0.153969,-0.53376 0.554288,-0.83143 0.400319,-0.30794 0.995666,-0.30794 0.544024,0 0.954608,0.26688 0.420849,0.26688 0.64667,0.75958 0.236086,0.48243 0.236086,1.1291 v 1.52943 q 0,0.97514 -0.502966,1.57048 -0.502965,0.59535 -1.334398,0.59535 -0.595347,0 -1.005931,-0.30794 -0.400319,-0.30794 -0.554288,-0.86223 l 0.04106,1.3344 v 1.58075 z m 2.3198,-2.85356 q 0.492701,0 0.75958,-0.26688 0.277145,-0.26688 0.277145,-0.82117 v -1.45757 q 0,-0.55429 -0.277145,-0.82117 -0.266879,-0.26688 -0.75958,-0.26688 -0.492701,0 -0.769845,0.29768 -0.26688,0.29767 -0.26688,0.84169 v 1.35493 q 0,0.54403 0.26688,0.8417 0.277144,0.29767 0.769845,0.29767 z m 5.501829,1.10858 q -0.862226,0 -1.365191,-0.48244 -0.492701,-0.4927 -0.492701,-1.28307 0,-0.82117 0.564553,-1.30361 0.564553,-0.4927 1.549954,-0.4927 h 1.375457 v -0.40032 q 0,-0.85196 -0.995666,-0.85196 -0.451643,0 -0.718522,0.1745 -0.26688,0.1745 -0.297674,0.4927 h -1.231752 q 0.04106,-0.75958 0.636406,-1.23175 0.605611,-0.47217 1.621806,-0.47217 1.077783,0 1.67313,0.50296 0.595347,0.50297 0.595347,1.41652 v 3.82869 h -1.252281 v -1.05725 q -0.07185,0.54402 -0.51323,0.85196 -0.441378,0.30794 -1.149636,0.30794 z m 0.410584,-1.04699 q 0.564553,0 0.893021,-0.27714 0.328467,-0.27715 0.328467,-0.73906 v -0.66719 h -1.313869 q -0.420848,0 -0.667199,0.23608 -0.24635,0.23609 -0.24635,0.60561 0,0.37979 0.256615,0.61588 0.266879,0.22582 0.749315,0.22582 z m 6.384586,1.04699 q -0.718522,0 -1.252282,-0.27715 -0.533759,-0.27714 -0.831432,-0.7801 -0.287409,-0.51323 -0.287409,-1.20096 v -1.3344 q 0,-0.68773 0.287409,-1.19069 0.297673,-0.51323 0.831432,-0.79038 0.53376,-0.27714 1.252282,-0.27714 0.708257,0 1.231752,0.27714 0.533759,0.27715 0.821168,0.78011 0.297673,0.4927 0.297673,1.1599 v 1.02646 H 62.32305 v 0.39006 q 0,0.57481 0.297673,0.87249 0.297674,0.28741 0.841698,0.28741 0.400319,0 0.677463,-0.13344 0.287409,-0.14371 0.338732,-0.41059 h 1.27281 q -0.133439,0.72879 -0.75958,1.17017 -0.626141,0.43111 -1.529425,0.43111 z m -1.139371,-3.63367 v 0.19503 l 2.258212,-0.0103 v -0.19502 q 0,-0.58509 -0.287409,-0.90329 -0.287409,-0.3182 -0.831432,-0.3182 -0.564553,0 -0.851962,0.32847 -0.287409,0.3182 -0.287409,0.90328 z m 5.091245,3.53102 v -5.64553 h 1.283075 v 2.1761 h 0.903285 l 1.29334,-2.1761 h 1.447308 l -1.642336,2.73039 1.744982,2.91514 h -1.467837 l -1.375457,-2.30953 H 68.69737 v 2.30953 z m 7.708719,0 v -4.48563 h -1.929745 v -1.1599 h 5.152829 v 1.1599 h -1.929744 v 4.48563 z m 6.805434,0.0924 q -1.088048,0 -1.724453,-0.60561 -0.636405,-0.61587 -0.636405,-1.6526 v -1.31387 q 0,-1.04699 0.636405,-1.6526 0.636405,-0.60561 1.724453,-0.60561 1.088047,0 1.724452,0.60561 0.636406,0.60561 0.636406,1.6526 v 1.31387 q 0,1.03673 -0.636406,1.6526 -0.636405,0.60561 -1.724452,0.60561 z m 0,-1.11884 q 0.51323,0 0.790374,-0.27714 0.287409,-0.28741 0.287409,-0.82117 v -1.39598 q 0,-0.53376 -0.287409,-0.81091 -0.277144,-0.28741 -0.790374,-0.28741 -0.51323,0 -0.800639,0.28741 -0.277144,0.27715 -0.277144,0.81091 v 1.39598 q 0,0.53376 0.277144,0.82117 0.287409,0.27714 0.800639,0.27714 z m 3.869758,2.87409 v -7.49316 h 1.252281 v 1.03673 q 0.153969,-0.53376 0.554288,-0.83143 0.40032,-0.30794 0.995667,-0.30794 0.544023,0 0.954607,0.26688 0.420849,0.26688 0.64667,0.75958 0.236086,0.48243 0.236086,1.1291 v 1.52943 q 0,0.97514 -0.502966,1.57048 -0.502965,0.59535 -1.334397,0.59535 -0.595347,0 -1.005931,-0.30794 -0.40032,-0.30794 -0.554289,-0.86223 l 0.04106,1.3344 v 1.58075 z m 2.319799,-2.85356 q 0.492701,0 0.759581,-0.26688 0.277144,-0.26688 0.277144,-0.82117 v -1.45757 q 0,-0.55429 -0.277144,-0.82117 -0.26688,-0.26688 -0.759581,-0.26688 -0.4927,0 -0.769845,0.29768 -0.266879,0.29767 -0.266879,0.84169 v 1.35493 q 0,0.54403 0.266879,0.8417 0.277145,0.29767 0.769845,0.29767 z m 3.838965,1.00593 v -5.64553 h 1.159899 v 2.73039 q 0,0.4619 -0.03079,0.9854 -0.02053,0.51323 -0.112911,0.88275 l 2.001597,-4.59854 h 1.560219 v 5.64553 h -1.1599 v -2.74065 q 0,-0.45164 0.02053,-0.93407 0.02053,-0.48244 0.11291,-0.81091 l -1.991332,4.48563 z m 5.932942,0 1.324134,-2.07345 q -0.564553,-0.17449 -0.89302,-0.61587 -0.318203,-0.45164 -0.318203,-1.06752 0,-0.88276 0.595347,-1.38572 0.595347,-0.50297 1.64234,-0.50297 h 2.45324 v 5.64553 h -1.28308 v -1.95027 h -0.89302 l -1.149635,1.95027 z m 2.401918,-2.94594 h 1.11884 v -1.6526 h -1.11884 q -0.461908,0 -0.739052,0.22582 -0.26688,0.21556 -0.26688,0.60561 0,0.39006 0.26688,0.60562 0.266879,0.21555 0.739052,0.21555 z m 10.14143,2.94594 v -5.64553 h 4.57801 v 5.64553 h -1.28308 v -4.47536 h -2.01186 v 4.47536 z m 8.44777,0.0924 q -1.08805,0 -1.72445,-0.60561 -0.63641,-0.61587 -0.63641,-1.6526 v -1.31387 q 0,-1.04699 0.63641,-1.6526 0.6364,-0.60561 1.72445,-0.60561 1.08805,0 1.72445,0.60561 0.63641,0.60561 0.63641,1.6526 v 1.31387 q 0,1.03673 -0.63641,1.6526 -0.6364,0.60561 -1.72445,0.60561 z m 0,-1.11884 q 0.51323,0 0.79038,-0.27714 0.2874,-0.28741 0.2874,-0.82117 v -1.39598 q 0,-0.53376 -0.2874,-0.81091 -0.27715,-0.28741 -0.79038,-0.28741 -0.51323,0 -0.80064,0.28741 -0.27714,0.27715 -0.27714,0.81091 v 1.39598 q 0,0.53376 0.27714,0.82117 0.28741,0.27714 0.80064,0.27714 z m 3.30521,1.09832 v -1.17017 h 0.23609 q 0.34899,0 0.52349,-0.27714 0.18476,-0.28741 0.19503,-0.90329 l 0.0616,-3.36679 h 4.12636 v 5.64553 h -1.28307 v -4.48563 h -1.58075 l -0.0411,2.27874 q -0.0205,1.11885 -0.52349,1.70393 -0.4927,0.57482 -1.39599,0.57482 z m 9.02258,0.0308 q -0.71852,0 -1.25228,-0.27715 -0.53376,-0.27714 -0.83143,-0.7801 -0.28741,-0.51323 -0.28741,-1.20096 v -1.3344 q 0,-0.68773 0.28741,-1.19069 0.29767,-0.51323 0.83143,-0.79038 0.53376,-0.27714 1.25228,-0.27714 0.70826,0 1.23176,0.27714 0.53375,0.27715 0.82116,0.78011 0.29768,0.4927 0.29768,1.1599 v 1.02646 h -3.48997 v 0.39006 q 0,0.57481 0.29768,0.87249 0.29767,0.28741 0.84169,0.28741 0.40032,0 0.67747,-0.13344 0.28741,-0.14371 0.33873,-0.41059 h 1.27281 q -0.13344,0.72879 -0.75958,1.17017 -0.62614,0.43111 -1.52943,0.43111 z m -1.13937,-3.63367 v 0.19503 l 2.25821,-0.0103 v -0.19502 q 0,-0.58509 -0.2874,-0.90329 -0.28741,-0.3182 -0.83144,-0.3182 -0.56455,0 -0.85196,0.32847 -0.28741,0.3182 -0.28741,0.90328 z m 2.33007,-3.05885 q -0.33873,0 -0.54403,-0.19503 -0.20529,-0.20529 -0.20529,-0.54402 0,-0.33873 0.20529,-0.53376 0.2053,-0.20529 0.54403,-0.20529 0.34899,0 0.55429,0.20529 0.20529,0.19503 0.20529,0.53376 0,0.33873 -0.20529,0.54402 -0.2053,0.19503 -0.55429,0.19503 z m -2.40192,0 q -0.349,0 -0.55429,-0.19503 -0.20529,-0.20529 -0.20529,-0.54402 0,-0.33873 0.20529,-0.53376 0.20529,-0.20529 0.55429,-0.20529 0.33873,0 0.54402,0.20529 0.2053,0.19503 0.2053,0.53376 0,0.33873 -0.2053,0.54402 -0.20529,0.19503 -0.54402,0.19503 z m 6.71305,6.58987 v -4.48563 h -1.92975 v -1.1599 h 5.15283 v 1.1599 h -1.92974 v 4.48563 z m 6.1793,0.10265 q -0.86223,0 -1.3652,-0.48244 -0.4927,-0.4927 -0.4927,-1.28307 0,-0.82117 0.56456,-1.30361 0.56455,-0.4927 1.54995,-0.4927 h 1.37546 v -0.40032 q 0,-0.85196 -0.99567,-0.85196 -0.45164,0 -0.71852,0.1745 -0.26688,0.1745 -0.29767,0.4927 h -1.23176 q 0.0411,-0.75958 0.63641,-1.23175 0.60561,-0.47217 1.62181,-0.47217 1.07778,0 1.67313,0.50296 0.59534,0.50297 0.59534,1.41652 v 3.82869 h -1.25228 v -1.05725 q -0.0718,0.54402 -0.51323,0.85196 -0.44138,0.30794 -1.14963,0.30794 z m 0.41058,-1.04699 q 0.56455,0 0.89302,-0.27714 0.32847,-0.27715 0.32847,-0.73906 v -0.66719 h -1.31387 q -0.42085,0 -0.6672,0.23608 -0.24635,0.23609 -0.24635,0.60561 0,0.37979 0.25661,0.61588 0.26688,0.22582 0.74932,0.22582 z"
       id="text3"
       style="font-weight:bold;font-size:10.2646px;font-family:'JetBrains Mono';-inkscape-font-specification:'JetBrains Mono, Bold';white-space:pre;stroke-width:1.88976;stroke-linecap:square;stroke-dasharray:5.66929, 1.88976"
       transform="matrix(0.48908157,-0.16298404,0.16298404,0.48908157,77.533452,-9.9178402)"
       aria-label="Траектория полёта&#10;" /><path
       d="m 42.13257,132.72803 v -2.53536 h 0.37979 q 0.184763,-0.18476 0.369526,-0.6364 0.184763,-0.46191 0.195027,-1.29334 l 0.04106,-2.61748 h 3.992929 v 4.54722 h 0.687728 v 2.53536 H 46.6182 v -1.43705 h -3.305201 v 1.43705 z m 1.652601,-2.53536 h 2.104243 v -3.43864 h -1.580749 l -0.02053,1.51916 q -0.01026,0.80064 -0.174498,1.27281 -0.153969,0.46191 -0.328467,0.64667 z m 6.723317,1.20096 q -0.862227,0 -1.365192,-0.48244 -0.492701,-0.4927 -0.492701,-1.28307 0,-0.82117 0.564553,-1.30361 0.564553,-0.4927 1.549955,-0.4927 h 1.375456 v -0.40032 q 0,-0.85196 -0.995666,-0.85196 -0.451643,0 -0.718522,0.1745 -0.26688,0.1745 -0.297674,0.4927 h -1.231752 q 0.04106,-0.75958 0.636406,-1.23175 0.605611,-0.47217 1.621806,-0.47217 1.077783,0 1.67313,0.50296 0.595347,0.50297 0.595347,1.41652 v 3.82869 h -1.252281 v -1.05725 q -0.07185,0.54402 -0.51323,0.85196 -0.441378,0.30794 -1.149635,0.30794 z m 0.410584,-1.04699 q 0.564553,0 0.89302,-0.27714 0.328467,-0.27715 0.328467,-0.73906 v -0.66719 H 50.82669 q -0.420848,0 -0.667199,0.23608 -0.24635,0.23609 -0.24635,0.60561 0,0.37979 0.256615,0.61588 0.266879,0.22582 0.749316,0.22582 z m 3.520761,1.0162 v -1.17017 h 0.236086 q 0.348997,0 0.523495,-0.27714 0.184763,-0.28741 0.195027,-0.90329 l 0.06159,-3.36679 H 59.5824 v 5.64553 h -1.283075 v -4.48563 h -1.580749 l -0.04106,2.27874 q -0.02053,1.11885 -0.523494,1.70393 -0.492701,0.57482 -1.395986,0.57482 z m 6.825963,-0.0719 v -5.64553 h 1.29334 v 1.84763 h 1.40625 q 1.016195,0 1.601278,0.51323 0.585082,0.50297 0.585082,1.39599 0,0.87249 -0.595347,1.38572 -0.585082,0.50296 -1.580748,0.50296 z m 1.29334,-1.11884 h 1.354927 q 0.441378,0 0.687728,-0.20529 0.246351,-0.20529 0.246351,-0.57482 0,-0.36952 -0.246351,-0.57482 -0.24635,-0.20529 -0.687728,-0.20529 h -1.354927 z m 4.762778,1.11884 v -5.64553 h 1.283075 v 2.1761 h 2.011862 v -2.1761 h 1.283075 v 5.64553 h -1.283075 v -2.30953 h -2.011862 v 2.30953 z m 8.44777,0.0924 q -1.088048,0 -1.724453,-0.60561 -0.636405,-0.61587 -0.636405,-1.6526 v -1.31387 q 0,-1.04699 0.636405,-1.6526 0.636405,-0.60561 1.724453,-0.60561 1.088047,0 1.724453,0.60561 0.636405,0.60561 0.636405,1.6526 v 1.31387 q 0,1.03673 -0.636405,1.6526 -0.636406,0.60561 -1.724453,0.60561 z m 0,-1.11884 q 0.51323,0 0.790374,-0.27714 0.287409,-0.28741 0.287409,-0.82117 v -1.39598 q 0,-0.53376 -0.287409,-0.81091 -0.277144,-0.28741 -0.790374,-0.28741 -0.51323,0 -0.800639,0.28741 -0.277144,0.27715 -0.277144,0.81091 v 1.39598 q 0,0.53376 0.277144,0.82117 0.287409,0.27714 0.800639,0.27714 z m 6.251145,1.12911 q -0.728787,0 -1.27281,-0.26688 -0.53376,-0.27714 -0.831433,-0.76985 -0.297673,-0.50296 -0.297673,-1.18042 v -1.41652 q 0,-0.67746 0.297673,-1.17016 0.297673,-0.50297 0.831433,-0.76985 0.544023,-0.27714 1.27281,-0.27714 1.057254,0 1.693659,0.55429 0.64667,0.54402 0.677464,1.48836 h -1.262546 q -0.03079,-0.44138 -0.338732,-0.67746 -0.297673,-0.24635 -0.769845,-0.24635 -0.523495,0 -0.821168,0.28741 -0.297673,0.27714 -0.297673,0.80064 v 1.42678 q 0,0.52349 0.297673,0.8109 0.297673,0.28741 0.821168,0.28741 0.482436,0 0.78011,-0.23609 0.297673,-0.24635 0.328467,-0.68773 h 1.262546 q -0.03079,0.94435 -0.677464,1.49864 -0.636405,0.54402 -1.693659,0.54402 z m 5.419713,-0.10265 v -4.48563 h -1.929745 v -1.1599 h 5.152829 v 1.1599 h -1.929745 v 4.48563 z m 4.619074,0 v -5.64553 h 1.293339 v 1.84763 h 1.40625 q 1.016196,0 1.601278,0.51323 0.585082,0.50297 0.585082,1.39599 0,0.87249 -0.595347,1.38572 -0.585082,0.50296 -1.580748,0.50296 z m 1.293339,-1.11884 h 1.354927 q 0.441378,0 0.687729,-0.20529 0.24635,-0.20529 0.24635,-0.57482 0,-0.36952 -0.24635,-0.57482 -0.246351,-0.20529 -0.687729,-0.20529 h -1.354927 z"
       id="text3-3-3"
       style="font-weight:bold;font-size:10.2646px;font-family:'JetBrains Mono';-inkscape-font-specification:'JetBrains Mono, Bold';white-space:pre;stroke-width:1.88976;stroke-linecap:square;stroke-dasharray:5.66929, 1.88976"
       transform="matrix(0.30690178,0.41421718,-0.41421718,0.30690178,96.340404,135.09851)"
       aria-label="дальность" /><path
       d="m 44.376488,146.0156 v -19.4667 h 6.000007 q 1.733336,0 3.040004,0.72001 1.306668,0.69333 2.026669,1.94666 0.720001,1.25334 0.720001,2.93334 0,1.97334 -1.013335,3.38667 -1.013334,1.41334 -2.693336,1.97334 l 3.973338,8.50668 h -2.640003 l -3.813338,-8.26668 h -3.226671 v 8.26668 z m 2.373336,-10.42668 h 3.626671 q 1.493335,0 2.400003,-0.93334 0.906668,-0.96 0.906668,-2.50667 0,-1.57333 -0.906668,-2.50667 -0.906668,-0.93333 -2.400003,-0.93333 h -3.626671 z"
       id="text12-9"
       style="font-size:26.6667px;font-family:'JetBrains Mono';-inkscape-font-specification:'JetBrains Mono, Normal';white-space:pre;stroke-width:1.88976;stroke-linecap:square;stroke-dasharray:5.66929, 1.88976"
       transform="matrix(0.26457792,0.0016913,-0.0016913,0.26457792,71.489468,82.70858)"
       aria-label="R" /><g
       id="text12-9-8"
       style="font-size:26.6667px;font-family:'JetBrains Mono';-inkscape-font-specification:'JetBrains Mono, Normal';white-space:pre;fill:#808080;stroke-width:1.88976;stroke-linecap:square;stroke-dasharray:5.66929, 1.88976"
       transform="matrix(0.26457792,0.0016913,-0.0016913,0.26457792,32.886662,146.17492)"
       aria-label="R1"><path
         d="m 44.376488,146.0156 v -19.4667 h 6.000007 q 1.733336,0 3.040004,0.72001 1.306668,0.69333 2.026669,1.94666 0.720001,1.25334 0.720001,2.93334 0,1.97334 -1.013335,3.38667 -1.013334,1.41334 -2.693336,1.97334 l 3.973338,8.50668 h -2.640003 l -3.813338,-8.26668 h -3.226671 v 8.26668 z m 2.373336,-10.42668 h 3.626671 q 1.493335,0 2.400003,-0.93334 0.906668,-0.96 0.906668,-2.50667 0,-1.57333 -0.906668,-2.50667 -0.906668,-0.93333 -2.400003,-0.93333 h -3.626671 z"
         id="path27" /><path
         style="font-size:17.3334px;baseline-shift:sub"
         d="m 59.456517,151.34894 v -1.42134 h 3.432004 v -9.88001 l -3.432004,2.56534 v -1.78534 l 2.860003,-2.132 h 2.132003 v 11.23201 h 2.808004 v 1.42134 z"
         id="path28" /></g><g
       id="text12-9-8-5"
       style="font-size:26.6667px;font-family:'JetBrains Mono';-inkscape-font-specification:'JetBrains Mono, Normal';white-space:pre;fill:#808080;stroke-width:1.88976;stroke-linecap:square;stroke-dasharray:5.66929, 1.88976"
       transform="matrix(0.26457792,0.0016913,-0.0016913,0.26457792,78.943384,208.64621)"
       aria-label="R2"><path
         d="m 44.376488,146.0156 v -19.4667 h 6.000007 q 1.733336,0 3.040004,0.72001 1.306668,0.69333 2.026669,1.94666 0.720001,1.25334 0.720001,2.93334 0,1.97334 -1.013335,3.38667 -1.013334,1.41334 -2.693336,1.97334 l 3.973338,8.50668 h -2.640003 l -3.813338,-8.26668 h -3.226671 v 8.26668 z m 2.373336,-10.42668 h 3.626671 q 1.493335,0 2.400003,-0.93334 0.906668,-0.96 0.906668,-2.50667 0,-1.57333 -0.906668,-2.50667 -0.906668,-0.93333 -2.400003,-0.93333 h -3.626671 z"
         id="path25" /><path
         style="font-size:17.3334px;baseline-shift:sub"
         d="m 59.387183,151.34894 v -1.43867 l 4.212006,-4.50667 q 0.918667,-0.97067 1.300001,-1.73334 0.381334,-0.76267 0.381334,-1.49067 0,-1.04 -0.606667,-1.64667 -0.589334,-0.624 -1.612002,-0.624 -1.057335,0 -1.681336,0.64134 -0.606667,0.624 -0.606667,1.69866 H 59.21385 q 0.052,-1.716 1.092001,-2.72133 1.040002,-1.00534 2.756004,-1.00534 1.750669,0 2.773336,0.988 1.040002,0.98801 1.040002,2.68667 0,0.90134 -0.502668,1.90667 -0.485333,1.00534 -1.681335,2.25334 l -3.414671,3.57067 h 5.754674 v 1.42134 z"
         id="path26" /></g><g
       id="text12-9-7-8"
       style="font-size:26.6667px;font-family:'JetBrains Mono';-inkscape-font-specification:'JetBrains Mono, Normal';white-space:pre;stroke-width:1.88976;stroke-linecap:square;stroke-dasharray:5.66929, 1.88976"
       transform="matrix(0.26453141,-0.00524129,0.00524129,0.26453141,109.35403,69.357425)"
       aria-label="R0"><path
         d="m 44.376488,146.0156 v -19.4667 h 6.000007 q 1.733336,0 3.040004,0.72001 1.306668,0.69333 2.026669,1.94666 0.720001,1.25334 0.720001,2.93334 0,1.97334 -1.013335,3.38667 -1.013334,1.41334 -2.693336,1.97334 l 3.973338,8.50668 h -2.640003 l -3.813338,-8.26668 h -3.226671 v 8.26668 z m 2.373336,-10.42668 h 3.626671 q 1.493335,0 2.400003,-0.93334 0.906668,-0.96 0.906668,-2.50667 0,-1.57333 -0.906668,-2.50667 -0.906668,-0.93333 -2.400003,-0.93333 h -3.626671 z"
         id="path19" /><path
         style="font-size:17.3334px;baseline-shift:sub"
         d="m 63.096521,151.52227 q -1.750668,0 -2.79067,-1.00533 -1.022668,-1.02267 -1.022668,-2.72134 v -5.54668 q 0,-1.69866 1.022668,-2.704 1.040002,-1.02267 2.79067,-1.02267 1.750669,0 2.773337,1.02267 1.040001,1.00534 1.040001,2.704 v 5.54668 q 0,1.12667 -0.468,1.976 -0.468001,0.832 -1.334668,1.3 -0.849335,0.45067 -2.01067,0.45067 z m 0,-1.33467 q 1.040002,0 1.664002,-0.65867 0.641335,-0.676 0.641335,-1.73333 v -5.54668 q 0,-1.05733 -0.641335,-1.716 -0.624,-0.676 -1.664002,-0.676 -1.040001,0 -1.681335,0.676 -0.624001,0.65867 -0.624001,1.716 v 5.54668 q 0,1.05733 0.624001,1.73333 0.641334,0.65867 1.681335,0.65867 z m 0,-4.212 q -0.468,0 -0.762667,-0.26 -0.277334,-0.26 -0.277334,-0.74534 0,-0.468 0.277334,-0.71067 0.294667,-0.26 0.762667,-0.26 0.468001,0 0.745335,0.26 0.294667,0.24267 0.294667,0.71067 0,0.48534 -0.294667,0.74534 -0.277334,0.26 -0.745335,0.26 z"
         id="path20" /></g><g
       id="text12-9-7-8-2"
       style="font-size:26.6667px;font-family:'JetBrains Mono';-inkscape-font-specification:'JetBrains Mono, Normal';white-space:pre;stroke-width:1.88976;stroke-linecap:square;stroke-dasharray:5.66929, 1.88976"
       transform="matrix(0.26453141,-0.00524129,0.00524129,0.26453141,41.032583,90.655856)"
       aria-label="R0"><path
         d="m 44.376488,146.0156 v -19.4667 h 6.000007 q 1.733336,0 3.040004,0.72001 1.306668,0.69333 2.026669,1.94666 0.720001,1.25334 0.720001,2.93334 0,1.97334 -1.013335,3.38667 -1.013334,1.41334 -2.693336,1.97334 l 3.973338,8.50668 h -2.640003 l -3.813338,-8.26668 h -3.226671 v 8.26668 z m 2.373336,-10.42668 h 3.626671 q 1.493335,0 2.400003,-0.93334 0.906668,-0.96 0.906668,-2.50667 0,-1.57333 -0.906668,-2.50667 -0.906668,-0.93333 -2.400003,-0.93333 h -3.626671 z"
         id="path17" /><path
         style="font-size:65%;baseline-shift:sub"
         d="m 63.096521,151.52227 q -1.750668,0 -2.79067,-1.00533 -1.022668,-1.02267 -1.022668,-2.72134 v -5.54668 q 0,-1.69866 1.022668,-2.704 1.040002,-1.02267 2.79067,-1.02267 1.750669,0 2.773337,1.02267 1.040001,1.00534 1.040001,2.704 v 5.54668 q 0,1.12667 -0.468,1.976 -0.468001,0.832 -1.334668,1.3 -0.849335,0.45067 -2.01067,0.45067 z m 0,-1.33467 q 1.040002,0 1.664002,-0.65867 0.641335,-0.676 0.641335,-1.73333 v -5.54668 q 0,-1.05733 -0.641335,-1.716 -0.624,-0.676 -1.664002,-0.676 -1.040001,0 -1.681335,0.676 -0.624001,0.65867 -0.624001,1.716 v 5.54668 q 0,1.05733 0.624001,1.73333 0.641334,0.65867 1.681335,0.65867 z m 0,-4.212 q -0.468,0 -0.762667,-0.26 -0.277334,-0.26 -0.277334,-0.74534 0,-0.468 0.277334,-0.71067 0.294667,-0.26 0.762667,-0.26 0.468001,0 0.745335,0.26 0.294667,0.24267 0.294667,0.71067 0,0.48534 -0.294667,0.74534 -0.277334,0.26 -0.745335,0.26 z"
         id="path18" /></g><path
       d="m 45.057981,131.39363 q -0.728786,0 -1.262546,-0.26688 -0.533759,-0.27714 -0.831432,-0.76985 -0.287409,-0.50296 -0.287409,-1.18042 v -3.26415 q 0,-0.67746 0.287409,-1.17016 0.297673,-0.50297 0.831432,-0.76985 0.53376,-0.27714 1.262546,-0.27714 0.718522,0 1.252281,0.27714 0.533759,0.26688 0.831433,0.76985 0.297673,0.4927 0.297673,1.17016 h -1.293339 q 0,-0.52349 -0.287409,-0.80064 -0.277144,-0.2874 -0.800639,-0.2874 -0.523494,0 -0.810903,0.2874 -0.287409,0.27715 -0.287409,0.80064 v 3.26415 q 0,0.52349 0.287409,0.8109 0.287409,0.27714 0.810903,0.27714 0.523495,0 0.800639,-0.27714 0.287409,-0.28741 0.287409,-0.8109 h 1.293339 q 0,0.67746 -0.297673,1.18042 -0.297674,0.49271 -0.831433,0.76985 -0.533759,0.26688 -1.252281,0.26688 z m 3.223088,-0.0308 v -1.17017 h 0.236086 q 0.348997,0 0.523495,-0.27714 0.184763,-0.28741 0.195027,-0.90329 l 0.06159,-3.36679 h 4.126369 v 5.64553 h -1.283075 v -4.48563 h -1.580748 l -0.04106,2.27874 q -0.02053,1.11885 -0.523494,1.70393 -0.492701,0.57482 -1.395986,0.57482 z m 9.022588,0.0308 q -0.718522,0 -1.252281,-0.27715 -0.53376,-0.27714 -0.831433,-0.7801 -0.287409,-0.51323 -0.287409,-1.20096 v -1.3344 q 0,-0.68773 0.287409,-1.19069 0.297673,-0.51323 0.831433,-0.79038 0.533759,-0.27714 1.252281,-0.27714 0.708257,0 1.231752,0.27714 0.533759,0.27715 0.821168,0.78011 0.297673,0.4927 0.297673,1.1599 v 1.02646 h -3.489964 v 0.39006 q 0,0.57481 0.297674,0.87249 0.297673,0.28741 0.841697,0.28741 0.400319,0 0.677463,-0.13344 0.287409,-0.14371 0.338732,-0.41059 h 1.27281 q -0.133439,0.72879 -0.75958,1.17017 -0.626141,0.43111 -1.529425,0.43111 z m -1.139371,-3.63367 v 0.19503 l 2.258212,-0.0103 v -0.19502 q 0,-0.58509 -0.287409,-0.90329 -0.287409,-0.3182 -0.831432,-0.3182 -0.564553,0 -0.851962,0.32847 -0.287409,0.3182 -0.287409,0.90328 z m 4.444576,4.96807 v -2.53536 h 0.37979 q 0.184763,-0.18476 0.369526,-0.6364 0.184762,-0.46191 0.195027,-1.29334 l 0.04106,-2.61748 h 3.99293 v 4.54722 h 0.687728 v 2.53536 h -1.180429 v -1.43705 h -3.305201 v 1.43705 z m 1.6526,-2.53536 h 2.104243 v -3.43864 h -1.580748 l -0.02053,1.51916 q -0.01027,0.80064 -0.174498,1.27281 -0.153969,0.46191 -0.328468,0.64667 z m 10.654663,1.17017 v -1.17017 h 0.236086 q 0.348996,0 0.523494,-0.27714 0.184763,-0.28741 0.195028,-0.90329 l 0.06159,-3.36679 h 4.126369 v 5.64553 h -1.283074 v -4.48563 h -1.580749 l -0.04106,2.27874 q -0.02053,1.11885 -0.523495,1.70393 -0.492701,0.57482 -1.395985,0.57482 z m 7.626602,1.77577 0.800638,-2.15556 -2.124772,-5.3376 h 1.354927 l 1.088048,2.88436 q 0.09238,0.25661 0.184763,0.56455 0.09238,0.29767 0.13344,0.55429 0.03079,-0.25662 0.11291,-0.55429 0.09238,-0.30794 0.184763,-0.56455 l 1.005931,-2.88436 h 1.354927 l -2.750913,7.49316 z m 8.488828,-1.84763 v -1.81683 h -1.40625 q -0.934079,0 -1.457574,-0.4927 -0.523494,-0.50297 -0.523494,-1.38572 v -1.95028 h 1.283075 v 1.88869 q 0,0.36953 0.236086,0.57482 0.236085,0.20529 0.656934,0.20529 h 1.211223 v -2.6688 h 1.293339 v 5.64553 z m 4.58828,0.10265 q -0.862227,0 -1.365192,-0.48244 -0.492701,-0.4927 -0.492701,-1.28307 0,-0.82117 0.564553,-1.30361 0.564553,-0.4927 1.549955,-0.4927 h 1.375456 v -0.40032 q 0,-0.85196 -0.995666,-0.85196 -0.451642,0 -0.718522,0.1745 -0.26688,0.1745 -0.297673,0.4927 h -1.231752 q 0.04106,-0.75958 0.636405,-1.23175 0.605611,-0.47217 1.621807,-0.47217 1.077783,0 1.673129,0.50296 0.595347,0.50297 0.595347,1.41652 v 3.82869 H 95.2827 v -1.05725 q -0.07185,0.54402 -0.51323,0.85196 -0.441378,0.30794 -1.149635,0.30794 z m 0.410584,-1.04699 q 0.564553,0 0.89302,-0.27714 0.328467,-0.27715 0.328467,-0.73906 v -0.66719 h -1.313869 q -0.420848,0 -0.667199,0.23608 -0.24635,0.23609 -0.24635,0.60561 0,0.37979 0.256615,0.61588 0.26688,0.22582 0.749316,0.22582 z"
       id="text3-3-1"
       style="font-weight:bold;font-size:10.2646px;font-family:'JetBrains Mono';-inkscape-font-specification:'JetBrains Mono, Bold';white-space:pre;stroke-width:1.88976;stroke-linecap:square;stroke-dasharray:5.66929, 1.88976"
       transform="matrix(0.50765122,0.08974864,-0.08974864,0.50765122,123.25112,143.42879)"
       aria-label="След луча" /><path
       d="m 43.67226,131.29098 0.769845,-1.91948 -2.18636,-5.57367 h 1.395986 l 1.129106,3.3052 q 0.102646,0.28741 0.174498,0.60561 0.08212,0.30794 0.102646,0.50296 0.02053,-0.19502 0.08212,-0.50296 0.07185,-0.3182 0.153969,-0.60561 l 1.036724,-3.3052 h 1.365192 l -2.668796,7.49315 z m 5.645534,0 v -5.64553 h 4.208486 v 1.1907 h -2.925411 v 4.45483 z m 7.975598,0.0924 q -1.088047,0 -1.724453,-0.60561 -0.636405,-0.61587 -0.636405,-1.6526 v -1.31387 q 0,-1.04699 0.636405,-1.6526 0.636406,-0.60561 1.724453,-0.60561 1.088048,0 1.724453,0.60561 0.636405,0.60561 0.636405,1.6526 v 1.31387 q 0,1.03673 -0.636405,1.6526 -0.636405,0.60561 -1.724453,0.60561 z m 0,-1.11884 q 0.51323,0 0.790374,-0.27714 0.287409,-0.28741 0.287409,-0.82117 v -1.39598 q 0,-0.53376 -0.287409,-0.81091 -0.277144,-0.28741 -0.790374,-0.28741 -0.51323,0 -0.800639,0.28741 -0.277144,0.27715 -0.277144,0.81091 v 1.39598 q 0,0.53376 0.277144,0.82117 0.287409,0.27714 0.800639,0.27714 z m 3.305205,1.09832 v -1.17017 h 0.236086 q 0.348996,0 0.523495,-0.27714 0.184762,-0.28741 0.195027,-0.90329 l 0.06159,-3.36679 h 4.126369 v 5.64553 h -1.283075 v -4.48563 H 62.87734 l -0.04106,2.27874 q -0.02053,1.11885 -0.523495,1.70393 -0.4927,0.57482 -1.395985,0.57482 z m 15.263468,0.0308 q -0.728786,0 -1.27281,-0.26688 -0.533759,-0.27714 -0.831433,-0.76985 -0.297673,-0.50296 -0.297673,-1.18042 v -1.41652 q 0,-0.67746 0.297673,-1.17016 0.297674,-0.50297 0.831433,-0.76985 0.544024,-0.27714 1.27281,-0.27714 1.057254,0 1.693659,0.55429 0.64667,0.54402 0.677464,1.48836 h -1.262546 q -0.03079,-0.44138 -0.338732,-0.67746 -0.297673,-0.24635 -0.769845,-0.24635 -0.523494,0 -0.821168,0.28741 -0.297673,0.27714 -0.297673,0.80064 v 1.42678 q 0,0.52349 0.297673,0.8109 0.297674,0.28741 0.821168,0.28741 0.482436,0 0.78011,-0.23609 0.297673,-0.24635 0.328467,-0.68773 h 1.262546 q -0.03079,0.94435 -0.677464,1.49864 -0.636405,0.54402 -1.693659,0.54402 z m 3.869758,-0.10265 v -5.64553 h 1.283075 v 2.1761 h 0.903285 l 1.29334,-2.1761 h 1.447308 l -1.642336,2.73039 1.744982,2.91514 h -1.467838 l -1.375456,-2.30953 h -0.903285 v 2.30953 z m 8.355389,0.0924 q -1.088048,0 -1.724453,-0.60561 -0.636405,-0.61587 -0.636405,-1.6526 v -1.31387 q 0,-1.04699 0.636405,-1.6526 0.636405,-0.60561 1.724453,-0.60561 1.088047,0 1.724452,0.60561 0.636405,0.60561 0.636405,1.6526 v 1.31387 q 0,1.03673 -0.636405,1.6526 -0.636405,0.60561 -1.724452,0.60561 z m 0,-1.11884 q 0.51323,0 0.790374,-0.27714 0.287408,-0.28741 0.287408,-0.82117 v -1.39598 q 0,-0.53376 -0.287408,-0.81091 -0.277144,-0.28741 -0.790374,-0.28741 -0.51323,0 -0.800639,0.28741 -0.277144,0.27715 -0.277144,0.81091 v 1.39598 q 0,0.53376 0.277144,0.82117 0.287409,0.27714 0.800639,0.27714 z m 6.251145,1.12911 q -0.728787,0 -1.272811,-0.26688 -0.533759,-0.27714 -0.831432,-0.76985 -0.297674,-0.50296 -0.297674,-1.18042 v -1.41652 q 0,-0.67746 0.297674,-1.17016 0.297673,-0.50297 0.831432,-0.76985 0.544024,-0.27714 1.272811,-0.27714 1.057254,0 1.693659,0.55429 0.64667,0.54402 0.677463,1.48836 h -1.262545 q -0.03079,-0.44138 -0.338732,-0.67746 -0.297674,-0.24635 -0.769845,-0.24635 -0.523495,0 -0.821168,0.28741 -0.297674,0.27714 -0.297674,0.80064 v 1.42678 q 0,0.52349 0.297674,0.8109 0.297673,0.28741 0.821168,0.28741 0.482436,0 0.780109,-0.23609 0.297674,-0.24635 0.328468,-0.68773 h 1.262545 q -0.03079,0.94435 -0.677463,1.49864 -0.636405,0.54402 -1.693659,0.54402 z m 5.440242,0 q -0.862227,0 -1.365192,-0.48244 -0.492701,-0.4927 -0.492701,-1.28307 0,-0.82117 0.564553,-1.30361 0.564553,-0.4927 1.549951,-0.4927 h 1.37546 v -0.40032 q 0,-0.85196 -0.99567,-0.85196 -0.451639,0 -0.718518,0.1745 -0.26688,0.1745 -0.297673,0.4927 h -1.231752 q 0.04106,-0.75958 0.636405,-1.23175 0.605611,-0.47217 1.621808,-0.47217 1.07778,0 1.67313,0.50296 0.59535,0.50297 0.59535,1.41652 v 3.82869 h -1.25229 v -1.05725 q -0.0719,0.54402 -0.51323,0.85196 -0.44137,0.30794 -1.149631,0.30794 z m 0.410581,-1.04699 q 0.56456,0 0.89302,-0.27714 0.32847,-0.27715 0.32847,-0.73906 v -0.66719 h -1.31387 q -0.420847,0 -0.667198,0.23608 -0.24635,0.23609 -0.24635,0.60561 0,0.37979 0.256615,0.61588 0.266879,0.22582 0.749313,0.22582 z"
       id="text3-3-1-9"
       style="font-weight:bold;font-size:10.2646px;font-family:'JetBrains Mono';-inkscape-font-specification:'JetBrains Mono, Bold';white-space:pre;stroke-width:1.88934;stroke-linecap:square;stroke-dasharray:5.66803, 1.88934"
       transform="matrix(0.51551838,-0.00231867,0.00231867,0.51551838,45.307088,17.285518)"
       aria-label="Угол скоса" /><path
       style="fill:none;stroke:#000000;stroke-width:0.5;stroke-linecap:square;stroke-dasharray:1.5, 0.5;stroke-dashoffset:0;stroke-opacity:1"
       d="m -80.029791,170.54832 c 1.816905,-1.63826 3.633777,-3.27649 5.899543,-4.54214 2.265766,-1.26566 4.98025,-2.15864 7.694789,-3.05164"
       id="path8"
       transform="rotate(180,-11.543424,133.25225)" /><path
       style="fill:none;stroke:#000000;stroke-width:0.5;stroke-linecap:square;stroke-miterlimit:4;stroke-dasharray:none;stroke-dashoffset:0;stroke-opacity:1;marker-end:url(#marker11)"
       d="M 66.270751,83.997104 52.510134,96.610998"
       id="path14" /><path
       style="fill:none;stroke:#000000;stroke-width:0.5;stroke-linecap:square;stroke-miterlimit:4;stroke-dasharray:none;stroke-dashoffset:0;stroke-opacity:1;marker-end:url(#marker11-3)"
       d="m 140.91829,143.09158 -30.77026,5.25578"
       id="path14-6" /><path
       style="fill:none;stroke:#000000;stroke-width:0.5;stroke-linecap:square;stroke-miterlimit:4;stroke-dasharray:none;stroke-dashoffset:0;stroke-opacity:1;marker-end:url(#marker11-4)"
       d="m 144.35273,156.3065 -3.39708,6.07274"
       id="path14-7" /><path
       style="fill:#000000;fill-opacity:0.94902;stroke:#808080;stroke-width:1;stroke-dasharray:2.99999, 1;stroke-dashoffset:0;stroke-opacity:1"
       d="M 51.022186,180.53706 126.09686,155.78898"
       id="path15-7" /><path
       style="fill:#000000;fill-opacity:1;stroke:#808080;stroke-width:1;stroke-dasharray:2.99999, 1;stroke-dashoffset:0;stroke-opacity:1"
       d="M 97.398821,243.24476 172.47351,218.49668"
       id="path15-7-5" /><path
       style="fill:#000000;stroke-width:0.095912"
       d="m 30.039793,80.982329 c -0.307059,0.07304 -0.653681,0.151713 -0.77027,0.174826 l -0.211988,0.04205 -0.03625,-0.116906 c -0.03168,-0.103342 -0.119006,-0.683201 -0.521792,-3.474517 -0.05503,-0.381691 -0.177775,-1.243543 -0.27267,-1.915232 -0.380365,-2.692528 -0.376986,-2.670948 -0.421371,-2.690747 -0.044,-0.01962 -0.425021,0.07657 -1.198188,0.302442 -0.893428,0.26098 -1.717023,0.475179 -3.176566,0.826056 -0.56976,0.136971 -0.82438,0.207127 -1.021338,0.281383 -0.256528,0.09676 -0.326802,0.521048 -0.389843,2.353962 l -0.03431,0.99758 -0.150099,0.06532 c -0.25859,0.112587 -1.527173,0.537826 -1.600794,0.536874 -0.06499,-0.001 -0.06892,-0.006 -0.08886,-0.112998 -0.04887,-0.26187 -0.246681,-2.13565 -0.42927,-4.065498 l -0.01931,-0.203778 -0.309842,-0.518581 c -0.413723,-0.69244 -0.675028,-1.104198 -1.129432,-1.779752 -0.662336,-0.984668 -0.71676,-1.072422 -0.686461,-1.106838 0.05556,-0.06309 0.288637,-0.150647 1.002504,-0.376575 0.541176,-0.171279 0.746879,-0.228791 0.773506,-0.216314 0.01995,0.0093 0.281591,0.319791 0.581437,0.68991 0.860968,1.062749 1.301639,1.537847 1.541154,1.661549 0.157794,0.0815 0.26217,0.06406 0.794298,-0.132638 0.240363,-0.08885 0.73343,-0.288503 1.095725,-0.443622 0.760326,-0.325592 1.670313,-0.703702 2.25904,-0.938662 0.64826,-0.258731 1.067332,-0.431797 1.13036,-0.466864 0.07321,-0.04071 0.07169,-0.04531 -0.153371,-0.469893 -0.669355,-1.263154 -1.468463,-2.751358 -2.024151,-3.769666 -1.143541,-2.095551 -1.685245,-3.124435 -1.66489,-3.162231 0.01823,-0.03388 0.519164,-0.273074 1.149646,-0.548948 0.643069,-0.28135 0.5777,-0.267498 0.704301,-0.149561 0.327326,0.304935 1.269023,1.381817 3.768646,4.30962 1.078349,1.263073 1.995419,2.333449 2.03795,2.378603 l 0.07732,0.08209 2.016435,-0.666251 c 2.513867,-0.830595 2.67937,-0.875512 3.674181,-0.997739 1.291655,-0.158673 2.359409,-0.117467 2.674762,0.103225 0.148174,0.103694 0.174455,0.16193 0.1428,0.31635 -0.08025,0.39162 -0.659312,0.90601 -1.872779,1.663595 -0.444438,0.277478 -0.738473,0.432275 -1.121302,0.590315 -0.351315,0.145034 -1.74449,0.649543 -3.477117,1.259135 -0.751067,0.264269 -1.126058,0.404492 -1.142367,0.427256 -0.01338,0.01861 -0.09668,1.331269 -0.185202,2.91702 -0.322534,5.780221 -0.334067,5.969138 -0.368585,6.034529 -0.0298,0.05655 -0.05526,0.07111 -0.210698,0.120925 -0.09727,0.03089 -0.428,0.116424 -0.735071,0.189452 z"
       id="path4-8" /><path
       style="fill:#000000;fill-opacity:1;stroke:#000000;stroke-width:1;stroke-dasharray:8, 1;stroke-dashoffset:0;stroke-opacity:1"
       d="M 33.564555,70.670661 150.03496,198.48212"
       id="path7"
       sodipodi:nodetypes="cc" /><path
       style="fill:#000000;fill-opacity:1;stroke:#000000;stroke-width:0.5;stroke-dasharray:1.5, 0.5;stroke-dashoffset:0;stroke-opacity:1"
       d="M 32.381202,70.343775 82.870876,221.25045"
       id="path5"
       sodipodi:nodetypes="cc" /><path
       style="fill:#000000;stroke-width:0.095912"
       d="m 96.880821,58.842748 c -0.30705,0.07304 -0.65368,0.151713 -0.77027,0.174826 l -0.21198,0.04205 -0.0362,-0.116906 c -0.0317,-0.103342 -0.11901,-0.683201 -0.5218,-3.474517 -0.055,-0.381691 -0.17777,-1.243543 -0.27267,-1.915232 -0.38036,-2.692528 -0.37698,-2.670948 -0.42137,-2.690747 -0.044,-0.01962 -0.42502,0.07657 -1.19819,0.302442 -0.893423,0.26098 -1.717018,0.475179 -3.176561,0.826056 -0.56976,0.136971 -0.82438,0.207127 -1.021338,0.281383 -0.256528,0.09676 -0.326802,0.521048 -0.389843,2.353962 l -0.03431,0.99758 -0.150099,0.06532 c -0.25859,0.112587 -1.527173,0.537826 -1.600794,0.536874 -0.06499,-10e-4 -0.06892,-0.006 -0.08886,-0.112998 -0.04887,-0.26187 -0.246681,-2.13565 -0.42927,-4.065498 l -0.01931,-0.203778 -0.309842,-0.518581 c -0.413723,-0.69244 -0.675028,-1.104198 -1.129432,-1.779752 -0.662336,-0.984668 -0.71676,-1.072422 -0.686461,-1.106838 0.05556,-0.06309 0.288637,-0.150647 1.002504,-0.376575 0.541176,-0.171279 0.746879,-0.228791 0.773506,-0.216314 0.01995,0.0093 0.281591,0.319791 0.581437,0.68991 0.860968,1.062749 1.301639,1.537847 1.541154,1.661549 0.157794,0.0815 0.26217,0.06406 0.794298,-0.132638 0.240363,-0.08885 0.73343,-0.288503 1.095725,-0.443622 0.760326,-0.325592 1.670313,-0.703702 2.25904,-0.938662 0.648256,-0.258731 1.067336,-0.431797 1.130356,-0.466864 0.0732,-0.04071 0.0717,-0.04531 -0.15337,-0.469893 -0.669352,-1.263154 -1.46846,-2.751358 -2.024148,-3.769666 -1.143541,-2.095551 -1.685245,-3.124435 -1.66489,-3.162231 0.01823,-0.03388 0.519164,-0.273074 1.149646,-0.548948 0.643069,-0.28135 0.5777,-0.267498 0.704301,-0.149561 0.327326,0.304935 1.269021,1.381817 3.768641,4.30962 1.07835,1.263073 1.99542,2.333449 2.03795,2.378603 l 0.0773,0.08209 2.01644,-0.666251 c 2.513869,-0.830595 2.679369,-0.875512 3.674179,-0.997739 1.29166,-0.158673 2.35941,-0.117467 2.67476,0.103225 0.14818,0.103694 0.17446,0.16193 0.1428,0.31635 -0.0803,0.39162 -0.65931,0.90601 -1.87278,1.663595 -0.44443,0.277478 -0.73847,0.432275 -1.1213,0.590315 -0.35131,0.145034 -1.74449,0.649543 -3.477119,1.259135 -0.75106,0.264269 -1.12605,0.404492 -1.14236,0.427256 -0.0134,0.01861 -0.0967,1.331269 -0.1852,2.91702 -0.32254,5.780221 -0.33407,5.969138 -0.36859,6.034529 -0.0298,0.05655 -0.0553,0.07111 -0.2107,0.120925 -0.0973,0.03089 -0.428,0.116424 -0.73507,0.189452 z"
       id="path4-8-1" /><path
       id="path13"
       style="fill:#ffffff;stroke:#000000;stroke-width:0.974;stroke-linecap:square;stroke-dasharray:2.92201, 0.974"
       d="m 153.58691,198.78035 a 3.6488347,3.6488347 0 0 1 -3.64883,3.64883 3.6488347,3.6488347 0 0 1 -3.64883,-3.64883 3.6488347,3.6488347 0 0 1 3.64883,-3.64883 3.6488347,3.6488347 0 0 1 3.64883,3.64883 z" /><g
       id="text1"
       style="font-weight:bold;font-size:5.29167px;font-family:'JetBrains Mono';-inkscape-font-specification:'JetBrains Mono, Bold';text-align:center;text-anchor:middle;stroke-width:0.264583"
       transform="rotate(-18.819639)"
       aria-label="Проекция траектории&#10;(азимут)"><path
         d="m 91.196075,162.09851 v -3.86292 h 2.349501 v 3.86292 h -0.661459 v -3.26496 h -1.026584 v 3.26496 z m 3.169712,0.9525 v -3.86292 h 0.645584 v 0.53446 q 0.07937,-0.27517 0.28575,-0.42862 0.206375,-0.15875 0.513292,-0.15875 0.280458,0 0.492125,0.13758 0.216959,0.13758 0.333375,0.39158 0.121709,0.24871 0.121709,0.58209 v 0.78846 q 0,0.5027 -0.259292,0.80962 -0.259292,0.30692 -0.687917,0.30692 -0.306917,0 -0.518584,-0.15875 -0.206375,-0.15875 -0.28575,-0.4445 l 0.02117,0.68791 v 0.81492 z m 1.195917,-1.47108 q 0.254001,0 0.391584,-0.13759 0.142875,-0.13758 0.142875,-0.42333 v -0.75142 q 0,-0.28575 -0.142875,-0.42333 -0.137583,-0.13758 -0.391584,-0.13758 -0.254,0 -0.396875,0.15345 -0.137583,0.15346 -0.137583,0.43392 v 0.6985 q 0,0.28046 0.137583,0.43392 0.142875,0.15346 0.396875,0.15346 z m 3.159129,0.56621 q -0.560917,0 -0.889,-0.31221 -0.328084,-0.3175 -0.328084,-0.85196 v -0.67734 q 0,-0.53975 0.328084,-0.85195 0.328083,-0.31221 0.889,-0.31221 0.560917,0 0.889001,0.31221 0.328084,0.3122 0.328084,0.85195 v 0.67734 q 0,0.53446 -0.328084,0.85196 -0.328084,0.31221 -0.889001,0.31221 z m 0,-0.5768 q 0.264584,0 0.407459,-0.14287 0.148167,-0.14817 0.148167,-0.42333 v -0.71967 q 0,-0.27517 -0.148167,-0.41804 -0.142875,-0.14817 -0.407459,-0.14817 -0.264583,0 -0.41275,0.14817 -0.142875,0.14287 -0.142875,0.41804 v 0.71967 q 0,0.27516 0.142875,0.42333 0.148167,0.14287 0.41275,0.14287 z m 3.180297,0.58209 q -0.37042,0 -0.64558,-0.14288 -0.27517,-0.14287 -0.42863,-0.40216 -0.14817,-0.26459 -0.14817,-0.61913 v -0.68792 q 0,-0.35454 0.14817,-0.61383 0.15346,-0.26458 0.42863,-0.40746 0.27516,-0.14287 0.64558,-0.14287 0.36512,0 0.635,0.14287 0.27517,0.14288 0.42333,0.40217 0.15346,0.254 0.15346,0.59796 v 0.52916 h -1.79917 v 0.20109 q 0,0.29633 0.15346,0.44979 0.15346,0.14817 0.43392,0.14817 0.20637,0 0.34925,-0.0688 0.14817,-0.0741 0.17462,-0.21166 h 0.65617 q -0.0688,0.37571 -0.39158,0.60325 -0.32279,0.22225 -0.78846,0.22225 z m -0.58738,-1.87325 v 0.10054 l 1.16417,-0.005 v -0.10055 q 0,-0.30162 -0.14817,-0.46566 -0.14816,-0.16404 -0.42862,-0.16404 -0.29104,0 -0.43921,0.16933 -0.14817,0.16404 -0.14817,0.46567 z m 2.62467,1.82033 v -2.91042 h 0.66146 v 1.12184 h 0.46567 l 0.66675,-1.12184 h 0.74613 l -0.84667,1.40759 0.89958,1.50283 h -0.75671 l -0.70908,-1.19062 h -0.46567 v 1.19062 z m 5.15409,0.74083 v -0.74083 h -2.02671 v -2.91042 h 0.66146 v 2.30188 h 0.91546 v -2.30188 h 0.66146 v 2.30188 h 0.39687 v 1.34937 z m 1.1483,-0.74083 v -2.91042 h 0.59796 v 1.40759 q 0,0.23812 -0.0159,0.508 -0.0106,0.26458 -0.0582,0.45508 l 1.03188,-2.37067 h 0.80433 v 2.91042 h -0.59796 v -1.41288 q 0,-0.23283 0.0106,-0.48154 0.0106,-0.24871 0.0582,-0.41804 l -1.02658,2.31246 z m 3.05859,0 0.68262,-1.06892 q -0.29104,-0.09 -0.46037,-0.3175 -0.16405,-0.23283 -0.16405,-0.55033 0,-0.45508 0.30692,-0.71438 0.30692,-0.25929 0.84667,-0.25929 h 1.26471 v 2.91042 h -0.66146 v -1.00542 h -0.46038 l -0.59266,1.00542 z m 1.23825,-1.51871 h 0.57679 v -0.85196 h -0.57679 q -0.23813,0 -0.381,0.11642 -0.13759,0.11112 -0.13759,0.31221 0,0.20108 0.13759,0.31221 0.13758,0.11112 0.381,0.11112 z m 6.07484,1.51871 v -2.31246 h -0.99484 v -0.59796 h 2.65642 v 0.59796 h -0.99483 v 2.31246 z m 2.32833,0.9525 v -3.86292 h 0.64559 v 0.53446 q 0.0794,-0.27517 0.28575,-0.42862 0.20637,-0.15875 0.51329,-0.15875 0.28046,0 0.49212,0.13758 0.21696,0.13758 0.33338,0.39158 0.12171,0.24871 0.12171,0.58209 v 0.78846 q 0,0.5027 -0.25929,0.80962 -0.2593,0.30692 -0.68792,0.30692 -0.30692,0 -0.51858,-0.15875 -0.20638,-0.15875 -0.28575,-0.4445 l 0.0212,0.68791 v 0.81492 z m 1.19592,-1.47108 q 0.254,0 0.39158,-0.13759 0.14288,-0.13758 0.14288,-0.42333 v -0.75142 q 0,-0.28575 -0.14288,-0.42333 -0.13758,-0.13758 -0.39158,-0.13758 -0.254,0 -0.39687,0.15345 -0.13759,0.15346 -0.13759,0.43392 v 0.6985 q 0,0.28046 0.13759,0.43392 0.14287,0.15346 0.39687,0.15346 z m 2.83634,0.5715 q -0.4445,0 -0.70379,-0.24871 -0.254,-0.254 -0.254,-0.66146 0,-0.42333 0.29104,-0.67204 0.29104,-0.254 0.79904,-0.254 h 0.70908 v -0.20638 q 0,-0.43921 -0.51329,-0.43921 -0.23283,0 -0.37041,0.09 -0.13759,0.09 -0.15346,0.254 h -0.635 q 0.0212,-0.39158 0.32808,-0.635 0.31221,-0.24341 0.83608,-0.24341 0.55563,0 0.86255,0.25929 0.30691,0.25929 0.30691,0.73025 v 1.97379 h -0.64558 v -0.54504 q -0.037,0.28046 -0.26458,0.43921 -0.22755,0.15875 -0.59267,0.15875 z m 0.21167,-0.53975 q 0.29104,0 0.46037,-0.14288 0.16933,-0.14287 0.16933,-0.381 v -0.34396 h -0.67733 q -0.21696,0 -0.34396,0.12171 -0.127,0.12171 -0.127,0.31221 0,0.19579 0.13229,0.3175 0.13759,0.11642 0.3863,0.11642 z m 3.29142,0.53975 q -0.37042,0 -0.64559,-0.14288 -0.27517,-0.14287 -0.42862,-0.40216 -0.14817,-0.26459 -0.14817,-0.61913 v -0.68792 q 0,-0.35454 0.14817,-0.61383 0.15345,-0.26458 0.42862,-0.40746 0.27517,-0.14287 0.64559,-0.14287 0.36512,0 0.635,0.14287 0.27516,0.14288 0.42333,0.40217 0.15346,0.254 0.15346,0.59796 v 0.52916 h -1.79917 v 0.20109 q 0,0.29633 0.15346,0.44979 0.15346,0.14817 0.43392,0.14817 0.20637,0 0.34925,-0.0688 0.14816,-0.0741 0.17462,-0.21166 h 0.65617 q -0.0688,0.37571 -0.39159,0.60325 -0.32279,0.22225 -0.78845,0.22225 z m -0.58738,-1.87325 v 0.10054 l 1.16417,-0.005 v -0.10055 q 0,-0.30162 -0.14817,-0.46566 -0.14817,-0.16404 -0.42862,-0.16404 -0.29105,0 -0.43921,0.16933 -0.14817,0.16404 -0.14817,0.46567 z m 2.62467,1.82033 v -2.91042 h 0.66146 v 1.12184 h 0.46566 l 0.66676,-1.12184 h 0.74612 l -0.84667,1.40759 0.89959,1.50283 h -0.75671 l -0.70909,-1.19062 h -0.46566 v 1.19062 z m 3.97405,0 v -2.31246 h -0.99484 v -0.59796 h 2.65642 v 0.59796 h -0.99483 v 2.31246 z m 3.50838,0.0476 q -0.56092,0 -0.889,-0.31221 -0.32809,-0.3175 -0.32809,-0.85196 v -0.67734 q 0,-0.53975 0.32809,-0.85195 0.32808,-0.31221 0.889,-0.31221 0.56091,0 0.889,0.31221 0.32808,0.3122 0.32808,0.85195 v 0.67734 q 0,0.53446 -0.32808,0.85196 -0.32809,0.31221 -0.889,0.31221 z m 0,-0.5768 q 0.26458,0 0.40746,-0.14287 0.14816,-0.14817 0.14816,-0.42333 v -0.71967 q 0,-0.27517 -0.14816,-0.41804 -0.14288,-0.14817 -0.40746,-0.14817 -0.26459,0 -0.41275,0.14817 -0.14288,0.14287 -0.14288,0.41804 v 0.71967 q 0,0.27516 0.14288,0.42333 0.14816,0.14287 0.41275,0.14287 z m 1.99496,1.48167 v -3.86292 h 0.64558 v 0.53446 q 0.0794,-0.27517 0.28575,-0.42862 0.20638,-0.15875 0.51329,-0.15875 0.28046,0 0.49213,0.13758 0.21696,0.13758 0.33337,0.39158 0.12171,0.24871 0.12171,0.58209 v 0.78846 q 0,0.5027 -0.25929,0.80962 -0.25929,0.30692 -0.68792,0.30692 -0.30691,0 -0.51858,-0.15875 -0.20638,-0.15875 -0.28575,-0.4445 l 0.0212,0.68791 v 0.81492 z m 1.19591,-1.47108 q 0.254,0 0.39159,-0.13759 0.14287,-0.13758 0.14287,-0.42333 v -0.75142 q 0,-0.28575 -0.14287,-0.42333 -0.13759,-0.13758 -0.39159,-0.13758 -0.254,0 -0.39687,0.15345 -0.13758,0.15346 -0.13758,0.43392 v 0.6985 q 0,0.28046 0.13758,0.43392 0.14287,0.15346 0.39687,0.15346 z m 1.97909,0.51858 v -2.91042 h 0.59796 v 1.40759 q 0,0.23812 -0.0159,0.508 -0.0106,0.26458 -0.0582,0.45508 l 1.03187,-2.37067 h 0.80433 v 2.91042 h -0.59795 v -1.41288 q 0,-0.23283 0.0106,-0.48154 0.0106,-0.24871 0.0582,-0.41804 l -1.02659,2.31246 z m 3.175,0 v -2.91042 h 0.59796 v 1.40759 q 0,0.23812 -0.0159,0.508 -0.0106,0.26458 -0.0582,0.45508 l 1.03187,-2.37067 h 0.80434 v 2.91042 h -0.59796 v -1.41288 q 0,-0.23283 0.0106,-0.48154 0.0106,-0.24871 0.0582,-0.41804 l -1.02658,2.31246 z"
         id="path15" /><path
         d="m 110.81231,169.3481 q -0.80434,-0.18521 -1.24355,-0.72496 -0.43921,-0.54504 -0.43921,-1.34408 v -0.94721 q 0,-0.79375 0.43921,-1.3335 0.43921,-0.53975 1.24355,-0.73025 v 0.65616 q -0.47096,0.11113 -0.74613,0.49213 -0.26987,0.37571 -0.26987,0.91546 v 0.94721 q 0,0.53975 0.26987,0.92075 0.27517,0.3757 0.74613,0.48683 z m 1.87325,-0.58209 q -0.4445,0 -0.70379,-0.2487 -0.254,-0.254 -0.254,-0.66146 0,-0.42334 0.29104,-0.67204 0.29104,-0.254 0.79904,-0.254 h 0.70908 v -0.20638 q 0,-0.43921 -0.51329,-0.43921 -0.23283,0 -0.37041,0.09 -0.13759,0.09 -0.15346,0.254 h -0.635 q 0.0212,-0.39158 0.32808,-0.635 0.31221,-0.24342 0.83608,-0.24342 0.55563,0 0.86255,0.25929 0.30691,0.2593 0.30691,0.73026 v 1.97379 h -0.64558 v -0.54504 q -0.037,0.28045 -0.26458,0.4392 -0.22755,0.15875 -0.59267,0.15875 z m 0.21167,-0.53975 q 0.29104,0 0.46037,-0.14287 0.16933,-0.14288 0.16933,-0.381 v -0.34396 h -0.67733 q -0.21696,0 -0.34396,0.12171 -0.127,0.12171 -0.127,0.31221 0,0.19579 0.13229,0.3175 0.13759,0.11641 0.3863,0.11641 z m 3.07975,0.52388 q -0.51329,0 -0.81492,-0.23283 -0.30162,-0.23284 -0.30162,-0.62971 h 0.64558 q 0,0.14816 0.127,0.23812 0.127,0.0847 0.34396,0.0847 h 0.33867 q 0.22225,0 0.34925,-0.0952 0.13229,-0.10054 0.13229,-0.26988 0,-0.16933 -0.13229,-0.26458 -0.127,-0.10054 -0.34925,-0.10054 h -0.67734 v -0.52388 h 0.65088 q 0.20637,0 0.32279,-0.0899 0.11642,-0.09 0.11642,-0.23813 0,-0.15875 -0.12171,-0.24342 -0.12171,-0.09 -0.32808,-0.09 h -0.26459 q -0.19579,0 -0.3175,0.0794 -0.11642,0.0741 -0.11642,0.20638 h -0.65087 q 0.005,-0.37571 0.29633,-0.59267 0.29104,-0.22225 0.78846,-0.22225 h 0.26459 q 0.49741,0 0.79904,0.20637 0.30691,0.20638 0.30691,0.55563 0,0.24871 -0.17462,0.41275 -0.17463,0.15875 -0.45508,0.17462 v 0.0317 q 0.32808,0.0106 0.51858,0.21167 0.19579,0.19579 0.19579,0.50271 0,0.26458 -0.14817,0.46567 -0.14287,0.20108 -0.40216,0.3122 -0.25929,0.11113 -0.60325,0.11113 z m 2.20134,-0.037 v -2.91042 h 0.59796 v 1.40758 q 0,0.23813 -0.0159,0.508 -0.0106,0.26459 -0.0582,0.45509 l 1.03188,-2.37067 h 0.80433 v 2.91042 h -0.59796 v -1.41288 q 0,-0.23283 0.0106,-0.48154 0.0106,-0.24871 0.0582,-0.41804 l -1.02658,2.31246 z m 3.05329,0 v -2.91042 h 0.83079 l 0.46567,1.37583 0.46567,-1.37583 h 0.84137 v 2.91042 h -0.61383 v -0.49742 q 0,-0.25929 0,-0.55033 0,-0.29104 0.005,-0.58209 0.005,-0.29104 0.0212,-0.53975 0.0159,-0.254 0.0476,-0.42862 l -0.508,1.55575 h -0.52916 l -0.49742,-1.47638 q 0.0423,0.21696 0.0582,0.55563 0.0212,0.33337 0.0212,0.71967 0.005,0.381 0.005,0.74612 v 0.49742 z m 3.76238,0.9525 0.41275,-1.11125 -1.09537,-2.75167 h 0.6985 l 0.56091,1.48696 q 0.0476,0.13229 0.0953,0.29104 0.0476,0.15346 0.0688,0.28575 0.0159,-0.13229 0.0582,-0.28575 0.0476,-0.15875 0.0952,-0.29104 l 0.51859,-1.48696 h 0.6985 l -1.41817,3.86292 z m 3.55601,-0.9525 v -2.31246 h -0.99484 v -0.59796 h 2.65642 v 0.59796 h -0.99483 v 2.31246 z m 2.52942,0.635 v -0.66146 q 0.47096,-0.11113 0.74083,-0.48683 0.27517,-0.381 0.27517,-0.92075 v -0.94721 q 0,-0.53975 -0.27517,-0.91546 -0.26987,-0.381 -0.74083,-0.49213 v -0.65616 q 0.80433,0.1905 1.24354,0.73025 0.43921,0.53975 0.43921,1.3335 v 0.94721 q 0,0.79904 -0.43921,1.34408 -0.43921,0.53975 -1.24354,0.72496 z"
         id="path16" /></g><path
       d="m 142.06682,145.34926 v -3.86292 h 0.66146 v 1.56633 h 1.03717 v -1.56633 h 0.66146 v 3.86292 h -0.66146 v -1.69863 h -1.03717 v 1.69863 z m 4.03226,0.0529 q -0.44451,0 -0.7038,-0.24871 -0.254,-0.254 -0.254,-0.66146 0,-0.42334 0.29104,-0.67204 0.29105,-0.254 0.79905,-0.254 h 0.70908 v -0.20638 q 0,-0.43921 -0.51329,-0.43921 -0.23283,0 -0.37042,0.09 -0.13758,0.09 -0.15346,0.254 h -0.635 q 0.0212,-0.39158 0.32809,-0.635 0.31221,-0.24342 0.83608,-0.24342 0.55563,0 0.86254,0.2593 0.30692,0.25929 0.30692,0.73025 v 1.97379 h -0.64558 v -0.54504 q -0.0371,0.28045 -0.26459,0.43921 -0.22754,0.15875 -0.59266,0.15875 z m 0.21166,-0.53976 q 0.29104,0 0.46038,-0.14287 0.16933,-0.14288 0.16933,-0.381 v -0.34396 h -0.67733 q -0.21696,0 -0.34396,0.12171 -0.127,0.12171 -0.127,0.31221 0,0.19579 0.13229,0.3175 0.13758,0.11641 0.38629,0.11641 z m 2.15371,0.48684 v -2.91042 h 0.66146 v 1.12183 h 0.46567 l 0.66675,-1.12183 h 0.74613 l -0.84667,1.40758 0.89958,1.50284 h -0.75671 l -0.70908,-1.19063 h -0.46567 v 1.19063 z m 2.83634,0.037 v -0.60325 h 0.12171 q 0.17992,0 0.26987,-0.14288 0.0952,-0.14816 0.10055,-0.46566 l 0.0317,-1.73567 h 2.12725 v 2.91042 h -0.66146 v -2.31246 h -0.81492 l -0.0212,1.17475 q -0.0106,0.57679 -0.26987,0.87842 -0.254,0.29633 -0.71967,0.29633 z m 4.64609,0.0106 q -0.56092,0 -0.889,-0.31221 -0.32808,-0.3175 -0.32808,-0.85195 v -0.67734 q 0,-0.53975 0.32808,-0.85196 0.32808,-0.31221 0.889,-0.31221 0.56092,0 0.889,0.31221 0.32808,0.31221 0.32808,0.85196 v 0.67734 q 0,0.53445 -0.32808,0.85195 -0.32808,0.31221 -0.889,0.31221 z m 0,-0.57679 q 0.26458,0 0.40746,-0.14287 0.14816,-0.14817 0.14816,-0.42334 v -0.71966 q 0,-0.27517 -0.14816,-0.41805 -0.14288,-0.14816 -0.40746,-0.14816 -0.26458,0 -0.41275,0.14816 -0.14288,0.14288 -0.14288,0.41805 v 0.71966 q 0,0.27517 0.14288,0.42334 0.14817,0.14287 0.41275,0.14287 z m 1.99496,0.52917 v -2.91042 h 0.66146 v 1.12183 h 1.03717 v -1.12183 h 0.66146 v 2.91042 h -0.66146 v -1.19063 h -1.03717 v 1.19063 z m 3.175,0 v -2.91042 h 0.66146 v 1.12183 h 1.03717 v -1.12183 h 0.66146 v 2.91042 h -0.66146 v -1.19063 h -1.03717 v 1.19063 z m 4.03226,0.0529 q -0.4445,0 -0.70379,-0.24871 -0.254,-0.254 -0.254,-0.66146 0,-0.42334 0.29104,-0.67204 0.29104,-0.254 0.79904,-0.254 h 0.70909 v -0.20638 q 0,-0.43921 -0.5133,-0.43921 -0.23283,0 -0.37041,0.09 -0.13759,0.09 -0.15346,0.254 h -0.635 q 0.0212,-0.39158 0.32808,-0.635 0.31221,-0.24342 0.83609,-0.24342 0.55562,0 0.86254,0.2593 0.30691,0.25929 0.30691,0.73025 v 1.97379 h -0.64558 v -0.54504 q -0.037,0.28045 -0.26458,0.43921 -0.22754,0.15875 -0.59267,0.15875 z m 0.21167,-0.53976 q 0.29104,0 0.46037,-0.14287 0.16934,-0.14288 0.16934,-0.381 v -0.34396 h -0.67734 q -0.21696,0 -0.34396,0.12171 -0.127,0.12171 -0.127,0.31221 0,0.19579 0.1323,0.3175 0.13758,0.11641 0.38629,0.11641 z m 1.98967,0.48684 0.68262,-1.06892 q -0.29104,-0.09 -0.46037,-0.3175 -0.16405,-0.23283 -0.16405,-0.55033 0,-0.45509 0.30692,-0.71438 0.30692,-0.25929 0.84667,-0.25929 h 1.26471 v 2.91042 h -0.66146 v -1.00542 h -0.46038 l -0.59266,1.00542 z m 1.23825,-1.51871 h 0.57679 v -0.85196 h -0.57679 q -0.23813,0 -0.381,0.11642 -0.13759,0.11112 -0.13759,0.31221 0,0.20108 0.13759,0.3122 0.13758,0.11113 0.381,0.11113 z m 4.94242,2.25954 v -1.30704 h 0.19579 q 0.0952,-0.0952 0.1905,-0.32808 0.0953,-0.23813 0.10054,-0.66675 l 0.0212,-1.34938 h 2.05846 v 2.34421 h 0.35454 v 1.30704 h -0.60854 v -0.74083 h -1.70392 v 0.74083 z m 0.85196,-1.30704 h 1.08479 v -1.77271 h -0.81492 l -0.0106,0.78317 q -0.005,0.41275 -0.09,0.65616 -0.0794,0.23813 -0.16933,0.33338 z m 3.46605,0.61913 q -0.4445,0 -0.7038,-0.24871 -0.254,-0.254 -0.254,-0.66146 0,-0.42334 0.29105,-0.67204 0.29104,-0.254 0.79904,-0.254 h 0.70908 v -0.20638 q 0,-0.43921 -0.51329,-0.43921 -0.23283,0 -0.37042,0.09 -0.13758,0.09 -0.15346,0.254 h -0.635 q 0.0212,-0.39158 0.32809,-0.635 0.31221,-0.24342 0.83608,-0.24342 0.55563,0 0.86254,0.2593 0.30692,0.25929 0.30692,0.73025 v 1.97379 h -0.64558 v -0.54504 q -0.037,0.28045 -0.26459,0.43921 -0.22754,0.15875 -0.59266,0.15875 z m 0.21166,-0.53976 q 0.29104,0 0.46038,-0.14287 0.16933,-0.14288 0.16933,-0.381 v -0.34396 h -0.67733 q -0.21696,0 -0.34396,0.12171 -0.127,0.12171 -0.127,0.31221 0,0.19579 0.13229,0.3175 0.13758,0.11641 0.38629,0.11641 z m 1.81505,0.52388 v -0.60325 h 0.12171 q 0.17991,0 0.26987,-0.14288 0.0952,-0.14816 0.10054,-0.46566 l 0.0317,-1.73567 h 2.12725 v 2.91042 h -0.66146 v -2.31246 h -0.81491 l -0.0212,1.17475 q -0.0106,0.57679 -0.26987,0.87842 -0.254,0.29633 -0.71967,0.29633 z m 3.51896,-0.037 v -2.91042 h 0.66675 v 0.9525 h 0.72496 q 0.52387,0 0.8255,0.26458 0.30162,0.2593 0.30162,0.71967 0,0.44979 -0.30691,0.71438 -0.30163,0.25929 -0.81492,0.25929 z m 0.66675,-0.57679 h 0.6985 q 0.22754,0 0.35454,-0.10584 0.127,-0.10583 0.127,-0.29633 0,-0.1905 -0.127,-0.29633 -0.127,-0.10584 -0.35454,-0.10584 h -0.6985 z m 2.45534,0.57679 v -2.91042 h 0.66146 v 1.12183 h 1.03716 v -1.12183 h 0.66146 v 2.91042 h -0.66146 v -1.19063 h -1.03716 v 1.19063 z m 4.35504,0.0476 q -0.56091,0 -0.889,-0.31221 -0.32808,-0.3175 -0.32808,-0.85195 v -0.67734 q 0,-0.53975 0.32808,-0.85196 0.32809,-0.31221 0.889,-0.31221 0.56092,0 0.889,0.31221 0.32809,0.31221 0.32809,0.85196 v 0.67734 q 0,0.53445 -0.32809,0.85195 -0.32808,0.31221 -0.889,0.31221 z m 0,-0.57679 q 0.26459,0 0.40746,-0.14287 0.14817,-0.14817 0.14817,-0.42334 v -0.71966 q 0,-0.27517 -0.14817,-0.41805 -0.14287,-0.14816 -0.40746,-0.14816 -0.26458,0 -0.41275,0.14816 -0.14287,0.14288 -0.14287,0.41805 v 0.71966 q 0,0.27517 0.14287,0.42334 0.14817,0.14287 0.41275,0.14287 z m 3.22263,0.58209 q -0.37571,0 -0.65616,-0.13759 -0.27517,-0.14287 -0.42863,-0.39687 -0.15346,-0.2593 -0.15346,-0.60855 v -0.73025 q 0,-0.34925 0.15346,-0.60325 0.15346,-0.25929 0.42863,-0.39687 0.28045,-0.14288 0.65616,-0.14288 0.54504,0 0.87313,0.28575 0.33337,0.28046 0.34925,0.7673 h -0.65088 q -0.0159,-0.22755 -0.17462,-0.34925 -0.15346,-0.127 -0.39688,-0.127 -0.26987,0 -0.42333,0.14816 -0.15346,0.14288 -0.15346,0.41275 v 0.73554 q 0,0.26988 0.15346,0.41805 0.15346,0.14816 0.42333,0.14816 0.24871,0 0.40217,-0.12171 0.15346,-0.127 0.16933,-0.35454 h 0.65088 q -0.0159,0.48684 -0.34925,0.77259 -0.32809,0.28046 -0.87313,0.28046 z m 2.79401,-0.0529 v -2.31246 h -0.99484 v -0.59796 h 2.65642 v 0.59796 h -0.99483 v 2.31246 z m 2.38125,0 v -2.91042 h 0.66675 v 0.9525 h 0.72496 q 0.52387,0 0.8255,0.26458 0.30162,0.2593 0.30162,0.71967 0,0.44979 -0.30691,0.71438 -0.30163,0.25929 -0.81492,0.25929 z m 0.66675,-0.57679 h 0.6985 q 0.22754,0 0.35454,-0.10584 0.127,-0.10583 0.127,-0.29633 0,-0.1905 -0.127,-0.29633 -0.127,-0.10584 -0.35454,-0.10584 h -0.6985 z"
       id="text1-5"
       style="font-weight:bold;font-size:5.29167px;font-family:'JetBrains Mono';-inkscape-font-specification:'JetBrains Mono, Bold';text-align:center;text-anchor:middle;stroke-width:0.264583"
       transform="rotate(-0.28869181)"
       aria-label="Наклонная дальность" /><path
       d="m 157.11231,202.73282 0.12323,-0.73052 -1.98282,-0.33448 0.64256,-3.80909 0.65225,0.11002 -0.54398,3.22469 0.88704,0.14964 0.54398,-3.22469 0.65225,0.11003 -0.54398,3.22469 0.39135,0.066 -0.22182,1.31492 z m 2.42598,-0.28839 q -0.36526,-0.0616 -0.61283,-0.24827 -0.24756,-0.18666 -0.35575,-0.46786 -0.10209,-0.28555 -0.0431,-0.63516 l 0.11443,-0.67832 q 0.059,-0.3496 0.24821,-0.58064 0.19534,-0.23537 0.49043,-0.33049 0.2951,-0.0951 0.66036,-0.0335 0.36003,0.0607 0.60239,0.24651 0.24756,0.18666 0.35053,0.46698 0.10907,0.27599 0.0519,0.61516 l -0.088,0.5218 -1.77411,-0.29928 -0.0334,0.19828 q -0.0493,0.2922 0.0765,0.46905 0.12667,0.17163 0.40322,0.21828 0.2035,0.0343 0.35583,-0.01 0.15843,-0.0484 0.2074,-0.17968 l 0.64703,0.10915 q -0.13034,0.35903 -0.48647,0.52971 -0.35527,0.16546 -0.81445,0.088 z m -0.26759,-1.94486 -0.0167,0.0991 1.14878,0.18872 0.0167,-0.0991 q 0.0502,-0.29743 -0.0686,-0.48383 -0.11881,-0.1864 -0.39536,-0.23305 -0.28698,-0.0484 -0.46126,0.0939 -0.17339,0.13712 -0.22356,0.43454 z m 1.9452,2.21176 0.10034,-0.59484 0.12001,0.0202 q 0.17741,0.0299 0.28988,-0.096 0.11862,-0.13025 0.1766,-0.44245 l 0.32007,-1.70619 2.09762,0.35385 -0.48413,2.86986 -0.65224,-0.11003 0.38466,-2.28023 -0.80356,-0.13556 -0.21631,1.15486 q -0.1064,0.56699 -0.41224,0.82128 -0.29976,0.24996 -0.75893,0.1725 z m 3.47609,0.54887 0.48412,-2.86986 0.65746,0.11091 -0.15844,0.93923 0.71486,0.12059 q 0.51657,0.0871 0.76999,0.39821 0.25428,0.30585 0.1777,0.75981 -0.0748,0.44352 -0.42146,0.65337 -0.34056,0.2055 -0.8467,0.12012 z m 0.7534,-0.45785 0.68877,0.11619 q 0.22437,0.0378 0.3672,-0.0454 0.14284,-0.0832 0.17453,-0.27107 0.0317,-0.18785 -0.0759,-0.31334 -0.10763,-0.12548 -0.332,-0.16333 l -0.68877,-0.11619 z"
       id="text1-5-3"
       style="font-weight:bold;font-size:5.29167px;font-family:'JetBrains Mono';-inkscape-font-specification:'JetBrains Mono, Bold';text-align:center;text-anchor:middle;stroke-width:0.264583"
       aria-label="Цель" /><g
       id="text1-5-2"
       style="font-weight:bold;font-size:5.29167px;font-family:'JetBrains Mono';-inkscape-font-specification:'JetBrains Mono, Bold';text-align:center;text-anchor:middle;stroke-width:0.264583"
       transform="rotate(-0.28869181)"
       aria-label="Дальность ближайшего&#10;подлёта"><path
         d="m 143.10205,155.76185 v -1.29646 h 0.19579 q 0.09,-0.14817 0.18521,-0.46038 0.0953,-0.31221 0.10054,-0.69321 l 0.0318,-2.15371 h 2.07962 v 3.3073 h 0.33867 v 1.29646 h -0.60854 v -0.74084 h -1.7145 v 0.74084 z m 0.85725,-1.29646 h 1.10066 v -2.74638 h -0.8255 l -0.0265,1.59279 q 0,0.38629 -0.0847,0.6985 -0.0847,0.31221 -0.16404,0.45509 z m 3.46075,0.60854 q -0.4445,0 -0.70379,-0.24871 -0.254,-0.254 -0.254,-0.66146 0,-0.42333 0.29104,-0.67204 0.29104,-0.254 0.79904,-0.254 h 0.70909 v -0.20638 q 0,-0.43921 -0.5133,-0.43921 -0.23283,0 -0.37041,0.09 -0.13759,0.09 -0.15346,0.254 h -0.635 q 0.0212,-0.39158 0.32808,-0.635 0.31221,-0.24341 0.83609,-0.24341 0.55562,0 0.86254,0.25929 0.30692,0.25929 0.30692,0.73025 v 1.97379 h -0.64559 v -0.54504 q -0.037,0.28046 -0.26458,0.43921 -0.22754,0.15875 -0.59267,0.15875 z m 0.21167,-0.53975 q 0.29104,0 0.46037,-0.14288 0.16934,-0.14287 0.16934,-0.381 v -0.34396 h -0.67734 q -0.21696,0 -0.34396,0.12171 -0.127,0.12171 -0.127,0.31221 0,0.19579 0.1323,0.3175 0.13758,0.11642 0.38629,0.11642 z m 1.81504,0.52387 v -0.60325 h 0.12171 q 0.17992,0 0.26988,-0.14287 0.0953,-0.14817 0.10054,-0.46567 l 0.0318,-1.73567 h 2.12725 v 2.91042 h -0.66146 v -2.31246 h -0.81492 l -0.0212,1.17475 q -0.0106,0.57679 -0.26988,0.87842 -0.254,0.29633 -0.71967,0.29633 z m 3.51897,-0.037 v -2.91042 h 0.66675 v 0.9525 h 0.72495 q 0.52388,0 0.8255,0.26459 0.30163,0.25929 0.30163,0.71966 0,0.4498 -0.30692,0.71438 -0.30162,0.25929 -0.81491,0.25929 z m 0.66675,-0.57679 h 0.6985 q 0.22754,0 0.35454,-0.10583 0.127,-0.10584 0.127,-0.29634 0,-0.1905 -0.127,-0.29633 -0.127,-0.10583 -0.35454,-0.10583 h -0.6985 z m 2.45533,0.57679 v -2.91042 h 0.66146 v 1.12184 h 1.03717 v -1.12184 h 0.66146 v 2.91042 h -0.66146 v -1.19062 h -1.03717 v 1.19062 z m 4.35505,0.0476 q -0.56092,0 -0.889,-0.31221 -0.32809,-0.3175 -0.32809,-0.85196 v -0.67733 q 0,-0.53976 0.32809,-0.85196 0.32808,-0.31221 0.889,-0.31221 0.56092,0 0.889,0.31221 0.32808,0.3122 0.32808,0.85196 v 0.67733 q 0,0.53446 -0.32808,0.85196 -0.32808,0.31221 -0.889,0.31221 z m 0,-0.5768 q 0.26458,0 0.40746,-0.14287 0.14816,-0.14817 0.14816,-0.42333 v -0.71967 q 0,-0.27517 -0.14816,-0.41804 -0.14288,-0.14817 -0.40746,-0.14817 -0.26458,0 -0.41275,0.14817 -0.14288,0.14287 -0.14288,0.41804 v 0.71967 q 0,0.27516 0.14288,0.42333 0.14817,0.14287 0.41275,0.14287 z m 3.22263,0.58209 q -0.37571,0 -0.65617,-0.13759 -0.27517,-0.14287 -0.42862,-0.39687 -0.15346,-0.25929 -0.15346,-0.60854 v -0.73025 q 0,-0.34925 0.15346,-0.60325 0.15345,-0.2593 0.42862,-0.39688 0.28046,-0.14287 0.65617,-0.14287 0.54504,0 0.87312,0.28575 0.33338,0.28045 0.34925,0.76729 h -0.65087 q -0.0159,-0.22754 -0.17463,-0.34925 -0.15346,-0.127 -0.39687,-0.127 -0.26988,0 -0.42334,0.14817 -0.15345,0.14287 -0.15345,0.41275 v 0.73554 q 0,0.26987 0.15345,0.41804 0.15346,0.14817 0.42334,0.14817 0.24871,0 0.40216,-0.12171 0.15346,-0.127 0.16934,-0.35454 h 0.65087 q -0.0159,0.48683 -0.34925,0.77258 -0.32808,0.28046 -0.87312,0.28046 z m 2.794,-0.0529 v -2.31246 h -0.99483 v -0.59796 h 2.65642 v 0.59796 h -0.99484 v 2.31246 z m 2.38126,0 v -2.91042 h 0.66675 v 0.9525 h 0.72495 q 0.52388,0 0.8255,0.26459 0.30163,0.25929 0.30163,0.71966 0,0.4498 -0.30692,0.71438 -0.30162,0.25929 -0.81491,0.25929 z m 0.66675,-0.57679 h 0.6985 q 0.22754,0 0.35454,-0.10583 0.127,-0.10584 0.127,-0.29634 0,-0.1905 -0.127,-0.29633 -0.127,-0.10583 -0.35454,-0.10583 h -0.6985 z m 6.81038,0.62971 q -0.56092,-0.005 -0.889,-0.31221 -0.32279,-0.31221 -0.32279,-0.84138 v -1.3335 q 0,-0.64029 0.29633,-0.99483 0.29633,-0.35983 0.87313,-0.40217 l 1.09537,-0.0847 v 0.64029 l -1.00542,0.0741 q -0.70908,0.0529 -0.70908,0.76729 v 0.29634 q 0.0529,-0.28575 0.26988,-0.43921 0.22225,-0.15346 0.56091,-0.15346 0.508,0 0.77259,0.30692 0.26987,0.30162 0.26987,0.8255 v 0.49741 q 0,0.52917 -0.32808,0.84667 -0.32279,0.31221 -0.88371,0.30692 z m 0,-0.57679 q 0.25929,0 0.40217,-0.15346 0.14816,-0.15346 0.14816,-0.42334 v -0.49741 q 0,-0.26988 -0.14816,-0.42334 -0.14288,-0.15345 -0.40217,-0.15345 -0.25929,0 -0.40746,0.15345 -0.14287,0.15346 -0.14287,0.42334 v 0.49741 q 0,0.26988 0.14287,0.42334 0.14817,0.15346 0.40746,0.15346 z m 1.70392,0.56091 v -0.60325 h 0.12171 q 0.17991,0 0.26987,-0.14287 0.0953,-0.14817 0.10054,-0.46567 l 0.0318,-1.73567 h 2.12725 v 2.91042 h -0.66146 v -2.31246 h -0.81492 l -0.0212,1.17475 q -0.0106,0.57679 -0.26987,0.87842 -0.254,0.29633 -0.71967,0.29633 z m 3.46604,-0.037 v -2.91042 h 0.59796 v 1.40759 q 0,0.23812 -0.0159,0.508 -0.0106,0.26458 -0.0582,0.45508 l 1.03188,-2.37067 h 0.80433 v 2.91042 h -0.59796 v -1.41287 q 0,-0.23284 0.0106,-0.48155 0.0106,-0.2487 0.0582,-0.41804 l -1.02658,2.31246 z m 2.78342,0 0.61913,-1.49754 -0.57679,-1.41288 h 0.59266 l 0.47625,1.2065 h 0.22225 v -1.2065 h 0.47626 v 1.2065 h 0.22225 l 0.5027,-1.2065 h 0.56621 l -0.57679,1.397 0.61913,1.51342 h -0.58738 l -0.51329,-1.27 h -0.23283 v 1.27 h -0.47626 v -1.27 h -0.23283 l -0.49212,1.27 z m 4.42385,0.0529 q -0.44451,0 -0.7038,-0.24871 -0.254,-0.254 -0.254,-0.66146 0,-0.42333 0.29104,-0.67204 0.29105,-0.254 0.79905,-0.254 h 0.70908 v -0.20638 q 0,-0.43921 -0.51329,-0.43921 -0.23283,0 -0.37042,0.09 -0.13758,0.09 -0.15346,0.254 h -0.635 q 0.0212,-0.39158 0.32809,-0.635 0.3122,-0.24341 0.83608,-0.24341 0.55563,0 0.86254,0.25929 0.30692,0.25929 0.30692,0.73025 v 1.97379 h -0.64558 v -0.54504 q -0.037,0.28046 -0.26459,0.43921 -0.22754,0.15875 -0.59266,0.15875 z m 0.21166,-0.53975 q 0.29104,0 0.46038,-0.14288 0.16933,-0.14287 0.16933,-0.381 v -0.34396 h -0.67733 q -0.21696,0 -0.34396,0.12171 -0.127,0.12171 -0.127,0.31221 0,0.19579 0.13229,0.3175 0.13758,0.11642 0.38629,0.11642 z m 2.10609,0.48683 v -2.91042 h 0.59796 v 1.40759 q 0,0.23812 -0.0159,0.508 -0.0106,0.26458 -0.0582,0.45508 l 1.03188,-2.37067 h 0.80433 v 2.91042 h -0.59796 v -1.41287 q 0,-0.23284 0.0106,-0.48155 0.0106,-0.2487 0.0582,-0.41804 l -1.02659,2.31246 z m 1.18004,-3.37079 q -0.41275,0 -0.67204,-0.21167 -0.254,-0.21696 -0.254,-0.5715 h 0.51329 q 0,0.17463 0.11112,0.28046 0.11642,0.10583 0.30163,0.10583 0.18521,0 0.29633,-0.10583 0.11642,-0.10583 0.11642,-0.28046 h 0.51329 q 0,0.35454 -0.254,0.5715 -0.254,0.21167 -0.67204,0.21167 z m 1.8415,3.37079 -0.005,-2.91042 h 0.58738 v 2.38655 h 0.49212 v -2.38655 h 0.52388 v 2.38655 h 0.49212 v -2.38655 h 0.58209 v 2.91042 z m 4.5138,0.0529 q -0.37042,0 -0.64559,-0.14288 -0.27516,-0.14287 -0.42862,-0.40216 -0.14817,-0.26459 -0.14817,-0.61913 v -0.68792 q 0,-0.35454 0.14817,-0.61383 0.15346,-0.26458 0.42862,-0.40746 0.27517,-0.14287 0.64559,-0.14287 0.36512,0 0.635,0.14287 0.27516,0.14288 0.42333,0.40217 0.15346,0.254 0.15346,0.59796 v 0.52916 h -1.79917 v 0.20109 q 0,0.29633 0.15346,0.44979 0.15346,0.14817 0.43392,0.14817 0.20637,0 0.34925,-0.0688 0.14816,-0.0741 0.17462,-0.21166 h 0.65617 q -0.0688,0.37571 -0.39158,0.60325 -0.3228,0.22225 -0.78846,0.22225 z m -0.58738,-1.87325 v 0.10054 l 1.16417,-0.005 v -0.10054 q 0,-0.30163 -0.14817,-0.46567 -0.14816,-0.16404 -0.42862,-0.16404 -0.29104,0 -0.43921,0.16933 -0.14817,0.16404 -0.14817,0.46567 z m 2.82046,1.82033 v -2.91042 h 2.16959 v 0.61384 h -1.50813 v 2.29658 z m 4.11164,0.0476 q -0.56092,0 -0.889,-0.31221 -0.32809,-0.3175 -0.32809,-0.85196 v -0.67733 q 0,-0.53976 0.32809,-0.85196 0.32808,-0.31221 0.889,-0.31221 0.56091,0 0.889,0.31221 0.32808,0.3122 0.32808,0.85196 v 0.67733 q 0,0.53446 -0.32808,0.85196 -0.32809,0.31221 -0.889,0.31221 z m 0,-0.5768 q 0.26458,0 0.40745,-0.14287 0.14817,-0.14817 0.14817,-0.42333 v -0.71967 q 0,-0.27517 -0.14817,-0.41804 -0.14287,-0.14817 -0.40745,-0.14817 -0.26459,0 -0.41275,0.14817 -0.14288,0.14287 -0.14288,0.41804 v 0.71967 q 0,0.27516 0.14288,0.42333 0.14816,0.14287 0.41275,0.14287 z"
         id="path21" /><path
         d="m 164.02532,161.6356 v -2.91042 h 2.36009 v 2.91042 h -0.66146 v -2.30717 h -1.03717 v 2.30717 z m 4.35505,0.0476 q -0.56092,0 -0.889,-0.3122 -0.32809,-0.31751 -0.32809,-0.85196 v -0.67734 q 0,-0.53975 0.32809,-0.85196 0.32808,-0.3122 0.889,-0.3122 0.56092,0 0.889,0.3122 0.32808,0.31221 0.32808,0.85196 v 0.67734 q 0,0.53445 -0.32808,0.85196 -0.32808,0.3122 -0.889,0.3122 z m 0,-0.57679 q 0.26458,0 0.40746,-0.14287 0.14816,-0.14817 0.14816,-0.42334 v -0.71966 q 0,-0.27517 -0.14816,-0.41805 -0.14288,-0.14816 -0.40746,-0.14816 -0.26459,0 -0.41275,0.14816 -0.14288,0.14288 -0.14288,0.41805 v 0.71966 q 0,0.27517 0.14288,0.42334 0.14816,0.14287 0.41275,0.14287 z m 1.70921,1.27 v -1.30704 h 0.19579 q 0.0952,-0.0952 0.1905,-0.32808 0.0953,-0.23813 0.10054,-0.66675 l 0.0212,-1.34938 h 2.05846 v 2.34421 h 0.35454 v 1.30704 h -0.60854 v -0.74083 h -1.70392 v 0.74083 z m 0.85196,-1.30704 h 1.08479 v -1.77271 h -0.81492 l -0.0106,0.78317 q -0.005,0.41275 -0.09,0.65616 -0.0794,0.23813 -0.16933,0.33338 z m 2.31775,0.60325 v -0.60325 h 0.12171 q 0.17992,0 0.26988,-0.14288 0.0952,-0.14816 0.10054,-0.46566 l 0.0318,-1.73567 h 2.12725 v 2.91042 h -0.66146 v -2.31246 h -0.81492 l -0.0212,1.17475 q -0.0106,0.57679 -0.26988,0.87842 -0.254,0.29633 -0.71967,0.29633 z m 4.65138,0.0159 q -0.37041,0 -0.64558,-0.14288 -0.27517,-0.14287 -0.42863,-0.40217 -0.14816,-0.26458 -0.14816,-0.61912 v -0.68792 q 0,-0.35454 0.14816,-0.61383 0.15346,-0.26459 0.42863,-0.40746 0.27517,-0.14288 0.64558,-0.14288 0.36513,0 0.635,0.14288 0.27517,0.14287 0.42334,0.40217 0.15345,0.254 0.15345,0.59795 v 0.52917 h -1.79916 v 0.20108 q 0,0.29634 0.15346,0.4498 0.15345,0.14816 0.43391,0.14816 0.20638,0 0.34925,-0.0688 0.14817,-0.0741 0.17463,-0.21167 h 0.65616 q -0.0688,0.37571 -0.39158,0.60326 -0.32279,0.22225 -0.78846,0.22225 z m -0.58737,-1.87326 v 0.10055 l 1.16416,-0.005 v -0.10054 q 0,-0.30162 -0.14816,-0.46566 -0.14817,-0.16405 -0.42863,-0.16405 -0.29104,0 -0.43921,0.16934 -0.14816,0.16404 -0.14816,0.46566 z m 1.20121,-1.57691 q -0.17463,0 -0.28046,-0.10055 -0.10584,-0.10583 -0.10584,-0.28045 0,-0.17463 0.10584,-0.27517 0.10583,-0.10583 0.28046,-0.10583 0.17991,0 0.28575,0.10583 0.10583,0.10054 0.10583,0.27517 0,0.17462 -0.10583,0.28045 -0.10584,0.10055 -0.28575,0.10055 z m -1.23825,0 q -0.17992,0 -0.28576,-0.10055 -0.10583,-0.10583 -0.10583,-0.28045 0,-0.17463 0.10583,-0.27517 0.10584,-0.10583 0.28576,-0.10583 0.17462,0 0.28045,0.10583 0.10584,0.10054 0.10584,0.27517 0,0.17462 -0.10584,0.28045 -0.10583,0.10055 -0.28045,0.10055 z m 3.46075,3.39725 v -2.31246 h -0.99483 v -0.59796 h 2.65641 v 0.59796 h -0.99483 v 2.31246 z m 3.18559,0.0529 q -0.4445,0 -0.7038,-0.24871 -0.254,-0.254 -0.254,-0.66146 0,-0.42334 0.29105,-0.67204 0.29104,-0.254 0.79904,-0.254 h 0.70908 v -0.20638 q 0,-0.43921 -0.51329,-0.43921 -0.23283,0 -0.37042,0.09 -0.13758,0.09 -0.15346,0.254 h -0.635 q 0.0212,-0.39158 0.32809,-0.635 0.31221,-0.24342 0.83608,-0.24342 0.55563,0 0.86254,0.2593 0.30692,0.25929 0.30692,0.73025 v 1.97379 h -0.64558 v -0.54504 q -0.037,0.28046 -0.26459,0.43921 -0.22754,0.15875 -0.59266,0.15875 z m 0.21166,-0.53975 q 0.29105,0 0.46038,-0.14288 0.16933,-0.14288 0.16933,-0.381 v -0.34396 h -0.67733 q -0.21696,0 -0.34396,0.12171 -0.127,0.12171 -0.127,0.31221 0,0.19579 0.13229,0.3175 0.13758,0.11642 0.38629,0.11642 z"
         id="path22" /></g><path
       d="m 11.092473,192.60945 v -3.86292 h 2.317752 v 0.59796 h -1.672168 v 0.92075 h 0.566209 q 0.386291,0 0.672042,0.14817 0.28575,0.14287 0.4445,0.40746 0.15875,0.25929 0.15875,0.60854 0,0.34925 -0.15875,0.61383 -0.15875,0.26459 -0.4445,0.41804 -0.280459,0.14817 -0.666751,0.14817 z m 0.645584,-0.58208 h 0.5715 q 0.275167,0 0.433917,-0.16404 0.164042,-0.16405 0.164042,-0.43392 0,-0.27517 -0.164042,-0.43392 -0.15875,-0.16404 -0.433917,-0.16404 h -0.5715 z m 2.233087,0.61912 v -0.60325 h 0.121708 q 0.179917,0 0.269875,-0.14287 0.09525,-0.14817 0.100542,-0.46567 l 0.03175,-1.73567 h 2.127251 v 2.91042 h -0.661458 v -2.31246 h -0.814918 l -0.02117,1.17475 q -0.01058,0.57679 -0.269875,0.87842 -0.254001,0.29633 -0.719668,0.29633 z m 3.466045,-0.037 v -2.91042 h 0.597959 v 1.40759 q 0,0.23812 -0.01588,0.508 -0.01058,0.26458 -0.05821,0.45508 l 1.031875,-2.37067 h 0.804334 v 2.91042 h -0.597958 v -1.41287 q 0,-0.23284 0.01058,-0.48155 0.01058,-0.2487 0.05821,-0.41804 l -1.026584,2.31246 z m 2.783421,0 0.619125,-1.49754 -0.576792,-1.41288 h 0.592667 l 0.476251,1.2065 h 0.22225 v -1.2065 h 0.47625 v 1.2065 h 0.22225 l 0.502709,-1.2065 h 0.566208 l -0.576792,1.397 0.619126,1.51342 h -0.587376 l -0.513292,-1.27 h -0.232833 v 1.27 h -0.47625 v -1.27 h -0.232834 l -0.492125,1.27 z m 3.566588,0 v -2.91042 h 0.661458 v 1.12184 h 1.037168 v -1.12184 h 0.661458 v 2.91042 h -0.661458 v -1.19062 h -1.037168 v 1.19062 z m 3.058587,0 0.682625,-1.06892 q -0.291042,-0.0899 -0.460375,-0.3175 -0.164042,-0.23283 -0.164042,-0.55033 0,-0.45508 0.306917,-0.71438 0.306917,-0.25929 0.846667,-0.25929 h 1.264709 v 2.91042 h -0.661458 v -1.00542 h -0.460376 l -0.592667,1.00542 z m 1.238251,-1.51871 h 0.576792 v -0.85196 h -0.576792 q -0.238126,0 -0.381001,0.11642 -0.137583,0.11113 -0.137583,0.31221 0,0.20108 0.137583,0.31221 0.137584,0.11112 0.381001,0.11112 z m 1.936753,1.51871 0.682625,-1.06892 q -0.291042,-0.0899 -0.460375,-0.3175 -0.164042,-0.23283 -0.164042,-0.55033 0,-0.45508 0.306917,-0.71438 0.306917,-0.25929 0.846667,-0.25929 h 1.264709 v 2.91042 h -0.661458 v -1.00542 h -0.460376 l -0.592667,1.00542 z m 1.238251,-1.51871 h 0.576792 v -0.85196 H 31.25904 q -0.238126,0 -0.381001,0.11642 -0.137583,0.11113 -0.137583,0.31221 0,0.20108 0.137583,0.31221 0.137584,0.11112 0.381001,0.11112 z m 5.47159,1.51871 v -2.91042 h 2.169585 v 0.61384 h -1.508126 v 2.29658 z m 2.931587,0.9525 v -3.86292 H 40.3078 v 0.53446 q 0.07937,-0.27517 0.28575,-0.42862 0.206376,-0.15875 0.513292,-0.15875 0.280459,0 0.492126,0.13758 0.216958,0.13758 0.333375,0.39158 0.121708,0.24871 0.121708,0.58209 v 0.78846 q 0,0.5027 -0.259291,0.80962 -0.259292,0.30692 -0.687918,0.30692 -0.306916,0 -0.518583,-0.15875 -0.206375,-0.15875 -0.28575,-0.4445 l 0.02117,0.68791 v 0.81492 z m 1.195917,-1.47108 q 0.254,0 0.391584,-0.13759 0.142875,-0.13758 0.142875,-0.42333 v -0.75142 q 0,-0.28575 -0.142875,-0.42333 -0.137584,-0.13758 -0.391584,-0.13758 -0.254,0 -0.396875,0.15345 -0.137584,0.15346 -0.137584,0.43392 v 0.6985 q 0,0.28046 0.137584,0.43392 0.142875,0.15346 0.396875,0.15346 z m 2.836338,0.5715 q -0.4445,0 -0.703792,-0.24871 -0.254,-0.254 -0.254,-0.66146 0,-0.42333 0.291042,-0.67204 0.291041,-0.254 0.799042,-0.254 h 0.709084 v -0.20638 q 0,-0.43921 -0.513292,-0.43921 -0.232834,0 -0.370417,0.09 -0.137584,0.09 -0.153459,0.254 h -0.635 q 0.02117,-0.39158 0.328083,-0.635 0.312209,-0.24341 0.836084,-0.24341 0.555626,0 0.862542,0.25929 0.306917,0.25929 0.306917,0.73025 v 1.97379 h -0.645583 v -0.54504 q -0.03704,0.28046 -0.264584,0.43921 -0.227542,0.15875 -0.592667,0.15875 z m 0.211667,-0.53975 q 0.291042,0 0.460375,-0.14288 0.169334,-0.14287 0.169334,-0.381 v -0.34396 h -0.677334 q -0.216959,0 -0.343959,0.12171 -0.127,0.12171 -0.127,0.31221 0,0.19579 0.132292,0.3175 0.137583,0.11642 0.386292,0.11642 z m 2.106087,0.48683 v -2.91042 h 0.661459 v 1.12184 h 1.037168 v -1.12184 h 0.661458 v 2.91042 h -0.661458 v -1.19062 h -1.037168 v 1.19062 z m 3.175004,0 v -2.91042 h 0.597958 v 1.40759 q 0,0.23812 -0.01588,0.508 -0.01058,0.26458 -0.05821,0.45508 l 1.031875,-2.37067 h 0.804334 v 2.91042 h -0.597958 v -1.41287 q 0,-0.23284 0.01058,-0.48155 0.01058,-0.2487 0.05821,-0.41804 l -1.026584,2.31246 z m 5.201712,0.74084 v -0.74084 h -2.026709 v -2.91042 h 0.661458 v 2.30188 h 0.915459 v -2.30188 h 0.661459 v 2.30188 h 0.396875 v 1.34938 z m 2.005548,-0.68792 q -0.4445,0 -0.703792,-0.24871 -0.254,-0.254 -0.254,-0.66146 0,-0.42333 0.291042,-0.67204 0.291041,-0.254 0.799042,-0.254 h 0.709083 v -0.20638 q 0,-0.43921 -0.513291,-0.43921 -0.232834,0 -0.370417,0.09 -0.137584,0.09 -0.153459,0.254 h -0.635 q 0.02117,-0.39158 0.328083,-0.635 0.312209,-0.24341 0.836084,-0.24341 0.555626,0 0.862542,0.25929 0.306917,0.25929 0.306917,0.73025 v 1.97379 H 57.25174 v -0.54504 q -0.03704,0.28046 -0.264583,0.43921 -0.227542,0.15875 -0.592667,0.15875 z m 0.211667,-0.53975 q 0.291042,0 0.460375,-0.14288 0.169333,-0.14287 0.169333,-0.381 v -0.34396 h -0.677333 q -0.216959,0 -0.343959,0.12171 -0.127,0.12171 -0.127,0.31221 0,0.19579 0.132292,0.3175 0.137583,0.11642 0.386292,0.11642 z"
       id="text1-7"
       style="font-weight:bold;font-size:5.29167px;font-family:'JetBrains Mono';-inkscape-font-specification:'JetBrains Mono, Bold';text-align:center;text-anchor:middle;fill:#808080;stroke-width:0.264583"
       transform="rotate(-18.256818)"
       aria-label="Ближняя граница" /><path
       d="m 33.65051,267.56765 v -1.29646 h 0.195792 q 0.08996,-0.14817 0.185209,-0.46038 0.09525,-0.31221 0.100541,-0.69321 l 0.03175,-2.15371 h 2.079627 v 3.3073 h 0.338667 v 1.29646 h -0.608542 v -0.74084 h -1.714502 v 0.74084 z m 0.857251,-1.29646 h 1.100667 v -2.74638 h -0.8255 l -0.02646,1.59279 q 0,0.3863 -0.08467,0.6985 -0.08467,0.31221 -0.164042,0.45509 z m 3.460754,0.60854 q -0.4445,0 -0.703792,-0.24871 -0.254,-0.254 -0.254,-0.66146 0,-0.42333 0.291042,-0.67204 0.291042,-0.254 0.799042,-0.254 h 0.709084 v -0.20638 q 0,-0.4392 -0.513292,-0.4392 -0.232834,0 -0.370417,0.0899 -0.137584,0.09 -0.153459,0.254 h -0.635 q 0.02117,-0.39158 0.328084,-0.635 0.312208,-0.24341 0.836083,-0.24341 0.555626,0 0.862543,0.25929 0.306916,0.25929 0.306916,0.73025 v 1.97379 h -0.645583 v -0.54504 q -0.03704,0.28046 -0.264584,0.43921 -0.227542,0.15875 -0.592667,0.15875 z m 0.211667,-0.53975 q 0.291042,0 0.460375,-0.14288 0.169334,-0.14287 0.169334,-0.381 v -0.34395 h -0.677334 q -0.216959,0 -0.343959,0.1217 -0.127,0.12171 -0.127,0.31221 0,0.19579 0.132292,0.3175 0.137583,0.11642 0.386292,0.11642 z m 1.815045,0.52387 v -0.60325 h 0.121708 q 0.179917,0 0.269875,-0.14287 0.09525,-0.14817 0.100542,-0.46567 l 0.03175,-1.73567 h 2.127251 v 2.91042 h -0.661458 v -2.31246 h -0.814918 l -0.02117,1.17475 q -0.01058,0.5768 -0.269875,0.87842 -0.254001,0.29633 -0.719667,0.29633 z m 3.518962,-0.037 v -2.91042 h 0.666751 v 0.9525 h 0.724958 q 0.523876,0 0.825501,0.26459 0.301625,0.25929 0.301625,0.71967 0,0.44979 -0.306917,0.71437 -0.301625,0.25929 -0.814917,0.25929 z m 0.666751,-0.57679 h 0.6985 q 0.227542,0 0.354542,-0.10583 0.127,-0.10584 0.127,-0.29634 0,-0.1905 -0.127,-0.29633 -0.127,-0.10583 -0.354542,-0.10583 h -0.6985 z m 2.455337,0.57679 v -2.91042 h 0.661458 v 1.12184 h 1.037168 v -1.12184 h 0.661458 v 2.91042 h -0.661458 v -1.19062 h -1.037168 v 1.19062 z m 3.058587,0 0.682625,-1.06891 q -0.291042,-0.09 -0.460375,-0.3175 -0.164042,-0.23284 -0.164042,-0.55034 0,-0.45508 0.306917,-0.71437 0.306917,-0.2593 0.846667,-0.2593 h 1.264709 v 2.91042 h -0.661458 v -1.00541 h -0.460376 l -0.592667,1.00541 z m 1.238251,-1.51871 h 0.576792 v -0.85196 h -0.576792 q -0.238125,0 -0.381001,0.11642 -0.137583,0.11113 -0.137583,0.31221 0,0.20108 0.137583,0.31221 0.137584,0.11112 0.381001,0.11112 z m 1.936753,1.51871 0.682625,-1.06891 q -0.291042,-0.09 -0.460375,-0.3175 -0.164042,-0.23284 -0.164042,-0.55034 0,-0.45508 0.306917,-0.71437 0.306917,-0.2593 0.846667,-0.2593 h 1.264709 v 2.91042 h -0.661458 v -1.00541 h -0.460376 l -0.592667,1.00541 z m 1.238251,-1.51871 h 0.576792 v -0.85196 h -0.576792 q -0.238125,0 -0.381001,0.11642 -0.137583,0.11113 -0.137583,0.31221 0,0.20108 0.137583,0.31221 0.137584,0.11112 0.381001,0.11112 z m 5.47159,1.51871 v -2.91042 h 2.169585 v 0.61384 h -1.508126 v 2.29658 z m 2.931587,0.9525 v -3.86292 h 0.645583 v 0.53446 q 0.07937,-0.27516 0.285751,-0.42862 0.206375,-0.15875 0.513292,-0.15875 0.280458,0 0.492125,0.13758 0.216958,0.13758 0.333375,0.39158 0.121708,0.24871 0.121708,0.58209 v 0.78846 q 0,0.50271 -0.259291,0.80962 -0.259292,0.30692 -0.687917,0.30692 -0.306917,0 -0.518584,-0.15875 -0.206375,-0.15875 -0.28575,-0.4445 l 0.02117,0.68792 v 0.81491 z m 1.195917,-1.47108 q 0.254,0 0.391584,-0.13758 0.142875,-0.13759 0.142875,-0.42334 v -0.75142 q 0,-0.28575 -0.142875,-0.42333 -0.137584,-0.13758 -0.391584,-0.13758 -0.254,0 -0.396875,0.15346 -0.137584,0.15345 -0.137584,0.43391 v 0.6985 q 0,0.28046 0.137584,0.43392 0.142875,0.15346 0.396875,0.15346 z m 2.836338,0.5715 q -0.4445,0 -0.703792,-0.24871 -0.254,-0.254 -0.254,-0.66146 0,-0.42333 0.291042,-0.67204 0.291042,-0.254 0.799042,-0.254 h 0.709084 v -0.20638 q 0,-0.4392 -0.513292,-0.4392 -0.232834,0 -0.370417,0.0899 -0.137584,0.09 -0.153459,0.254 h -0.635 q 0.02117,-0.39158 0.328084,-0.635 0.312208,-0.24341 0.836083,-0.24341 0.555626,0 0.862543,0.25929 0.306916,0.25929 0.306916,0.73025 v 1.97379 h -0.645583 v -0.54504 q -0.03704,0.28046 -0.264584,0.43921 -0.227542,0.15875 -0.592667,0.15875 z m 0.211667,-0.53975 q 0.291042,0 0.460375,-0.14288 0.169334,-0.14287 0.169334,-0.381 v -0.34395 h -0.677334 q -0.216959,0 -0.343959,0.1217 -0.127,0.12171 -0.127,0.31221 0,0.19579 0.132292,0.3175 0.137583,0.11642 0.386292,0.11642 z m 2.106088,0.48683 v -2.91042 h 0.661458 v 1.12184 h 1.037168 v -1.12184 h 0.661458 v 2.91042 h -0.661458 v -1.19062 h -1.037168 v 1.19062 z m 3.175003,0 v -2.91042 h 0.597958 v 1.40759 q 0,0.23812 -0.01587,0.508 -0.01058,0.26458 -0.05821,0.45508 l 1.031876,-2.37067 h 0.804333 v 2.91042 h -0.597958 v -1.41287 q 0,-0.23284 0.01058,-0.48155 0.01058,-0.2487 0.05821,-0.41804 l -1.026584,2.31246 z m 5.201712,0.74084 v -0.74084 h -2.026709 v -2.91042 h 0.661458 v 2.30188 h 0.915459 v -2.30188 h 0.661459 v 2.30188 h 0.396875 v 1.34938 z m 2.005548,-0.68792 q -0.4445,0 -0.703792,-0.24871 -0.254,-0.254 -0.254,-0.66146 0,-0.42333 0.291042,-0.67204 0.291042,-0.254 0.799042,-0.254 h 0.709084 v -0.20638 q 0,-0.4392 -0.513292,-0.4392 -0.232834,0 -0.370417,0.0899 -0.137584,0.09 -0.153459,0.254 h -0.635 q 0.02117,-0.39158 0.328083,-0.635 0.312209,-0.24341 0.836084,-0.24341 0.555626,0 0.862542,0.25929 0.306917,0.25929 0.306917,0.73025 v 1.97379 H 80.10082 v -0.54504 q -0.03704,0.28046 -0.264584,0.43921 -0.227542,0.15875 -0.592667,0.15875 z m 0.211667,-0.53975 q 0.291042,0 0.460375,-0.14288 0.169334,-0.14287 0.169334,-0.381 v -0.34395 h -0.677334 q -0.216959,0 -0.343959,0.1217 -0.127,0.12171 -0.127,0.31221 0,0.19579 0.132292,0.3175 0.137583,0.11642 0.386292,0.11642 z"
       id="text1-7-2"
       style="font-weight:bold;font-size:5.29167px;font-family:'JetBrains Mono';-inkscape-font-specification:'JetBrains Mono, Bold';text-align:center;text-anchor:middle;fill:#808080;stroke-width:0.264583"
       transform="rotate(-18.297205)"
       aria-label="Дальняя граница" /></g></svg>
