<?xml version="1.0" encoding="UTF-8" standalone="no"?>
<svg
   style="fill-opacity:1; color-rendering:auto; color-interpolation:auto; text-rendering:auto; stroke:black; stroke-linecap:square; stroke-miterlimit:10; shape-rendering:auto; stroke-opacity:1; fill:black; stroke-dasharray:none; font-weight:normal; stroke-width:1; font-family:'Dialog'; font-style:normal; stroke-linejoin:miter; font-size:12px; stroke-dashoffset:0; image-rendering:auto;"
   width="1000"
   height="500"
   version="1.1"
   id="svg77"
   sodipodi:docname="slice_a.svg"
   inkscape:version="1.3.2 (091e20e, 2023-11-25, custom)"
   xmlns:inkscape="http://www.inkscape.org/namespaces/inkscape"
   xmlns:sodipodi="http://sodipodi.sourceforge.net/DTD/sodipodi-0.dtd"
   xmlns="http://www.w3.org/2000/svg"
   xmlns:svg="http://www.w3.org/2000/svg">
  <sodipodi:namedview
     id="namedview77"
     pagecolor="#ffffff"
     bordercolor="#000000"
     borderopacity="0.25"
     inkscape:showpageshadow="2"
     inkscape:pageopacity="0.0"
     inkscape:pagecheckerboard="0"
     inkscape:deskcolor="#d1d1d1"
     inkscape:zoom="0.993"
     inkscape:cx="500"
     inkscape:cy="250.25176"
     inkscape:window-width="1920"
     inkscape:window-height="991"
     inkscape:window-x="-9"
     inkscape:window-y="1341"
     inkscape:window-maximized="1"
     inkscape:current-layer="g67" />
  <!--Generated by the Batik Graphics2D SVG Generator-->
  <defs
     id="genericDefs" />
  <g
     id="g77">
    <defs
       id="defs1">
      <clipPath
         clipPathUnits="userSpaceOnUse"
         id="clipPath1">
        <path
           d="M0 0 L1000 0 L1000 500 L0 500 L0 0 Z"
           id="path1" />
      </clipPath>
    </defs>
    <g
       style="fill:white; stroke:white;"
       id="g1">
      <rect
         x="0"
         y="0"
         width="1000"
         style="clip-path:url(#clipPath1); stroke:none;"
         height="500"
         clip-path="url(#clipPath1)"
         id="rect1" />
    </g>
    <g
       style="fill:white; text-rendering:optimizeSpeed; color-rendering:optimizeSpeed; image-rendering:optimizeSpeed; shape-rendering:crispEdges; stroke:white; color-interpolation:sRGB;"
       id="g2">
      <rect
         x="0"
         width="1000"
         height="500"
         y="0"
         style="stroke:none;"
         id="rect2" />
      <path
         style="stroke:none;"
         d="M130 437 L905 437 L905 37 L130 37 Z"
         id="path2" />
    </g>
    <g
       style="stroke-linecap:butt; fill-opacity:0.149; fill:rgb(38,38,38); text-rendering:geometricPrecision; image-rendering:optimizeQuality; color-rendering:optimizeQuality; stroke-linejoin:round; stroke:rgb(38,38,38); color-interpolation:linearRGB; stroke-width:0.8333; stroke-opacity:0.149;"
       id="g36">
      <line
         y2="37"
         style="fill:none;"
         x1="166.8091"
         x2="166.8091"
         y1="437"
         id="line2" />
      <line
         y2="37"
         style="fill:none;"
         x1="254.0819"
         x2="254.0819"
         y1="437"
         id="line3" />
      <line
         y2="37"
         style="fill:none;"
         x1="341.3546"
         x2="341.3546"
         y1="437"
         id="line4" />
      <line
         y2="37"
         style="fill:none;"
         x1="428.6273"
         x2="428.6273"
         y1="437"
         id="line5" />
      <line
         y2="37"
         style="fill:none;"
         x1="515.9001"
         x2="515.9001"
         y1="437"
         id="line6" />
      <line
         y2="37"
         style="fill:none;"
         x1="603.1728"
         x2="603.1728"
         y1="437"
         id="line7" />
      <line
         y2="37"
         style="fill:none;"
         x1="690.4455"
         x2="690.4455"
         y1="437"
         id="line8" />
      <line
         y2="37"
         style="fill:none;"
         x1="777.7183"
         x2="777.7183"
         y1="437"
         id="line9" />
      <line
         y2="37"
         style="fill:none;"
         x1="864.991"
         x2="864.991"
         y1="437"
         id="line10" />
      <line
         y2="437"
         style="fill:none;"
         x1="905"
         x2="130"
         y1="437"
         id="line11" />
      <line
         y2="361.5283"
         style="fill:none;"
         x1="905"
         x2="130"
         y1="361.5283"
         id="line12" />
      <line
         y2="286.0566"
         style="fill:none;"
         x1="905"
         x2="130"
         y1="286.0566"
         id="line13" />
      <line
         y2="210.5849"
         style="fill:none;"
         x1="905"
         x2="130"
         y1="210.5849"
         id="line14" />
      <line
         y2="135.1132"
         style="fill:none;"
         x1="905"
         x2="130"
         y1="135.1132"
         id="line15" />
      <line
         y2="59.6415"
         style="fill:none;"
         x1="905"
         x2="130"
         y1="59.6415"
         id="line16" />
      <line
         x1="130"
         x2="905"
         y1="437"
         style="stroke-linecap:square; fill-opacity:1; fill:none; stroke-opacity:1;"
         y2="437"
         id="line17" />
      <line
         x1="130"
         x2="905"
         y1="37"
         style="stroke-linecap:square; fill-opacity:1; fill:none; stroke-opacity:1;"
         y2="37"
         id="line18" />
      <line
         x1="166.8091"
         x2="166.8091"
         y1="437"
         style="stroke-linecap:square; fill-opacity:1; fill:none; stroke-opacity:1;"
         y2="429.25"
         id="line19" />
      <line
         x1="254.0819"
         x2="254.0819"
         y1="437"
         style="stroke-linecap:square; fill-opacity:1; fill:none; stroke-opacity:1;"
         y2="429.25"
         id="line20" />
      <line
         x1="341.3546"
         x2="341.3546"
         y1="437"
         style="stroke-linecap:square; fill-opacity:1; fill:none; stroke-opacity:1;"
         y2="429.25"
         id="line21" />
      <line
         x1="428.6273"
         x2="428.6273"
         y1="437"
         style="stroke-linecap:square; fill-opacity:1; fill:none; stroke-opacity:1;"
         y2="429.25"
         id="line22" />
      <line
         x1="515.9001"
         x2="515.9001"
         y1="437"
         style="stroke-linecap:square; fill-opacity:1; fill:none; stroke-opacity:1;"
         y2="429.25"
         id="line23" />
      <line
         x1="603.1728"
         x2="603.1728"
         y1="437"
         style="stroke-linecap:square; fill-opacity:1; fill:none; stroke-opacity:1;"
         y2="429.25"
         id="line24" />
      <line
         x1="690.4455"
         x2="690.4455"
         y1="437"
         style="stroke-linecap:square; fill-opacity:1; fill:none; stroke-opacity:1;"
         y2="429.25"
         id="line25" />
      <line
         x1="777.7183"
         x2="777.7183"
         y1="437"
         style="stroke-linecap:square; fill-opacity:1; fill:none; stroke-opacity:1;"
         y2="429.25"
         id="line26" />
      <line
         x1="864.991"
         x2="864.991"
         y1="437"
         style="stroke-linecap:square; fill-opacity:1; fill:none; stroke-opacity:1;"
         y2="429.25"
         id="line27" />
      <line
         x1="166.8091"
         x2="166.8091"
         y1="37"
         style="stroke-linecap:square; fill-opacity:1; fill:none; stroke-opacity:1;"
         y2="44.75"
         id="line28" />
      <line
         x1="254.0819"
         x2="254.0819"
         y1="37"
         style="stroke-linecap:square; fill-opacity:1; fill:none; stroke-opacity:1;"
         y2="44.75"
         id="line29" />
      <line
         x1="341.3546"
         x2="341.3546"
         y1="37"
         style="stroke-linecap:square; fill-opacity:1; fill:none; stroke-opacity:1;"
         y2="44.75"
         id="line30" />
      <line
         x1="428.6273"
         x2="428.6273"
         y1="37"
         style="stroke-linecap:square; fill-opacity:1; fill:none; stroke-opacity:1;"
         y2="44.75"
         id="line31" />
      <line
         x1="515.9001"
         x2="515.9001"
         y1="37"
         style="stroke-linecap:square; fill-opacity:1; fill:none; stroke-opacity:1;"
         y2="44.75"
         id="line32" />
      <line
         x1="603.1728"
         x2="603.1728"
         y1="37"
         style="stroke-linecap:square; fill-opacity:1; fill:none; stroke-opacity:1;"
         y2="44.75"
         id="line33" />
      <line
         x1="690.4455"
         x2="690.4455"
         y1="37"
         style="stroke-linecap:square; fill-opacity:1; fill:none; stroke-opacity:1;"
         y2="44.75"
         id="line34" />
      <line
         x1="777.7183"
         x2="777.7183"
         y1="37"
         style="stroke-linecap:square; fill-opacity:1; fill:none; stroke-opacity:1;"
         y2="44.75"
         id="line35" />
      <line
         x1="864.991"
         x2="864.991"
         y1="37"
         style="stroke-linecap:square; fill-opacity:1; fill:none; stroke-opacity:1;"
         y2="44.75"
         id="line36" />
    </g>
    <g
       transform="translate(166.8091,444.3333)"
       style="font-size:20px; fill:rgb(38,38,38); text-rendering:geometricPrecision; color-rendering:optimizeQuality; image-rendering:optimizeQuality; stroke:rgb(38,38,38); color-interpolation:linearRGB;"
       id="g37">
      <path
         style="stroke:none;"
         d="M-8.3594 16.7031 L-8.3594 14.9375 L-2.9688 14.9375 L-2.9688 16.7031 L-8.3594 16.7031 ZM7.7227 19.3125 L7.7227 21 L-1.7305 21 Q-1.7461 20.3594 -1.5273 19.7812 Q-1.168 18.8125 -0.3711 17.875 Q0.4258 16.9375 1.9258 15.7031 Q4.2695 13.7969 5.0898 12.6797 Q5.9102 11.5625 5.9102 10.5625 Q5.9102 9.5156 5.1602 8.7969 Q4.4102 8.0781 3.207 8.0781 Q1.9414 8.0781 1.1758 8.8438 Q0.4102 9.6094 0.4102 10.9531 L-1.4023 10.7656 Q-1.2148 8.75 -0.0039 7.6875 Q1.207 6.625 3.2539 6.625 Q5.3008 6.625 6.5039 7.7656 Q7.707 8.9062 7.707 10.5938 Q7.707 11.4531 7.3555 12.2891 Q7.0039 13.125 6.1914 14.0391 Q5.3789 14.9531 3.4883 16.5625 Q1.8945 17.8906 1.4492 18.3594 Q1.0039 18.8281 0.707 19.3125 L7.7227 19.3125 Z"
         id="path36" />
    </g>
    <g
       transform="translate(254.0819,444.3333)"
       style="font-size:20px; fill:rgb(38,38,38); text-rendering:geometricPrecision; color-rendering:optimizeQuality; image-rendering:optimizeQuality; stroke:rgb(38,38,38); color-interpolation:linearRGB;"
       id="g38">
      <path
         style="stroke:none;"
         d="M-16.8594 16.7031 L-16.8594 14.9375 L-11.4688 14.9375 L-11.4688 16.7031 L-16.8594 16.7031 ZM-3.3867 21 L-5.1523 21 L-5.1523 9.7969 Q-5.7773 10.4062 -6.8086 11.0078 Q-7.8398 11.6094 -8.668 11.9219 L-8.668 10.2188 Q-7.1836 9.5312 -6.082 8.5391 Q-4.9805 7.5469 -4.5273 6.625 L-3.3867 6.625 L-3.3867 21 ZM2.0957 21 L2.0957 19 L4.0957 19 L4.0957 21 L2.0957 21 ZM6.668 17.25 L8.5117 17.0938 Q8.7148 18.4375 9.4648 19.1172 Q10.2148 19.7969 11.2773 19.7969 Q12.543 19.7969 13.418 18.8438 Q14.293 17.8906 14.293 16.2969 Q14.293 14.7969 13.4492 13.9297 Q12.6055 13.0625 11.2461 13.0625 Q10.3867 13.0625 9.707 13.4453 Q9.0273 13.8281 8.6367 14.4531 L6.9805 14.2344 L8.3711 6.875 L15.4961 6.875 L15.4961 8.5625 L9.7773 8.5625 L9.0117 12.4062 Q10.293 11.5 11.7148 11.5 Q13.5898 11.5 14.8789 12.8047 Q16.168 14.1094 16.168 16.1406 Q16.168 18.0938 15.0273 19.5 Q13.6523 21.25 11.2773 21.25 Q9.3242 21.25 8.082 20.1562 Q6.8398 19.0625 6.668 17.25 Z"
         id="path37" />
    </g>
    <g
       transform="translate(341.3546,444.3333)"
       style="font-size:20px; fill:rgb(38,38,38); text-rendering:geometricPrecision; color-rendering:optimizeQuality; image-rendering:optimizeQuality; stroke:rgb(38,38,38); color-interpolation:linearRGB;"
       id="g39">
      <path
         style="stroke:none;"
         d="M-8.3594 16.7031 L-8.3594 14.9375 L-2.9688 14.9375 L-2.9688 16.7031 L-8.3594 16.7031 ZM5.1133 21 L3.3477 21 L3.3477 9.7969 Q2.7227 10.4062 1.6914 11.0078 Q0.6602 11.6094 -0.168 11.9219 L-0.168 10.2188 Q1.3164 9.5312 2.418 8.5391 Q3.5195 7.5469 3.9727 6.625 L5.1133 6.625 L5.1133 21 Z"
         id="path38" />
    </g>
    <g
       transform="translate(428.6273,444.3333)"
       style="font-size:20px; fill:rgb(38,38,38); text-rendering:geometricPrecision; color-rendering:optimizeQuality; image-rendering:optimizeQuality; stroke:rgb(38,38,38); color-interpolation:linearRGB;"
       id="g40">
      <path
         style="stroke:none;"
         d="M-16.8594 16.7031 L-16.8594 14.9375 L-11.4688 14.9375 L-11.4688 16.7031 L-16.8594 16.7031 ZM-10.0117 13.9375 Q-10.0117 11.4062 -9.4883 9.8516 Q-8.9648 8.2969 -7.9336 7.4609 Q-6.9023 6.625 -5.3398 6.625 Q-4.1836 6.625 -3.3164 7.0859 Q-2.4492 7.5469 -1.8867 8.4219 Q-1.3242 9.2969 -0.9961 10.5547 Q-0.668 11.8125 -0.668 13.9375 Q-0.668 16.4531 -1.1914 18 Q-1.7148 19.5469 -2.7383 20.3984 Q-3.7617 21.25 -5.3398 21.25 Q-7.418 21.25 -8.5898 19.7656 Q-10.0117 17.9688 -10.0117 13.9375 ZM-8.1992 13.9375 Q-8.1992 17.4688 -7.3789 18.6328 Q-6.5586 19.7969 -5.3398 19.7969 Q-4.1367 19.7969 -3.3086 18.625 Q-2.4805 17.4531 -2.4805 13.9375 Q-2.4805 10.4062 -3.3086 9.2422 Q-4.1367 8.0781 -5.3555 8.0781 Q-6.5742 8.0781 -7.293 9.1094 Q-8.1992 10.4062 -8.1992 13.9375 ZM2.0957 21 L2.0957 19 L4.0957 19 L4.0957 21 L2.0957 21 ZM6.668 17.25 L8.5117 17.0938 Q8.7148 18.4375 9.4648 19.1172 Q10.2148 19.7969 11.2773 19.7969 Q12.543 19.7969 13.418 18.8438 Q14.293 17.8906 14.293 16.2969 Q14.293 14.7969 13.4492 13.9297 Q12.6055 13.0625 11.2461 13.0625 Q10.3867 13.0625 9.707 13.4453 Q9.0273 13.8281 8.6367 14.4531 L6.9805 14.2344 L8.3711 6.875 L15.4961 6.875 L15.4961 8.5625 L9.7773 8.5625 L9.0117 12.4062 Q10.293 11.5 11.7148 11.5 Q13.5898 11.5 14.8789 12.8047 Q16.168 14.1094 16.168 16.1406 Q16.168 18.0938 15.0273 19.5 Q13.6523 21.25 11.2773 21.25 Q9.3242 21.25 8.082 20.1562 Q6.8398 19.0625 6.668 17.25 Z"
         id="path39" />
    </g>
    <g
       transform="translate(515.9001,444.3333)"
       style="font-size:20px; fill:rgb(38,38,38); text-rendering:geometricPrecision; color-rendering:optimizeQuality; image-rendering:optimizeQuality; stroke:rgb(38,38,38); color-interpolation:linearRGB;"
       id="g41">
      <path
         style="stroke:none;"
         d="M-5.1719 13.9375 Q-5.1719 11.4062 -4.6484 9.8516 Q-4.125 8.2969 -3.0938 7.4609 Q-2.0625 6.625 -0.5 6.625 Q0.6562 6.625 1.5234 7.0859 Q2.3906 7.5469 2.9531 8.4219 Q3.5156 9.2969 3.8438 10.5547 Q4.1719 11.8125 4.1719 13.9375 Q4.1719 16.4531 3.6484 18 Q3.125 19.5469 2.1016 20.3984 Q1.0781 21.25 -0.5 21.25 Q-2.5781 21.25 -3.75 19.7656 Q-5.1719 17.9688 -5.1719 13.9375 ZM-3.3594 13.9375 Q-3.3594 17.4688 -2.5391 18.6328 Q-1.7188 19.7969 -0.5 19.7969 Q0.7031 19.7969 1.5312 18.625 Q2.3594 17.4531 2.3594 13.9375 Q2.3594 10.4062 1.5312 9.2422 Q0.7031 8.0781 -0.5156 8.0781 Q-1.7344 8.0781 -2.4531 9.1094 Q-3.3594 10.4062 -3.3594 13.9375 Z"
         id="path40" />
    </g>
    <g
       transform="translate(603.1728,444.3333)"
       style="font-size:20px; fill:rgb(38,38,38); text-rendering:geometricPrecision; color-rendering:optimizeQuality; image-rendering:optimizeQuality; stroke:rgb(38,38,38); color-interpolation:linearRGB;"
       id="g42">
      <path
         style="stroke:none;"
         d="M-13.1719 13.9375 Q-13.1719 11.4062 -12.6484 9.8516 Q-12.125 8.2969 -11.0938 7.4609 Q-10.0625 6.625 -8.5 6.625 Q-7.3438 6.625 -6.4766 7.0859 Q-5.6094 7.5469 -5.0469 8.4219 Q-4.4844 9.2969 -4.1562 10.5547 Q-3.8281 11.8125 -3.8281 13.9375 Q-3.8281 16.4531 -4.3516 18 Q-4.875 19.5469 -5.8984 20.3984 Q-6.9219 21.25 -8.5 21.25 Q-10.5781 21.25 -11.75 19.7656 Q-13.1719 17.9688 -13.1719 13.9375 ZM-11.3594 13.9375 Q-11.3594 17.4688 -10.5391 18.6328 Q-9.7188 19.7969 -8.5 19.7969 Q-7.2969 19.7969 -6.4688 18.625 Q-5.6406 17.4531 -5.6406 13.9375 Q-5.6406 10.4062 -6.4688 9.2422 Q-7.2969 8.0781 -8.5156 8.0781 Q-9.7344 8.0781 -10.4531 9.1094 Q-11.3594 10.4062 -11.3594 13.9375 ZM-1.0645 21 L-1.0645 19 L0.9355 19 L0.9355 21 L-1.0645 21 ZM3.5078 17.25 L5.3516 17.0938 Q5.5547 18.4375 6.3047 19.1172 Q7.0547 19.7969 8.1172 19.7969 Q9.3828 19.7969 10.2578 18.8438 Q11.1328 17.8906 11.1328 16.2969 Q11.1328 14.7969 10.2891 13.9297 Q9.4453 13.0625 8.0859 13.0625 Q7.2266 13.0625 6.5469 13.4453 Q5.8672 13.8281 5.4766 14.4531 L3.8203 14.2344 L5.2109 6.875 L12.3359 6.875 L12.3359 8.5625 L6.6172 8.5625 L5.8516 12.4062 Q7.1328 11.5 8.5547 11.5 Q10.4297 11.5 11.7188 12.8047 Q13.0078 14.1094 13.0078 16.1406 Q13.0078 18.0938 11.8672 19.5 Q10.4922 21.25 8.1172 21.25 Q6.1641 21.25 4.9219 20.1562 Q3.6797 19.0625 3.5078 17.25 Z"
         id="path41" />
    </g>
    <g
       transform="translate(690.4455,444.3333)"
       style="font-size:20px; fill:rgb(38,38,38); text-rendering:geometricPrecision; color-rendering:optimizeQuality; image-rendering:optimizeQuality; stroke:rgb(38,38,38); color-interpolation:linearRGB;"
       id="g43">
      <path
         style="stroke:none;"
         d="M1.4531 21 L-0.3125 21 L-0.3125 9.7969 Q-0.9375 10.4062 -1.9688 11.0078 Q-3 11.6094 -3.8281 11.9219 L-3.8281 10.2188 Q-2.3438 9.5312 -1.2422 8.5391 Q-0.1406 7.5469 0.3125 6.625 L1.4531 6.625 L1.4531 21 Z"
         id="path42" />
    </g>
    <g
       transform="translate(777.7183,444.3333)"
       style="font-size:20px; fill:rgb(38,38,38); text-rendering:geometricPrecision; color-rendering:optimizeQuality; image-rendering:optimizeQuality; stroke:rgb(38,38,38); color-interpolation:linearRGB;"
       id="g44">
      <path
         style="stroke:none;"
         d="M-6.5469 21 L-8.3125 21 L-8.3125 9.7969 Q-8.9375 10.4062 -9.9688 11.0078 Q-11 11.6094 -11.8281 11.9219 L-11.8281 10.2188 Q-10.3438 9.5312 -9.2422 8.5391 Q-8.1406 7.5469 -7.6875 6.625 L-6.5469 6.625 L-6.5469 21 ZM-1.0645 21 L-1.0645 19 L0.9355 19 L0.9355 21 L-1.0645 21 ZM3.5078 17.25 L5.3516 17.0938 Q5.5547 18.4375 6.3047 19.1172 Q7.0547 19.7969 8.1172 19.7969 Q9.3828 19.7969 10.2578 18.8438 Q11.1328 17.8906 11.1328 16.2969 Q11.1328 14.7969 10.2891 13.9297 Q9.4453 13.0625 8.0859 13.0625 Q7.2266 13.0625 6.5469 13.4453 Q5.8672 13.8281 5.4766 14.4531 L3.8203 14.2344 L5.2109 6.875 L12.3359 6.875 L12.3359 8.5625 L6.6172 8.5625 L5.8516 12.4062 Q7.1328 11.5 8.5547 11.5 Q10.4297 11.5 11.7188 12.8047 Q13.0078 14.1094 13.0078 16.1406 Q13.0078 18.0938 11.8672 19.5 Q10.4922 21.25 8.1172 21.25 Q6.1641 21.25 4.9219 20.1562 Q3.6797 19.0625 3.5078 17.25 Z"
         id="path43" />
    </g>
    <g
       transform="translate(864.991,444.3333)"
       style="font-size:20px; fill:rgb(38,38,38); text-rendering:geometricPrecision; color-rendering:optimizeQuality; image-rendering:optimizeQuality; stroke:rgb(38,38,38); color-interpolation:linearRGB;"
       id="g45">
      <path
         style="stroke:none;"
         d="M4.0625 19.3125 L4.0625 21 L-5.3906 21 Q-5.4062 20.3594 -5.1875 19.7812 Q-4.8281 18.8125 -4.0312 17.875 Q-3.2344 16.9375 -1.7344 15.7031 Q0.6094 13.7969 1.4297 12.6797 Q2.25 11.5625 2.25 10.5625 Q2.25 9.5156 1.5 8.7969 Q0.75 8.0781 -0.4531 8.0781 Q-1.7188 8.0781 -2.4844 8.8438 Q-3.25 9.6094 -3.25 10.9531 L-5.0625 10.7656 Q-4.875 8.75 -3.6641 7.6875 Q-2.4531 6.625 -0.4062 6.625 Q1.6406 6.625 2.8438 7.7656 Q4.0469 8.9062 4.0469 10.5938 Q4.0469 11.4531 3.6953 12.2891 Q3.3438 13.125 2.5312 14.0391 Q1.7188 14.9531 -0.1719 16.5625 Q-1.7656 17.8906 -2.2109 18.3594 Q-2.6562 18.8281 -2.9531 19.3125 L4.0625 19.3125 Z"
         id="path44" />
    </g>
    <g
       transform="translate(517.5004,472)"
       style="font-size:22px; fill:rgb(38,38,38); text-rendering:geometricPrecision; color-rendering:optimizeQuality; image-rendering:optimizeQuality; stroke:rgb(38,38,38); color-interpolation:linearRGB;"
       id="g46">
      <path
         style="stroke:none;"
         d="M-40.6094 21.5938 Q-41.6719 22.5 -42.6719 22.8828 Q-43.6719 23.2656 -44.8125 23.2656 Q-46.6875 23.2656 -47.6953 22.3438 Q-48.7031 21.4219 -48.7031 19.9844 Q-48.7031 19.1562 -48.3203 18.4609 Q-47.9375 17.7656 -47.3203 17.3516 Q-46.7031 16.9375 -45.9375 16.7188 Q-45.3594 16.5625 -44.2188 16.4219 Q-41.875 16.1406 -40.7656 15.7656 Q-40.75 15.3594 -40.75 15.25 Q-40.75 14.0781 -41.2969 13.5938 Q-42.0469 12.9375 -43.5 12.9375 Q-44.875 12.9375 -45.5234 13.4141 Q-46.1719 13.8906 -46.4844 15.1094 L-48.375 14.8438 Q-48.1094 13.625 -47.5234 12.8828 Q-46.9375 12.1406 -45.8203 11.7344 Q-44.7031 11.3281 -43.2188 11.3281 Q-41.7656 11.3281 -40.8516 11.6719 Q-39.9375 12.0156 -39.5078 12.5391 Q-39.0781 13.0625 -38.9062 13.8594 Q-38.8125 14.3594 -38.8125 15.6406 L-38.8125 18.2188 Q-38.8125 20.9219 -38.6875 21.6328 Q-38.5625 22.3438 -38.2031 23 L-40.2188 23 Q-40.5156 22.3906 -40.6094 21.5938 ZM-40.7656 17.2812 Q-41.8125 17.7031 -43.9219 18 Q-45.1094 18.1719 -45.6094 18.3906 Q-46.1094 18.6094 -46.375 19.0234 Q-46.6406 19.4375 -46.6406 19.9375 Q-46.6406 20.7188 -46.0547 21.2344 Q-45.4688 21.75 -44.3438 21.75 Q-43.2188 21.75 -42.3516 21.2578 Q-41.4844 20.7656 -41.0781 19.9219 Q-40.7656 19.2656 -40.7656 17.9844 L-40.7656 17.2812 ZM-33.2959 17.8438 L-33.2959 16.3281 Q-32.0615 16.3125 -31.6162 16.2266 Q-31.1709 16.1406 -30.7725 15.7109 Q-30.374 15.2812 -30.374 14.6406 Q-30.374 13.8594 -30.8975 13.3906 Q-31.4209 12.9219 -32.249 12.9219 Q-33.874 12.9219 -34.5303 14.8438 L-36.374 14.5469 Q-35.5146 11.3281 -32.2334 11.3281 Q-30.4053 11.3281 -29.3662 12.3281 Q-28.3271 13.3281 -28.3271 14.7188 Q-28.3271 16.1094 -29.6865 16.9375 Q-28.8271 17.4062 -28.3975 18.1172 Q-27.9678 18.8281 -27.9678 19.8125 Q-27.9678 21.3438 -29.085 22.3047 Q-30.2021 23.2656 -32.2021 23.2656 Q-36.1084 23.2656 -36.7334 19.7812 L-34.9053 19.4062 Q-34.6709 20.5 -33.9131 21.1016 Q-33.1553 21.7031 -32.1709 21.7031 Q-31.2021 21.7031 -30.5459 21.1484 Q-29.8896 20.5938 -29.8896 19.7344 Q-29.8896 19.0625 -30.3037 18.5703 Q-30.7178 18.0781 -31.1787 17.9531 Q-31.6396 17.8281 -32.8428 17.8281 Q-32.9521 17.8281 -33.2959 17.8438 ZM-25.7246 11.5938 L-23.7871 11.5938 L-23.7871 20.2969 L-18.4277 11.5938 L-16.3496 11.5938 L-16.3496 23 L-18.2871 23 L-18.2871 14.3594 L-23.6465 23 L-25.7246 23 L-25.7246 11.5938 ZM-13.3887 11.5938 L-10.373 11.5938 L-7.373 20.7188 L-4.0449 11.5938 L-1.2637 11.5938 L-1.2637 23 L-3.2012 23 L-3.2012 13.8125 L-6.5762 23 L-8.3105 23 L-11.498 13.375 L-11.498 23 L-13.3887 23 L-13.3887 11.5938 ZM1.5957 27.3906 L1.3926 25.5781 Q2.0176 25.75 2.4863 25.75 Q3.1426 25.75 3.5254 25.5391 Q3.9082 25.3281 4.1582 24.9375 Q4.3457 24.6406 4.752 23.5 Q4.7988 23.3281 4.9238 23.0156 L0.5957 11.5938 L2.6738 11.5938 L5.0488 18.2031 Q5.5176 19.4531 5.877 20.8438 Q6.2051 19.5156 6.6738 18.2344 L9.1113 11.5938 L11.0488 11.5938 L6.7051 23.1875 Q6.002 25.0781 5.6113 25.7812 Q5.0957 26.7344 4.4316 27.1797 Q3.7676 27.625 2.8457 27.625 Q2.2832 27.625 1.5957 27.3906 ZM11.6426 11.5938 L20.9082 11.5938 L20.9082 13.1875 L17.2363 13.1875 L17.2363 23 L15.3145 23 L15.3145 13.1875 L11.6426 13.1875 L11.6426 11.5938 ZM23.2656 23 L23.2656 20.7969 L25.4688 20.7969 L25.4688 23 Q25.4688 24.2188 25.0391 24.9609 Q24.6094 25.7031 23.6719 26.1094 L23.1406 25.2812 Q23.75 25.0156 24.0391 24.5 Q24.3281 23.9844 24.3594 23 L23.2656 23 ZM35.0371 11.5938 L38.0527 11.5938 L41.0527 20.7188 L44.3809 11.5938 L47.1621 11.5938 L47.1621 23 L45.2246 23 L45.2246 13.8125 L41.8496 23 L40.1152 23 L36.9277 13.375 L36.9277 23 L35.0371 23 L35.0371 11.5938 Z"
         id="path45" />
    </g>
    <g
       style="fill:rgb(38,38,38); text-rendering:geometricPrecision; image-rendering:optimizeQuality; color-rendering:optimizeQuality; stroke-linejoin:round; stroke:rgb(38,38,38); color-interpolation:linearRGB; stroke-width:0.8333;"
       id="g59">
      <line
         y2="37"
         style="fill:none;"
         x1="130"
         x2="130"
         y1="437"
         id="line46" />
      <line
         y2="37"
         style="fill:none;"
         x1="905"
         x2="905"
         y1="437"
         id="line47" />
      <line
         y2="437"
         style="fill:none;"
         x1="130"
         x2="137.75"
         y1="437"
         id="line48" />
      <line
         y2="361.5283"
         style="fill:none;"
         x1="130"
         x2="137.75"
         y1="361.5283"
         id="line49" />
      <line
         y2="286.0566"
         style="fill:none;"
         x1="130"
         x2="137.75"
         y1="286.0566"
         id="line50" />
      <line
         y2="210.5849"
         style="fill:none;"
         x1="130"
         x2="137.75"
         y1="210.5849"
         id="line51" />
      <line
         y2="135.1132"
         style="fill:none;"
         x1="130"
         x2="137.75"
         y1="135.1132"
         id="line52" />
      <line
         y2="59.6415"
         style="fill:none;"
         x1="130"
         x2="137.75"
         y1="59.6415"
         id="line53" />
      <line
         y2="437"
         style="fill:none;"
         x1="905"
         x2="897.2501"
         y1="437"
         id="line54" />
      <line
         y2="361.5283"
         style="fill:none;"
         x1="905"
         x2="897.2501"
         y1="361.5283"
         id="line55" />
      <line
         y2="286.0566"
         style="fill:none;"
         x1="905"
         x2="897.2501"
         y1="286.0566"
         id="line56" />
      <line
         y2="210.5849"
         style="fill:none;"
         x1="905"
         x2="897.2501"
         y1="210.5849"
         id="line57" />
      <line
         y2="135.1132"
         style="fill:none;"
         x1="905"
         x2="897.2501"
         y1="135.1132"
         id="line58" />
      <line
         y2="59.6415"
         style="fill:none;"
         x1="905"
         x2="897.2501"
         y1="59.6415"
         id="line59" />
    </g>
    <g
       transform="translate(122.6667,437)"
       style="font-size:20px; fill:rgb(38,38,38); text-rendering:geometricPrecision; color-rendering:optimizeQuality; image-rendering:optimizeQuality; stroke:rgb(38,38,38); color-interpolation:linearRGB;"
       id="g60">
      <path
         style="stroke:none;"
         d="M-28.3594 3.7031 L-28.3594 1.9375 L-22.9688 1.9375 L-22.9688 3.7031 L-28.3594 3.7031 ZM-21.5117 4.25 L-19.668 4.0938 Q-19.4648 5.4375 -18.7148 6.1172 Q-17.9648 6.7969 -16.9023 6.7969 Q-15.6367 6.7969 -14.7617 5.8438 Q-13.8867 4.8906 -13.8867 3.2969 Q-13.8867 1.7969 -14.7305 0.9297 Q-15.5742 0.0625 -16.9336 0.0625 Q-17.793 0.0625 -18.4727 0.4453 Q-19.1523 0.8281 -19.543 1.4531 L-21.1992 1.2344 L-19.8086 -6.125 L-12.6836 -6.125 L-12.6836 -4.4375 L-18.4023 -4.4375 L-19.168 -0.5938 Q-17.8867 -1.5 -16.4648 -1.5 Q-14.5898 -1.5 -13.3008 -0.1953 Q-12.0117 1.1094 -12.0117 3.1406 Q-12.0117 5.0938 -13.1523 6.5 Q-14.5273 8.25 -16.9023 8.25 Q-18.8555 8.25 -20.0977 7.1562 Q-21.3398 6.0625 -21.5117 4.25 ZM-10.3887 0.9375 Q-10.3887 -1.5938 -9.8652 -3.1484 Q-9.3418 -4.7031 -8.3105 -5.5391 Q-7.2793 -6.375 -5.7168 -6.375 Q-4.5605 -6.375 -3.6934 -5.9141 Q-2.8262 -5.4531 -2.2637 -4.5781 Q-1.7012 -3.7031 -1.373 -2.4453 Q-1.0449 -1.1875 -1.0449 0.9375 Q-1.0449 3.4531 -1.5684 5 Q-2.0918 6.5469 -3.1152 7.3984 Q-4.1387 8.25 -5.7168 8.25 Q-7.7949 8.25 -8.9668 6.7656 Q-10.3887 4.9688 -10.3887 0.9375 ZM-8.5762 0.9375 Q-8.5762 4.4688 -7.7559 5.6328 Q-6.9355 6.7969 -5.7168 6.7969 Q-4.5137 6.7969 -3.6855 5.625 Q-2.8574 4.4531 -2.8574 0.9375 Q-2.8574 -2.5938 -3.6855 -3.7578 Q-4.5137 -4.9219 -5.7324 -4.9219 Q-6.9512 -4.9219 -7.6699 -3.8906 Q-8.5762 -2.5938 -8.5762 0.9375 Z"
         id="path59" />
    </g>
    <g
       transform="translate(122.6667,361.5283)"
       style="font-size:20px; fill:rgb(38,38,38); text-rendering:geometricPrecision; color-rendering:optimizeQuality; image-rendering:optimizeQuality; stroke:rgb(38,38,38); color-interpolation:linearRGB;"
       id="g61">
      <path
         style="stroke:none;"
         d="M-28.3594 3.7031 L-28.3594 1.9375 L-22.9688 1.9375 L-22.9688 3.7031 L-28.3594 3.7031 ZM-15.8711 8 L-15.8711 4.5781 L-22.0898 4.5781 L-22.0898 2.9531 L-15.5586 -6.3125 L-14.1211 -6.3125 L-14.1211 2.9531 L-12.1836 2.9531 L-12.1836 4.5781 L-14.1211 4.5781 L-14.1211 8 L-15.8711 8 ZM-15.8711 2.9531 L-15.8711 -3.5 L-20.3555 2.9531 L-15.8711 2.9531 ZM-10.3887 0.9375 Q-10.3887 -1.5938 -9.8652 -3.1484 Q-9.3418 -4.7031 -8.3105 -5.5391 Q-7.2793 -6.375 -5.7168 -6.375 Q-4.5605 -6.375 -3.6934 -5.9141 Q-2.8262 -5.4531 -2.2637 -4.5781 Q-1.7012 -3.7031 -1.373 -2.4453 Q-1.0449 -1.1875 -1.0449 0.9375 Q-1.0449 3.4531 -1.5684 5 Q-2.0918 6.5469 -3.1152 7.3984 Q-4.1387 8.25 -5.7168 8.25 Q-7.7949 8.25 -8.9668 6.7656 Q-10.3887 4.9688 -10.3887 0.9375 ZM-8.5762 0.9375 Q-8.5762 4.4688 -7.7559 5.6328 Q-6.9355 6.7969 -5.7168 6.7969 Q-4.5137 6.7969 -3.6855 5.625 Q-2.8574 4.4531 -2.8574 0.9375 Q-2.8574 -2.5938 -3.6855 -3.7578 Q-4.5137 -4.9219 -5.7324 -4.9219 Q-6.9512 -4.9219 -7.6699 -3.8906 Q-8.5762 -2.5938 -8.5762 0.9375 Z"
         id="path60" />
    </g>
    <g
       transform="translate(122.6667,286.0566)"
       style="font-size:20px; fill:rgb(38,38,38); text-rendering:geometricPrecision; color-rendering:optimizeQuality; image-rendering:optimizeQuality; stroke:rgb(38,38,38); color-interpolation:linearRGB;"
       id="g62">
      <path
         style="stroke:none;"
         d="M-28.3594 3.7031 L-28.3594 1.9375 L-22.9688 1.9375 L-22.9688 3.7031 L-28.3594 3.7031 ZM-21.4961 4.2188 L-19.7461 3.9844 Q-19.4336 5.4844 -18.707 6.1406 Q-17.9805 6.7969 -16.9336 6.7969 Q-15.6992 6.7969 -14.8477 5.9375 Q-13.9961 5.0781 -13.9961 3.8125 Q-13.9961 2.5938 -14.7852 1.8125 Q-15.5742 1.0312 -16.793 1.0312 Q-17.293 1.0312 -18.0273 1.2188 L-17.8398 -0.3281 Q-17.668 -0.2969 -17.5586 -0.2969 Q-16.4336 -0.2969 -15.5352 -0.8828 Q-14.6367 -1.4688 -14.6367 -2.6875 Q-14.6367 -3.6562 -15.293 -4.2969 Q-15.9492 -4.9375 -16.9805 -4.9375 Q-17.9961 -4.9375 -18.6836 -4.2891 Q-19.3711 -3.6406 -19.5586 -2.3594 L-21.3242 -2.6719 Q-20.9961 -4.4375 -19.8555 -5.4062 Q-18.7148 -6.375 -17.0117 -6.375 Q-15.8398 -6.375 -14.8555 -5.875 Q-13.8711 -5.375 -13.3477 -4.5 Q-12.8242 -3.625 -12.8242 -2.6562 Q-12.8242 -1.7344 -13.3242 -0.9688 Q-13.8242 -0.2031 -14.793 0.25 Q-13.5273 0.5312 -12.8242 1.4609 Q-12.1211 2.3906 -12.1211 3.7656 Q-12.1211 5.6406 -13.4883 6.9453 Q-14.8555 8.25 -16.9492 8.25 Q-18.8398 8.25 -20.082 7.125 Q-21.3242 6 -21.4961 4.2188 ZM-10.3887 0.9375 Q-10.3887 -1.5938 -9.8652 -3.1484 Q-9.3418 -4.7031 -8.3105 -5.5391 Q-7.2793 -6.375 -5.7168 -6.375 Q-4.5605 -6.375 -3.6934 -5.9141 Q-2.8262 -5.4531 -2.2637 -4.5781 Q-1.7012 -3.7031 -1.373 -2.4453 Q-1.0449 -1.1875 -1.0449 0.9375 Q-1.0449 3.4531 -1.5684 5 Q-2.0918 6.5469 -3.1152 7.3984 Q-4.1387 8.25 -5.7168 8.25 Q-7.7949 8.25 -8.9668 6.7656 Q-10.3887 4.9688 -10.3887 0.9375 ZM-8.5762 0.9375 Q-8.5762 4.4688 -7.7559 5.6328 Q-6.9355 6.7969 -5.7168 6.7969 Q-4.5137 6.7969 -3.6855 5.625 Q-2.8574 4.4531 -2.8574 0.9375 Q-2.8574 -2.5938 -3.6855 -3.7578 Q-4.5137 -4.9219 -5.7324 -4.9219 Q-6.9512 -4.9219 -7.6699 -3.8906 Q-8.5762 -2.5938 -8.5762 0.9375 Z"
         id="path61" />
    </g>
    <g
       transform="translate(122.6667,210.5849)"
       style="font-size:20px; fill:rgb(38,38,38); text-rendering:geometricPrecision; color-rendering:optimizeQuality; image-rendering:optimizeQuality; stroke:rgb(38,38,38); color-interpolation:linearRGB;"
       id="g63">
      <path
         style="stroke:none;"
         d="M-28.3594 3.7031 L-28.3594 1.9375 L-22.9688 1.9375 L-22.9688 3.7031 L-28.3594 3.7031 ZM-12.2773 6.3125 L-12.2773 8 L-21.7305 8 Q-21.7461 7.3594 -21.5273 6.7812 Q-21.168 5.8125 -20.3711 4.875 Q-19.5742 3.9375 -18.0742 2.7031 Q-15.7305 0.7969 -14.9102 -0.3203 Q-14.0898 -1.4375 -14.0898 -2.4375 Q-14.0898 -3.4844 -14.8398 -4.2031 Q-15.5898 -4.9219 -16.793 -4.9219 Q-18.0586 -4.9219 -18.8242 -4.1562 Q-19.5898 -3.3906 -19.5898 -2.0469 L-21.4023 -2.2344 Q-21.2148 -4.25 -20.0039 -5.3125 Q-18.793 -6.375 -16.7461 -6.375 Q-14.6992 -6.375 -13.4961 -5.2344 Q-12.293 -4.0938 -12.293 -2.4062 Q-12.293 -1.5469 -12.6445 -0.7109 Q-12.9961 0.125 -13.8086 1.0391 Q-14.6211 1.9531 -16.5117 3.5625 Q-18.1055 4.8906 -18.5508 5.3594 Q-18.9961 5.8281 -19.293 6.3125 L-12.2773 6.3125 ZM-10.3887 0.9375 Q-10.3887 -1.5938 -9.8652 -3.1484 Q-9.3418 -4.7031 -8.3105 -5.5391 Q-7.2793 -6.375 -5.7168 -6.375 Q-4.5605 -6.375 -3.6934 -5.9141 Q-2.8262 -5.4531 -2.2637 -4.5781 Q-1.7012 -3.7031 -1.373 -2.4453 Q-1.0449 -1.1875 -1.0449 0.9375 Q-1.0449 3.4531 -1.5684 5 Q-2.0918 6.5469 -3.1152 7.3984 Q-4.1387 8.25 -5.7168 8.25 Q-7.7949 8.25 -8.9668 6.7656 Q-10.3887 4.9688 -10.3887 0.9375 ZM-8.5762 0.9375 Q-8.5762 4.4688 -7.7559 5.6328 Q-6.9355 6.7969 -5.7168 6.7969 Q-4.5137 6.7969 -3.6855 5.625 Q-2.8574 4.4531 -2.8574 0.9375 Q-2.8574 -2.5938 -3.6855 -3.7578 Q-4.5137 -4.9219 -5.7324 -4.9219 Q-6.9512 -4.9219 -7.6699 -3.8906 Q-8.5762 -2.5938 -8.5762 0.9375 Z"
         id="path62" />
    </g>
    <g
       transform="translate(122.6667,135.1132)"
       style="font-size:20px; fill:rgb(38,38,38); text-rendering:geometricPrecision; color-rendering:optimizeQuality; image-rendering:optimizeQuality; stroke:rgb(38,38,38); color-interpolation:linearRGB;"
       id="g64">
      <path
         style="stroke:none;"
         d="M-28.3594 3.7031 L-28.3594 1.9375 L-22.9688 1.9375 L-22.9688 3.7031 L-28.3594 3.7031 ZM-14.8867 8 L-16.6523 8 L-16.6523 -3.2031 Q-17.2773 -2.5938 -18.3086 -1.9922 Q-19.3398 -1.3906 -20.168 -1.0781 L-20.168 -2.7812 Q-18.6836 -3.4688 -17.582 -4.4609 Q-16.4805 -5.4531 -16.0273 -6.375 L-14.8867 -6.375 L-14.8867 8 ZM-10.3887 0.9375 Q-10.3887 -1.5938 -9.8652 -3.1484 Q-9.3418 -4.7031 -8.3105 -5.5391 Q-7.2793 -6.375 -5.7168 -6.375 Q-4.5605 -6.375 -3.6934 -5.9141 Q-2.8262 -5.4531 -2.2637 -4.5781 Q-1.7012 -3.7031 -1.373 -2.4453 Q-1.0449 -1.1875 -1.0449 0.9375 Q-1.0449 3.4531 -1.5684 5 Q-2.0918 6.5469 -3.1152 7.3984 Q-4.1387 8.25 -5.7168 8.25 Q-7.7949 8.25 -8.9668 6.7656 Q-10.3887 4.9688 -10.3887 0.9375 ZM-8.5762 0.9375 Q-8.5762 4.4688 -7.7559 5.6328 Q-6.9355 6.7969 -5.7168 6.7969 Q-4.5137 6.7969 -3.6855 5.625 Q-2.8574 4.4531 -2.8574 0.9375 Q-2.8574 -2.5938 -3.6855 -3.7578 Q-4.5137 -4.9219 -5.7324 -4.9219 Q-6.9512 -4.9219 -7.6699 -3.8906 Q-8.5762 -2.5938 -8.5762 0.9375 Z"
         id="path63" />
    </g>
    <g
       transform="translate(122.6667,59.6415)"
       style="font-size:20px; fill:rgb(38,38,38); text-rendering:geometricPrecision; color-rendering:optimizeQuality; image-rendering:optimizeQuality; stroke:rgb(38,38,38); color-interpolation:linearRGB;"
       id="g65">
      <path
         style="stroke:none;"
         d="M-11.1719 0.9375 Q-11.1719 -1.5938 -10.6484 -3.1484 Q-10.125 -4.7031 -9.0938 -5.5391 Q-8.0625 -6.375 -6.5 -6.375 Q-5.3438 -6.375 -4.4766 -5.9141 Q-3.6094 -5.4531 -3.0469 -4.5781 Q-2.4844 -3.7031 -2.1562 -2.4453 Q-1.8281 -1.1875 -1.8281 0.9375 Q-1.8281 3.4531 -2.3516 5 Q-2.875 6.5469 -3.8984 7.3984 Q-4.9219 8.25 -6.5 8.25 Q-8.5781 8.25 -9.75 6.7656 Q-11.1719 4.9688 -11.1719 0.9375 ZM-9.3594 0.9375 Q-9.3594 4.4688 -8.5391 5.6328 Q-7.7188 6.7969 -6.5 6.7969 Q-5.2969 6.7969 -4.4688 5.625 Q-3.6406 4.4531 -3.6406 0.9375 Q-3.6406 -2.5938 -4.4688 -3.7578 Q-5.2969 -4.9219 -6.5156 -4.9219 Q-7.7344 -4.9219 -8.4531 -3.8906 Q-9.3594 -2.5938 -9.3594 0.9375 Z"
         id="path64" />
    </g>
    <g
       transform="translate(88.6666,236.9998) rotate(-90)"
       style="font-size:22px; fill:rgb(38,38,38); text-rendering:geometricPrecision; color-rendering:optimizeQuality; image-rendering:optimizeQuality; stroke:rgb(38,38,38); color-interpolation:linearRGB;"
       id="g66">
      <path
         style="stroke:none;"
         d="M-11.0312 -16.4062 L-3.0781 -16.4062 L-3.0781 -6.5938 L-1.8438 -6.5938 L-1.8438 -1.7656 L-3.4219 -1.7656 L-3.4219 -5 L-12.4062 -5 L-12.4062 -1.7656 L-14 -1.7656 L-14 -6.5938 L-12.9844 -6.5938 Q-10.9375 -9.3594 -11.0312 -16.4062 ZM-9.4062 -14.8125 Q-9.625 -9.25 -11.125 -6.5938 L-5 -6.5938 L-5 -14.8125 L-9.4062 -14.8125 ZM0.6338 -20.75 L10.8525 -20.75 L10.8525 -18.8906 L2.7119 -18.8906 L2.7119 -14.0312 L6.4775 -14.0312 Q8.5557 -14.0312 9.79 -13.6328 Q11.0244 -13.2344 11.7666 -12.1328 Q12.5088 -11.0312 12.5088 -9.5781 Q12.5088 -8.3906 11.9697 -7.3516 Q11.4307 -6.3125 10.3838 -5.6562 Q9.3369 -5 6.79 -5 L0.6338 -5 L0.6338 -20.75 ZM2.7119 -6.7656 L6.8838 -6.7656 Q8.5713 -6.7656 9.415 -7.4531 Q10.2588 -8.1406 10.2588 -9.5156 Q10.2588 -10.5 9.7744 -11.1562 Q9.29 -11.8125 8.4307 -12.0234 Q7.5713 -12.2344 5.4932 -12.2344 L2.7119 -12.2344 L2.7119 -6.7656 Z"
         id="path65" />
    </g>
    <g
       transform="translate(517.5005,33.7)"
       style="font-size:22px; text-rendering:geometricPrecision; color-rendering:optimizeQuality; image-rendering:optimizeQuality; color-interpolation:linearRGB; font-weight:bold;"
       id="g67">
      <path
         style="stroke:none;stroke-width:1.45345"
         d="m -224.16542,-14.16327 4.49652,1.430772 q -1.04459,3.7471297 -3.4406,5.5639373 -2.39586,1.8168077 -6.07482,1.8168077 -4.56484,0 -7.4944,-3.1112468 -2.92957,-3.1112472 -2.92957,-8.5163222 0,-5.722944 2.95224,-8.879684 2.95238,-3.156594 7.74411,-3.156594 4.20147,0 6.83584,2.475364 1.56696,1.47612 2.33918,4.224151 l -4.58751,1.090084 q -0.38604,-1.77146 -1.68062,-2.804715 -1.29444,-1.0334 -3.13392,-1.0334 -2.54353,0 -4.13331,1.828144 -1.58964,1.82829 -1.58964,5.915962 0,4.337665 1.56696,6.177146 1.56711,1.839627 4.06515,1.839627 1.83948,0 3.16807,-1.169588 1.32845,-1.169588 1.89632,-3.690445 z m 8.3076,-8.152815 h 4.08782 v 2.429871 q 0.79489,-1.249092 2.14616,-2.032499 1.35112,-0.783553 3.00907,-0.783553 2.88407,0 4.90538,2.271009 2.02116,2.27101 2.02116,6.31348 0,4.1559836 -2.0325,6.4610038 -2.03264,2.3050202 -4.91686,2.3050202 -1.38528,0 -2.49804,-0.5563792 -1.11276,-0.5563792 -2.33918,-1.873492 V 0.575691 h -4.38301 z m 4.33767,8.016627 q 0,2.793233 1.10142,4.121828 1.10142,1.3285949 2.69105,1.3285949 1.54429,0 2.55502,-1.2264179 1.01058,-1.226272 1.01058,-4.019651 0,-2.611697 -1.04474,-3.872125 -1.04459,-1.260283 -2.58888,-1.260283 -1.61245,0 -2.66852,1.237609 -1.05593,1.237755 -1.05593,3.690445 z m 24.91439,3.292927 4.36034,0.726724 q -0.84039,2.407197 -2.65719,3.6676255 -1.81681,1.2604285 -4.54202,1.2604285 -4.33752,0 -6.40418,-2.8387256 -1.63512,-2.2710094 -1.63512,-5.7229444 0,-4.110491 2.14616,-6.449667 2.14601,-2.339176 5.46176,-2.339176 3.67896,0 5.82512,2.45269 2.14601,2.452691 2.05517,7.494404 h -10.99169 q 0.0455,1.952996 1.05608,3.0317437 1.01058,1.0787478 2.53219,1.0787478 1.02192,0 1.72597,-0.5563792 0.70405,-0.5563792 1.06741,-1.8054713 z m 0.2497,-4.451178 q -0.0453,-1.907648 -0.98776,-2.895556 -0.94256,-0.987907 -2.28249,-0.987907 -1.43063,0 -2.36185,1.044737 -0.95375,1.044592 -0.93108,2.838726 z m 12.40124,2.906892 v -2.861399 q 1.13543,0 1.64646,-0.147671 0.51089,-0.14767 0.97657,-0.715386 0.46554,-0.567716 0.46554,-1.294439 0,-0.794889 -0.56786,-1.453446 -0.56772,-0.658702 -1.72597,-0.658702 -0.86291,0 -1.55562,0.374844 -0.69257,0.374698 -1.23761,1.782652 l -3.72445,-0.794745 q 0.56771,-2.180169 2.40719,-3.281736 1.83948,-1.101421 4.20133,-1.101421 2.99774,0 4.64435,1.373943 1.64646,1.374087 1.64646,3.463271 0,1.294584 -0.71539,2.146158 -0.71538,0.85172 -2.237,1.578443 1.83949,0.499549 2.75937,1.51013 0.91974,1.010582 0.91974,2.532194 0,1.9303221 -1.81681,3.3384207 -1.8168,1.4079533 -5.22339,1.4079533 -5.9273,0 -7.24456,-4.655533 l 3.99698,-0.726723 q 0.97657,2.4300162 3.20223,2.4300162 1.22627,0 1.97567,-0.6472195 0.74954,-0.6472196 0.74954,-1.5102757 0,-0.976571 -0.77221,-1.53295 -0.77207,-0.556379 -2.02116,-0.556379 z m 19.28229,-1.703294 q 0,-2.202842 1.07874,-4.246678 1.07875,-2.043982 3.05442,-3.122729 1.97582,-1.078748 4.40583,-1.078748 3.76981,0 6.17715,2.45269 2.4072,2.452691 2.4072,6.177146 0,3.769949 -2.42987,6.2453129 -2.43002,2.4753641 -6.10913,2.4753641 -2.29368,0 -4.36034,-1.0332549 -2.06651,-1.0332548 -3.14526,-3.0317432 -1.07874,-1.9984889 -1.07874,-4.8373599 z m 4.49652,0.227174 q 0,2.475364 1.18093,3.78114 1.18092,1.3059215 2.88422,1.3059215 1.72596,0 2.88422,-1.3059215 1.1581,-1.305776 1.1581,-3.803959 0,-2.452545 -1.1581,-3.758466 -1.15826,-1.305776 -2.88422,-1.305776 -1.7033,0 -2.88422,1.305776 -1.18093,1.305921 -1.18093,3.781285 z m 14.08172,-8.289148 h 15.01133 v 3.542629 h -5.31409 v 13.0356677 h -4.38301 V -18.773456 h -5.31423 z m 17.47681,0 h 4.36034 v 6.767535 q 1.09009,-0.113514 1.54429,-0.658556 0.4542,-0.545042 1.09008,-2.407343 0.84024,-2.429871 1.83948,-3.13392 0.99925,-0.681376 2.63438,-0.681376 0.49969,0 1.72596,0.06817 l 0.0228,2.906892 q -1.72597,0 -2.22566,0.340688 -0.47688,0.340542 -1.04459,2.043836 -0.77222,2.293683 -2.20299,2.816051 2.08933,0.590536 3.5201,3.610942 0.0682,0.159007 0.15901,0.340688 l 2.45269,4.5646927 h -4.70103 l -2.18017,-4.7918667 q -0.68123,-1.453446 -1.16958,-1.862155 -0.48822,-0.408854 -1.46479,-0.408854 v 7.0628757 h -4.36034 z m 17.34339,0 h 14.693474 v 16.5782967 h -4.360339 V -18.750637 h -5.995465 v 7.448912 q 0,2.8387252 -0.64722,3.9856396 -0.647219,1.1467689 -1.442109,1.4987936 -0.794889,0.3520246 -2.566201,0.3520246 -1.04474,0 -2.77071,-0.2725211 v -3.2249063 q 0.13634,0 0.74954,0.022819 0.68123,0.045347 1.0446,0.045347 0.88573,0 1.09008,-0.5790529 0.20435,-0.5791985 0.20435,-3.2589165 z m 19.018348,0 h 4.224005 v 10.401151 l 6.745007,-10.401151 h 4.314846 v 16.5782967 h -4.224005 V -16.343439 l -6.835848,10.6056507 h -4.224005 z m 19.611639,0 h 4.360338 v 6.767535 q 1.090085,-0.113514 1.544287,-0.658556 0.454202,-0.545042 1.090085,-2.407343 0.840237,-2.429871 1.839481,-3.13392 0.999244,-0.681376 2.634371,-0.681376 0.499549,0 1.725967,0.06817 l 0.02267,2.906892 q -1.725967,0 -2.225517,0.340688 -0.477021,0.340542 -1.044737,2.043836 -0.77207,2.293683 -2.202843,2.816051 2.089329,0.590536 3.520102,3.610942 0.06802,0.159007 0.158861,0.340688 l 2.452691,4.5646927 h -4.700877 l -2.180169,-4.7918697 q -0.681376,-1.453446 -1.169589,-1.862155 -0.488357,-0.408854 -1.464783,-0.408854 v 7.0628757 h -4.360338 z m 19.43272,5.064242 -3.974303,-0.726723 q 0.68123,-2.407198 2.316357,-3.565449 1.635127,-1.158251 4.860033,-1.158251 2.95224,0 4.383012,0.704049 1.430773,0.70405 2.021163,1.771315 0.590535,1.067411 0.590535,3.928956 l -0.04549,5.109735 q 0,2.1801689 0.2045,3.224906 0.204351,1.0445917 0.794886,2.2255167 h -4.337664 q -0.181681,-0.4315282 -0.431528,-1.2944391 -0.113515,-0.3860353 -0.159007,-0.5223686 -1.112759,1.0900846 -2.395861,1.6464638 -1.283102,0.5563792 -2.736548,0.5563792 -2.56635,0 -4.04247,-1.3966164 -1.47612,-1.3966164 -1.47612,-3.5087646 0,-1.407953 0.669893,-2.509374 0.670039,-1.101567 1.884975,-1.691957 1.215081,-0.59039 3.485945,-1.021918 3.088573,-0.567861 4.269643,-1.067411 v -0.454202 q 0,-1.249091 -0.624546,-1.794134 -0.624545,-0.545042 -2.350513,-0.545042 -1.180925,0 -1.839626,0.465539 -0.658557,0.465539 -1.067266,1.62379 z m 5.881951,3.542775 q -0.840382,0.29534 -2.668527,0.681375 -1.828144,0.386036 -2.39586,0.772071 -0.863057,0.590535 -0.863057,1.544286 0,0.9084042 0.692713,1.5784429 0.692712,0.6698933 1.759978,0.6698933 1.180925,0 2.248335,-0.7720706 0.79489,-0.5905351 1.044737,-1.4534466 0.181681,-0.567861 0.181681,-2.134821 z m 17.356182,-8.607017 h 4.383012 v 13.0355218 h 6.267986 V -22.316085 h 4.383012 v 13.0355218 h 1.748641 v 7.925787 H -6.733374 V -5.7377883 H -19.97325 Z m 29.422255,11.309554 4.360338,0.726724 q -0.840237,2.407197 -2.657045,3.6676255 -1.816807,1.2604285 -4.542019,1.2604285 -4.337664,0 -6.404319,-2.8387256 -1.635127,-2.2710094 -1.635127,-5.7229444 0,-4.110491 2.146158,-6.449667 2.146159,-2.339176 5.46176,-2.339176 3.679108,0 5.825121,2.45269 2.146159,2.452691 2.055319,7.494404 H 3.067504 q 0.04535,1.952996 1.056074,3.0317437 1.010581,1.0787478 2.532049,1.0787478 1.022063,0 1.725967,-0.5563792 0.704049,-0.5563792 1.067411,-1.8054713 z m 0.249847,-4.451178 q -0.04549,-1.907648 -0.987907,-2.895556 -0.942415,-0.987907 -2.282347,-0.987907 -1.430772,0 -2.361849,1.044737 -0.953897,1.044592 -0.931078,2.838726 z m 9.108166,-6.858376 H 33.50049 V -5.7377883 H 29.14015 V -18.750637 h -5.995468 v 7.448912 q 0,2.8387252 -0.647219,3.9856396 -0.647365,1.1467689 -1.44211,1.4987936 -0.794889,0.3520246 -2.566349,0.3520246 -1.044592,0 -2.770559,-0.2725211 v -3.2249063 q 0.136188,0 0.749397,0.022819 0.681375,0.045347 1.044737,0.045347 0.885584,0 1.090084,-0.5790529 0.204355,-0.5791985 0.204355,-3.2589165 z m 19.018342,0 h 4.22401 v 10.401151 l 6.74486,-10.401151 h 4.31499 V -5.7377883 H 48.88507 V -16.343439 l -6.8357,10.6056507 h -4.22401 z m 28.49539,0 H 81.03689 V -5.7377883 H 76.65388 V -18.773456 h -5.94997 v 13.0356677 h -4.38316 z m 18.45063,8.061974 q 0,-2.202842 1.07875,-4.246678 1.0786,-2.043982 3.05441,-3.122729 1.97582,-1.078748 4.40584,-1.078748 3.7698,0 6.17714,2.45269 2.4072,2.452691 2.4072,6.177146 0,3.769949 -2.43002,6.2453129 -2.42987,2.4753641 -6.10898,2.4753641 -2.29368,0 -4.36034,-1.0332549 -2.06665,-1.0332548 -3.14525,-3.0317432 -1.07875,-1.9984889 -1.07875,-4.8373599 z m 4.49653,0.227174 q 0,2.475364 1.18092,3.78114 1.18093,1.3059215 2.88422,1.3059215 1.72597,0 2.88422,-1.3059215 1.1581,-1.305776 1.1581,-3.803959 0,-2.452545 -1.1581,-3.758466 -1.15825,-1.305776 -2.88422,-1.305776 -1.70329,0 -2.88422,1.305776 -1.18092,1.305921 -1.18092,3.781285 z m 28.21168,-3.224906 -3.97431,-0.726723 q 0.68123,-2.407198 2.31636,-3.565449 1.63513,-1.158251 4.86003,-1.158251 2.95224,0 4.38301,0.704049 1.43078,0.70405 2.02117,1.771315 0.59053,1.067411 0.59053,3.928956 l -0.0455,5.109735 q 0,2.1801689 0.2045,3.224906 0.20435,1.0445917 0.79474,2.2255167 h -4.33752 q -0.18168,-0.4315282 -0.43152,-1.2944391 -0.11352,-0.3860353 -0.15901,-0.5223686 -1.11276,1.0900846 -2.39586,1.6464638 -1.2831,0.5563792 -2.73655,0.5563792 -2.56635,0 -4.04247,-1.3966164 -1.47612,-1.3966164 -1.47612,-3.5087646 0,-1.407953 0.66989,-2.509374 0.67004,-1.101567 1.88498,-1.691957 1.21493,-0.59039 3.48594,-1.021918 3.08858,-0.567861 4.2695,-1.067411 v -0.454202 q 0,-1.249091 -0.6244,-1.794134 -0.62455,-0.545042 -2.35051,-0.545042 -1.18093,0 -1.83963,0.465539 -0.65856,0.465539 -1.06726,1.62379 z m 5.8818,3.542775 q -0.84024,0.29534 -2.66838,0.681375 -1.82815,0.386036 -2.39586,0.772071 -0.86306,0.590535 -0.86306,1.544286 0,0.9084042 0.69271,1.5784429 0.69257,0.6698933 1.75998,0.6698933 1.18093,0 2.24834,-0.7720706 0.79489,-0.5905351 1.04459,-1.4534466 0.18168,-0.567861 0.18168,-2.134821 z m 13.10514,1.158251 v -2.861399 q 1.13558,0 1.64661,-0.14767 0.51089,-0.147671 0.97643,-0.715387 0.46554,-0.567716 0.46554,-1.294439 0,-0.794889 -0.56772,-1.453446 -0.56772,-0.658702 -1.72597,-0.658702 -0.86291,0 -1.55562,0.374844 -0.69271,0.374698 -1.23776,1.782652 l -3.72445,-0.794745 q 0.56786,-2.180169 2.40734,-3.281736 1.83948,-1.101421 4.20133,-1.101421 2.99774,0 4.6442,1.373943 1.64646,1.374087 1.64646,3.463271 0,1.294584 -0.71524,2.146159 -0.71538,0.851719 -2.237,1.578442 1.83949,0.499549 2.75923,1.510131 0.91974,1.010581 0.91974,2.532193 0,1.9303221 -1.81681,3.3384207 -1.81681,1.4079533 -5.22325,1.4079533 -5.9273,0 -7.24456,-4.655533 l 3.99698,-0.726723 q 0.97657,2.4300162 3.20209,2.4300162 1.22641,0 1.97581,-0.6472195 0.7494,-0.6472196 0.7494,-1.5102757 0,-0.976571 -0.77207,-1.53295 -0.77222,-0.556379 -2.02116,-0.556379 z m 11.3068,-9.765268 h 4.22415 v 10.401151 l 6.74486,-10.401151 h 4.31499 v 16.5782967 h -4.22415 V -16.343439 l -6.8357,10.6056507 h -4.22415 z m 19.90683,0 h 5.42775 l 4.11049,11.559402 4.15598,-11.559402 h 5.42775 V -5.7377883 H 183.055 V -16.661308 l -4.04247,10.9235197 h -3.74712 l -3.83797,-10.9235197 v 10.9235197 h -3.74728 z m 21.45112,0 h 4.65553 l 3.97431,11.763756 3.86079,-11.763756 h 4.54202 l -5.83661,15.942414 -1.04459,2.9068923 q -0.59053,1.4534461 -1.11276,2.2141798 -0.52237,0.760879 -1.20374,1.2377547 -0.68123,0.4768757 -1.66914,0.7380599 -0.98791,0.2611843 -2.237,0.2611843 -1.27176,0 -2.47536,-0.2498474 l -0.40871,-3.4519345 q 1.04459,0.2044998 1.86215,0.2044998 1.54429,0 2.27101,-0.8970669 0.72673,-0.8970669 1.11276,-2.2824918 z m 17.87434,0 h 15.01133 v 3.542629 h -5.31423 v 13.0356677 h -4.38301 V -18.773456 h -5.31409 z m 15.56917,0 h 4.65553 l 3.9743,11.763756 3.86065,-11.763756 h 4.54202 l -5.83646,15.942414 -1.04459,2.9068923 q -0.59054,1.4534461 -1.11291,2.2141798 -0.52222,0.760879 -1.2036,1.2377547 -0.68123,0.4768757 -1.66913,0.7380599 -0.98791,0.2611843 -2.237,0.2611843 -1.27177,0 -2.47537,-0.2498474 l -0.40885,-3.4519345 q 1.04473,0.2044998 1.8623,0.2044998 1.54428,0 2.27101,-0.8970669 0.72672,-0.8970669 1.11276,-2.2824918 z"
         id="path66" />
    </g>
    <g
       style="stroke-linecap:butt; fill:rgb(0,114,189); text-rendering:geometricPrecision; image-rendering:optimizeQuality; color-rendering:optimizeQuality; stroke-linejoin:round; stroke:rgb(0,114,189); color-interpolation:linearRGB; stroke-width:0.8333;"
       id="g74">
      <path
         d="M130 269.5511 L130.7576 270.0504 L131.5152 270.8032 L132.2727 271.8146 L133.0303 273.0906 L133.7879 274.6379 L134.5455 276.4643 L135.303 278.579 L136.0606 280.9932 L136.8182 283.72 L137.5758 286.7758 L138.3333 290.1803 L139.0909 293.9584 L139.8485 298.1412 L140.606 302.7681 L141.3636 307.8901 L142.1212 313.5736 L142.8788 319.9068 L143.6364 327.0094 L144.394 335.0481 L145.1515 344.2628 L145.9091 355.0145 L146.6667 367.8782 L147.4242 383.8486 L148.1818 404.865 L148.9394 435.5026 L148.9607 437.0477"
         style="fill:none; fill-rule:evenodd;"
         id="path67" />
      <path
         d="M151.4136 437.0477 L151.9697 412.002 L152.7272 389.5612 L153.4848 372.9052 L154.2424 359.6881 L155 348.7495 L155.7576 339.4333 L156.5152 331.3334 L157.2727 324.1822 L158.0303 317.7945 L158.7879 312.0378 L159.5454 306.8141 L160.303 302.0498 L161.0606 297.6882 L161.8182 293.6852 L162.5757 290.0059 L163.3333 286.6222 L164.0909 283.5116 L164.8485 280.6556 L165.6061 278.0387 L166.3636 275.6481 L167.1212 273.4729 L167.8788 271.5035 L168.6364 269.7317 L169.3939 268.1501 L170.1515 266.7523 L170.9091 265.5323 L171.6667 264.4844 L172.4242 263.6039 L173.1818 262.8859 L173.9394 262.3263 L174.697 261.9211 L175.4545 261.6667 L176.2121 261.5602 L176.9697 261.5988 L177.7273 261.7803 L178.4848 262.1033 L179.2424 262.5667 L180 263.1703 L180.7576 263.915 L181.5152 264.8021 L182.2727 265.8344 L183.0303 267.0155 L183.7879 268.3506 L184.5455 269.8463 L185.303 271.5107 L186.0606 273.3538 L186.8182 275.3878 L187.5758 277.6273 L188.3333 280.0896 L189.0909 282.7953 L189.8485 285.769 L190.606 289.0399 L191.3636 292.6433 L192.1212 296.6213 L192.8788 301.0255 L193.6364 305.9192 L194.394 311.3812 L195.1515 317.5107 L195.9091 324.4337 L196.6667 332.3122 L197.4242 341.3521 L198.1818 351.8048 L198.9394 363.928 L199.697 377.7796 L200.4545 392.4141 L201.2121 403.7545 L201.9697 404.3933 L202.7273 393.5952 L203.4848 378.6401 L204.2424 364.1791 L205 351.4101 L205.7576 340.338 L206.5152 330.7129 L207.2727 322.2789 L208.0303 314.8238 L208.7879 308.1809 L209.5454 302.2202 L210.303 296.8395 L211.0606 291.9583 L211.8182 287.5117 L212.5758 283.4471 L213.3333 279.7214 L214.0909 276.2992 L214.8485 273.1506 L215.6061 270.2509 L216.3636 267.5789 L217.1212 265.1172 L217.8788 262.8506 L218.6364 260.7665 L219.3939 258.8545 L220.1515 257.1055 L220.9091 255.5121 L221.6667 254.0683 L222.4243 252.7691 L223.1818 251.6107 L223.9394 250.5901 L224.697 249.7049 L225.4545 248.9538 L226.2121 248.3357 L226.9697 247.8504 L227.7273 247.4982 L228.4848 247.2796 L229.2424 247.1957 L230 247.2481 L230.7576 247.4386 L231.5152 247.7694 L232.2727 248.2433 L233.0303 248.8634 L233.7879 249.6334 L234.5455 250.5572 L235.303 251.6397 L236.0606 252.8863 L236.8182 254.3033 L237.5757 255.8979 L238.3333 257.6787 L239.0909 259.6555 L239.8485 261.8398 L240.6061 264.2454 L241.3636 266.8884 L242.1212 269.7882 L242.8788 272.968 L243.6364 276.4559 L244.3939 280.286 L245.1515 284.5004 L245.9091 289.1514 L246.6667 294.3047 L247.4242 300.0441 L248.1818 306.4781 L248.9394 313.7499 L249.697 322.0513 L250.4545 331.6432 L251.2121 342.8816 L251.9697 356.231 L252.7273 372.1549 L253.4848 390.3033 L254.2424 405.8778 L255 406.2062 L255.7576 390.6514 L256.5152 371.9866 L257.2727 355.4564 L258.0303 341.5238 L258.7879 329.7384 L259.5454 319.6319 L260.303 310.8434 L261.0606 303.1081 L261.8182 296.2317 L262.5758 290.0692 L263.3333 284.5106 L264.0909 279.4706 L264.8485 274.8823 L265.606 270.692 L266.3636 266.8564 L267.1212 263.3396 L267.8788 260.112 L268.6364 257.1488 L269.394 254.4287 L270.1515 251.9339 L270.9091 249.6487 L271.6667 247.5599 L272.4242 245.6558 L273.1818 243.9262 L273.9394 242.3625 L274.697 240.9569 L275.4546 239.7029 L276.2121 238.5948 L276.9697 237.6278 L277.7273 236.7977 L278.4848 236.1014 L279.2424 235.5362 L280 235.1002 L280.7576 234.7922 L281.5152 234.6116 L282.2727 234.5583 L283.0303 234.6331 L283.7879 234.8373 L284.5454 235.1728 L285.303 235.6422 L286.0606 236.249 L286.8182 236.9971 L287.5757 237.8914 L288.3333 238.9375 L289.0909 240.142 L289.8485 241.5126 L290.6061 243.058 L291.3636 244.7884 L292.1212 246.7153 L292.8788 248.8523 L293.6364 251.215 L294.394 253.8218 L295.1515 256.6943 L295.9091 259.858 L296.6667 263.3438 L297.4243 267.1891 L298.1818 271.4398 L298.9394 276.1534 L299.697 281.4028 L300.4545 287.2827 L301.2121 293.9188 L301.9697 301.4834 L302.7273 310.2204 L303.4849 320.4922 L304.2424 332.869 L305 348.3232 L305.7576 368.7076 L306.5151 398.1714 L307.1169 437.0477"
         style="fill:none; fill-rule:evenodd;"
         id="path68" />
      <path
         d="M308.3685 437.0477 L308.7879 406.7543 L309.5455 373.8213 L310.303 351.6044 L311.0606 334.974 L311.8182 321.7361 L312.5757 310.7756 L313.3333 301.4528 L314.0909 293.3674 L314.8485 286.2532 L315.606 279.9243 L316.3636 274.2457 L317.1212 269.117 L317.8788 264.4611 L318.6364 260.218 L319.3939 256.3398 L320.1515 252.7883 L320.9091 249.5322 L321.6667 246.5456 L322.4243 243.8074 L323.1818 241.2997 L323.9394 239.0074 L324.697 236.918 L325.4545 235.0208 L326.2121 233.3065 L326.9697 231.7676 L327.7273 230.3975 L328.4849 229.1907 L329.2424 228.1425 L330 227.2492 L330.7576 226.5076 L331.5152 225.9155 L332.2727 225.4709 L333.0303 225.1729 L333.7879 225.0209 L334.5454 225.0149 L335.303 225.1558 L336.0606 225.4449 L336.8182 225.8845 L337.5758 226.4773 L338.3333 227.2272 L339.0909 228.1389 L339.8485 229.2181 L340.606 230.4719 L341.3636 231.9087 L342.1212 233.5384 L342.8788 235.373 L343.6364 237.4266 L344.3939 239.7161 L345.1515 242.2616 L345.9091 245.0873 L346.6667 248.2224 L347.4242 251.7025 L348.1818 255.5716 L348.9394 259.8843 L349.697 264.7103 L350.4546 270.1392 L351.2121 276.2898 L351.9697 283.3238 L352.7273 291.4688 L353.4849 301.0605 L354.2424 312.6234 L355 327.0461 L355.7576 346.0234 L356.5152 373.4739 L357.2727 422.7814 L357.3576 437.0477"
         style="fill:none; fill-rule:evenodd;"
         id="path69" />
      <path
         d="M358.6248 437.0477 L358.7879 406.0154 L359.5454 363.9076 L360.303 338.3082 L361.0606 319.8532 L361.8182 305.4225 L362.5757 293.587 L363.3333 283.5717 L364.0909 274.9091 L364.8485 267.295 L365.606 260.5206 L366.3636 254.4362 L367.1212 248.9312 L367.8788 243.9208 L368.6364 239.3396 L369.394 235.1352 L370.1515 231.2656 L370.9091 227.6965 L371.6667 224.3996 L372.4243 221.3512 L373.1818 218.5314 L373.9394 215.9234 L374.697 213.513 L375.4545 211.2881 L376.2121 209.2382 L376.9697 207.3546 L377.7273 205.6297 L378.4848 204.0571 L379.2424 202.6315 L380 201.3483 L380.7576 200.2038 L381.5151 199.1951 L382.2727 198.3198 L383.0303 197.5762 L383.7879 196.9632 L384.5455 196.4801 L385.303 196.127 L386.0606 195.9042 L386.8182 195.8127 L387.5758 195.854 L388.3333 196.0301 L389.0909 196.3436 L389.8485 196.7976 L390.606 197.3959 L391.3636 198.1431 L392.1212 199.0446 L392.8788 200.1066 L393.6364 201.3363 L394.394 202.7424 L395.1515 204.3346 L395.9091 206.1246 L396.6667 208.1261 L397.4243 210.3549 L398.1818 212.83 L398.9394 215.5741 L399.697 218.6143 L400.4546 221.9836 L401.2121 225.7224 L401.9697 229.8808 L402.7273 234.5223 L403.4849 239.7281 L404.2424 245.605 L405 252.2967 L405.7576 260.0034 L406.5151 269.0148 L407.2727 279.774 L408.0303 293.0074 L408.7879 310.0349 L409.5454 333.6641 L410.303 371.8592 L410.7822 437.0477"
         style="fill:none; fill-rule:evenodd;"
         id="path70" />
      <path
         d="M411.4543 437.0477 L411.8182 402.0378 L412.5757 347.2391 L413.3333 317.4961 L414.0909 296.9456 L414.8485 281.2227 L415.606 268.491 L416.3636 257.8027 L417.1212 248.6045 L417.8788 240.5454 L418.6364 233.3884 L419.3939 226.9665 L420.1515 221.1572 L420.9091 215.8683 L421.6667 211.0287 L422.4242 206.5822 L423.1818 202.484 L423.9394 198.6976 L424.697 195.1932 L425.4546 191.9459 L426.2121 188.9347 L426.9697 186.1422 L427.7273 183.5534 L428.4849 181.1556 L429.2424 178.9379 L430 176.891 L430.7576 175.007 L431.5152 173.2789 L432.2727 171.7012 L433.0303 170.2688 L433.7879 168.9778 L434.5454 167.8249 L435.303 166.8074 L436.0606 165.9236 L436.8182 165.172 L437.5757 164.5521 L438.3333 164.0638 L439.0909 163.7076 L439.8485 163.4846 L440.606 163.3969 L441.3636 163.4467 L442.1212 163.6373 L442.8788 163.9728 L443.6364 164.458 L444.394 165.0986 L445.1515 165.9016 L445.9091 166.875 L446.6667 168.0284 L447.4243 169.3729 L448.1818 170.9216 L448.9394 172.69 L449.697 174.6965 L450.4546 176.9627 L451.2121 179.5149 L451.9697 182.3846 L452.7273 185.6106 L453.4849 189.2406 L454.2424 193.3351 L455 197.9707 L455.7576 203.2483 L456.5151 209.3023 L457.2727 216.3188 L458.0303 224.565 L458.7879 234.4444 L459.5454 246.6082 L460.303 262.2118 L461.0606 283.6214 L461.8182 317.071 L462.5757 393.3379 L463.3333 377.7086 L464.0909 309.2774 L464.8485 275.8225 L465.606 253.2917 L466.3636 236.1926 L467.1212 222.3603 L467.8788 210.7162 L468.6364 200.6444 L469.394 191.7596 L470.1515 183.8048 L470.9091 176.5999 L471.6667 170.0138 L472.4243 163.948 L473.1818 158.3268 L473.9394 153.0905 L474.697 148.1914 L475.4546 143.5907 L476.2121 139.2564 L476.9697 135.162 L477.7273 131.2847 L478.4849 127.6057 L479.2424 124.1085 L480 120.7789 L480.7576 117.6046 L481.5152 114.5748 L482.2727 111.68 L483.0303 108.9118 L483.7879 106.2627 L484.5454 103.7261 L485.303 101.2958 L486.0606 98.9666 L486.8182 96.7335 L487.5757 94.592 L488.3333 92.5382 L489.0909 90.5683 L489.8485 88.6791 L490.606 86.8673 L491.3636 85.1302 L492.1212 83.4651 L492.8788 81.8698 L493.6364 80.3419 L494.394 78.8794 L495.1515 77.4804 L495.9091 76.1432 L496.6667 74.8662 L497.4243 73.6479 L498.1818 72.487 L498.9394 71.3821 L499.697 70.3321 L500.4546 69.3359 L501.2121 68.3926 L501.9697 67.5012 L502.7273 66.6609 L503.4849 65.8708 L504.2424 65.1304 L505 64.4389 L505.7576 63.7957 L506.5151 63.2004 L507.2727 62.6523 L508.0303 62.1512 L508.7879 61.6964 L509.5454 61.2878 L510.303 60.9249 L511.0606 60.6075 L511.8182 60.3353 L512.5757 60.1081 L513.3333 59.9257 L514.0909 59.7879 L514.8485 59.6947 L515.6061 59.6459 L516.3636 59.6415 L517.1212 59.6815 L517.8788 59.7658 L518.6364 59.8946 L519.3939 60.0679 L520.1515 60.2858 L520.9091 60.5484 L521.6667 60.8561 L522.4243 61.209 L523.1818 61.6074 L523.9394 62.0516 L524.697 62.542 L525.4545 63.0791 L526.2121 63.6632 L526.9697 64.2949 L527.7273 64.9748 L528.4849 65.7034 L529.2424 66.4816 L530 67.3099 L530.7576 68.1893 L531.5151 69.1205 L532.2727 70.1046 L533.0303 71.1425 L533.7879 72.2353 L534.5455 73.3842 L535.303 74.5904 L536.0606 75.8554 L536.8182 77.1805 L537.5757 78.5673 L538.3333 80.0175 L539.0909 81.533 L539.8485 83.1157 L540.6061 84.7678 L541.3636 86.4915 L542.1212 88.2894 L542.8788 90.1642 L543.6364 92.1189 L544.3939 94.1567 L545.1515 96.2813 L545.9091 98.4965 L546.6667 100.8067 L547.4243 103.2167 L548.1818 105.7317 L548.9394 108.3576 L549.697 111.101 L550.4545 113.9693 L551.2121 116.9707 L551.9697 120.1146 L552.7273 123.4115 L553.4849 126.8736 L554.2424 130.5148 L555 134.3512 L555.7576 138.4014 L556.5151 142.6875 L557.2727 147.2354 L558.0303 152.0762 L558.7879 157.2476 L559.5455 162.7957 L560.303 168.7781 L561.0606 175.2674 L561.8182 182.358 L562.5757 190.1746 L563.3333 198.8878 L564.0909 208.7391 L564.8485 220.0872 L565.6061 233.4989 L566.3636 249.9488 L567.1212 271.34 L567.8788 302.2593 L568.6364 360.0608 L569.3939 421.9705 L570.1515 324.5877 L570.9091 287.8108 L571.6667 265.0461 L572.4243 248.7062 L573.1818 236.0791 L573.9394 225.8807 L574.697 217.4006 L575.4545 210.2045 L576.2121 204.0075 L576.9697 198.6126 L577.7273 193.878 L578.4849 189.6984 L579.2424 185.9935 L580 182.7005 L580.7576 179.7699 L581.5151 177.1615 L582.2727 174.8429 L583.0303 172.787 L583.7879 170.9715 L584.5455 169.3777 L585.303 167.9897 L586.0606 166.7944 L586.8182 165.7802 L587.5757 164.9376 L588.3333 164.2584 L589.0909 163.7358 L589.8485 163.3637 L590.6061 163.1375 L591.3636 163.053 L592.1212 163.107 L592.8788 163.2969 L593.6364 163.621 L594.3939 164.0778 L595.1515 164.6667 L595.9091 165.3878 L596.6667 166.2413 L597.4243 167.2283 L598.1818 168.3506 L598.9394 169.6104 L599.697 171.0106 L600.4545 172.5549 L601.2121 174.2476 L601.9697 176.094 L602.7273 178.1005 L603.4849 180.2743 L604.2424 182.6241 L605 185.16 L605.7576 187.8938 L606.5151 190.8393 L607.2727 194.0131 L608.0303 197.4344 L608.7879 201.1264 L609.5455 205.1169 L610.303 209.4393 L611.0606 214.135 L611.8182 219.2548 L612.5757 224.863 L613.3333 231.0418 L614.0909 237.8984 L614.8485 245.5768 L615.6061 254.2752 L616.3636 264.2774 L617.1212 276.0074 L617.8788 290.1343 L618.6364 307.7821 L619.3939 330.928 L620.1515 362.3128 L620.9091 389.814 L621.6667 367.113 L622.4243 335.7246 L623.1818 312.7078 L623.9394 295.4813 L624.697 281.9438 L625.4545 270.9006 L626.2121 261.6456 L626.9697 253.7342 L627.7273 246.8705 L628.4849 240.8486 L629.2424 235.5198 L630 230.7735 L630.7576 226.525 L631.5151 222.7085 L632.2727 219.2716 L633.0303 216.1722 L633.7879 213.3758 L634.5455 210.8541 L635.303 208.5834 L636.0606 206.5437 L636.8182 204.7184 L637.5757 203.093 L638.3333 201.6553 L639.0909 200.3951 L639.8485 199.3032 L640.6061 198.3722 L641.3636 197.5954 L642.1212 196.9674 L642.8788 196.4834 L643.6364 196.1395 L644.3939 195.9327 L645.1515 195.8603 L645.9091 195.9205 L646.6667 196.1119 L647.4243 196.4338 L648.1818 196.886 L648.9394 197.4687 L649.697 198.1828 L650.4545 199.0298 L651.2121 200.0115 L651.9697 201.1306 L652.7273 202.3902 L653.4849 203.7944 L654.2424 205.3477 L655 207.0557 L655.7576 208.925 L656.5151 210.963 L657.2727 213.1787 L658.0303 215.5824 L658.7879 218.1862 L659.5455 221.0041 L660.303 224.0528 L661.0606 227.352 L661.8182 230.9251 L662.5757 234.8002 L663.3333 239.0115 L664.0909 243.6006 L664.8485 248.6196 L665.6061 254.134 L666.3636 260.2281 L667.1212 267.0128 L667.8788 274.6375 L668.6364 283.3111 L669.3939 293.3369 L670.1515 305.1806 L670.9091 319.609 L671.6667 338.0202 L672.4243 363.3787 L673.1818 403.7038 L673.5436 437.0477"
         style="fill:none; fill-rule:evenodd;"
         id="path71" />
      <path
         d="M674.4023 437.0477 L674.697 413.8306 L675.4545 370.0607 L676.2121 343.7743 L676.9697 325.2337 L677.7273 311.0149 L678.4849 299.5549 L679.2424 290.0137 L680 281.8888 L680.7576 274.856 L681.5151 268.6941 L682.2727 263.2456 L683.0303 258.3944 L683.7879 254.0527 L684.5455 250.1523 L685.303 246.6395 L686.0606 243.4712 L686.8182 240.6122 L687.5757 238.0338 L688.3333 235.7119 L689.0909 233.6267 L689.8485 231.7612 L690.6061 230.1012 L691.3636 228.6345 L692.1212 227.3508 L692.8788 226.2414 L693.6364 225.2989 L694.3939 224.5169 L695.1515 223.8901 L695.9091 223.4143 L696.6667 223.0858 L697.4243 222.9019 L698.1818 222.8605 L698.9394 222.9602 L699.697 223.2001 L700.4545 223.5803 L701.2121 224.1011 L701.9697 224.7637 L702.7273 225.5698 L703.4849 226.522 L704.2424 227.6234 L705 228.8779 L705.7576 230.2905 L706.5151 231.8669 L707.2727 233.6139 L708.0303 235.5398 L708.7879 237.654 L709.5455 239.9677 L710.303 242.494 L711.0606 245.2486 L711.8182 248.2496 L712.5757 251.5191 L713.3333 255.0832 L714.0909 258.9737 L714.8484 263.2293 L715.6061 267.8982 L716.3636 273.0407 L717.1212 278.7338 L717.8788 285.0783 L718.6364 292.2089 L719.3939 300.3114 L720.1516 309.6524 L720.9091 320.6332 L721.6667 333.8991 L722.4243 350.5865 L723.1818 372.9854 L723.9394 406.8611 L724.2848 437.0477"
         style="fill:none; fill-rule:evenodd;"
         id="path72" />
      <path
         d="M725.7484 437.0477 L726.2122 401.3242 L726.9697 370.179 L727.7272 349.2246 L728.4849 333.5209 L729.2424 321.0238 L730 310.6943 L730.7576 301.9335 L731.5151 294.3644 L732.2727 287.735 L733.0303 281.8681 L733.7879 276.6349 L734.5455 271.9387 L735.303 267.705 L736.0606 263.8755 L736.8182 260.4037 L737.5757 257.2518 L738.3333 254.3889 L739.0909 251.7894 L739.8485 249.4319 L740.6061 247.2984 L741.3636 245.3735 L742.1212 243.6442 L742.8788 242.0995 L743.6364 240.7296 L744.3939 239.5265 L745.1515 238.483 L745.9091 237.5931 L746.6667 236.8517 L747.4243 236.2543 L748.1818 235.7973 L748.9394 235.4777 L749.697 235.2932 L750.4545 235.2418 L751.2121 235.3224 L751.9697 235.5343 L752.7273 235.8773 L753.4849 236.3516 L754.2424 236.9584 L755 237.699 L755.7576 238.5756 L756.5151 239.591 L757.2727 240.7485 L758.0303 242.0524 L758.7879 243.5078 L759.5455 245.1205 L760.303 246.8978 L761.0606 248.8478 L761.8182 250.9801 L762.5757 253.3062 L763.3333 255.839 L764.0909 258.594 L764.8485 261.5894 L765.6061 264.8467 L766.3636 268.3913 L767.1212 272.254 L767.8788 276.472 L768.6364 281.0908 L769.3939 286.1672 L770.1515 291.7728 L770.9091 297.9994 L771.6667 304.9678 L772.4243 312.8404 L773.1818 321.842 L773.9394 332.2942 L774.697 344.6739 L775.4545 359.7101 L776.2121 378.4993 L776.9697 402.1796 L777.7273 426.7557 L778.4849 426.9396 L779.2424 402.8187 L780 379.6314 L780.7576 361.3324 L781.5151 346.7806 L782.2727 334.88 L783.0303 324.9024 L783.7879 316.371 L784.5455 308.9643 L785.303 302.4576 L786.0606 296.6885 L786.8182 291.5364 L787.5757 286.9095 L788.3333 282.7365 L789.0909 278.9608 L789.8484 275.5374 L790.6061 272.4294 L791.3636 269.6068 L792.1212 267.0444 L792.8788 264.7216 L793.6364 262.6208 L794.3939 260.7274 L795.1516 259.0291 L795.9091 257.5153 L796.6667 256.1772 L797.4243 255.0074 L798.1818 253.9995 L798.9394 253.1484 L799.697 252.4498 L800.4545 251.9 L801.2122 251.4964 L801.9697 251.2366 L802.7272 251.1193 L803.4849 251.1431 L804.2424 251.3078 L805 251.6131 L805.7576 252.0596 L806.5151 252.6483 L807.2727 253.3806 L808.0303 254.2586 L808.7879 255.2849 L809.5455 256.4629 L810.303 257.7965 L811.0606 259.2909 L811.8182 260.9518 L812.5757 262.7863 L813.3333 264.8027 L814.0909 267.011 L814.8485 269.4229 L815.6061 272.0526 L816.3636 274.9166 L817.1212 278.0351 L817.8788 281.4321 L818.6364 285.137 L819.3939 289.1855 L820.1515 293.6218 L820.9091 298.5014 L821.6667 303.8947 L822.4243 309.893 L823.1818 316.6171 L823.9394 324.2318 L824.697 332.9697 L825.4545 343.1736 L826.2121 355.3799 L826.9697 370.4969 L827.7273 390.2502 L828.4849 418.5669 L828.7702 437.0477"
         style="fill:none; fill-rule:evenodd;"
         id="path73" />
      <path
         d="M830.8936 437.0477 L831.5151 406.0376 L832.2727 382.1137 L833.0303 364.7229 L833.7879 351.1288 L834.5455 340.0241 L835.303 330.6845 L836.0606 322.667 L836.8182 315.6812 L837.5757 309.526 L838.3333 304.0569 L839.0909 299.1662 L839.8485 294.7713 L840.6061 290.8077 L841.3636 287.2238 L842.1212 283.9779 L842.8788 281.0354 L843.6364 278.3676 L844.3939 275.9503 L845.1515 273.7628 L845.9091 271.7878 L846.6667 270.0099 L847.4243 268.4163 L848.1818 266.9957 L848.9394 265.7385 L849.697 264.6365 L850.4545 263.6829 L851.2121 262.8717 L851.9697 262.1982 L852.7273 261.6589 L853.4849 261.2508 L854.2424 260.9722 L855 260.8221 L855.7576 260.8002 L856.5151 260.9074 L857.2727 261.1449 L858.0303 261.5151 L858.7879 262.0209 L859.5455 262.6661 L860.303 263.455 L861.0606 264.3928 L861.8182 265.4855 L862.5757 266.7397 L863.3333 268.1629 L864.0909 269.7633 L864.8484 271.5503 L865.6061 273.534 L866.3636 275.7261 L867.1212 278.1393 L867.8788 280.7881 L868.6364 283.6894 L869.3939 286.862 L870.1515 290.3283 L870.9091 294.1144 L871.6667 298.2513 L872.4243 302.7765 L873.1818 307.7355 L873.9394 313.1843 L874.697 319.1923 L875.4545 325.8466 L876.2122 333.2568 L876.9697 341.5593 L877.7273 350.9191 L878.4849 361.5159 L879.2424 373.4746 L880 386.6157 L880.7576 399.7052 L881.5151 409.0599 L882.2727 409.4445 L883.0303 400.7147 L883.7878 388.0481 L884.5455 375.2341 L885.303 363.5678 L886.0606 353.2464 L886.8182 344.1469 L887.5758 336.0872 L888.3333 328.8991 L889.0909 322.4436 L889.8485 316.6096 L890.6061 311.3094 L891.3636 306.474 L892.1212 302.0487 L892.8788 297.9907 L893.6364 294.266 L894.394 290.848 L895.1515 287.7157 L895.9091 284.8533 L896.6667 282.2482 L897.4243 279.8915 L898.1818 277.7764 L898.9394 275.8984 L899.697 274.2546 L900.4545 272.8437 L901.2122 271.665 L901.9697 270.7193 L902.7272 270.0079 L903.4849 269.5326 L904.2424 269.296 L905 269.301"
         style="fill:none; fill-rule:evenodd;"
         id="path74" />
    </g>
    <g
       transform="translate(130,59.6415)"
       style="text-rendering:geometricPrecision; font-size:20px; color-interpolation:linearRGB; color-rendering:optimizeQuality; image-rendering:optimizeQuality;"
       id="g75">
      <path
         style="stroke:none;"
         d="M7.3594 -19.3125 L9.1094 -19.3125 L9.1094 -14.3594 Q9.6562 -14.9844 10.3125 -15.2969 Q10.9688 -15.6094 11.7188 -15.6094 Q13.5625 -15.6094 14.6406 -14.0703 Q15.7188 -12.5312 15.7188 -10.2031 Q15.7188 -7.7656 14.5625 -6.2656 Q13.4062 -4.7656 11.6719 -4.7656 Q11.1094 -4.7656 10.5234 -4.9453 Q9.9375 -5.125 9.1094 -5.9062 L9.1094 -1.0312 L7.3594 -1.0312 L7.3594 -5.9062 Q6.8281 -5.3281 6.1875 -5.0469 Q5.5469 -4.7656 4.8125 -4.7656 Q3.1719 -4.7656 1.9531 -6.1953 Q0.7344 -7.625 0.7344 -10.2969 Q0.7344 -12.5469 1.8359 -14.0781 Q2.9375 -15.6094 4.8125 -15.6094 Q5.5938 -15.6094 6.2266 -15.2969 Q6.8594 -14.9844 7.3594 -14.3594 L7.3594 -19.3125 ZM9.1094 -10.1406 Q9.1094 -7.7969 9.75 -6.9922 Q10.3906 -6.1875 11.3594 -6.1875 Q12.4375 -6.1875 13.1953 -7.1797 Q13.9531 -8.1719 13.9531 -10.2656 Q13.9531 -12.2344 13.25 -13.2031 Q12.5469 -14.1719 11.4531 -14.1719 Q10.2812 -14.1719 9.6953 -13.1641 Q9.1094 -12.1562 9.1094 -10.1406 ZM2.5156 -10.3438 Q2.5156 -8.1406 3.2578 -7.1797 Q4 -6.2188 5.0938 -6.2188 Q6.2344 -6.2188 6.7969 -7.1797 Q7.3594 -8.1406 7.3594 -10.0625 Q7.3594 -12.1094 6.7656 -13.1328 Q6.1719 -14.1562 4.9688 -14.1562 Q3.8906 -14.1562 3.2031 -13.1562 Q2.5156 -12.1562 2.5156 -10.3438 ZM24.5488 -6.2812 Q23.5645 -5.4531 22.6582 -5.1094 Q21.752 -4.7656 20.7207 -4.7656 Q19.0176 -4.7656 18.0957 -5.6016 Q17.1738 -6.4375 17.1738 -7.7344 Q17.1738 -8.5 17.5254 -9.125 Q17.877 -9.75 18.4395 -10.1328 Q19.002 -10.5156 19.7051 -10.7188 Q20.2207 -10.8438 21.2676 -10.9844 Q23.3926 -11.2344 24.3926 -11.5781 Q24.4082 -11.9375 24.4082 -12.0469 Q24.4082 -13.1094 23.9082 -13.5625 Q23.2363 -14.1562 21.9082 -14.1562 Q20.6582 -14.1562 20.0723 -13.7188 Q19.4863 -13.2812 19.2051 -12.1719 L17.4863 -12.4062 Q17.7207 -13.5156 18.252 -14.1953 Q18.7832 -14.875 19.7988 -15.2422 Q20.8145 -15.6094 22.1582 -15.6094 Q23.4863 -15.6094 24.3145 -15.2969 Q25.1426 -14.9844 25.5332 -14.5078 Q25.9238 -14.0312 26.0801 -13.3125 Q26.1738 -12.8594 26.1738 -11.6875 L26.1738 -9.3438 Q26.1738 -6.8906 26.2832 -6.2422 Q26.3926 -5.5938 26.7363 -5 L24.8926 -5 Q24.627 -5.5469 24.5488 -6.2812 ZM24.3926 -10.2031 Q23.4395 -9.8125 21.5176 -9.5469 Q20.4395 -9.3906 19.9941 -9.1953 Q19.5488 -9 19.2988 -8.625 Q19.0488 -8.25 19.0488 -7.7812 Q19.0488 -7.0781 19.5801 -6.6094 Q20.1113 -6.1406 21.1426 -6.1406 Q22.1582 -6.1406 22.9473 -6.5859 Q23.7363 -7.0312 24.1113 -7.7969 Q24.3926 -8.4062 24.3926 -9.5625 L24.3926 -10.2031 ZM28.8906 -15.375 L30.6406 -15.375 L30.6406 -10.8906 Q31.4844 -10.8906 31.8203 -11.2109 Q32.1562 -11.5312 32.8125 -13.0938 Q33.3281 -14.3125 33.6484 -14.7031 Q33.9688 -15.0938 34.3906 -15.2344 Q34.8125 -15.375 35.75 -15.375 L36.0938 -15.375 L36.0938 -13.9219 L35.6094 -13.9219 Q34.9062 -13.9219 34.7188 -13.7188 Q34.5156 -13.5 34.0938 -12.4375 Q33.6875 -11.4219 33.3594 -11.0312 Q33.0312 -10.6406 32.3281 -10.3281 Q33.4688 -10.0156 34.5625 -8.2188 L36.4844 -5 L34.5469 -5 L32.6719 -8.2188 Q32.0938 -9.1875 31.6641 -9.4922 Q31.2344 -9.7969 30.6406 -9.7969 L30.6406 -5 L28.8906 -5 L28.8906 -15.375 ZM36.7031 -15.375 L45.125 -15.375 L45.125 -13.9219 L41.7812 -13.9219 L41.7812 -5 L40.0469 -5 L40.0469 -13.9219 L36.7031 -13.9219 L36.7031 -15.375 ZM47.3008 -5 L47.3008 -7 L49.3008 -7 L49.3008 -5 L47.3008 -5 ZM57.9141 -1.0312 L57.9141 -15.375 L59.5234 -15.375 L59.5234 -14.0312 Q60.0859 -14.8125 60.7969 -15.2109 Q61.5078 -15.6094 62.5234 -15.6094 Q63.8516 -15.6094 64.8672 -14.9219 Q65.8828 -14.2344 66.4062 -12.9922 Q66.9297 -11.75 66.9297 -10.2656 Q66.9297 -8.6719 66.3594 -7.3984 Q65.7891 -6.125 64.6953 -5.4453 Q63.6016 -4.7656 62.3984 -4.7656 Q61.5234 -4.7656 60.8281 -5.1406 Q60.1328 -5.5156 59.6797 -6.0781 L59.6797 -1.0312 L57.9141 -1.0312 ZM59.5078 -10.125 Q59.5078 -8.125 60.3203 -7.1719 Q61.1328 -6.2188 62.2891 -6.2188 Q63.4609 -6.2188 64.2969 -7.2031 Q65.1328 -8.1875 65.1328 -10.2812 Q65.1328 -12.25 64.3125 -13.2422 Q63.4922 -14.2344 62.3672 -14.2344 Q61.2422 -14.2344 60.375 -13.1797 Q59.5078 -12.125 59.5078 -10.125 ZM75.8184 -6.2812 Q74.834 -5.4531 73.9277 -5.1094 Q73.0215 -4.7656 71.9902 -4.7656 Q70.2871 -4.7656 69.3652 -5.6016 Q68.4434 -6.4375 68.4434 -7.7344 Q68.4434 -8.5 68.7949 -9.125 Q69.1465 -9.75 69.709 -10.1328 Q70.2715 -10.5156 70.9746 -10.7188 Q71.4902 -10.8438 72.5371 -10.9844 Q74.6621 -11.2344 75.6621 -11.5781 Q75.6777 -11.9375 75.6777 -12.0469 Q75.6777 -13.1094 75.1777 -13.5625 Q74.5059 -14.1562 73.1777 -14.1562 Q71.9277 -14.1562 71.3418 -13.7188 Q70.7559 -13.2812 70.4746 -12.1719 L68.7559 -12.4062 Q68.9902 -13.5156 69.5215 -14.1953 Q70.0527 -14.875 71.0684 -15.2422 Q72.084 -15.6094 73.4277 -15.6094 Q74.7559 -15.6094 75.584 -15.2969 Q76.4121 -14.9844 76.8027 -14.5078 Q77.1934 -14.0312 77.3496 -13.3125 Q77.4434 -12.8594 77.4434 -11.6875 L77.4434 -9.3438 Q77.4434 -6.8906 77.5527 -6.2422 Q77.6621 -5.5938 78.0059 -5 L76.1621 -5 Q75.8965 -5.5469 75.8184 -6.2812 ZM75.6621 -10.2031 Q74.709 -9.8125 72.7871 -9.5469 Q71.709 -9.3906 71.2637 -9.1953 Q70.8184 -9 70.5684 -8.625 Q70.3184 -8.25 70.3184 -7.7812 Q70.3184 -7.0781 70.8496 -6.6094 Q71.3809 -6.1406 72.4121 -6.1406 Q73.4277 -6.1406 74.2168 -6.5859 Q75.0059 -7.0312 75.3809 -7.7969 Q75.6621 -8.4062 75.6621 -9.5625 L75.6621 -10.2031 ZM82.457 -9.6875 L82.457 -11.0625 Q83.582 -11.0781 83.9805 -11.1562 Q84.3789 -11.2344 84.7461 -11.625 Q85.1133 -12.0156 85.1133 -12.5938 Q85.1133 -13.3125 84.6367 -13.7344 Q84.1602 -14.1562 83.4102 -14.1562 Q81.9258 -14.1562 81.332 -12.4062 L79.6602 -12.6875 Q80.4414 -15.6094 83.4258 -15.6094 Q85.082 -15.6094 86.0273 -14.7031 Q86.9727 -13.7969 86.9727 -12.5312 Q86.9727 -11.2656 85.7383 -10.5156 Q86.5195 -10.0938 86.9102 -9.4453 Q87.3008 -8.7969 87.3008 -7.9062 Q87.3008 -6.5 86.2852 -5.6328 Q85.2695 -4.7656 83.4414 -4.7656 Q79.9102 -4.7656 79.332 -7.9219 L80.9883 -8.2656 Q81.207 -7.2812 81.8945 -6.7344 Q82.582 -6.1875 83.4727 -6.1875 Q84.3633 -6.1875 84.957 -6.6875 Q85.5508 -7.1875 85.5508 -7.9688 Q85.5508 -8.5781 85.1758 -9.0234 Q84.8008 -9.4688 84.3867 -9.5859 Q83.9727 -9.7031 82.8633 -9.7031 Q82.7695 -9.7031 82.457 -9.6875 ZM89.3301 -1.0312 L89.3301 -15.375 L90.9395 -15.375 L90.9395 -14.0312 Q91.502 -14.8125 92.2129 -15.2109 Q92.9238 -15.6094 93.9395 -15.6094 Q95.2676 -15.6094 96.2832 -14.9219 Q97.2988 -14.2344 97.8223 -12.9922 Q98.3457 -11.75 98.3457 -10.2656 Q98.3457 -8.6719 97.7754 -7.3984 Q97.2051 -6.125 96.1113 -5.4453 Q95.0176 -4.7656 93.8145 -4.7656 Q92.9395 -4.7656 92.2441 -5.1406 Q91.5488 -5.5156 91.0957 -6.0781 L91.0957 -1.0312 L89.3301 -1.0312 ZM90.9238 -10.125 Q90.9238 -8.125 91.7363 -7.1719 Q92.5488 -6.2188 93.7051 -6.2188 Q94.877 -6.2188 95.7129 -7.2031 Q96.5488 -8.1875 96.5488 -10.2812 Q96.5488 -12.25 95.7285 -13.2422 Q94.9082 -14.2344 93.7832 -14.2344 Q92.6582 -14.2344 91.791 -13.1797 Q90.9238 -12.125 90.9238 -10.125 ZM107.5625 -8.3438 L109.375 -8.1094 Q108.9531 -6.5312 107.7891 -5.6484 Q106.625 -4.7656 104.8125 -4.7656 Q102.5469 -4.7656 101.2109 -6.1641 Q99.875 -7.5625 99.875 -10.0938 Q99.875 -12.7188 101.2188 -14.1641 Q102.5625 -15.6094 104.7188 -15.6094 Q106.7969 -15.6094 108.1172 -14.1953 Q109.4375 -12.7812 109.4375 -10.2031 Q109.4375 -10.0469 109.4219 -9.7344 L101.6875 -9.7344 Q101.7812 -8.0312 102.6562 -7.125 Q103.5312 -6.2188 104.8281 -6.2188 Q105.7969 -6.2188 106.4766 -6.7266 Q107.1562 -7.2344 107.5625 -8.3438 ZM101.7812 -11.1875 L107.5781 -11.1875 Q107.4688 -12.4844 106.9219 -13.1406 Q106.0781 -14.1562 104.7344 -14.1562 Q103.5312 -14.1562 102.7031 -13.3516 Q101.875 -12.5469 101.7812 -11.1875 ZM111.6387 -15.375 L113.4043 -15.375 L113.4043 -6.4531 L117.4043 -6.4531 L117.4043 -15.375 L119.1543 -15.375 L119.1543 -6.4531 L123.1699 -6.4531 L123.1699 -15.375 L124.9199 -15.375 L124.9199 -5 L111.6387 -5 L111.6387 -15.375 ZM134.7305 -8.3438 L136.543 -8.1094 Q136.1211 -6.5312 134.957 -5.6484 Q133.793 -4.7656 131.9805 -4.7656 Q129.7148 -4.7656 128.3789 -6.1641 Q127.043 -7.5625 127.043 -10.0938 Q127.043 -12.7188 128.3867 -14.1641 Q129.7305 -15.6094 131.8867 -15.6094 Q133.9648 -15.6094 135.2852 -14.1953 Q136.6055 -12.7812 136.6055 -10.2031 Q136.6055 -10.0469 136.5898 -9.7344 L128.8555 -9.7344 Q128.9492 -8.0312 129.8242 -7.125 Q130.6992 -6.2188 131.9961 -6.2188 Q132.9648 -6.2188 133.6445 -6.7266 Q134.3242 -7.2344 134.7305 -8.3438 ZM128.9492 -11.1875 L134.7461 -11.1875 Q134.6367 -12.4844 134.0898 -13.1406 Q133.2461 -14.1562 131.9023 -14.1562 Q130.6992 -14.1562 129.8711 -13.3516 Q129.043 -12.5469 128.9492 -11.1875 ZM138.7598 -15.375 L140.5254 -15.375 L140.5254 -11.0625 L145.3848 -11.0625 L145.3848 -15.375 L147.1504 -15.375 L147.1504 -5 L145.3848 -5 L145.3848 -9.5938 L140.5254 -9.5938 L140.5254 -5 L138.7598 -5 L138.7598 -15.375 ZM149.7891 -15.375 L151.5547 -15.375 L151.5547 -7.4688 L156.4297 -15.375 L158.3203 -15.375 L158.3203 -5 L156.5703 -5 L156.5703 -12.8594 L151.6953 -5 L149.7891 -5 L149.7891 -15.375 ZM168.0703 -8.3438 L169.8828 -8.1094 Q169.4609 -6.5312 168.2969 -5.6484 Q167.1328 -4.7656 165.3203 -4.7656 Q163.0547 -4.7656 161.7188 -6.1641 Q160.3828 -7.5625 160.3828 -10.0938 Q160.3828 -12.7188 161.7266 -14.1641 Q163.0703 -15.6094 165.2266 -15.6094 Q167.3047 -15.6094 168.625 -14.1953 Q169.9453 -12.7812 169.9453 -10.2031 Q169.9453 -10.0469 169.9297 -9.7344 L162.1953 -9.7344 Q162.2891 -8.0312 163.1641 -7.125 Q164.0391 -6.2188 165.3359 -6.2188 Q166.3047 -6.2188 166.9844 -6.7266 Q167.6641 -7.2344 168.0703 -8.3438 ZM162.2891 -11.1875 L168.0859 -11.1875 Q167.9766 -12.4844 167.4297 -13.1406 Q166.5859 -14.1562 165.2422 -14.1562 Q164.0391 -14.1562 163.2109 -13.3516 Q162.3828 -12.5469 162.2891 -11.1875 ZM172.584 -13.375 L172.584 -15.375 L174.584 -15.375 L174.584 -13.375 L172.584 -13.375 ZM172.584 -5 L172.584 -7 L174.584 -7 L174.584 -5 L172.584 -5 ZM182.7129 -12.0625 Q182.7129 -14.5938 183.2363 -16.1484 Q183.7598 -17.7031 184.791 -18.5391 Q185.8223 -19.375 187.3848 -19.375 Q188.541 -19.375 189.4082 -18.9141 Q190.2754 -18.4531 190.8379 -17.5781 Q191.4004 -16.7031 191.7285 -15.4453 Q192.0566 -14.1875 192.0566 -12.0625 Q192.0566 -9.5469 191.5332 -8 Q191.0098 -6.4531 189.9863 -5.6016 Q188.9629 -4.75 187.3848 -4.75 Q185.3066 -4.75 184.1348 -6.2344 Q182.7129 -8.0312 182.7129 -12.0625 ZM184.5254 -12.0625 Q184.5254 -8.5312 185.3457 -7.3672 Q186.166 -6.2031 187.3848 -6.2031 Q188.5879 -6.2031 189.416 -7.375 Q190.2441 -8.5469 190.2441 -12.0625 Q190.2441 -15.5938 189.416 -16.7578 Q188.5879 -17.9219 187.3691 -17.9219 Q186.1504 -17.9219 185.4316 -16.8906 Q184.5254 -15.5938 184.5254 -12.0625 ZM194.8203 -5 L194.8203 -7 L196.8203 -7 L196.8203 -5 L194.8203 -5 ZM208.627 -6.6875 L208.627 -5 L199.1738 -5 Q199.1582 -5.6406 199.377 -6.2188 Q199.7363 -7.1875 200.5332 -8.125 Q201.3301 -9.0625 202.8301 -10.2969 Q205.1738 -12.2031 205.9941 -13.3203 Q206.8145 -14.4375 206.8145 -15.4375 Q206.8145 -16.4844 206.0645 -17.2031 Q205.3145 -17.9219 204.1113 -17.9219 Q202.8457 -17.9219 202.0801 -17.1562 Q201.3145 -16.3906 201.3145 -15.0469 L199.502 -15.2344 Q199.6895 -17.25 200.9004 -18.3125 Q202.1113 -19.375 204.1582 -19.375 Q206.2051 -19.375 207.4082 -18.2344 Q208.6113 -17.0938 208.6113 -15.4062 Q208.6113 -14.5469 208.2598 -13.7109 Q207.9082 -12.875 207.0957 -11.9609 Q206.2832 -11.0469 204.3926 -9.4375 Q202.7988 -8.1094 202.3535 -7.6406 Q201.9082 -7.1719 201.6113 -6.6875 L208.627 -6.6875 ZM219.6406 -15.8125 L217.8906 -15.6719 Q217.6562 -16.7031 217.2344 -17.1719 Q216.5156 -17.9375 215.4688 -17.9375 Q214.625 -17.9375 214 -17.4688 Q213.1719 -16.8594 212.6875 -15.6953 Q212.2031 -14.5312 212.1875 -12.3906 Q212.8281 -13.3438 213.7422 -13.8125 Q214.6562 -14.2812 215.6719 -14.2812 Q217.4219 -14.2812 218.6562 -12.9922 Q219.8906 -11.7031 219.8906 -9.6562 Q219.8906 -8.2969 219.3125 -7.1406 Q218.7344 -5.9844 217.7188 -5.3672 Q216.7031 -4.75 215.4062 -4.75 Q213.2188 -4.75 211.8281 -6.3672 Q210.4375 -7.9844 210.4375 -11.7031 Q210.4375 -15.8438 211.9688 -17.7344 Q213.3125 -19.375 215.5781 -19.375 Q217.2656 -19.375 218.3438 -18.4297 Q219.4219 -17.4844 219.6406 -15.8125 ZM212.4688 -9.6406 Q212.4688 -8.7344 212.8516 -7.9062 Q213.2344 -7.0781 213.9297 -6.6406 Q214.625 -6.2031 215.375 -6.2031 Q216.5 -6.2031 217.2969 -7.1016 Q218.0938 -8 218.0938 -9.5469 Q218.0938 -11.0312 217.3047 -11.8828 Q216.5156 -12.7344 215.3125 -12.7344 Q214.125 -12.7344 213.2969 -11.8828 Q212.4688 -11.0312 212.4688 -9.6406 ZM227.2793 -5 L227.2793 -8.4219 L221.0605 -8.4219 L221.0605 -10.0469 L227.5918 -19.3125 L229.0293 -19.3125 L229.0293 -10.0469 L230.9668 -10.0469 L230.9668 -8.4219 L229.0293 -8.4219 L229.0293 -5 L227.2793 -5 ZM227.2793 -10.0469 L227.2793 -16.5 L222.7949 -10.0469 L227.2793 -10.0469 ZM235.4648 -12.7656 Q234.3711 -13.1719 233.8477 -13.9141 Q233.3242 -14.6562 233.3242 -15.6875 Q233.3242 -17.25 234.4492 -18.3125 Q235.5742 -19.375 237.4336 -19.375 Q239.3086 -19.375 240.4492 -18.2891 Q241.5898 -17.2031 241.5898 -15.6406 Q241.5898 -14.6406 241.0664 -13.9062 Q240.543 -13.1719 239.4805 -12.7656 Q240.8086 -12.3281 241.4961 -11.375 Q242.1836 -10.4219 242.1836 -9.0938 Q242.1836 -7.25 240.8789 -6 Q239.5742 -4.75 237.4648 -4.75 Q235.3398 -4.75 234.043 -6.0078 Q232.7461 -7.2656 232.7461 -9.1406 Q232.7461 -10.5312 233.457 -11.4766 Q234.168 -12.4219 235.4648 -12.7656 ZM235.1211 -15.75 Q235.1211 -14.7344 235.7773 -14.0859 Q236.4336 -13.4375 237.4648 -13.4375 Q238.4805 -13.4375 239.1367 -14.0781 Q239.793 -14.7188 239.793 -15.6406 Q239.793 -16.6094 239.1211 -17.2734 Q238.4492 -17.9375 237.4492 -17.9375 Q236.4492 -17.9375 235.7852 -17.2891 Q235.1211 -16.6406 235.1211 -15.75 ZM234.5586 -9.125 Q234.5586 -8.375 234.9102 -7.6719 Q235.2617 -6.9688 235.9648 -6.5859 Q236.668 -6.2031 237.4805 -6.2031 Q238.7461 -6.2031 239.5664 -7.0156 Q240.3867 -7.8281 240.3867 -9.0781 Q240.3867 -10.3438 239.543 -11.1719 Q238.6992 -12 237.418 -12 Q236.1836 -12 235.3711 -11.1797 Q234.5586 -10.3594 234.5586 -9.125 Z"
         id="path75" />
    </g>
    <g
       transform="translate(130,59.6415)"
       style="text-rendering:geometricPrecision; font-size:20px; color-interpolation:linearRGB; color-rendering:optimizeQuality; image-rendering:optimizeQuality;"
       id="g76">
      <path
         style="stroke:none;"
         d="M0.375 10.625 L8.7969 10.625 L8.7969 12.0781 L5.4531 12.0781 L5.4531 21 L3.7188 21 L3.7188 12.0781 L0.375 12.0781 L0.375 10.625 ZM17.582 17.6562 L19.3945 17.8906 Q18.9727 19.4688 17.8086 20.3516 Q16.6445 21.2344 14.832 21.2344 Q12.5664 21.2344 11.2305 19.8359 Q9.8945 18.4375 9.8945 15.9062 Q9.8945 13.2812 11.2383 11.8359 Q12.582 10.3906 14.7383 10.3906 Q16.8164 10.3906 18.1367 11.8047 Q19.457 13.2188 19.457 15.7969 Q19.457 15.9531 19.4414 16.2656 L11.707 16.2656 Q11.8008 17.9688 12.6758 18.875 Q13.5508 19.7812 14.8477 19.7812 Q15.8164 19.7812 16.4961 19.2734 Q17.1758 18.7656 17.582 17.6562 ZM11.8008 14.8125 L17.5977 14.8125 Q17.4883 13.5156 16.9414 12.8594 Q16.0977 11.8438 14.7539 11.8438 Q13.5508 11.8438 12.7227 12.6484 Q11.8945 13.4531 11.8008 14.8125 ZM20.9551 15.8125 Q20.9551 12.9375 22.5488 11.5469 Q23.8926 10.3906 25.8145 10.3906 Q27.9551 10.3906 29.3066 11.7969 Q30.6582 13.2031 30.6582 15.6719 Q30.6582 17.6719 30.0645 18.8203 Q29.4707 19.9688 28.3223 20.6016 Q27.1738 21.2344 25.8145 21.2344 Q23.627 21.2344 22.291 19.8359 Q20.9551 18.4375 20.9551 15.8125 ZM22.752 15.8125 Q22.752 17.8125 23.6191 18.7969 Q24.4863 19.7812 25.8145 19.7812 Q27.127 19.7812 27.9941 18.7891 Q28.8613 17.7969 28.8613 15.75 Q28.8613 13.8281 27.9863 12.8359 Q27.1113 11.8438 25.8145 11.8438 Q24.4863 11.8438 23.6191 12.8359 Q22.752 13.8281 22.752 15.8125 ZM32.7188 24.9688 L32.7188 10.625 L34.3281 10.625 L34.3281 11.9688 Q34.8906 11.1875 35.6016 10.7891 Q36.3125 10.3906 37.3281 10.3906 Q38.6562 10.3906 39.6719 11.0781 Q40.6875 11.7656 41.2109 13.0078 Q41.7344 14.25 41.7344 15.7344 Q41.7344 17.3281 41.1641 18.6016 Q40.5938 19.875 39.5 20.5547 Q38.4062 21.2344 37.2031 21.2344 Q36.3281 21.2344 35.6328 20.8594 Q34.9375 20.4844 34.4844 19.9219 L34.4844 24.9688 L32.7188 24.9688 ZM34.3125 15.875 Q34.3125 17.875 35.125 18.8281 Q35.9375 19.7812 37.0938 19.7812 Q38.2656 19.7812 39.1016 18.7969 Q39.9375 17.8125 39.9375 15.7188 Q39.9375 13.75 39.1172 12.7578 Q38.2969 11.7656 37.1719 11.7656 Q36.0469 11.7656 35.1797 12.8203 Q34.3125 13.875 34.3125 15.875 ZM44.3418 21 L44.3418 19 L46.3418 19 L46.3418 21 L44.3418 21 ZM54.9551 24.9688 L54.9551 10.625 L56.5645 10.625 L56.5645 11.9688 Q57.127 11.1875 57.8379 10.7891 Q58.5488 10.3906 59.5645 10.3906 Q60.8926 10.3906 61.9082 11.0781 Q62.9238 11.7656 63.4473 13.0078 Q63.9707 14.25 63.9707 15.7344 Q63.9707 17.3281 63.4004 18.6016 Q62.8301 19.875 61.7363 20.5547 Q60.6426 21.2344 59.4395 21.2344 Q58.5645 21.2344 57.8691 20.8594 Q57.1738 20.4844 56.7207 19.9219 L56.7207 24.9688 L54.9551 24.9688 ZM56.5488 15.875 Q56.5488 17.875 57.3613 18.8281 Q58.1738 19.7812 59.3301 19.7812 Q60.502 19.7812 61.3379 18.7969 Q62.1738 17.8125 62.1738 15.7188 Q62.1738 13.75 61.3535 12.7578 Q60.5332 11.7656 59.4082 11.7656 Q58.2832 11.7656 57.416 12.8203 Q56.5488 13.875 56.5488 15.875 ZM72.8594 19.7188 Q71.875 20.5469 70.9688 20.8906 Q70.0625 21.2344 69.0312 21.2344 Q67.3281 21.2344 66.4062 20.3984 Q65.4844 19.5625 65.4844 18.2656 Q65.4844 17.5 65.8359 16.875 Q66.1875 16.25 66.75 15.8672 Q67.3125 15.4844 68.0156 15.2812 Q68.5312 15.1562 69.5781 15.0156 Q71.7031 14.7656 72.7031 14.4219 Q72.7188 14.0625 72.7188 13.9531 Q72.7188 12.8906 72.2188 12.4375 Q71.5469 11.8438 70.2188 11.8438 Q68.9688 11.8438 68.3828 12.2812 Q67.7969 12.7188 67.5156 13.8281 L65.7969 13.5938 Q66.0312 12.4844 66.5625 11.8047 Q67.0938 11.125 68.1094 10.7578 Q69.125 10.3906 70.4688 10.3906 Q71.7969 10.3906 72.625 10.7031 Q73.4531 11.0156 73.8438 11.4922 Q74.2344 11.9688 74.3906 12.6875 Q74.4844 13.1406 74.4844 14.3125 L74.4844 16.6562 Q74.4844 19.1094 74.5938 19.7578 Q74.7031 20.4062 75.0469 21 L73.2031 21 Q72.9375 20.4531 72.8594 19.7188 ZM72.7031 15.7969 Q71.75 16.1875 69.8281 16.4531 Q68.75 16.6094 68.3047 16.8047 Q67.8594 17 67.6094 17.375 Q67.3594 17.75 67.3594 18.2188 Q67.3594 18.9219 67.8906 19.3906 Q68.4219 19.8594 69.4531 19.8594 Q70.4688 19.8594 71.2578 19.4141 Q72.0469 18.9688 72.4219 18.2031 Q72.7031 17.5938 72.7031 16.4375 L72.7031 15.7969 ZM79.498 16.3125 L79.498 14.9375 Q80.623 14.9219 81.0215 14.8438 Q81.4199 14.7656 81.7871 14.375 Q82.1543 13.9844 82.1543 13.4062 Q82.1543 12.6875 81.6777 12.2656 Q81.2012 11.8438 80.4512 11.8438 Q78.9668 11.8438 78.373 13.5938 L76.7012 13.3125 Q77.4824 10.3906 80.4668 10.3906 Q82.123 10.3906 83.0684 11.2969 Q84.0137 12.2031 84.0137 13.4688 Q84.0137 14.7344 82.7793 15.4844 Q83.5605 15.9062 83.9512 16.5547 Q84.3418 17.2031 84.3418 18.0938 Q84.3418 19.5 83.3262 20.3672 Q82.3105 21.2344 80.4824 21.2344 Q76.9512 21.2344 76.373 18.0781 L78.0293 17.7344 Q78.248 18.7188 78.9355 19.2656 Q79.623 19.8125 80.5137 19.8125 Q81.4043 19.8125 81.998 19.3125 Q82.5918 18.8125 82.5918 18.0312 Q82.5918 17.4219 82.2168 16.9766 Q81.8418 16.5312 81.4277 16.4141 Q81.0137 16.2969 79.9043 16.2969 Q79.8105 16.2969 79.498 16.3125 ZM86.3711 24.9688 L86.3711 10.625 L87.9805 10.625 L87.9805 11.9688 Q88.543 11.1875 89.2539 10.7891 Q89.9648 10.3906 90.9805 10.3906 Q92.3086 10.3906 93.3242 11.0781 Q94.3398 11.7656 94.8633 13.0078 Q95.3867 14.25 95.3867 15.7344 Q95.3867 17.3281 94.8164 18.6016 Q94.2461 19.875 93.1523 20.5547 Q92.0586 21.2344 90.8555 21.2344 Q89.9805 21.2344 89.2852 20.8594 Q88.5898 20.4844 88.1367 19.9219 L88.1367 24.9688 L86.3711 24.9688 ZM87.9648 15.875 Q87.9648 17.875 88.7773 18.8281 Q89.5898 19.7812 90.7461 19.7812 Q91.918 19.7812 92.7539 18.7969 Q93.5898 17.8125 93.5898 15.7188 Q93.5898 13.75 92.7695 12.7578 Q91.9492 11.7656 90.8242 11.7656 Q89.6992 11.7656 88.832 12.8203 Q87.9648 13.875 87.9648 15.875 ZM104.6035 17.6562 L106.416 17.8906 Q105.9941 19.4688 104.8301 20.3516 Q103.666 21.2344 101.8535 21.2344 Q99.5879 21.2344 98.252 19.8359 Q96.916 18.4375 96.916 15.9062 Q96.916 13.2812 98.2598 11.8359 Q99.6035 10.3906 101.7598 10.3906 Q103.8379 10.3906 105.1582 11.8047 Q106.4785 13.2188 106.4785 15.7969 Q106.4785 15.9531 106.4629 16.2656 L98.7285 16.2656 Q98.8223 17.9688 99.6973 18.875 Q100.5723 19.7812 101.8691 19.7812 Q102.8379 19.7812 103.5176 19.2734 Q104.1973 18.7656 104.6035 17.6562 ZM98.8223 14.8125 L104.6191 14.8125 Q104.5098 13.5156 103.9629 12.8594 Q103.1191 11.8438 101.7754 11.8438 Q100.5723 11.8438 99.7441 12.6484 Q98.916 13.4531 98.8223 14.8125 ZM108.6797 10.625 L110.4453 10.625 L110.4453 19.5469 L114.4453 19.5469 L114.4453 10.625 L116.1953 10.625 L116.1953 19.5469 L120.2109 19.5469 L120.2109 10.625 L121.9609 10.625 L121.9609 21 L108.6797 21 L108.6797 10.625 ZM131.7715 17.6562 L133.584 17.8906 Q133.1621 19.4688 131.998 20.3516 Q130.834 21.2344 129.0215 21.2344 Q126.7559 21.2344 125.4199 19.8359 Q124.084 18.4375 124.084 15.9062 Q124.084 13.2812 125.4277 11.8359 Q126.7715 10.3906 128.9277 10.3906 Q131.0059 10.3906 132.3262 11.8047 Q133.6465 13.2188 133.6465 15.7969 Q133.6465 15.9531 133.6309 16.2656 L125.8965 16.2656 Q125.9902 17.9688 126.8652 18.875 Q127.7402 19.7812 129.0371 19.7812 Q130.0059 19.7812 130.6855 19.2734 Q131.3652 18.7656 131.7715 17.6562 ZM125.9902 14.8125 L131.7871 14.8125 Q131.6777 13.5156 131.1309 12.8594 Q130.2871 11.8438 128.9434 11.8438 Q127.7402 11.8438 126.9121 12.6484 Q126.084 13.4531 125.9902 14.8125 ZM135.8008 10.625 L137.5664 10.625 L137.5664 14.9375 L142.4258 14.9375 L142.4258 10.625 L144.1914 10.625 L144.1914 21 L142.4258 21 L142.4258 16.4062 L137.5664 16.4062 L137.5664 21 L135.8008 21 L135.8008 10.625 ZM146.8301 10.625 L148.5957 10.625 L148.5957 18.5312 L153.4707 10.625 L155.3613 10.625 L155.3613 21 L153.6113 21 L153.6113 13.1406 L148.7363 21 L146.8301 21 L146.8301 10.625 ZM165.1113 17.6562 L166.9238 17.8906 Q166.502 19.4688 165.3379 20.3516 Q164.1738 21.2344 162.3613 21.2344 Q160.0957 21.2344 158.7598 19.8359 Q157.4238 18.4375 157.4238 15.9062 Q157.4238 13.2812 158.7676 11.8359 Q160.1113 10.3906 162.2676 10.3906 Q164.3457 10.3906 165.666 11.8047 Q166.9863 13.2188 166.9863 15.7969 Q166.9863 15.9531 166.9707 16.2656 L159.2363 16.2656 Q159.3301 17.9688 160.2051 18.875 Q161.0801 19.7812 162.377 19.7812 Q163.3457 19.7812 164.0254 19.2734 Q164.7051 18.7656 165.1113 17.6562 ZM159.3301 14.8125 L165.127 14.8125 Q165.0176 13.5156 164.4707 12.8594 Q163.627 11.8438 162.2832 11.8438 Q161.0801 11.8438 160.252 12.6484 Q159.4238 13.4531 159.3301 14.8125 ZM169.625 12.625 L169.625 10.625 L171.625 10.625 L171.625 12.625 L169.625 12.625 ZM169.625 21 L169.625 19 L171.625 19 L171.625 21 L169.625 21 ZM179.7539 13.9375 Q179.7539 11.4062 180.2773 9.8516 Q180.8008 8.2969 181.832 7.4609 Q182.8633 6.625 184.4258 6.625 Q185.582 6.625 186.4492 7.0859 Q187.3164 7.5469 187.8789 8.4219 Q188.4414 9.2969 188.7695 10.5547 Q189.0977 11.8125 189.0977 13.9375 Q189.0977 16.4531 188.5742 18 Q188.0508 19.5469 187.0273 20.3984 Q186.0039 21.25 184.4258 21.25 Q182.3477 21.25 181.1758 19.7656 Q179.7539 17.9688 179.7539 13.9375 ZM181.5664 13.9375 Q181.5664 17.4688 182.3867 18.6328 Q183.207 19.7969 184.4258 19.7969 Q185.6289 19.7969 186.457 18.625 Q187.2852 17.4531 187.2852 13.9375 Q187.2852 10.4062 186.457 9.2422 Q185.6289 8.0781 184.4102 8.0781 Q183.1914 8.0781 182.4727 9.1094 Q181.5664 10.4062 181.5664 13.9375 ZM191.8613 21 L191.8613 19 L193.8613 19 L193.8613 21 L191.8613 21 ZM196.4492 17.2188 L198.1992 16.9844 Q198.5117 18.4844 199.2383 19.1406 Q199.9648 19.7969 201.0117 19.7969 Q202.2461 19.7969 203.0977 18.9375 Q203.9492 18.0781 203.9492 16.8125 Q203.9492 15.5938 203.1602 14.8125 Q202.3711 14.0312 201.1523 14.0312 Q200.6523 14.0312 199.918 14.2188 L200.1055 12.6719 Q200.2773 12.7031 200.3867 12.7031 Q201.5117 12.7031 202.4102 12.1172 Q203.3086 11.5312 203.3086 10.3125 Q203.3086 9.3438 202.6523 8.7031 Q201.9961 8.0625 200.9648 8.0625 Q199.9492 8.0625 199.2617 8.7109 Q198.5742 9.3594 198.3867 10.6406 L196.6211 10.3281 Q196.9492 8.5625 198.0898 7.5938 Q199.2305 6.625 200.9336 6.625 Q202.1055 6.625 203.0898 7.125 Q204.0742 7.625 204.5977 8.5 Q205.1211 9.375 205.1211 10.3438 Q205.1211 11.2656 204.6211 12.0312 Q204.1211 12.7969 203.1523 13.25 Q204.418 13.5312 205.1211 14.4609 Q205.8242 15.3906 205.8242 16.7656 Q205.8242 18.6406 204.457 19.9453 Q203.0898 21.25 200.9961 21.25 Q199.1055 21.25 197.8633 20.125 Q196.6211 19 196.4492 17.2188 ZM207.5566 13.9375 Q207.5566 11.4062 208.0801 9.8516 Q208.6035 8.2969 209.6348 7.4609 Q210.666 6.625 212.2285 6.625 Q213.3848 6.625 214.252 7.0859 Q215.1191 7.5469 215.6816 8.4219 Q216.2441 9.2969 216.5723 10.5547 Q216.9004 11.8125 216.9004 13.9375 Q216.9004 16.4531 216.377 18 Q215.8535 19.5469 214.8301 20.3984 Q213.8066 21.25 212.2285 21.25 Q210.1504 21.25 208.9785 19.7656 Q207.5566 17.9688 207.5566 13.9375 ZM209.3691 13.9375 Q209.3691 17.4688 210.1895 18.6328 Q211.0098 19.7969 212.2285 19.7969 Q213.4316 19.7969 214.2598 18.625 Q215.0879 17.4531 215.0879 13.9375 Q215.0879 10.4062 214.2598 9.2422 Q213.4316 8.0781 212.2129 8.0781 Q210.9941 8.0781 210.2754 9.1094 Q209.3691 10.4062 209.3691 13.9375 ZM218.6797 13.9375 Q218.6797 11.4062 219.2031 9.8516 Q219.7266 8.2969 220.7578 7.4609 Q221.7891 6.625 223.3516 6.625 Q224.5078 6.625 225.375 7.0859 Q226.2422 7.5469 226.8047 8.4219 Q227.3672 9.2969 227.6953 10.5547 Q228.0234 11.8125 228.0234 13.9375 Q228.0234 16.4531 227.5 18 Q226.9766 19.5469 225.9531 20.3984 Q224.9297 21.25 223.3516 21.25 Q221.2734 21.25 220.1016 19.7656 Q218.6797 17.9688 218.6797 13.9375 ZM220.4922 13.9375 Q220.4922 17.4688 221.3125 18.6328 Q222.1328 19.7969 223.3516 19.7969 Q224.5547 19.7969 225.3828 18.625 Q226.2109 17.4531 226.2109 13.9375 Q226.2109 10.4062 225.3828 9.2422 Q224.5547 8.0781 223.3359 8.0781 Q222.1172 8.0781 221.3984 9.1094 Q220.4922 10.4062 220.4922 13.9375 ZM229.8027 13.9375 Q229.8027 11.4062 230.3262 9.8516 Q230.8496 8.2969 231.8809 7.4609 Q232.9121 6.625 234.4746 6.625 Q235.6309 6.625 236.498 7.0859 Q237.3652 7.5469 237.9277 8.4219 Q238.4902 9.2969 238.8184 10.5547 Q239.1465 11.8125 239.1465 13.9375 Q239.1465 16.4531 238.623 18 Q238.0996 19.5469 237.0762 20.3984 Q236.0527 21.25 234.4746 21.25 Q232.3965 21.25 231.2246 19.7656 Q229.8027 17.9688 229.8027 13.9375 ZM231.6152 13.9375 Q231.6152 17.4688 232.4355 18.6328 Q233.2559 19.7969 234.4746 19.7969 Q235.6777 19.7969 236.5059 18.625 Q237.334 17.4531 237.334 13.9375 Q237.334 10.4062 236.5059 9.2422 Q235.6777 8.0781 234.459 8.0781 Q233.2402 8.0781 232.5215 9.1094 Q231.6152 10.4062 231.6152 13.9375 Z"
         id="path76" />
    </g>
  </g>
</svg>
