<?xml version="1.0" encoding="UTF-8" standalone="no"?>
<!-- Created with Inkscape (http://www.inkscape.org/) -->

<svg
   width="51.13866mm"
   height="92.11734mm"
   viewBox="0 0 51.13866 92.11734"
   version="1.1"
   id="svg1"
   xml:space="preserve"
   inkscape:version="1.3.2 (091e20e, 2023-11-25, custom)"
   sodipodi:docname="Target_analysis_model.svg"
   xmlns:inkscape="http://www.inkscape.org/namespaces/inkscape"
   xmlns:sodipodi="http://sodipodi.sourceforge.net/DTD/sodipodi-0.dtd"
   xmlns="http://www.w3.org/2000/svg"
   xmlns:svg="http://www.w3.org/2000/svg"><sodipodi:namedview
     id="namedview1"
     pagecolor="#ffffff"
     bordercolor="#000000"
     borderopacity="0.25"
     inkscape:showpageshadow="2"
     inkscape:pageopacity="0.0"
     inkscape:pagecheckerboard="0"
     inkscape:deskcolor="#d1d1d1"
     inkscape:document-units="mm"
     inkscape:zoom="1.3843855"
     inkscape:cx="53.092147"
     inkscape:cy="173.00094"
     inkscape:window-width="1920"
     inkscape:window-height="991"
     inkscape:window-x="-9"
     inkscape:window-y="1341"
     inkscape:window-maximized="1"
     inkscape:current-layer="layer1"><inkscape:page
       x="4.8604479e-06"
       y="0"
       width="51.13866"
       height="92.11734"
       id="page2"
       margin="0"
       bleed="0" /></sodipodi:namedview><defs
     id="defs1"><clipPath
       clipPathUnits="userSpaceOnUse"
       id="clipPath2"><path
         d="M 0,0 H 605 V 1089 H 0 Z"
         transform="scale(0.31999999)"
         clip-rule="evenodd"
         id="path2" /></clipPath><clipPath
       clipPathUnits="userSpaceOnUse"
       id="clipPath4"><path
         d="m 78.125,143.75 h 450 v 800 h -450 z"
         transform="matrix(0.4560477,0,0,0.4560477,161.94377,92.018008)"
         clip-rule="evenodd"
         id="path4" /></clipPath><clipPath
       clipPathUnits="userSpaceOnUse"
       id="clipPath6"><path
         d="m 78.125,143.75 h 450 v 800 h -450 z"
         transform="matrix(0.4560477,0,0,0.4560477,161.94377,92.018008)"
         clip-rule="evenodd"
         id="path6" /></clipPath><clipPath
       clipPathUnits="userSpaceOnUse"
       id="clipPath8"><path
         d="m 78.125,143.75 h 450 v 800 h -450 z"
         transform="matrix(0.4560477,0,0,0.4560477,161.94377,92.018008)"
         clip-rule="evenodd"
         id="path8" /></clipPath><clipPath
       clipPathUnits="userSpaceOnUse"
       id="clipPath9"><path
         d="m 78.125,143.75 h 450 v 800 h -450 z"
         transform="matrix(0.4560477,0,0,0.4560477,-126.74374,-91.481996)"
         clip-rule="evenodd"
         id="path9" /></clipPath><clipPath
       clipPathUnits="userSpaceOnUse"
       id="clipPath11"><path
         d="m 78.125,143.75 h 450 v 800 h -450 z"
         transform="matrix(0.4560477,0,0,0.4560477,161.94377,92.018008)"
         clip-rule="evenodd"
         id="path11" /></clipPath><clipPath
       clipPathUnits="userSpaceOnUse"
       id="clipPath13"><path
         d="m 78.125,143.75 h 450 v 800 h -450 z"
         transform="matrix(0.4560477,0,0,0.4560477,161.94377,92.018008)"
         clip-rule="evenodd"
         id="path13" /></clipPath><clipPath
       clipPathUnits="userSpaceOnUse"
       id="clipPath15"><path
         d="m 78.125,143.75 h 450 v 800 h -450 z"
         transform="matrix(0.4560477,0,0,0.4560477,161.94377,92.018008)"
         clip-rule="evenodd"
         id="path15" /></clipPath><clipPath
       clipPathUnits="userSpaceOnUse"
       id="clipPath16"><path
         d="m 78.125,143.75 h 450 v 800 h -450 z"
         transform="matrix(0.4560477,0,0,0.4560477,-43.946864,-164.482)"
         clip-rule="evenodd"
         id="path16" /></clipPath><clipPath
       clipPathUnits="userSpaceOnUse"
       id="clipPath17"><path
         d="m 78.125,143.75 h 450 v 800 h -450 z"
         transform="matrix(0.4560477,0,0,0.4560477,-87.149985,-179.482)"
         clip-rule="evenodd"
         id="path17" /></clipPath><clipPath
       clipPathUnits="userSpaceOnUse"
       id="clipPath19"><path
         d="m 78.125,143.75 h 450 v 800 h -450 z"
         transform="matrix(0.4560477,0,0,0.4560477,161.94377,92.018008)"
         clip-rule="evenodd"
         id="path19" /></clipPath><clipPath
       clipPathUnits="userSpaceOnUse"
       id="clipPath21"><path
         d="m 78.125,143.75 h 450 v 800 h -450 z"
         transform="matrix(0.4560477,0,0,0.4560477,161.94377,92.018008)"
         clip-rule="evenodd"
         id="path21" /></clipPath><clipPath
       clipPathUnits="userSpaceOnUse"
       id="clipPath23"><path
         d="m 78.125,143.75 h 450 v 800 h -450 z"
         transform="matrix(0.4560477,0,0,0.4560477,161.94377,92.018008)"
         clip-rule="evenodd"
         id="path23" /></clipPath><clipPath
       clipPathUnits="userSpaceOnUse"
       id="clipPath24"><path
         d="m 78.125,143.75 h 450 v 800 h -450 z"
         transform="matrix(0.4560477,0,0,0.4560477,-72.743735,-237.482)"
         clip-rule="evenodd"
         id="path24" /></clipPath><clipPath
       clipPathUnits="userSpaceOnUse"
       id="clipPath25"><path
         d="m 78.125,143.75 h 450 v 800 h -450 z"
         transform="matrix(0.4560477,0,0,0.4560477,-72.743735,-251.482)"
         clip-rule="evenodd"
         id="path25" /></clipPath><clipPath
       clipPathUnits="userSpaceOnUse"
       id="clipPath26"><path
         d="m 78.125,143.75 h 450 v 800 h -450 z"
         transform="matrix(0.4560477,0,0,0.4560477,-76.353115,-266.48199)"
         clip-rule="evenodd"
         id="path26" /></clipPath><clipPath
       clipPathUnits="userSpaceOnUse"
       id="clipPath28"><path
         d="m 78.125,143.75 h 450 v 800 h -450 z"
         transform="matrix(0.4560477,0,0,0.4560477,161.94377,92.018008)"
         clip-rule="evenodd"
         id="path28" /></clipPath><clipPath
       clipPathUnits="userSpaceOnUse"
       id="clipPath30"><path
         d="m 78.125,143.75 h 450 v 800 h -450 z"
         transform="matrix(0.4560477,0,0,0.4560477,161.94377,92.018008)"
         clip-rule="evenodd"
         id="path30" /></clipPath><clipPath
       clipPathUnits="userSpaceOnUse"
       id="clipPath32"><path
         d="m 78.125,143.75 h 450 v 800 h -450 z"
         transform="matrix(0.4560477,0,0,0.4560477,161.94377,92.018008)"
         clip-rule="evenodd"
         id="path32" /></clipPath><clipPath
       clipPathUnits="userSpaceOnUse"
       id="clipPath33"><path
         d="m 78.125,143.75 h 450 v 800 h -450 z"
         transform="matrix(0.4560477,0,0,0.4560477,-40.353114,-324.482)"
         clip-rule="evenodd"
         id="path33" /></clipPath><clipPath
       clipPathUnits="userSpaceOnUse"
       id="clipPath34"><path
         d="m 78.125,143.75 h 450 v 800 h -450 z"
         transform="matrix(0.4560477,0,0,0.4560477,-97.946865,-339.48199)"
         clip-rule="evenodd"
         id="path34" /></clipPath><clipPath
       clipPathUnits="userSpaceOnUse"
       id="clipPath36"><path
         d="m 78.125,143.75 h 450 v 800 h -450 z"
         transform="matrix(0.4560477,0,0,0.4560477,161.94377,92.018008)"
         clip-rule="evenodd"
         id="path36" /></clipPath><clipPath
       clipPathUnits="userSpaceOnUse"
       id="clipPath37"><path
         d="m 78.125,143.75 h 450 v 800 h -450 z"
         transform="matrix(0.4560477,0,0,0.4560477,-76.353115,-404.482)"
         clip-rule="evenodd"
         id="path37" /></clipPath><clipPath
       clipPathUnits="userSpaceOnUse"
       id="clipPath38"><path
         d="m 78.125,143.75 h 450 v 800 h -450 z"
         transform="matrix(0.4560477,0,0,0.4560477,-94.353115,-419.482)"
         clip-rule="evenodd"
         id="path38" /></clipPath></defs><g
     inkscape:label="Слой 1"
     inkscape:groupmode="layer"
     id="layer1"
     transform="translate(-220.00001)" /><g
     id="g1"
     inkscape:groupmode="layer"
     inkscape:label="1"
     transform="matrix(0.26458333,0,0,0.26458334,4.9379573e-6,0)"><path
       id="path1"
       d="M 0,0 H 194 V 348 H 0 Z"
       style="fill:#ffffff;fill-opacity:1;fill-rule:nonzero;stroke:none"
       clip-path="url(#clipPath2)" /><path
       id="path3"
       d="m 300,200 v 33.63"
       style="fill:none;stroke:#000000;stroke-width:1;stroke-linecap:butt;stroke-linejoin:miter;stroke-miterlimit:10;stroke-dasharray:none;stroke-opacity:1"
       transform="matrix(0.70168096,0,0,0.70168096,-113.63286,-64.567284)"
       clip-path="url(#clipPath4)" /><path
       id="path5"
       d="m 300,238.88 -3.5,-7 3.5,1.75 3.5,-1.75 z"
       style="fill:#000000;fill-opacity:1;fill-rule:nonzero;stroke:#000000;stroke-width:1;stroke-linecap:butt;stroke-linejoin:miter;stroke-miterlimit:10;stroke-dasharray:none;stroke-opacity:1"
       transform="matrix(0.70168096,0,0,0.70168096,-113.63286,-64.567284)"
       clip-path="url(#clipPath6)" /><path
       id="path7"
       d="m 200,200 20,-40 h 180 l -20,40 z"
       style="fill:#ffffff;fill-opacity:1;fill-rule:nonzero;stroke:#000000;stroke-width:1;stroke-linecap:butt;stroke-linejoin:miter;stroke-miterlimit:10;stroke-dasharray:none;stroke-opacity:1"
       transform="matrix(0.70168096,0,0,0.70168096,-113.63286,-64.567284)"
       clip-path="url(#clipPath8)" /><path
       style="font-size:12px;font-family:'JetBrains Mono'"
       d="m 1.104,0 v -8.76 h 2.82 q 1.224,0 1.944,0.708 Q 6.6,-7.356 6.6,-6.18 6.6,-5.004 5.868,-4.296 5.148,-3.6 3.924,-3.6 H 2.184 V 0 Z m 1.08,-4.572 h 1.74 q 0.708,0 1.128,-0.432 0.432,-0.444 0.432,-1.176 0,-0.744 -0.432,-1.176 -0.42,-0.432 -1.128,-0.432 H 2.184 Z M 7.4399969,0.06 v -1.008 h 0.216 q 0.528,0 0.756,-0.468 0.24,-0.48 0.252,-1.632 l 0.096,-5.712 H 13.271997 V 0 h -1.08 V -7.776 H 9.8279969 l -0.084,4.728 q -0.024,1.608 -0.516,2.364 -0.48,0.744 -1.512,0.744 z M 15.479994,0 v -8.76 h 1.044 v 4.92 q 0,0.432 -0.024,0.924 -0.012,0.48 -0.036,0.924 -0.024,0.432 -0.048,0.732 l 2.664,-7.5 h 1.44 V 0 h -1.044 v -4.92 q 0,-0.444 0.012,-0.924 0.024,-0.492 0.048,-0.924 0.036,-0.444 0.06,-0.732 l -2.676,7.5 z"
       id="text8"
       clip-path="url(#clipPath9)"
       transform="matrix(0.70168096,0,0,0.70168096,88.933666,64.191175)"
       aria-label="РЛИ" /><path
       id="path10"
       d="m 300,280 v 23.63"
       style="fill:none;stroke:#000000;stroke-width:1;stroke-linecap:butt;stroke-linejoin:miter;stroke-miterlimit:10;stroke-dasharray:none;stroke-opacity:1"
       transform="matrix(0.70168096,0,0,0.70168096,-113.63286,-64.567284)"
       clip-path="url(#clipPath11)" /><path
       id="path12"
       d="m 300,308.88 -3.5,-7 3.5,1.75 3.5,-1.75 z"
       style="fill:#000000;fill-opacity:1;fill-rule:nonzero;stroke:#000000;stroke-width:1;stroke-linecap:butt;stroke-linejoin:miter;stroke-miterlimit:10;stroke-dasharray:none;stroke-opacity:1"
       transform="matrix(0.70168096,0,0,0.70168096,-113.63286,-64.567284)"
       clip-path="url(#clipPath13)" /><path
       id="path14"
       d="m 206,240 h 188 c 0.79562,0 1.56097,0.15224 2.29605,0.4567 0.73508,0.30448 1.38394,0.73803 1.94656,1.30064 0.5626,0.56261 0.99613,1.21144 1.3006,1.94653 0.30448,0.73509 0.45676,1.50046 0.45679,2.29613 v 28 c -3e-5,0.79562 -0.15231,1.561 -0.45679,2.29608 -0.30447,0.73508 -0.738,1.38391 -1.3006,1.94653 -0.56262,0.5626 -1.21148,0.99613 -1.94656,1.30063 C 395.56097,279.84772 394.79562,279.99997 394,280 H 206 c -0.79567,-3e-5 -1.56104,-0.15228 -2.29613,-0.45676 -0.73509,-0.3045 -1.38392,-0.73803 -1.94653,-1.30063 -0.56262,-0.56262 -0.99617,-1.21145 -1.30064,-1.94653 C 200.15221,275.561 199.99998,274.79562 200,274 v -28 c -2e-5,-0.79567 0.15221,-1.56104 0.45668,-2.29613 0.30449,-0.73509 0.73804,-1.38392 1.30066,-1.94653 0.56261,-0.56261 1.21146,-0.99616 1.94655,-1.30063 C 204.43896,240.15224 205.20433,240 206,240 Z"
       style="fill:#ffffff;fill-opacity:1;fill-rule:nonzero;stroke:#000000;stroke-width:1;stroke-linecap:butt;stroke-linejoin:miter;stroke-miterlimit:10;stroke-dasharray:none;stroke-opacity:1"
       transform="matrix(0.70168096,0,0,0.70168096,-113.63286,-64.567284)"
       clip-path="url(#clipPath15)" /><path
       style="font-size:12px;font-family:'JetBrains Mono'"
       d="M 1.116,0 V -8.76 H 3.6 q 1.2,0 1.872,0.6 0.684,0.6 0.684,1.668 0,0.672 -0.432,1.212 -0.42,0.54 -1.104,0.672 v 0.036 q 0.516,0.06 0.9,0.36 0.396,0.3 0.612,0.768 0.228,0.456 0.228,1.008 0,1.128 -0.696,1.788 Q 4.98,0 3.78,0 Z m 1.056,-5.028 h 1.416 q 0.696,0 1.092,-0.372 0.408,-0.372 0.408,-1.008 0,-0.636 -0.396,-1.008 Q 4.296,-7.788 3.6,-7.788 H 2.172 Z m 0,4.056 H 3.66 q 0.756,0 1.188,-0.396 0.444,-0.408 0.444,-1.104 0,-0.72 -0.444,-1.164 Q 4.416,-4.092 3.66,-4.092 H 2.172 Z M 7.9199969,0 v -6.6 h 1.008 v 2.424 h 0.66 q 1.0680001,0 1.6800001,0.564 0.624,0.564 0.624,1.524 0,0.96 -0.624,1.524 Q 10.655997,0 9.5879969,0 Z m 4.7520001,0 v -6.6 h 1.008 V 0 Z M 8.9279969,-0.864 h 0.66 q 0.6240001,0 0.9840001,-0.324 0.36,-0.336 0.36,-0.9 0,-0.564 -0.36,-0.888 -0.36,-0.336 -0.9840001,-0.336 h -0.66 z M 14.723994,1.68 v -2.64 h 0.504 q 0.156,-0.144 0.3,-0.432 0.156,-0.3 0.264,-0.828 0.108,-0.528 0.12,-1.392 l 0.048,-2.988 h 4.38 v 5.64 h 0.9 v 2.64 h -0.96 V 0 h -4.596 v 1.68 z m 1.584,-2.64 h 2.952 v -4.704 h -2.28 l -0.024,2.076 q -0.012,0.852 -0.108,1.38 -0.096,0.528 -0.24,0.828 -0.132,0.288 -0.3,0.42 z m 8.891997,1.08 q -1.164,0 -1.884,-0.696 -0.708,-0.708 -0.708,-1.944 v -1.56 q 0,-1.236 0.708,-1.932 0.72,-0.708 1.884,-0.708 0.78,0 1.356,0.312 0.588,0.312 0.912,0.876 0.324,0.564 0.324,1.332 v 1.176 h -4.128 V -2.4 q 0,0.732 0.42,1.164 0.42,0.42 1.116,0.42 0.6,0 0.984,-0.228 0.396,-0.24 0.48,-0.636 h 1.08 q -0.108,0.828 -0.804,1.32 -0.696,0.48 -1.74,0.48 z m -1.536,-3.984 h 3.072 V -4.2 q 0,-0.78 -0.408,-1.2 -0.396,-0.432 -1.128,-0.432 -0.732,0 -1.14,0.432 -0.396,0.42 -0.396,1.2 z m 5.435997,3.948 v -1.008 h 0.18 q 0.552,0 0.768,-0.432 0.228,-0.432 0.24,-1.548 l 0.072,-3.696 h 4.536 V 0 h -1.08 v -5.616 h -2.388 l -0.06,2.76 q -0.036,1.572 -0.504,2.256 -0.468,0.684 -1.524,0.684 z M 39.599985,0.12 q -1.164,0 -1.884,-0.696 -0.708,-0.708 -0.708,-1.944 v -1.56 q 0,-1.236 0.708,-1.932 0.72,-0.708 1.884,-0.708 0.78,0 1.356,0.312 0.588,0.312 0.912,0.876 0.324,0.564 0.324,1.332 v 1.176 h -4.128 V -2.4 q 0,0.732 0.42,1.164 0.42,0.42 1.116,0.42 0.6,0 0.984,-0.228 0.396,-0.24 0.48,-0.636 h 1.08 q -0.108,0.828 -0.804,1.32 -0.696,0.48 -1.74,0.48 z m -1.536,-3.984 h 3.072 V -4.2 q 0,-0.78 -0.408,-1.2 -0.396,-0.432 -1.128,-0.432 -0.732,0 -1.14,0.432 -0.396,0.42 -0.396,1.2 z M 44.303982,0 v -6.6 h 1.08 v 2.724 h 2.832 V -6.6 h 1.08 V 0 h -1.08 v -2.892 h -2.832 V 0 Z m 7.199997,0 v -6.6 h 1.032 v 3.552 q 0,0.516 -0.024,1.068 -0.012,0.552 -0.108,0.9 l 2.748,-5.52 h 1.344 V 0 h -1.032 v -3.564 q 0,-0.528 0.012,-1.08 0.024,-0.552 0.12,-0.9 L 52.847979,0 Z m 9.695997,0.12 q -1.164,0 -1.884,-0.696 -0.708,-0.708 -0.708,-1.944 v -1.56 q 0,-1.236 0.708,-1.932 0.72,-0.708 1.884,-0.708 0.78,0 1.356,0.312 0.588,0.312 0.912,0.876 0.324,0.564 0.324,1.332 v 1.176 h -4.128 V -2.4 q 0,0.732 0.42,1.164 0.42,0.42 1.116,0.42 0.6,0 0.984,-0.228 0.396,-0.24 0.48,-0.636 h 1.08 q -0.108,0.828 -0.804,1.32 -0.696,0.48 -1.74,0.48 z m -1.536,-3.984 h 3.072 V -4.2 q 0,-0.78 -0.408,-1.2 -0.396,-0.432 -1.128,-0.432 -0.732,0 -1.14,0.432 -0.396,0.42 -0.396,1.2 z M 73.103969,0 v -6.6 h 4.992 V 0 h -1.08 v -5.616 h -2.832 V 0 Z m 9.695997,0.096 q -1.188,0 -1.896,-0.696 -0.696,-0.696 -0.696,-1.944 v -1.512 q 0,-1.26 0.696,-1.944 0.696,-0.696 1.896,-0.696 1.2,0 1.896,0.696 0.696,0.684 0.696,1.944 v 1.512 q 0,1.248 -0.708,1.944 -0.696,0.696 -1.884,0.696 z m 0,-0.96 q 0.708,0 1.104,-0.396 0.408,-0.396 0.408,-1.164 v -1.752 q 0,-0.768 -0.408,-1.164 -0.396,-0.396 -1.104,-0.396 -0.696,0 -1.104,0.396 -0.408,0.396 -0.408,1.164 v 1.752 q 0,0.768 0.408,1.164 0.408,0.396 1.104,0.396 z M 87.503963,2.16 V -6.6 h 1.08 v 1.26 h 0.012 q 0.084,-0.648 0.564,-1.008 0.48,-0.372 1.224,-0.372 0.996,0 1.584,0.66 0.588,0.648 0.588,1.788 v 1.932 q 0,1.14 -0.588,1.8 -0.588,0.66 -1.584,0.66 -0.744,0 -1.224,-0.372 -0.48,-0.372 -0.564,-1.008 h -0.036 l 0.024,1.5 v 1.92 z m 2.52,-2.976 q 0.684,0 1.068,-0.36 0.384,-0.36 0.384,-1.164 v -1.92 q 0,-0.816 -0.384,-1.164 -0.384,-0.36 -1.068,-0.36 -0.66,0 -1.056,0.42 -0.384,0.42 -0.384,1.164 v 1.8 q 0,0.744 0.384,1.164 0.396,0.42 1.056,0.42 z M 96.65996,0 v -5.616 h -2.4 V -6.6 h 5.88 v 0.984 h -2.4 V 0 Z m 5.244,2.16 V -6.6 h 1.08 v 1.26 h 0.012 q 0.084,-0.648 0.564,-1.008 0.48,-0.372 1.224,-0.372 0.996,0 1.584,0.66 0.588,0.648 0.588,1.788 v 1.932 q 0,1.14 -0.588,1.8 -0.588,0.66 -1.584,0.66 -0.744,0 -1.224,-0.372 -0.48,-0.372 -0.564,-1.008 h -0.036 l 0.024,1.5 v 1.92 z m 2.52,-2.976 q 0.684,0 1.068,-0.36 0.384,-0.36 0.384,-1.164 v -1.92 q 0,-0.816 -0.384,-1.164 -0.384,-0.36 -1.068,-0.36 -0.66,0 -1.056,0.42 -0.384,0.42 -0.384,1.164 v 1.8 q 0,0.744 0.384,1.164 0.396,0.42 1.056,0.42 z m 7.17599,0.936 q -1.164,0 -1.884,-0.696 -0.708,-0.708 -0.708,-1.944 v -1.56 q 0,-1.236 0.708,-1.932 0.72,-0.708 1.884,-0.708 0.78,0 1.356,0.312 0.588,0.312 0.912,0.876 0.324,0.564 0.324,1.332 v 1.176 h -4.128 V -2.4 q 0,0.732 0.42,1.164 0.42,0.42 1.116,0.42 0.6,0 0.984,-0.228 0.396,-0.24 0.48,-0.636 h 1.08 q -0.108,0.828 -0.804,1.32 -0.696,0.48 -1.74,0.48 z m -1.536,-3.984 h 3.072 V -4.2 q 0,-0.78 -0.408,-1.2 -0.396,-0.432 -1.128,-0.432 -0.732,0 -1.14,0.432 -0.396,0.42 -0.396,1.2 z m 8.196,3.864 v -5.616 h -2.4 V -6.6 h 5.88 v 0.984 h -2.4 V 0 Z m 7.164,0.12 q -1.02,0 -1.62,-0.564 -0.6,-0.576 -0.6,-1.5 0,-0.612 0.276,-1.068 0.276,-0.456 0.768,-0.708 0.492,-0.264 1.128,-0.264 h 2.04 V -4.5 q 0,-1.284 -1.404,-1.284 -0.624,0 -1.008,0.228 -0.384,0.228 -0.408,0.636 h -1.08 q 0.06,-0.78 0.72,-1.284 0.672,-0.516 1.776,-0.516 1.2,0 1.836,0.576 0.648,0.576 0.648,1.608 V 0 h -1.068 v -1.2 h -0.024 q -0.096,0.612 -0.612,0.972 -0.516,0.348 -1.368,0.348 z m 0.264,-0.912 q 0.792,0 1.26,-0.384 0.468,-0.384 0.468,-1.044 v -0.924 h -1.92 q -0.528,0 -0.864,0.324 -0.324,0.312 -0.324,0.84 0,0.552 0.36,0.876 0.372,0.312 1.02,0.312 z m 14.71199,0.888 q -1.188,0 -1.896,-0.696 -0.696,-0.696 -0.696,-1.944 v -1.512 q 0,-1.26 0.696,-1.944 0.696,-0.696 1.896,-0.696 1.2,0 1.896,0.696 0.696,0.684 0.696,1.944 v 1.512 q 0,1.248 -0.708,1.944 -0.696,0.696 -1.884,0.696 z m 0,-0.96 q 0.708,0 1.104,-0.396 0.408,-0.396 0.408,-1.164 v -1.752 q 0,-0.768 -0.408,-1.164 -0.396,-0.396 -1.104,-0.396 -0.696,0 -1.104,0.396 -0.408,0.396 -0.408,1.164 v 1.752 q 0,0.768 0.408,1.164 0.408,0.396 1.104,0.396 z m 6.66,0.864 v -5.616 h -2.4 V -6.6 h 5.88 v 0.984 h -2.4 V 0 Z m 5.376,0 v -6.6 h 1.08 v 2.724 h 1.284 l 1.824,-2.724 h 1.236 l -2.136,3.168 2.256,3.432 h -1.26 l -1.908,-2.892 h -1.296 V 0 Z m 6.26399,0.084 v -1.008 h 0.18 q 0.552,0 0.768,-0.432 0.228,-0.432 0.24,-1.548 l 0.072,-3.696 h 4.536 V 0 h -1.08 v -5.616 h -2.388 l -0.06,2.76 q -0.036,1.572 -0.504,2.256 -0.468,0.684 -1.524,0.684 z M 166.70393,0 v -6.6 h 1.032 v 3.552 q 0,0.516 -0.024,1.068 -0.012,0.552 -0.108,0.9 l 2.748,-5.52 h 1.344 V 0 h -1.032 v -3.564 q 0,-0.528 0.012,-1.08 0.024,-0.552 0.12,-0.9 L 168.04793,0 Z m 7.332,0 v -6.6 h 1.08 v 2.724 h 1.284 l 1.824,-2.724 h 1.236 l -2.136,3.168 2.256,3.432 h -1.26 l -1.908,-2.892 h -1.296 V 0 Z m 8.98799,0.12 q -1.02,0 -1.62,-0.564 -0.6,-0.576 -0.6,-1.5 0,-0.612 0.276,-1.068 0.276,-0.456 0.768,-0.708 0.492,-0.264 1.128,-0.264 h 2.04 V -4.5 q 0,-1.284 -1.404,-1.284 -0.624,0 -1.008,0.228 -0.384,0.228 -0.408,0.636 h -1.08 q 0.06,-0.78 0.72,-1.284 0.672,-0.516 1.776,-0.516 1.2,0 1.836,0.576 0.648,0.576 0.648,1.608 V 0 h -1.068 v -1.2 h -0.024 q -0.096,0.612 -0.612,0.972 -0.516,0.348 -1.368,0.348 z m 0.264,-0.912 q 0.792,0 1.26,-0.384 0.468,-0.384 0.468,-1.044 v -0.924 h -1.92 q -0.528,0 -0.864,0.324 -0.324,0.312 -0.324,0.84 0,0.552 0.36,0.876 0.372,0.312 1.02,0.312 z"
       id="text15"
       clip-path="url(#clipPath16)"
       transform="matrix(0.70168096,0,0,0.70168096,30.836678,115.41389)"
       aria-label="Выделение портрета отклика" /><path
       style="font-size:12px;font-family:'JetBrains Mono'"
       d="m 1.104,0 v -6.6 h 2.892 q 0.996,0 1.572,0.444 0.576,0.444 0.576,1.212 0,0.552 -0.384,0.936 -0.372,0.372 -0.972,0.42 v 0.048 q 0.72,0.048 1.116,0.504 Q 6.3,-2.58 6.3,-1.86 6.3,-1.008 5.688,-0.504 5.076,0 4.032,0 Z M 2.16,-3.84 h 1.836 q 0.504,0 0.792,-0.24 0.288,-0.24 0.288,-0.672 0,-0.42 -0.288,-0.66 Q 4.5,-5.652 3.996,-5.652 H 2.16 Z m 0,2.892 h 1.872 q 0.564,0 0.876,-0.264 0.324,-0.264 0.324,-0.744 0,-0.468 -0.324,-0.732 Q 4.596,-2.952 4.032,-2.952 H 2.16 Z M 7.9199969,0 v -6.6 h 1.008 v 2.424 h 0.66 q 1.0680001,0 1.6800001,0.564 0.624,0.564 0.624,1.524 0,0.96 -0.624,1.524 Q 10.655997,0 9.5879969,0 Z m 4.7520001,0 v -6.6 h 1.008 V 0 Z M 8.9279969,-0.864 h 0.66 q 0.6240001,0 0.9840001,-0.324 0.36,-0.336 0.36,-0.9 0,-0.564 -0.36,-0.888 -0.36,-0.336 -0.9840001,-0.336 h -0.66 z M 17.999994,0.12 q -1.188,0 -1.884,-0.696 -0.684,-0.696 -0.684,-1.884 v -3.036 q 0,-1.452 0.648,-2.256 0.66,-0.804 1.932,-0.924 l 2.184,-0.204 v 1.068 l -2.016,0.18 q -1.848,0.168 -1.848,2.136 v 0.54 q 0.144,-0.576 0.624,-0.9 0.492,-0.336 1.236,-0.336 1.14,0 1.752,0.696 0.624,0.696 0.624,1.86 v 1.176 q 0,1.188 -0.696,1.884 -0.684,0.696 -1.872,0.696 z m 0,-0.96 q 0.696,0 1.092,-0.432 0.396,-0.444 0.396,-1.188 v -1.176 q 0,-0.744 -0.396,-1.176 -0.396,-0.444 -1.092,-0.444 -0.696,0 -1.092,0.444 -0.396,0.432 -0.396,1.176 v 1.176 q 0,0.744 0.396,1.188 0.396,0.432 1.092,0.432 z m 4.703997,3 V -6.6 h 1.08 v 1.26 h 0.012 q 0.084,-0.648 0.564,-1.008 0.48,-0.372 1.224,-0.372 0.996,0 1.584,0.66 0.588,0.648 0.588,1.788 v 1.932 q 0,1.14 -0.588,1.8 -0.588,0.66 -1.584,0.66 -0.744,0 -1.224,-0.372 -0.48,-0.372 -0.564,-1.008 h -0.036 l 0.024,1.5 v 1.92 z m 2.52,-2.976 q 0.684,0 1.068,-0.36 0.384,-0.36 0.384,-1.164 v -1.92 q 0,-0.816 -0.384,-1.164 -0.384,-0.36 -1.068,-0.36 -0.66,0 -1.056,0.42 -0.384,0.42 -0.384,1.164 v 1.8 q 0,0.744 0.384,1.164 0.396,0.42 1.056,0.42 z m 6.599997,0.936 q -1.02,0 -1.62,-0.564 -0.6,-0.576 -0.6,-1.5 0,-0.612 0.276,-1.068 0.276,-0.456 0.768,-0.708 0.492,-0.264 1.128,-0.264 h 2.04 V -4.5 q 0,-1.284 -1.404,-1.284 -0.624,0 -1.008,0.228 -0.384,0.228 -0.408,0.636 h -1.08 q 0.06,-0.78 0.72,-1.284 0.672,-0.516 1.776,-0.516 1.2,0 1.836,0.576 0.648,0.576 0.648,1.608 V 0 h -1.068 v -1.2 h -0.024 q -0.096,0.612 -0.612,0.972 -0.516,0.348 -1.368,0.348 z m 0.264,-0.912 q 0.792,0 1.26,-0.384 0.468,-0.384 0.468,-1.044 v -0.924 h -1.92 q -0.528,0 -0.864,0.324 -0.324,0.312 -0.324,0.84 0,0.552 0.36,0.876 0.372,0.312 1.02,0.312 z M 37.103985,0 v -6.6 h 1.08 v 2.724 h 2.832 V -6.6 h 1.08 V 0 h -1.08 v -2.892 h -2.832 V 0 Z m 7.199997,0 v -6.6 h 1.08 v 2.724 h 2.832 V -6.6 h 1.08 V 0 h -1.08 v -2.892 h -2.832 V 0 Z m 9.695997,0.096 q -1.188,0 -1.896,-0.696 -0.696,-0.696 -0.696,-1.944 v -1.512 q 0,-1.26 0.696,-1.944 0.696,-0.696 1.896,-0.696 1.2,0 1.896,0.696 0.696,0.684 0.696,1.944 v 1.512 q 0,1.248 -0.708,1.944 -0.696,0.696 -1.884,0.696 z m 0,-0.96 q 0.708,0 1.104,-0.396 0.408,-0.396 0.408,-1.164 v -1.752 q 0,-0.768 -0.408,-1.164 -0.396,-0.396 -1.104,-0.396 -0.696,0 -1.104,0.396 -0.408,0.396 -0.408,1.164 v 1.752 q 0,0.768 0.408,1.164 0.408,0.396 1.104,0.396 z M 58.703976,0 v -6.6 h 1.032 v 3.552 q 0,0.516 -0.024,1.068 -0.012,0.552 -0.108,0.9 l 2.748,-5.52 h 1.344 V 0 h -1.032 v -3.564 q 0,-0.528 0.012,-1.08 0.024,-0.552 0.12,-0.9 L 60.047976,0 Z m 2.496,-7.68 q -0.864,0 -1.392,-0.48 -0.528,-0.48 -0.528,-1.26 h 0.852 q 0,0.468 0.288,0.756 0.288,0.288 0.768,0.288 0.492,0 0.78,-0.288 0.3,-0.288 0.3,-0.756 h 0.852 q 0,0.78 -0.528,1.26 -0.528,0.48 -1.392,0.48 z M 77.879969,1.68 V 0 h -4.776 v -6.6 h 1.08 v 5.64 h 2.676 V -6.6 h 1.08 v 5.64 h 0.9 v 2.64 z m 4.919997,-1.56 q -1.164,0 -1.884,-0.696 -0.708,-0.708 -0.708,-1.944 v -1.56 q 0,-1.236 0.708,-1.932 0.72,-0.708 1.884,-0.708 0.78,0 1.356,0.312 0.588,0.312 0.912,0.876 0.324,0.564 0.324,1.332 v 1.176 h -4.128 V -2.4 q 0,0.732 0.42,1.164 0.42,0.42 1.116,0.42 0.6,0 0.984,-0.228 0.396,-0.24 0.48,-0.636 h 1.08 q -0.108,0.828 -0.804,1.32 -0.696,0.48 -1.74,0.48 z m -1.536,-3.984 h 3.072 V -4.2 q 0,-0.78 -0.408,-1.2 -0.396,-0.432 -1.128,-0.432 -0.732,0 -1.14,0.432 -0.396,0.42 -0.396,1.2 z m 5.435997,3.948 v -1.008 h 0.18 q 0.552,0 0.768,-0.432 0.228,-0.432 0.24,-1.548 l 0.072,-3.696 h 4.536 V 0 h -1.08 v -5.616 h -2.388 l -0.06,2.76 q -0.036,1.572 -0.504,2.256 -0.468,0.684 -1.524,0.684 z M 94.70396,0 v -6.6 h 1.032 v 3.552 q 0,0.516 -0.024,1.068 -0.012,0.552 -0.108,0.9 l 2.748,-5.52 h 1.344 V 0 h -1.032 v -3.564 q 0,-0.528 0.012,-1.08 0.024,-0.552 0.12,-0.9 L 96.04796,0 Z"
       id="text16"
       clip-path="url(#clipPath17)"
       transform="matrix(0.70168096,0,0,0.70168096,61.151485,125.9391)"
       aria-label="выбранной цели" /><path
       id="path18"
       d="m 300,370 v 23.63"
       style="fill:none;stroke:#000000;stroke-width:1;stroke-linecap:butt;stroke-linejoin:miter;stroke-miterlimit:10;stroke-dasharray:none;stroke-opacity:1"
       transform="matrix(0.70168096,0,0,0.70168096,-113.63286,-64.567284)"
       clip-path="url(#clipPath19)" /><path
       id="path20"
       d="m 300,398.88 -3.5,-7 3.5,1.75 3.5,-1.75 z"
       style="fill:#000000;fill-opacity:1;fill-rule:nonzero;stroke:#000000;stroke-width:1;stroke-linecap:butt;stroke-linejoin:miter;stroke-miterlimit:10;stroke-dasharray:none;stroke-opacity:1"
       transform="matrix(0.70168096,0,0,0.70168096,-113.63286,-64.567284)"
       clip-path="url(#clipPath21)" /><path
       id="path22"
       d="m 209,310 h 182 c 0.59091,0 1.17618,0.0577 1.75577,0.17294 0.57956,0.11527 1.14233,0.28598 1.68832,0.51212 0.54596,0.22616 1.06461,0.50339 1.55597,0.83172 0.49136,0.32831 0.94598,0.70139 1.36386,1.11927 0.41785,0.41781 0.79093,0.8724 1.11923,1.36377 0.32834,0.49136 0.60556,1.01001 0.83173,1.556 0.22611,0.54599 0.39682,1.10876 0.51215,1.68835 0.11529,0.57959 0.17294,1.16486 0.17297,1.75583 v 42 c -3e-5,0.59097 -0.0577,1.17624 -0.17297,1.7558 -0.11533,0.57959 -0.28604,1.14236 -0.51221,1.68829 -0.22614,0.54599 -0.50336,1.06467 -0.83167,1.55603 -0.3283,0.49137 -0.70138,0.94596 -1.11923,1.36383 -0.41788,0.41785 -0.8725,0.79093 -1.36386,1.11923 -0.49136,0.32831 -1.01001,0.60553 -1.55597,0.8317 -0.54599,0.22617 -1.10876,0.39688 -1.68832,0.51215 C 392.17618,369.94232 391.59091,369.99997 391,370 H 209 c -0.59096,-3e-5 -1.17624,-0.0577 -1.75584,-0.17297 -0.57959,-0.11527 -1.14237,-0.28598 -1.68833,-0.51212 -0.54596,-0.22616 -1.06462,-0.50342 -1.55597,-0.83173 -0.49135,-0.3283 -0.94597,-0.70138 -1.36383,-1.11923 -0.41788,-0.41787 -0.79097,-0.87246 -1.11928,-1.36383 -0.32832,-0.49136 -0.60554,-1.01004 -0.83169,-1.55603 -0.22615,-0.54593 -0.39687,-1.1087 -0.51215,-1.68829 C 200.05763,362.17624 199.99998,361.59097 200,361 v -42 c -2e-5,-0.59097 0.0576,-1.17624 0.17291,-1.75583 0.11528,-0.57959 0.286,-1.14236 0.51215,-1.68835 0.22615,-0.54599 0.50337,-1.06464 0.83169,-1.55597 0.32831,-0.49137 0.7014,-0.94599 1.11928,-1.3638 0.41786,-0.41788 0.87248,-0.79096 1.36383,-1.11927 0.49135,-0.32833 1.01001,-0.60556 1.55597,-0.83172 0.54596,-0.22614 1.10874,-0.39685 1.68833,-0.51212 C 207.82376,310.05765 208.40904,310 209,310 Z"
       style="fill:#ffffff;fill-opacity:1;fill-rule:nonzero;stroke:#000000;stroke-width:1;stroke-linecap:butt;stroke-linejoin:miter;stroke-miterlimit:10;stroke-dasharray:none;stroke-opacity:1"
       transform="matrix(0.70168096,0,0,0.70168096,-113.63286,-64.567284)"
       clip-path="url(#clipPath23)" /><path
       style="font-size:12px;font-family:'JetBrains Mono'"
       d="m 1.08,0 v -8.76 h 1.044 v 4.92 q 0,0.432 -0.024,0.924 -0.012,0.48 -0.036,0.924 Q 2.04,-1.56 2.016,-1.26 L 4.68,-8.76 H 6.12 V 0 H 5.076 v -4.92 q 0,-0.444 0.012,-0.924 0.024,-0.492 0.048,-0.924 0.036,-0.444 0.06,-0.732 L 2.52,0 Z m 7.2239969,0 v -6.6 h 1.08 v 2.724 H 12.215997 V -6.6 h 1.08 V 0 h -1.08 V -2.892 H 9.3839969 V 0 Z m 9.1559971,0 v -5.616 h -2.4 V -6.6 h 5.88 v 0.984 h -2.4 V 0 Z m 7.739997,0.12 q -1.164,0 -1.884,-0.696 -0.708,-0.708 -0.708,-1.944 v -1.56 q 0,-1.236 0.708,-1.932 0.72,-0.708 1.884,-0.708 0.78,0 1.356,0.312 0.588,0.312 0.912,0.876 0.324,0.564 0.324,1.332 v 1.176 h -4.128 V -2.4 q 0,0.732 0.42,1.164 0.42,0.42 1.116,0.42 0.6,0 0.984,-0.228 0.396,-0.24 0.48,-0.636 h 1.08 q -0.108,0.828 -0.804,1.32 -0.696,0.48 -1.74,0.48 z m -1.536,-3.984 h 3.072 V -4.2 q 0,-0.78 -0.408,-1.2 -0.396,-0.432 -1.128,-0.432 -0.732,0 -1.14,0.432 -0.396,0.42 -0.396,1.2 z M 29.903988,2.16 V -6.6 h 1.08 v 1.26 h 0.012 q 0.084,-0.648 0.564,-1.008 0.48,-0.372 1.224,-0.372 0.996,0 1.584,0.66 0.588,0.648 0.588,1.788 v 1.932 q 0,1.14 -0.588,1.8 -0.588,0.66 -1.584,0.66 -0.744,0 -1.224,-0.372 -0.48,-0.372 -0.564,-1.008 h -0.036 l 0.024,1.5 v 1.92 z m 2.52,-2.976 q 0.684,0 1.068,-0.36 0.384,-0.36 0.384,-1.164 v -1.92 q 0,-0.816 -0.384,-1.164 -0.384,-0.36 -1.068,-0.36 -0.66,0 -1.056,0.42 -0.384,0.42 -0.384,1.164 v 1.8 q 0,0.744 0.384,1.164 0.396,0.42 1.056,0.42 z M 37.103985,0 v -6.6 h 4.992 V 0 h -1.08 v -5.616 h -2.832 V 0 Z m 9.695997,0.096 q -1.188,0 -1.896,-0.696 -0.696,-0.696 -0.696,-1.944 v -1.512 q 0,-1.26 0.696,-1.944 0.696,-0.696 1.896,-0.696 1.2,0 1.896,0.696 0.696,0.684 0.696,1.944 v 1.512 q 0,1.248 -0.708,1.944 -0.696,0.696 -1.884,0.696 z m 0,-0.96 q 0.708,0 1.104,-0.396 0.408,-0.396 0.408,-1.164 v -1.752 q 0,-0.768 -0.408,-1.164 -0.396,-0.396 -1.104,-0.396 -0.696,0 -1.104,0.396 -0.408,0.396 -0.408,1.164 v 1.752 q 0,0.768 0.408,1.164 0.408,0.396 1.104,0.396 z m 3.899997,0.948 v -1.008 h 0.18 q 0.552,0 0.768,-0.432 0.228,-0.432 0.24,-1.548 l 0.072,-3.696 h 4.536 V 0 h -1.08 v -5.616 h -2.388 l -0.06,2.76 q -0.036,1.572 -0.504,2.256 -0.468,0.684 -1.524,0.684 z M 58.355976,0 l 1.692,-2.568 q -0.696,-0.168 -1.116,-0.696 -0.42,-0.54 -0.42,-1.272 0,-0.96 0.648,-1.512 0.648,-0.552 1.752,-0.552 h 2.784 V 0 h -1.08 v -2.496 h -1.392 l -1.56,2.496 z m 2.556,-3.432 h 1.704 v -2.22 h -1.704 q -0.588,0 -0.948,0.3 -0.348,0.288 -0.348,0.816 0,0.516 0.348,0.816 0.36,0.288 0.948,0.288 z M 70.679973,1.68 V 0 h -4.776 v -6.6 h 1.08 v 5.64 h 2.676 V -6.6 h 1.08 v 5.64 h 0.9 V 1.68 Z M 73.103969,0 v -6.6 h 1.032 v 3.552 q 0,0.516 -0.024,1.068 -0.012,0.552 -0.108,0.9 l 2.748,-5.52 h 1.344 V 0 h -1.032 v -3.564 q 0,-0.528 0.012,-1.08 0.024,-0.552 0.12,-0.9 L 74.447969,0 Z m 6.851997,0 1.692,-2.568 q -0.696,-0.168 -1.116,-0.696 -0.42,-0.54 -0.42,-1.272 0,-0.96 0.648,-1.512 0.648,-0.552 1.752,-0.552 h 2.784 V 0 h -1.08 v -2.496 h -1.392 l -1.56,2.496 z m 2.556,-3.432 h 1.704 v -2.22 h -1.704 q -0.588,0 -0.948,0.3 -0.348,0.288 -0.348,0.816 0,0.516 0.348,0.816 0.36,0.288 0.948,0.288 z M 94.70396,0 v -6.6 h 4.992 V 0 h -1.08 v -5.616 h -2.832 V 0 Z m 8.232,2.16 0.972,-2.568 -2.46,-6.192 h 1.164 l 1.56,4.08 q 0.096,0.24 0.18,0.504 0.084,0.264 0.12,0.456 0.036,-0.192 0.12,-0.456 0.084,-0.264 0.168,-0.504 l 1.452,-4.08 h 1.14 l -3.288,8.76 z M 111.05995,0 v -5.616 h -2.4 V -6.6 h 5.88 v 0.984 h -2.4 V 0 Z m 7.74,0.12 q -1.164,0 -1.884,-0.696 -0.708,-0.708 -0.708,-1.944 v -1.56 q 0,-1.236 0.708,-1.932 0.72,-0.708 1.884,-0.708 0.78,0 1.356,0.312 0.588,0.312 0.912,0.876 0.324,0.564 0.324,1.332 v 1.176 h -4.128 V -2.4 q 0,0.732 0.42,1.164 0.42,0.42 1.116,0.42 0.6,0 0.984,-0.228 0.396,-0.24 0.48,-0.636 h 1.08 q -0.108,0.828 -0.804,1.32 -0.696,0.48 -1.74,0.48 z m -1.536,-3.984 h 3.072 V -4.2 q 0,-0.78 -0.408,-1.2 -0.396,-0.432 -1.128,-0.432 -0.732,0 -1.14,0.432 -0.396,0.42 -0.396,1.2 z m 2.868,-3.924 q -0.348,0 -0.564,-0.204 -0.204,-0.204 -0.204,-0.552 0,-0.36 0.204,-0.564 0.216,-0.216 0.564,-0.216 0.348,0 0.552,0.216 0.216,0.204 0.216,0.564 0,0.348 -0.216,0.552 -0.204,0.204 -0.552,0.204 z m -2.664,0 q -0.348,0 -0.564,-0.204 -0.204,-0.204 -0.204,-0.552 0,-0.36 0.204,-0.564 0.216,-0.216 0.564,-0.216 0.348,0 0.552,0.216 0.216,0.204 0.216,0.564 0,0.348 -0.216,0.552 -0.204,0.204 -0.552,0.204 z m 5.796,7.788 v -6.6 h 1.416 l 1.296,3.228 1.308,-3.228 h 1.452 V 0 h -1.032 v -1.02 q 0,-1.716 0.012,-2.964 0.024,-1.248 0.144,-2.088 l -1.404,3.492 h -0.984 l -1.32,-3.3 q 0.108,0.744 0.12,1.896 0.024,1.152 0.024,2.964 V 0 Z"
       id="text23"
       clip-path="url(#clipPath24)"
       transform="matrix(0.70168096,0,0,0.70168096,51.042894,166.6366)"
       aria-label="Интерполяция путём" /><path
       style="font-size:12px;font-family:'JetBrains Mono'"
       d="m 0.324,1.68 v -2.64 h 0.504 q 0.156,-0.144 0.3,-0.432 0.156,-0.3 0.264,-0.828 0.108,-0.528 0.12,-1.392 L 1.56,-6.6 h 4.38 v 5.64 h 0.9 V 1.68 H 5.88 V 0 H 1.284 V 1.68 Z M 1.908,-0.96 H 4.86 V -5.664 H 2.58 l -0.024,2.076 q -0.012,0.852 -0.108,1.38 -0.096,0.528 -0.24,0.828 -0.132,0.288 -0.3,0.42 z m 8.891997,1.056 q -1.1880001,0 -1.8960001,-0.696 -0.696,-0.696 -0.696,-1.944 v -1.512 q 0,-1.26 0.696,-1.944 0.696,-0.696 1.8960001,-0.696 1.2,0 1.896,0.696 0.696,0.684 0.696,1.944 v 1.512 q 0,1.248 -0.708,1.944 -0.696,0.696 -1.884,0.696 z m 0,-0.96 q 0.708,0 1.104,-0.396 0.408,-0.396 0.408,-1.164 v -1.752 q 0,-0.768 -0.408,-1.164 -0.396,-0.396 -1.104,-0.396 -0.696,0 -1.1040001,0.396 -0.408,0.396 -0.408,1.164 v 1.752 q 0,0.768 0.408,1.164 0.4080001,0.396 1.1040001,0.396 z m 7.199997,0.984 q -1.188,0 -1.884,-0.696 -0.684,-0.696 -0.684,-1.884 v -3.036 q 0,-1.452 0.648,-2.256 0.66,-0.804 1.932,-0.924 l 2.184,-0.204 v 1.068 l -2.016,0.18 q -1.848,0.168 -1.848,2.136 v 0.54 q 0.144,-0.576 0.624,-0.9 0.492,-0.336 1.236,-0.336 1.14,0 1.752,0.696 0.624,0.696 0.624,1.86 v 1.176 q 0,1.188 -0.696,1.884 -0.684,0.696 -1.872,0.696 z m 0,-0.96 q 0.696,0 1.092,-0.432 0.396,-0.444 0.396,-1.188 v -1.176 q 0,-0.744 -0.396,-1.176 -0.396,-0.444 -1.092,-0.444 -0.696,0 -1.092,0.444 -0.396,0.432 -0.396,1.176 v 1.176 q 0,0.744 0.396,1.188 0.396,0.432 1.092,0.432 z m 6.623997,0.96 q -1.02,0 -1.62,-0.564 -0.6,-0.576 -0.6,-1.5 0,-0.612 0.276,-1.068 0.276,-0.456 0.768,-0.708 0.492,-0.264 1.128,-0.264 h 2.04 V -4.5 q 0,-1.284 -1.404,-1.284 -0.624,0 -1.008,0.228 -0.384,0.228 -0.408,0.636 h -1.08 q 0.06,-0.78 0.72,-1.284 0.672,-0.516 1.776,-0.516 1.2,0 1.836,0.576 0.648,0.576 0.648,1.608 V 0 h -1.068 v -1.2 h -0.024 q -0.096,0.612 -0.612,0.972 -0.516,0.348 -1.368,0.348 z m 0.264,-0.912 q 0.792,0 1.26,-0.384 0.468,-0.384 0.468,-1.044 v -0.924 h -1.92 q -0.528,0 -0.864,0.324 -0.324,0.312 -0.324,0.84 0,0.552 0.36,0.876 0.372,0.312 1.02,0.312 z M 29.903988,0 v -6.6 h 2.892 q 0.996,0 1.572,0.444 0.576,0.444 0.576,1.212 0,0.552 -0.384,0.936 -0.372,0.372 -0.972,0.42 v 0.048 q 0.72,0.048 1.116,0.504 0.396,0.456 0.396,1.176 0,0.852 -0.612,1.356 -0.612,0.504 -1.656,0.504 z m 1.056,-3.84 h 1.836 q 0.504,0 0.792,-0.24 0.288,-0.24 0.288,-0.672 0,-0.42 -0.288,-0.66 -0.288,-0.24 -0.792,-0.24 h -1.836 z m 0,2.892 h 1.872 q 0.564,0 0.876,-0.264 0.324,-0.264 0.324,-0.744 0,-0.468 -0.324,-0.732 -0.312,-0.264 -0.876,-0.264 h -1.872 z m 5.339997,1.032 v -1.008 h 0.18 q 0.552,0 0.768,-0.432 0.228,-0.432 0.24,-1.548 l 0.072,-3.696 h 4.536 V 0 h -1.08 v -5.616 h -2.388 l -0.06,2.76 q -0.036,1.572 -0.504,2.256 -0.468,0.684 -1.524,0.684 z M 46.799982,0.12 q -1.164,0 -1.884,-0.696 -0.708,-0.708 -0.708,-1.944 v -1.56 q 0,-1.236 0.708,-1.932 0.72,-0.708 1.884,-0.708 0.78,0 1.356,0.312 0.588,0.312 0.912,0.876 0.324,0.564 0.324,1.332 v 1.176 h -4.128 V -2.4 q 0,0.732 0.42,1.164 0.42,0.42 1.116,0.42 0.6,0 0.984,-0.228 0.396,-0.24 0.48,-0.636 h 1.08 q -0.108,0.828 -0.804,1.32 -0.696,0.48 -1.74,0.48 z m -1.536,-3.984 h 3.072 V -4.2 q 0,-0.78 -0.408,-1.2 -0.396,-0.432 -1.128,-0.432 -0.732,0 -1.14,0.432 -0.396,0.42 -0.396,1.2 z M 51.503979,0 v -6.6 h 1.08 v 2.724 h 2.832 V -6.6 h 1.08 V 0 h -1.08 v -2.892 h -2.832 V 0 Z m 7.199997,0 v -6.6 h 1.032 v 3.552 q 0,0.516 -0.024,1.068 -0.012,0.552 -0.108,0.9 l 2.748,-5.52 h 1.344 V 0 h -1.032 v -3.564 q 0,-0.528 0.012,-1.08 0.024,-0.552 0.12,-0.9 L 60.047976,0 Z m 6.851997,0 1.692,-2.568 q -0.696,-0.168 -1.116,-0.696 -0.42,-0.54 -0.42,-1.272 0,-0.96 0.648,-1.512 0.648,-0.552 1.752,-0.552 h 2.784 V 0 h -1.08 v -2.496 h -1.392 l -1.56,2.496 z m 2.556,-3.432 h 1.704 v -2.22 h -1.704 q -0.588,0 -0.948,0.3 -0.348,0.288 -0.348,0.816 0,0.516 0.348,0.816 0.36,0.288 0.948,0.288 z M 80.303966,0 v -6.6 h 1.08 v 2.724 h 2.832 V -6.6 h 1.08 V 0 h -1.08 v -2.892 h -2.832 V 0 Z m 8.231997,2.16 0.972,-2.568 -2.46,-6.192 h 1.164 l 1.56,4.08 q 0.096,0.24 0.18,0.504 0.084,0.264 0.12,0.456 0.036,-0.192 0.12,-0.456 0.084,-0.264 0.168,-0.504 l 1.452,-4.08 h 1.14 l -3.288,8.76 z M 93.89996,0.084 v -1.008 h 0.18 q 0.552,0 0.768,-0.432 0.228,-0.432 0.24,-1.548 l 0.072,-3.696 h 4.536 V 0 h -1.08 v -5.616 h -2.388 l -0.06,2.76 q -0.036,1.572 -0.504,2.256 -0.468,0.684 -1.524,0.684 z m 10.5,0.036 q -1.164,0 -1.884,-0.696 -0.708,-0.708 -0.708,-1.944 v -1.56 q 0,-1.236 0.708,-1.932 0.72,-0.708 1.884,-0.708 0.78,0 1.356,0.312 0.588,0.312 0.912,0.876 0.324,0.564 0.324,1.332 v 1.176 h -4.128 V -2.4 q 0,0.732 0.42,1.164 0.42,0.42 1.116,0.42 0.6,0 0.984,-0.228 0.396,-0.24 0.48,-0.636 h 1.08 q -0.108,0.828 -0.804,1.32 -0.696,0.48 -1.74,0.48 z m -1.536,-3.984 h 3.072 V -4.2 q 0,-0.78 -0.408,-1.2 -0.396,-0.432 -1.128,-0.432 -0.732,0 -1.14,0.432 -0.396,0.42 -0.396,1.2 z M 109.10395,0 v -6.6 h 1.032 v 3.552 q 0,0.516 -0.024,1.068 -0.012,0.552 -0.108,0.9 l 2.748,-5.52 h 1.344 V 0 h -1.032 v -3.564 q 0,-0.528 0.012,-1.08 0.024,-0.552 0.12,-0.9 L 110.44795,0 Z m 2.496,-7.68 q -0.864,0 -1.392,-0.48 -0.528,-0.48 -0.528,-1.26 h 0.852 q 0,0.468 0.288,0.756 0.288,0.288 0.768,0.288 0.492,0 0.78,-0.288 0.3,-0.288 0.3,-0.756 h 0.852 q 0,0.78 -0.528,1.26 -0.528,0.48 -1.392,0.48 z m 11.904,7.68 v -6.6 h 2.892 q 0.996,0 1.572,0.444 0.576,0.444 0.576,1.212 0,0.552 -0.384,0.936 -0.372,0.372 -0.972,0.42 v 0.048 q 0.72,0.048 1.116,0.504 0.396,0.456 0.396,1.176 0,0.852 -0.612,1.356 -0.612,0.504 -1.656,0.504 z m 1.056,-3.84 h 1.836 q 0.504,0 0.792,-0.24 0.288,-0.24 0.288,-0.672 0,-0.42 -0.288,-0.66 -0.288,-0.24 -0.792,-0.24 h -1.836 z m 0,2.892 h 1.872 q 0.564,0 0.876,-0.264 0.324,-0.264 0.324,-0.744 0,-0.468 -0.324,-0.732 -0.312,-0.264 -0.876,-0.264 h -1.872 z"
       id="text24"
       clip-path="url(#clipPath25)"
       transform="matrix(0.70168096,0,0,0.70168096,51.042894,176.46013)"
       aria-label="добавления нулей в" /><path
       style="font-size:12px;font-family:'JetBrains Mono'"
       d="M 4.92,0 V -2.292 H 3.156 q -1.02,0 -1.62,-0.54 -0.6,-0.54 -0.6,-1.452 V -6.6 h 1.08 v 2.316 q 0,0.468 0.312,0.744 0.324,0.276 0.864,0.276 H 4.92 V -6.6 H 6 V 0 Z m 5.303997,0.12 q -1.0200001,0 -1.6200001,-0.564 -0.6,-0.576 -0.6,-1.5 0,-0.612 0.276,-1.068 0.276,-0.456 0.768,-0.708 0.492,-0.264 1.1280001,-0.264 h 2.04 V -4.5 q 0,-1.284 -1.404,-1.284 -0.624,0 -1.0080001,0.228 -0.384,0.228 -0.408,0.636 h -1.08 q 0.06,-0.78 0.72,-1.284 0.672,-0.516 1.7760001,-0.516 1.2,0 1.836,0.576 0.648,0.576 0.648,1.608 V 0 h -1.068 v -1.2 h -0.024 q -0.096,0.612 -0.612,0.972 -0.516,0.348 -1.368,0.348 z m 0.264,-0.912 q 0.792,0 1.26,-0.384 0.468,-0.384 0.468,-1.044 v -0.924 h -1.92 q -0.5280001,0 -0.8640001,0.324 -0.324,0.312 -0.324,0.84 0,0.552 0.36,0.876 0.372,0.312 1.0200001,0.312 z m 7.607997,0.912 q -1.2,0 -1.92,-0.672 -0.72,-0.672 -0.72,-1.848 v -1.8 q 0,-1.176 0.72,-1.848 0.72,-0.672 1.92,-0.672 1.14,0 1.836,0.612 0.708,0.612 0.744,1.668 h -1.08 q -0.036,-0.636 -0.432,-0.972 -0.396,-0.348 -1.068,-0.348 -0.708,0 -1.14,0.408 -0.42,0.396 -0.42,1.14 V -2.4 q 0,0.744 0.42,1.152 0.432,0.408 1.14,0.408 0.672,0 1.068,-0.348 0.396,-0.348 0.432,-0.972 h 1.08 q -0.036,1.056 -0.744,1.668 -0.696,0.612 -1.836,0.612 z M 24.659991,0 v -5.616 h -2.4 V -6.6 h 5.88 v 0.984 h -2.4 V 0 Z m 7.739997,0.096 q -1.188,0 -1.896,-0.696 -0.696,-0.696 -0.696,-1.944 v -1.512 q 0,-1.26 0.696,-1.944 0.696,-0.696 1.896,-0.696 1.2,0 1.896,0.696 0.696,0.684 0.696,1.944 v 1.512 q 0,1.248 -0.708,1.944 -0.696,0.696 -1.884,0.696 z m 0,-0.96 q 0.708,0 1.104,-0.396 0.408,-0.396 0.408,-1.164 v -1.752 q 0,-0.768 -0.408,-1.164 -0.396,-0.396 -1.104,-0.396 -0.696,0 -1.104,0.396 -0.408,0.396 -0.408,1.164 v 1.752 q 0,0.768 0.408,1.164 0.408,0.396 1.104,0.396 z M 39.059985,0 v -5.616 h -2.4 V -6.6 h 5.88 v 0.984 h -2.4 V 0 Z m 5.243997,0 v -6.6 h 1.08 v 2.724 h 2.832 V -6.6 h 1.08 V 0 h -1.08 v -2.892 h -2.832 V 0 Z m 9.695997,0.096 q -1.188,0 -1.896,-0.696 -0.696,-0.696 -0.696,-1.944 v -1.512 q 0,-1.26 0.696,-1.944 0.696,-0.696 1.896,-0.696 1.2,0 1.896,0.696 0.696,0.684 0.696,1.944 v 1.512 q 0,1.248 -0.708,1.944 -0.696,0.696 -1.884,0.696 z m 0,-0.96 q 0.708,0 1.104,-0.396 0.408,-0.396 0.408,-1.164 v -1.752 q 0,-0.768 -0.408,-1.164 -0.396,-0.396 -1.104,-0.396 -0.696,0 -1.104,0.396 -0.408,0.396 -0.408,1.164 v 1.752 q 0,0.768 0.408,1.164 0.408,0.396 1.104,0.396 z M 58.703976,0 v -6.6 h 1.032 v 3.552 q 0,0.516 -0.024,1.068 -0.012,0.552 -0.108,0.9 l 2.748,-5.52 h 1.344 V 0 h -1.032 v -3.564 q 0,-0.528 0.012,-1.08 0.024,-0.552 0.12,-0.9 L 60.047976,0 Z m 2.496,-7.68 q -0.864,0 -1.392,-0.48 -0.528,-0.48 -0.528,-1.26 h 0.852 q 0,0.468 0.288,0.756 0.288,0.288 0.768,0.288 0.492,0 0.78,-0.288 0.3,-0.288 0.3,-0.756 h 0.852 q 0,0.78 -0.528,1.26 -0.528,0.48 -1.392,0.48 z m 14.399993,7.776 q -1.188,0 -1.896,-0.696 -0.696,-0.696 -0.696,-1.944 v -1.512 q 0,-1.26 0.696,-1.944 0.696,-0.696 1.896,-0.696 1.2,0 1.896,0.696 0.696,0.684 0.696,1.944 v 1.512 q 0,1.248 -0.708,1.944 -0.696,0.696 -1.884,0.696 z m 0,-0.96 q 0.708,0 1.104,-0.396 0.408,-0.396 0.408,-1.164 v -1.752 q 0,-0.768 -0.408,-1.164 -0.396,-0.396 -1.104,-0.396 -0.696,0 -1.104,0.396 -0.408,0.396 -0.408,1.164 v 1.752 q 0,0.768 0.408,1.164 0.408,0.396 1.104,0.396 z m 7.199997,0.984 q -1.188,0 -1.884,-0.696 -0.684,-0.696 -0.684,-1.884 v -3.036 q 0,-1.452 0.648,-2.256 0.66,-0.804 1.932,-0.924 l 2.184,-0.204 v 1.068 l -2.016,0.18 q -1.848,0.168 -1.848,2.136 v 0.54 q 0.144,-0.576 0.624,-0.9 0.492,-0.336 1.236,-0.336 1.14,0 1.752,0.696 0.624,0.696 0.624,1.86 v 1.176 q 0,1.188 -0.696,1.884 -0.684,0.696 -1.872,0.696 z m 0,-0.96 q 0.696,0 1.092,-0.432 0.396,-0.444 0.396,-1.188 v -1.176 q 0,-0.744 -0.396,-1.176 -0.396,-0.444 -1.092,-0.444 -0.696,0 -1.092,0.444 -0.396,0.432 -0.396,1.176 v 1.176 q 0,0.744 0.396,1.188 0.396,0.432 1.092,0.432 z m 3.899997,0.924 v -1.008 h 0.18 q 0.552,0 0.768,-0.432 0.228,-0.432 0.24,-1.548 l 0.072,-3.696 h 4.536 V 0 h -1.08 v -5.616 h -2.388 l -0.06,2.76 q -0.036,1.572 -0.504,2.256 -0.468,0.684 -1.524,0.684 z M 96.62396,0.12 q -1.02,0 -1.62,-0.564 -0.6,-0.576 -0.6,-1.5 0,-0.612 0.276,-1.068 0.276,-0.456 0.768,-0.708 0.492,-0.264 1.128,-0.264 h 2.04 V -4.5 q 0,-1.284 -1.404,-1.284 -0.624,0 -1.008,0.228 -0.384,0.228 -0.408,0.636 h -1.08 q 0.06,-0.78 0.72,-1.284 0.672,-0.516 1.776,-0.516 1.2,0 1.836,0.576 0.648,0.576 0.648,1.608 V 0 h -1.068 v -1.2 h -0.024 q -0.096,0.612 -0.612,0.972 -0.516,0.348 -1.368,0.348 z m 0.264,-0.912 q 0.792,0 1.26,-0.384 0.468,-0.384 0.468,-1.044 v -0.924 h -1.92 q -0.528,0 -0.864,0.324 -0.324,0.312 -0.324,0.84 0,0.552 0.36,0.876 0.372,0.312 1.02,0.312 z m 7.608,0.912 q -1.2,0 -1.92,-0.672 -0.72,-0.672 -0.72,-1.848 v -1.8 q 0,-1.176 0.72,-1.848 0.72,-0.672 1.92,-0.672 1.14,0 1.836,0.612 0.708,0.612 0.744,1.668 h -1.08 q -0.036,-0.636 -0.432,-0.972 -0.396,-0.348 -1.068,-0.348 -0.708,0 -1.14,0.408 -0.42,0.396 -0.42,1.14 V -2.4 q 0,0.744 0.42,1.152 0.432,0.408 1.14,0.408 0.672,0 1.068,-0.348 0.396,-0.348 0.432,-0.972 h 1.08 q -0.036,1.056 -0.744,1.668 -0.696,0.612 -1.836,0.612 z M 111.05995,0 v -5.616 h -2.4 V -6.6 h 5.88 v 0.984 h -2.4 V 0 Z m 5.244,0 v -6.6 h 1.032 v 3.552 q 0,0.516 -0.024,1.068 -0.012,0.552 -0.108,0.9 l 2.748,-5.52 h 1.344 V 0 h -1.032 v -3.564 q 0,-0.528 0.012,-1.08 0.024,-0.552 0.12,-0.9 L 117.64795,0 Z"
       id="text25"
       clip-path="url(#clipPath26)"
       transform="matrix(0.70168096,0,0,0.70168096,53.575527,186.98534)"
       aria-label="частотной области" /><path
       id="path27"
       d="m 300,440 v 33.63"
       style="fill:none;stroke:#000000;stroke-width:1;stroke-linecap:butt;stroke-linejoin:miter;stroke-miterlimit:10;stroke-dasharray:none;stroke-opacity:1"
       transform="matrix(0.70168096,0,0,0.70168096,-113.63286,-64.567284)"
       clip-path="url(#clipPath28)" /><path
       id="path29"
       d="m 300,478.88 -3.5,-7 3.5,1.75 3.5,-1.75 z"
       style="fill:#000000;fill-opacity:1;fill-rule:nonzero;stroke:#000000;stroke-width:1;stroke-linecap:butt;stroke-linejoin:miter;stroke-miterlimit:10;stroke-dasharray:none;stroke-opacity:1"
       transform="matrix(0.70168096,0,0,0.70168096,-113.63286,-64.567284)"
       clip-path="url(#clipPath30)" /><path
       id="path31"
       d="m 206,400 h 188 c 0.79562,0 1.56097,0.15222 2.29605,0.4567 0.73508,0.30447 1.38394,0.738 1.94656,1.30062 0.5626,0.5626 0.99613,1.21143 1.3006,1.94651 0.30448,0.73507 0.45676,1.50049 0.45679,2.29617 v 28 c -3e-5,0.79562 -0.15231,1.56094 -0.45679,2.29602 -0.30447,0.73508 -0.738,1.38394 -1.3006,1.94656 -0.56262,0.5626 -1.21148,0.99616 -1.94656,1.30066 C 395.56097,439.84772 394.79562,439.99997 394,440 H 206 c -0.79567,-3e-5 -1.56104,-0.15231 -2.29613,-0.45679 -0.73509,-0.30447 -1.38392,-0.73803 -1.94653,-1.30063 -0.56262,-0.56262 -0.99617,-1.21145 -1.30064,-1.94653 C 200.15221,435.56097 199.99998,434.79562 200,434 v -28 c -2e-5,-0.79568 0.15221,-1.5611 0.45668,-2.29617 0.30449,-0.73508 0.73804,-1.38391 1.30066,-1.94651 0.56261,-0.56262 1.21146,-0.99615 1.94655,-1.30062 C 204.43896,400.15222 205.20433,400 206,400 Z"
       style="fill:#ffffff;fill-opacity:1;fill-rule:nonzero;stroke:#000000;stroke-width:1;stroke-linecap:butt;stroke-linejoin:miter;stroke-miterlimit:10;stroke-dasharray:none;stroke-opacity:1"
       transform="matrix(0.70168096,0,0,0.70168096,-113.63286,-64.567284)"
       clip-path="url(#clipPath32)" /><path
       style="font-size:12px;font-family:'JetBrains Mono'"
       d="M 3.696,0.12 Q 2.496,0.12 1.8,-0.552 1.104,-1.224 1.104,-2.4 v -3.96 q 0,-1.176 0.696,-1.848 0.696,-0.672 1.896,-0.672 1.176,0 1.872,0.684 0.696,0.672 0.696,1.836 h -1.08 q 0,-0.744 -0.396,-1.14 -0.384,-0.408 -1.092,-0.408 -0.708,0 -1.116,0.408 -0.396,0.396 -0.396,1.14 v 3.96 q 0,0.744 0.396,1.152 0.408,0.396 1.116,0.396 0.708,0 1.092,-0.396 0.396,-0.408 0.396,-1.152 h 1.08 q 0,1.164 -0.696,1.848 Q 4.872,0.12 3.696,0.12 Z m 7.103997,0 q -1.1640001,0 -1.8840001,-0.696 -0.708,-0.708 -0.708,-1.944 v -1.56 q 0,-1.236 0.708,-1.932 0.72,-0.708 1.8840001,-0.708 0.78,0 1.356,0.312 0.588,0.312 0.912,0.876 0.324,0.564 0.324,1.332 v 1.176 H 9.2639969 V -2.4 q 0,0.732 0.42,1.164 0.4200001,0.42 1.1160001,0.42 0.6,0 0.984,-0.228 0.396,-0.24 0.48,-0.636 h 1.08 q -0.108,0.828 -0.804,1.32 -0.696,0.48 -1.74,0.48 z M 9.2639969,-3.864 H 12.335997 V -4.2 q 0,-0.78 -0.408,-1.2 -0.396,-0.432 -1.128,-0.432 -0.732,0 -1.1400001,0.432 -0.396,0.42 -0.396,1.2 z M 19.319994,0 v -2.292 h -1.764 q -1.02,0 -1.62,-0.54 -0.6,-0.54 -0.6,-1.452 V -6.6 h 1.08 v 2.316 q 0,0.468 0.312,0.744 0.324,0.276 0.864,0.276 h 1.728 V -6.6 h 1.08 V 0 Z m 5.879997,0.12 q -1.164,0 -1.884,-0.696 -0.708,-0.708 -0.708,-1.944 v -1.56 q 0,-1.236 0.708,-1.932 0.72,-0.708 1.884,-0.708 0.78,0 1.356,0.312 0.588,0.312 0.912,0.876 0.324,0.564 0.324,1.332 v 1.176 h -4.128 V -2.4 q 0,0.732 0.42,1.164 0.42,0.42 1.116,0.42 0.6,0 0.984,-0.228 0.396,-0.24 0.48,-0.636 h 1.08 q -0.108,0.828 -0.804,1.32 -0.696,0.48 -1.74,0.48 z m -1.536,-3.984 h 3.072 V -4.2 q 0,-0.78 -0.408,-1.2 -0.396,-0.432 -1.128,-0.432 -0.732,0 -1.14,0.432 -0.396,0.42 -0.396,1.2 z M 29.903988,0 v -6.6 h 1.08 v 2.724 h 2.832 V -6.6 h 1.08 V 0 h -1.08 v -2.892 h -2.832 V 0 Z m 7.199997,0 v -6.6 h 1.032 v 3.552 q 0,0.516 -0.024,1.068 -0.012,0.552 -0.108,0.9 l 2.748,-5.52 h 1.344 V 0 h -1.032 v -3.564 q 0,-0.528 0.012,-1.08 0.024,-0.552 0.12,-0.9 L 38.447985,0 Z m 9.695997,0.12 q -1.164,0 -1.884,-0.696 -0.708,-0.708 -0.708,-1.944 v -1.56 q 0,-1.236 0.708,-1.932 0.72,-0.708 1.884,-0.708 0.78,0 1.356,0.312 0.588,0.312 0.912,0.876 0.324,0.564 0.324,1.332 v 1.176 h -4.128 V -2.4 q 0,0.732 0.42,1.164 0.42,0.42 1.116,0.42 0.6,0 0.984,-0.228 0.396,-0.24 0.48,-0.636 h 1.08 q -0.108,0.828 -0.804,1.32 -0.696,0.48 -1.74,0.48 z m -1.536,-3.984 h 3.072 V -4.2 q 0,-0.78 -0.408,-1.2 -0.396,-0.432 -1.128,-0.432 -0.732,0 -1.14,0.432 -0.396,0.42 -0.396,1.2 z M 58.703976,0 v -6.6 h 4.992 V 0 h -1.08 v -5.616 h -2.832 V 0 Z m 9.695997,0.096 q -1.188,0 -1.896,-0.696 -0.696,-0.696 -0.696,-1.944 v -1.512 q 0,-1.26 0.696,-1.944 0.696,-0.696 1.896,-0.696 1.2,0 1.896,0.696 0.696,0.684 0.696,1.944 v 1.512 q 0,1.248 -0.708,1.944 -0.696,0.696 -1.884,0.696 z m 0,-0.96 q 0.708,0 1.104,-0.396 0.408,-0.396 0.408,-1.164 v -1.752 q 0,-0.768 -0.408,-1.164 -0.396,-0.396 -1.104,-0.396 -0.696,0 -1.104,0.396 -0.408,0.396 -0.408,1.164 v 1.752 q 0,0.768 0.408,1.164 0.408,0.396 1.104,0.396 z M 73.103969,2.16 V -6.6 h 1.08 v 1.26 h 0.012 q 0.084,-0.648 0.564,-1.008 0.48,-0.372 1.224,-0.372 0.996,0 1.584,0.66 0.588,0.648 0.588,1.788 v 1.932 q 0,1.14 -0.588,1.8 -0.588,0.66 -1.584,0.66 -0.744,0 -1.224,-0.372 -0.48,-0.372 -0.564,-1.008 h -0.036 l 0.024,1.5 v 1.92 z m 2.52,-2.976 q 0.684,0 1.068,-0.36 0.384,-0.36 0.384,-1.164 v -1.92 q 0,-0.816 -0.384,-1.164 -0.384,-0.36 -1.068,-0.36 -0.66,0 -1.056,0.42 -0.384,0.42 -0.384,1.164 v 1.8 q 0,0.744 0.384,1.164 0.396,0.42 1.056,0.42 z M 82.259966,0 v -5.616 h -2.4 V -6.6 h 5.88 v 0.984 h -2.4 V 0 Z m 5.243997,2.16 V -6.6 h 1.08 v 1.26 h 0.012 q 0.084,-0.648 0.564,-1.008 0.48,-0.372 1.224,-0.372 0.996,0 1.584,0.66 0.588,0.648 0.588,1.788 v 1.932 q 0,1.14 -0.588,1.8 -0.588,0.66 -1.584,0.66 -0.744,0 -1.224,-0.372 -0.48,-0.372 -0.564,-1.008 h -0.036 l 0.024,1.5 v 1.92 z m 2.52,-2.976 q 0.684,0 1.068,-0.36 0.384,-0.36 0.384,-1.164 v -1.92 q 0,-0.816 -0.384,-1.164 -0.384,-0.36 -1.068,-0.36 -0.66,0 -1.056,0.42 -0.384,0.42 -0.384,1.164 v 1.8 q 0,0.744 0.384,1.164 0.396,0.42 1.056,0.42 z M 97.19996,0.12 q -1.164,0 -1.884,-0.696 -0.708,-0.708 -0.708,-1.944 v -1.56 q 0,-1.236 0.708,-1.932 0.72,-0.708 1.884,-0.708 0.78,0 1.356,0.312 0.588,0.312 0.912,0.876 0.324,0.564 0.324,1.332 v 1.176 h -4.128 V -2.4 q 0,0.732 0.42,1.164 0.42,0.42 1.116,0.42 0.6,0 0.984,-0.228 0.396,-0.24 0.48,-0.636 h 1.08 q -0.108,0.828 -0.804,1.32 -0.696,0.48 -1.74,0.48 z m -1.536,-3.984 h 3.072 V -4.2 q 0,-0.78 -0.408,-1.2 -0.396,-0.432 -1.128,-0.432 -0.732,0 -1.14,0.432 -0.396,0.42 -0.396,1.2 z m 8.196,3.864 v -5.616 h -2.4 V -6.6 h 5.88 v 0.984 h -2.4 V 0 Z m 7.16399,0.12 q -1.02,0 -1.62,-0.564 -0.6,-0.576 -0.6,-1.5 0,-0.612 0.276,-1.068 0.276,-0.456 0.768,-0.708 0.492,-0.264 1.128,-0.264 h 2.04 V -4.5 q 0,-1.284 -1.404,-1.284 -0.624,0 -1.008,0.228 -0.384,0.228 -0.408,0.636 h -1.08 q 0.06,-0.78 0.72,-1.284 0.672,-0.516 1.776,-0.516 1.2,0 1.836,0.576 0.648,0.576 0.648,1.608 V 0 h -1.068 v -1.2 h -0.024 q -0.096,0.612 -0.612,0.972 -0.516,0.348 -1.368,0.348 z m 0.264,-0.912 q 0.792,0 1.26,-0.384 0.468,-0.384 0.468,-1.044 v -0.924 h -1.92 q -0.528,0 -0.864,0.324 -0.324,0.312 -0.324,0.84 0,0.552 0.36,0.876 0.372,0.312 1.02,0.312 z M 123.50395,0 v -6.6 h 4.992 V 0 h -1.08 v -5.616 h -2.832 V 0 Z m 9.696,0.096 q -1.188,0 -1.896,-0.696 -0.696,-0.696 -0.696,-1.944 v -1.512 q 0,-1.26 0.696,-1.944 0.696,-0.696 1.896,-0.696 1.2,0 1.896,0.696 0.696,0.684 0.696,1.944 v 1.512 q 0,1.248 -0.708,1.944 -0.696,0.696 -1.884,0.696 z m 0,-0.96 q 0.708,0 1.104,-0.396 0.408,-0.396 0.408,-1.164 v -1.752 q 0,-0.768 -0.408,-1.164 -0.396,-0.396 -1.104,-0.396 -0.696,0 -1.104,0.396 -0.408,0.396 -0.408,1.164 v 1.752 q 0,0.768 0.408,1.164 0.408,0.396 1.104,0.396 z m 13.82399,0.984 q -1.02,0 -1.62,-0.564 -0.6,-0.576 -0.6,-1.5 0,-0.612 0.276,-1.068 0.276,-0.456 0.768,-0.708 0.492,-0.264 1.128,-0.264 h 2.04 V -4.5 q 0,-1.284 -1.404,-1.284 -0.624,0 -1.008,0.228 -0.384,0.228 -0.408,0.636 h -1.08 q 0.06,-0.78 0.72,-1.284 0.672,-0.516 1.776,-0.516 1.2,0 1.836,0.576 0.648,0.576 0.648,1.608 V 0 h -1.068 v -1.2 h -0.024 q -0.096,0.612 -0.612,0.972 -0.516,0.348 -1.368,0.348 z m 0.264,-0.912 q 0.792,0 1.26,-0.384 0.468,-0.384 0.468,-1.044 v -0.924 h -1.92 q -0.528,0 -0.864,0.324 -0.324,0.312 -0.324,0.84 0,0.552 0.36,0.876 0.372,0.312 1.02,0.312 z m 7.104,0.876 q -1.08,0 -1.716,-0.504 -0.636,-0.516 -0.636,-1.392 h 1.08 q 0,0.42 0.336,0.672 0.348,0.252 0.936,0.252 h 0.636 q 0.624,0 0.984,-0.264 0.36,-0.276 0.36,-0.744 0,-0.492 -0.36,-0.768 -0.36,-0.288 -0.984,-0.288 h -1.44 v -0.936 h 1.404 q 0.564,0 0.888,-0.252 0.336,-0.252 0.336,-0.684 0,-0.42 -0.324,-0.66 -0.324,-0.252 -0.888,-0.252 h -0.564 q -0.528,0 -0.852,0.204 -0.312,0.204 -0.336,0.552 h -1.08 q 0.024,-0.78 0.636,-1.236 0.612,-0.468 1.632,-0.468 h 0.564 q 1.08,0 1.704,0.444 0.636,0.444 0.636,1.272 0,0.552 -0.384,0.936 -0.372,0.372 -0.972,0.42 v 0.048 q 0.72,0.048 1.116,0.504 0.396,0.456 0.396,1.176 0,0.9 -0.672,1.44 -0.66,0.528 -1.8,0.528 z M 159.50393,0 v -6.6 h 1.032 v 3.552 q 0,0.516 -0.024,1.068 -0.012,0.552 -0.108,0.9 l 2.748,-5.52 h 1.344 V 0 h -1.032 v -3.564 q 0,-0.528 0.012,-1.08 0.024,-0.552 0.12,-0.9 L 160.84793,0 Z m 6.96,0 v -6.6 h 1.416 l 1.296,3.228 1.308,-3.228 h 1.452 V 0 h -1.032 v -1.02 q 0,-1.716 0.012,-2.964 0.024,-1.248 0.144,-2.088 l -1.404,3.492 h -0.984 l -1.32,-3.3 q 0.108,0.744 0.12,1.896 0.024,1.152 0.024,2.964 V 0 Z m 8.472,2.16 0.972,-2.568 -2.46,-6.192 h 1.164 l 1.56,4.08 q 0.096,0.24 0.18,0.504 0.084,0.264 0.12,0.456 0.036,-0.192 0.12,-0.456 0.084,-0.264 0.168,-0.504 l 1.452,-4.08 h 1.14 l -3.288,8.76 z M 183.05992,0 v -5.616 h -2.4 V -6.6 h 5.88 v 0.984 h -2.4 V 0 Z m 6.276,2.16 0.972,-2.568 -2.46,-6.192 h 1.164 l 1.56,4.08 q 0.096,0.24 0.18,0.504 0.084,0.264 0.12,0.456 0.036,-0.192 0.12,-0.456 0.084,-0.264 0.168,-0.504 l 1.452,-4.08 h 1.14 l -3.288,8.76 z"
       id="text32"
       clip-path="url(#clipPath33)"
       transform="matrix(0.70168096,0,0,0.70168096,28.315012,227.68284)"
       aria-label="Сечение портрета по азимуту" /><path
       style="font-size:12px;font-family:'JetBrains Mono'"
       d="m 1.104,0 v -6.6 h 1.032 v 3.552 q 0,0.516 -0.024,1.068 -0.012,0.552 -0.108,0.9 L 4.752,-6.6 H 6.096 V 0 H 5.064 v -3.564 q 0,-0.528 0.012,-1.08 0.024,-0.552 0.12,-0.9 L 2.448,0 Z m 13.619994,1.68 v -2.64 h 0.504 q 0.156,-0.144 0.3,-0.432 0.156,-0.3 0.264,-0.828 0.108,-0.528 0.12,-1.392 l 0.048,-2.988 h 4.38 v 5.64 h 0.9 v 2.64 h -0.96 V 0 h -4.596 v 1.68 z m 1.584,-2.64 h 2.952 v -4.704 h -2.28 l -0.024,2.076 q -0.012,0.852 -0.108,1.38 -0.096,0.528 -0.24,0.828 -0.132,0.288 -0.3,0.42 z m 8.315997,1.08 q -1.02,0 -1.62,-0.564 -0.6,-0.576 -0.6,-1.5 0,-0.612 0.276,-1.068 0.276,-0.456 0.768,-0.708 0.492,-0.264 1.128,-0.264 h 2.04 V -4.5 q 0,-1.284 -1.404,-1.284 -0.624,0 -1.008,0.228 -0.384,0.228 -0.408,0.636 h -1.08 q 0.06,-0.78 0.72,-1.284 0.672,-0.516 1.776,-0.516 1.2,0 1.836,0.576 0.648,0.576 0.648,1.608 V 0 h -1.068 v -1.2 h -0.024 q -0.096,0.612 -0.612,0.972 -0.516,0.348 -1.368,0.348 z m 0.264,-0.912 q 0.792,0 1.26,-0.384 0.468,-0.384 0.468,-1.044 v -0.924 h -1.92 q -0.528,0 -0.864,0.324 -0.324,0.312 -0.324,0.84 0,0.552 0.36,0.876 0.372,0.312 1.02,0.312 z m 4.211997,0.876 v -1.008 h 0.18 q 0.552,0 0.768,-0.432 0.228,-0.432 0.24,-1.548 l 0.072,-3.696 h 4.536 V 0 h -1.08 v -5.616 h -2.388 l -0.06,2.76 q -0.036,1.572 -0.504,2.256 -0.468,0.684 -1.524,0.684 z M 37.259985,0 v -6.6 h 1.08 v 2.424 h 1.884 q 1.116,0 1.752,0.564 0.648,0.552 0.648,1.524 0,0.96 -0.648,1.524 -0.648,0.564 -1.752,0.564 z m 1.08,-0.984 h 1.884 q 0.624,0 0.948,-0.276 0.336,-0.288 0.336,-0.828 0,-0.54 -0.336,-0.816 -0.324,-0.288 -0.948,-0.288 h -1.884 z M 44.303982,0 v -6.6 h 1.08 v 2.724 h 2.832 V -6.6 h 1.08 V 0 h -1.08 v -2.892 h -2.832 V 0 Z m 9.695997,0.096 q -1.188,0 -1.896,-0.696 -0.696,-0.696 -0.696,-1.944 v -1.512 q 0,-1.26 0.696,-1.944 0.696,-0.696 1.896,-0.696 1.2,0 1.896,0.696 0.696,0.684 0.696,1.944 v 1.512 q 0,1.248 -0.708,1.944 -0.696,0.696 -1.884,0.696 z m 0,-0.96 q 0.708,0 1.104,-0.396 0.408,-0.396 0.408,-1.164 v -1.752 q 0,-0.768 -0.408,-1.164 -0.396,-0.396 -1.104,-0.396 -0.696,0 -1.104,0.396 -0.408,0.396 -0.408,1.164 v 1.752 q 0,0.768 0.408,1.164 0.408,0.396 1.104,0.396 z m 7.295997,0.984 q -1.2,0 -1.92,-0.672 -0.72,-0.672 -0.72,-1.848 v -1.8 q 0,-1.176 0.72,-1.848 0.72,-0.672 1.92,-0.672 1.14,0 1.836,0.612 0.708,0.612 0.744,1.668 h -1.08 q -0.036,-0.636 -0.432,-0.972 -0.396,-0.348 -1.068,-0.348 -0.708,0 -1.14,0.408 -0.42,0.396 -0.42,1.14 V -2.4 q 0,0.744 0.42,1.152 0.432,0.408 1.14,0.408 0.672,0 1.068,-0.348 0.396,-0.348 0.432,-0.972 h 1.08 q -0.036,1.056 -0.744,1.668 -0.696,0.612 -1.836,0.612 z M 67.859973,0 v -5.616 h -2.4 V -6.6 h 5.88 v 0.984 h -2.4 V 0 Z m 5.243996,0 v -6.6 h 1.032 v 3.552 q 0,0.516 -0.024,1.068 -0.012,0.552 -0.108,0.9 l 2.748,-5.52 h 1.344 V 0 h -1.032 v -3.564 q 0,-0.528 0.012,-1.08 0.024,-0.552 0.12,-0.9 L 74.447969,0 Z"
       id="text33"
       clip-path="url(#clipPath34)"
       transform="matrix(0.70168096,0,0,0.70168096,68.72745,238.20805)"
       aria-label="и дальности" /><path
       id="path35"
       d="m 200,520 20,-40 h 180 l -20,40 z"
       style="fill:#ffffff;fill-opacity:1;fill-rule:nonzero;stroke:#000000;stroke-width:1;stroke-linecap:butt;stroke-linejoin:miter;stroke-miterlimit:10;stroke-dasharray:none;stroke-opacity:1"
       transform="matrix(0.70168096,0,0,0.70168096,-113.63286,-64.567284)"
       clip-path="url(#clipPath36)" /><path
       style="font-size:12px;font-family:'JetBrains Mono'"
       d="M 1.128,0 V -8.76 H 6.072 V 0 H 4.992 V -7.776 H 2.208 V 0 Z m 9.095997,0.12 q -1.0200001,0 -1.6200001,-0.564 -0.6,-0.576 -0.6,-1.5 0,-0.612 0.276,-1.068 0.276,-0.456 0.768,-0.708 0.492,-0.264 1.1280001,-0.264 h 2.04 V -4.5 q 0,-1.284 -1.404,-1.284 -0.624,0 -1.0080001,0.228 -0.384,0.228 -0.408,0.636 h -1.08 q 0.06,-0.78 0.72,-1.284 0.672,-0.516 1.7760001,-0.516 1.2,0 1.836,0.576 0.648,0.576 0.648,1.608 V 0 h -1.068 v -1.2 h -0.024 q -0.096,0.612 -0.612,0.972 -0.516,0.348 -1.368,0.348 z m 0.264,-0.912 q 0.792,0 1.26,-0.384 0.468,-0.384 0.468,-1.044 v -0.924 h -1.92 q -0.5280001,0 -0.8640001,0.324 -0.324,0.312 -0.324,0.84 0,0.552 0.36,0.876 0.372,0.312 1.0200001,0.312 z M 15.503994,2.16 V -6.6 h 1.08 v 1.26 h 0.012 q 0.084,-0.648 0.564,-1.008 0.48,-0.372 1.224,-0.372 0.996,0 1.584,0.66 0.588,0.648 0.588,1.788 v 1.932 q 0,1.14 -0.588,1.8 -0.588,0.66 -1.584,0.66 -0.744,0 -1.224,-0.372 -0.48,-0.372 -0.564,-1.008 h -0.036 l 0.024,1.5 v 1.92 z m 2.52,-2.976 q 0.684,0 1.068,-0.36 0.384,-0.36 0.384,-1.164 v -1.92 q 0,-0.816 -0.384,-1.164 -0.384,-0.36 -1.068,-0.36 -0.66,0 -1.056,0.42 -0.384,0.42 -0.384,1.164 v 1.8 q 0,0.744 0.384,1.164 0.396,0.42 1.056,0.42 z m 6.599997,0.936 q -1.02,0 -1.62,-0.564 -0.6,-0.576 -0.6,-1.5 0,-0.612 0.276,-1.068 0.276,-0.456 0.768,-0.708 0.492,-0.264 1.128,-0.264 h 2.04 V -4.5 q 0,-1.284 -1.404,-1.284 -0.624,0 -1.008,0.228 -0.384,0.228 -0.408,0.636 h -1.08 q 0.06,-0.78 0.72,-1.284 0.672,-0.516 1.776,-0.516 1.2,0 1.836,0.576 0.648,0.576 0.648,1.608 V 0 h -1.068 v -1.2 h -0.024 q -0.096,0.612 -0.612,0.972 -0.516,0.348 -1.368,0.348 z m 0.264,-0.912 q 0.792,0 1.26,-0.384 0.468,-0.384 0.468,-1.044 v -0.924 h -1.92 q -0.528,0 -0.864,0.324 -0.324,0.312 -0.324,0.84 0,0.552 0.36,0.876 0.372,0.312 1.02,0.312 z M 29.663988,0 v -6.6 h 1.416 l 1.296,3.228 1.308,-3.228 h 1.452 V 0 h -1.032 v -1.02 q 0,-1.716 0.012,-2.964 0.024,-1.248 0.144,-2.088 l -1.404,3.492 h -0.984 l -1.32,-3.3 q 0.108,0.744 0.12,1.896 0.024,1.152 0.024,2.964 V 0 Z m 9.935997,0.12 q -1.164,0 -1.884,-0.696 -0.708,-0.708 -0.708,-1.944 v -1.56 q 0,-1.236 0.708,-1.932 0.72,-0.708 1.884,-0.708 0.78,0 1.356,0.312 0.588,0.312 0.912,0.876 0.324,0.564 0.324,1.332 v 1.176 h -4.128 V -2.4 q 0,0.732 0.42,1.164 0.42,0.42 1.116,0.42 0.6,0 0.984,-0.228 0.396,-0.24 0.48,-0.636 h 1.08 q -0.108,0.828 -0.804,1.32 -0.696,0.48 -1.74,0.48 z m -1.536,-3.984 h 3.072 V -4.2 q 0,-0.78 -0.408,-1.2 -0.396,-0.432 -1.128,-0.432 -0.732,0 -1.14,0.432 -0.396,0.42 -0.396,1.2 z M 46.259982,0 v -5.616 h -2.4 V -6.6 h 5.88 v 0.984 h -2.4 V 0 Z m 5.243997,2.16 V -6.6 h 1.08 v 1.26 h 0.012 q 0.084,-0.648 0.564,-1.008 0.48,-0.372 1.224,-0.372 0.996,0 1.584,0.66 0.588,0.648 0.588,1.788 v 1.932 q 0,1.14 -0.588,1.8 -0.588,0.66 -1.584,0.66 -0.744,0 -1.224,-0.372 -0.48,-0.372 -0.564,-1.008 h -0.036 l 0.024,1.5 v 1.92 z m 2.52,-2.976 q 0.684,0 1.068,-0.36 0.384,-0.36 0.384,-1.164 v -1.92 q 0,-0.816 -0.384,-1.164 -0.384,-0.36 -1.068,-0.36 -0.66,0 -1.056,0.42 -0.384,0.42 -0.384,1.164 v 1.8 q 0,0.744 0.384,1.164 0.396,0.42 1.056,0.42 z M 58.319976,0 v -6.6 h 1.008 v 2.424 h 0.66 q 1.068,0 1.68,0.564 0.624,0.564 0.624,1.524 0,0.96 -0.624,1.524 -0.612,0.564 -1.68,0.564 z m 4.752,0 v -6.6 h 1.008 V 0 Z m -3.744,-0.864 h 0.66 q 0.624,0 0.984,-0.324 0.36,-0.336 0.36,-0.9 0,-0.564 -0.36,-0.888 -0.36,-0.336 -0.984,-0.336 h -0.66 z M 75.059969,2.16 V 0 q -0.732,-0.024 -1.296,-0.348 -0.564,-0.324 -0.876,-0.888 -0.312,-0.576 -0.312,-1.308 V -4.08 q 0,-0.732 0.312,-1.296 0.312,-0.564 0.876,-0.888 0.564,-0.324 1.296,-0.336 v -2.16 h 1.08 v 2.16 q 0.744,0.012 1.296,0.336 0.564,0.324 0.876,0.888 0.312,0.564 0.312,1.296 v 1.536 q 0,0.732 -0.312,1.308 -0.312,0.564 -0.876,0.888 -0.552,0.324 -1.296,0.348 v 2.16 z m 0.084,-3.012 v -4.896 q -0.72,0 -1.14,0.42 -0.408,0.42 -0.408,1.128 v 1.776 q 0,0.72 0.408,1.152 0.42,0.42 1.14,0.42 z m 0.912,0 q 0.72,0 1.128,-0.42 0.42,-0.432 0.42,-1.152 V -4.2 q 0,-0.708 -0.42,-1.128 -0.408,-0.42 -1.128,-0.42 z m 5.279997,3.012 0.972,-2.568 -2.46,-6.192 h 1.164 l 1.56,4.08 q 0.096,0.24 0.18,0.504 0.084,0.264 0.12,0.456 0.036,-0.192 0.12,-0.456 0.084,-0.264 0.168,-0.504 l 1.452,-4.08 h 1.14 l -3.288,8.76 z M 87.503963,0 v -6.6 h 1.08 v 2.724 h 2.832 V -6.6 h 1.08 V 0 h -1.08 v -2.892 h -2.832 V 0 Z m 7.331997,0 v -6.6 h 1.08 v 2.724 h 1.284 l 1.824,-2.724 h 1.236 l -2.136,3.168 2.256,3.432 h -1.26 l -1.908,-2.892 h -1.296 V 0 Z m 11.844,1.68 V 0 h -4.776 v -6.6 h 1.08 v 5.64 h 2.676 V -6.6 h 1.08 v 5.64 h 0.9 V 1.68 Z M 109.10395,0 v -6.6 h 1.032 v 3.552 q 0,0.516 -0.024,1.068 -0.012,0.552 -0.108,0.9 l 2.748,-5.52 h 1.344 V 0 h -1.032 v -3.564 q 0,-0.528 0.012,-1.08 0.024,-0.552 0.12,-0.9 L 110.44795,0 Z m 7.2,0 v -6.6 h 1.032 v 3.552 q 0,0.516 -0.024,1.068 -0.012,0.552 -0.108,0.9 l 2.748,-5.52 h 1.344 V 0 h -1.032 v -3.564 q 0,-0.528 0.012,-1.08 0.024,-0.552 0.12,-0.9 L 117.64795,0 Z"
       id="text36"
       clip-path="url(#clipPath37)"
       transform="matrix(0.70168096,0,0,0.70168096,53.575527,283.81732)"
       aria-label="Параметры функции" /><path
       style="font-size:12px;font-family:'JetBrains Mono'"
       d="M 3.6,0.096 Q 2.412,0.096 1.704,-0.6 1.008,-1.296 1.008,-2.544 V -4.056 Q 1.008,-5.316 1.704,-6 2.4,-6.696 3.6,-6.696 q 1.2,0 1.896,0.696 0.696,0.684 0.696,1.944 v 1.512 q 0,1.248 -0.708,1.944 Q 4.788,0.096 3.6,0.096 Z m 0,-0.96 q 0.708,0 1.104,-0.396 0.408,-0.396 0.408,-1.164 v -1.752 q 0,-0.768 -0.408,-1.164 -0.396,-0.396 -1.104,-0.396 -0.696,0 -1.104,0.396 -0.408,0.396 -0.408,1.164 v 1.752 q 0,0.768 0.408,1.164 0.408,0.396 1.104,0.396 z M 10.259997,0 V -5.616 H 7.8599969 V -6.6 h 5.8800001 v 0.984 h -2.4 V 0 Z m 5.375997,0 v -6.6 h 1.08 v 2.724 h 1.284 l 1.824,-2.724 h 1.236 l -2.136,3.168 2.256,3.432 h -1.26 l -1.908,-2.892 h -1.296 V 0 Z m 6.263997,0.084 v -1.008 h 0.18 q 0.552,0 0.768,-0.432 0.228,-0.432 0.24,-1.548 l 0.072,-3.696 h 4.536 V 0 h -1.08 v -5.616 h -2.388 l -0.06,2.76 q -0.036,1.572 -0.504,2.256 -0.468,0.684 -1.524,0.684 z M 29.903988,0 v -6.6 h 1.032 v 3.552 q 0,0.516 -0.024,1.068 -0.012,0.552 -0.108,0.9 l 2.748,-5.52 h 1.344 V 0 h -1.032 v -3.564 q 0,-0.528 0.012,-1.08 0.024,-0.552 0.12,-0.9 L 31.247988,0 Z m 7.331997,0 v -6.6 h 1.08 v 2.724 h 1.284 l 1.824,-2.724 h 1.236 l -2.136,3.168 2.256,3.432 h -1.26 l -1.908,-2.892 h -1.296 V 0 Z m 8.987997,0.12 q -1.02,0 -1.62,-0.564 -0.6,-0.576 -0.6,-1.5 0,-0.612 0.276,-1.068 0.276,-0.456 0.768,-0.708 0.492,-0.264 1.128,-0.264 h 2.04 V -4.5 q 0,-1.284 -1.404,-1.284 -0.624,0 -1.008,0.228 -0.384,0.228 -0.408,0.636 h -1.08 q 0.06,-0.78 0.72,-1.284 0.672,-0.516 1.776,-0.516 1.2,0 1.836,0.576 0.648,0.576 0.648,1.608 V 0 h -1.068 v -1.2 h -0.024 q -0.096,0.612 -0.612,0.972 -0.516,0.348 -1.368,0.348 z m 0.264,-0.912 q 0.792,0 1.26,-0.384 0.468,-0.384 0.468,-1.044 v -0.924 h -1.92 q -0.528,0 -0.864,0.324 -0.324,0.312 -0.324,0.84 0,0.552 0.36,0.876 0.372,0.312 1.02,0.312 z M 63.479976,1.68 V 0 h -4.776 v -6.6 h 1.08 v 5.64 h 2.676 V -6.6 h 1.08 v 5.64 h 0.9 v 2.64 z m 4.919997,-1.56 q -1.164,0 -1.884,-0.696 -0.708,-0.708 -0.708,-1.944 v -1.56 q 0,-1.236 0.708,-1.932 0.72,-0.708 1.884,-0.708 0.78,0 1.356,0.312 0.588,0.312 0.912,0.876 0.324,0.564 0.324,1.332 v 1.176 h -4.128 V -2.4 q 0,0.732 0.42,1.164 0.42,0.42 1.116,0.42 0.6,0 0.984,-0.228 0.396,-0.24 0.48,-0.636 h 1.08 q -0.108,0.828 -0.804,1.32 -0.696,0.48 -1.74,0.48 z m -1.536,-3.984 h 3.072 V -4.2 q 0,-0.78 -0.408,-1.2 -0.396,-0.432 -1.128,-0.432 -0.732,0 -1.14,0.432 -0.396,0.42 -0.396,1.2 z m 5.435996,3.948 v -1.008 h 0.18 q 0.552,0 0.768,-0.432 0.228,-0.432 0.24,-1.548 l 0.072,-3.696 h 4.536 V 0 h -1.08 v -5.616 h -2.388 l -0.06,2.76 q -0.036,1.572 -0.504,2.256 -0.468,0.684 -1.524,0.684 z M 80.303966,0 v -6.6 h 1.032 v 3.552 q 0,0.516 -0.024,1.068 -0.012,0.552 -0.108,0.9 l 2.748,-5.52 h 1.344 V 0 h -1.032 v -3.564 q 0,-0.528 0.012,-1.08 0.024,-0.552 0.12,-0.9 L 81.647966,0 Z"
       id="text37"
       clip-path="url(#clipPath38)"
       transform="matrix(0.70168096,0,0,0.70168096,66.205784,294.34253)"
       aria-label="отклика цели" /></g></svg>
